<svg width="101" height="141" viewBox="0 0 101 141" fill="none" xmlns="http://www.w3.org/2000/svg">
<path d="M4.5736 3.05176e-05H96.261C98.7869 3.05176e-05 100.835 2.0477 100.835 4.57363V135.922C100.835 138.448 98.7869 140.496 96.261 140.496H4.5736C2.04767 140.496 -3.8147e-06 138.448 -3.8147e-06 135.922V4.57363C-3.8147e-06 2.0477 2.04767 3.05176e-05 4.5736 3.05176e-05Z" fill="#8B93BC"/>
<path d="M1.45963 135.922L1.45963 4.57361C1.45963 2.81544 2.8849 1.39017 4.64307 1.39017L96.3305 1.39017C98.0886 1.39017 99.5139 2.81544 99.5139 4.57361L99.5139 135.922C99.5139 137.68 98.0886 139.105 96.3305 139.105H4.64307C2.8849 139.105 1.45963 137.68 1.45963 135.922Z" fill="white"/>
<path d="M6.87434 135.978H94.0924C94.6995 135.978 95.2819 135.737 95.7119 135.308C96.1418 134.88 96.3843 134.298 96.3861 133.691V6.81178C96.3861 6.51057 96.3268 6.2123 96.2115 5.934C96.0963 5.65571 95.9273 5.40285 95.7143 5.18986C95.2842 4.7597 94.7007 4.51804 94.0924 4.51804H6.87434C6.57345 4.51803 6.27551 4.57741 5.99761 4.69277C5.71971 4.80813 5.46731 4.97719 5.25487 5.19028C5.04243 5.40336 4.87413 5.65628 4.75961 5.93453C4.6451 6.21278 4.58662 6.51089 4.58754 6.81178V133.691C4.58754 134.297 4.82847 134.879 5.25733 135.308C5.68618 135.737 6.26785 135.978 6.87434 135.978ZM94.0924 5.21311C94.3023 5.21311 94.5102 5.25446 94.7042 5.3348C94.8981 5.41514 95.0744 5.5329 95.2228 5.68135C95.3713 5.8298 95.489 6.00604 95.5694 6.2C95.6497 6.39396 95.6911 6.60184 95.6911 6.81178V133.691C95.6892 134.114 95.52 134.518 95.2204 134.817C94.9208 135.115 94.5152 135.283 94.0924 135.283H6.87434C6.45275 135.281 6.04895 135.112 5.75084 134.814C5.45272 134.516 5.28444 134.112 5.28261 133.691V6.81178C5.28261 6.38899 5.45009 5.98341 5.74839 5.6838C6.0467 5.38419 6.45155 5.21495 6.87434 5.21311H94.0924Z" fill="#D83A51"/>
<path d="M6.32527 133.684L6.32527 6.81177C6.32527 6.50466 6.57423 6.25571 6.88133 6.25571L94.0924 6.25571C94.3995 6.25571 94.6485 6.50466 94.6485 6.81177L94.6485 133.684C94.6485 133.991 94.3995 134.24 94.0924 134.24H6.88133C6.57423 134.24 6.32527 133.991 6.32527 133.684Z" fill="#D83A51"/>
<path d="M10.4956 130.069L10.4956 10.4262L90.478 10.4262L90.478 130.069H10.4956Z" fill="white"/>
<path d="M11.8858 128.777L11.8858 11.9137L89.0878 11.9137L89.0878 128.777H11.8858Z" fill="#D83A51"/>
<mask id="mask0_64_2549" style="mask-type:luminance" maskUnits="userSpaceOnUse" x="11" y="11" width="79" height="118">
<path d="M11.886 128.777L11.886 11.9137L89.088 11.9137L89.088 128.777H11.886Z" fill="white"/>
</mask>
<g mask="url(#mask0_64_2549)">
<path d="M82.6518 13.846L79.9827 16.8487L79.4683 17.4256L78.947 16.8487L76.264 13.846L76.4656 17.8913L76.5073 18.6629L75.7358 18.6212L71.7182 18.4196L74.7001 21.1443L75.2631 21.6586L74.7001 22.173L71.7043 24.8977L75.7219 24.6892L76.5073 24.6475L76.4656 25.419L76.264 29.4643L78.947 26.4616L79.4683 25.8847L79.9827 26.4616L82.6657 29.4643L82.4641 25.419L82.4224 24.6475L83.1939 24.6892L87.2115 24.8977L84.2226 22.173L83.6527 21.6586L84.2226 21.1443L87.2115 18.4196L83.1939 18.6212L82.4224 18.6629L82.4641 17.8913L82.6657 13.846M75.4647 11.9206L79.4683 16.383L83.4581 11.9206L83.1522 17.9261L89.109 17.6202L84.6814 21.6586L89.1021 25.7179L83.1453 25.412L83.4581 31.3966L79.4614 26.9273L75.4577 31.3966L75.7636 25.3842L69.8068 25.6901L74.2344 21.6586L69.8068 17.6202L75.7636 17.9261L75.4577 11.9206H75.4647Z" fill="white"/>
<path d="M79.4544 23.7995L81.067 25.6067L80.9488 23.1808L83.3885 23.306L81.5813 21.6586L83.3885 20.0043L80.9488 20.1295L81.067 17.7036L79.4544 19.5108L77.8349 17.7036L77.96 20.1295L75.5133 20.0043L77.3275 21.6586L75.5133 23.306L77.96 23.1808L77.8349 25.6067L79.4544 23.7995Z" fill="#FF698D"/>
<path d="M63.3565 13.846L60.6665 16.8487L60.1522 17.4256L59.6308 16.8487L56.9479 13.846L57.1494 17.8913L57.1911 18.6629L56.4196 18.6212L52.4021 18.4196L55.3978 21.1443L55.9609 21.6586L55.3978 22.173L52.4021 24.8977L56.4196 24.6892L57.1911 24.6475L57.1494 25.419L56.9479 29.4643L59.6308 26.4616L60.1522 25.8847L60.6665 26.4616L63.3565 29.4643L63.1479 25.419L63.1132 24.6475L63.8778 24.6892L67.8953 24.8977L64.9065 22.173L64.3435 21.6586L64.9065 21.1443L67.8953 18.4196L63.8778 18.6212L63.1132 18.6629L63.1479 17.8913L63.3565 13.846ZM56.1555 11.9206L60.1522 16.383L64.1488 11.9206L63.843 17.9261L69.7998 17.6202L65.3861 21.6586L69.7998 25.7179L63.843 25.412L64.1488 31.4244L60.1522 26.9551L56.1555 31.4244L56.4613 25.412L50.4976 25.7179L54.9252 21.6864L50.4976 17.648L56.4613 17.9539L56.1555 11.9484V11.9206Z" fill="white"/>
<path d="M60.1522 23.7995L61.7648 25.6067L61.6466 23.1808L64.0933 23.306L62.2791 21.6586L64.0933 20.0043L61.6466 20.1295L61.7648 17.7036L60.1522 19.5108L58.5327 17.7036L58.6578 20.1295L56.2111 20.0043L58.0253 21.6586L56.2111 23.306L58.6578 23.1808L58.5327 25.6067L60.1522 23.7995Z" fill="#FF698D"/>
<path d="M44.0541 13.846L41.3711 16.8487L40.8498 17.4256L40.3354 16.8487L37.6455 13.846L37.854 17.8913V18.6629L37.0894 18.6212L33.0719 18.4196L36.0607 21.1443L36.6237 21.6586L36.0607 22.173L33.0719 24.8977L37.0894 24.6892L37.854 24.6475V25.419L37.6455 29.4643L40.3633 26.4616L40.8776 25.8847L41.3989 26.4616L44.0819 29.4643L43.8734 25.419L43.8386 24.6475L44.6102 24.6892L48.6277 24.8977L45.6319 22.173L45.0689 21.6586L45.6319 21.1443L48.5999 18.4196L44.5824 18.6212L43.8108 18.6629L43.8386 17.8913L44.0472 13.846M36.8462 11.9206L40.8498 16.383L44.8465 11.9206L44.5337 17.9261L50.4905 17.6202L46.0629 21.6586L50.4975 25.7179L44.5337 25.3842L44.8395 31.3966L40.8429 26.9273L36.8462 31.3966L37.152 25.3842L31.1952 25.6901L35.6228 21.6586L31.1952 17.6202L37.152 17.9261L36.8462 11.9206Z" fill="white"/>
<path d="M40.8499 23.7995L42.4694 25.6067L42.3443 23.1808L44.7909 23.306L42.9768 21.6586L44.7909 20.0043L42.3443 20.1295L42.4694 17.7036L40.8499 19.5108L39.2303 17.7036L39.3555 20.1295L36.9088 20.0043L38.7229 21.6586L36.9088 23.306L39.3555 23.1808L39.2303 25.6067L40.8499 23.7995Z" fill="#FF698D"/>
<path d="M18.3433 13.846L18.5518 17.8913V18.6629L17.7873 18.6212L13.7697 18.4196L16.7585 21.1443L17.3216 21.6586L16.7585 22.173L13.7697 24.8977L17.7873 24.6892L18.5518 24.6475V25.419L18.3433 29.4643L21.0333 26.4616L21.5476 25.8847L22.0689 26.4616L24.7519 29.4643L24.5503 25.419L24.5086 24.6475L25.2802 24.6892L29.2977 24.8977L26.3019 22.173L25.7389 21.6586L26.3019 21.1443L29.2977 18.4196L25.2802 18.6212L24.5086 18.6629L24.5503 17.8913L24.7519 13.846L22.0689 16.8487L21.5476 17.4256L21.0333 16.8487L18.3433 13.846ZM17.5509 11.9206L21.5476 16.383L25.5443 11.9206L25.2454 17.9261L31.2022 17.6202L26.7746 21.6586L31.2022 25.7179L25.2454 25.412L25.5443 31.4244L21.5476 26.9551L17.5509 31.4244L17.8568 25.412L11.8652 25.7179L16.2928 21.6864L11.8652 17.6202L17.822 17.9261L17.5162 11.9206H17.5509Z" fill="white"/>
<path d="M21.5475 23.7995L23.1671 25.6067L23.0419 23.1808L25.4886 23.306L23.6745 21.6586L25.4886 20.0043L23.0419 20.1295L23.1671 17.7036L21.5475 19.5108L19.935 17.7036L20.0531 20.1295L17.6134 20.0043L19.4206 21.6586L17.6134 23.306L20.0531 23.1808L19.935 25.6067L21.5475 23.7995Z" fill="#FF698D"/>
<path d="M82.6518 33.322L79.9827 36.3247L79.4683 36.9086L78.947 36.3247L76.264 33.322L76.4656 37.3743L76.5073 38.1389H75.7358L71.7182 37.9303L74.7001 40.6203L75.2631 41.1346L74.7001 41.649L71.7043 44.3737L75.7219 44.1652L76.5073 44.1235L76.4656 44.895L76.264 48.9403L78.947 45.9376L79.4683 45.3607L79.9827 45.9376L82.6657 48.9403L82.4641 44.895L82.4224 44.1235L83.1939 44.1652L87.2115 44.3737L84.2226 41.649L83.6527 41.1346L84.2226 40.6203L87.2115 37.8956L83.1939 38.1041H82.4224L82.4641 37.3395L82.6657 33.2872M75.4647 31.3619L79.4544 35.866L83.4581 31.3966L83.1522 37.409L89.109 37.0962L84.6814 41.1346L89.1021 45.18L83.1453 44.8741L83.4581 50.8726L79.4614 46.4033L75.4577 50.8726L75.7636 44.8602L69.8068 45.1661L74.2344 41.1346L69.8068 37.0962L75.7636 37.409L75.4577 31.3966L75.4647 31.3619Z" fill="white"/>
<path d="M79.4544 43.2755L81.067 45.0827L80.9488 42.6569L83.3885 42.782L81.5813 41.1346L83.3885 39.4804L80.9488 39.6055L81.067 37.1866L79.4544 38.9938L77.8349 37.1866L77.96 39.6055L75.5133 39.4804L77.3275 41.1346L75.5133 42.782L77.96 42.6569L77.8349 45.0827L79.4544 43.2755Z" fill="#FF698D"/>
<path d="M63.3565 33.322L60.6665 36.3248L60.1522 36.9086L59.6308 36.3248L56.9479 33.322L57.1494 37.3743L57.1911 38.1389H56.4196L52.4021 37.9304L55.3978 40.6551L55.9609 41.1694L55.3978 41.6838L52.4021 44.4085L56.4196 44.2L57.1911 44.1582L57.1494 44.9298L56.9479 48.9751L59.6308 45.9724L60.1522 45.3955L60.6665 45.9724L63.3565 48.9751L63.1479 44.9298L63.1132 44.1582L63.8778 44.2L67.8953 44.4085L64.9065 41.6838L64.3435 41.1694L64.9065 40.6551L67.8953 37.9304L63.8778 38.1389H63.1132L63.1479 37.3743L63.3565 33.322ZM56.1555 31.3967L60.1522 35.866L64.1488 31.3967L63.843 37.4091L69.7998 37.0963L65.3861 41.1347L69.7998 45.18L63.843 44.8742L64.1488 50.8866L60.1522 46.4172L56.1555 50.8866L56.4613 44.8742L50.4976 45.18L54.9252 41.1486L50.4976 37.1102L56.4613 37.423L56.1555 31.4106V31.3967Z" fill="white"/>
<path d="M60.1522 43.2755L61.7648 45.0827L61.6466 42.6569L64.0933 42.782L62.2791 41.1346L64.0933 39.4804L61.6466 39.6055L61.7648 37.1866L60.1522 38.9938L58.5327 37.1866L58.6578 39.6055L56.2111 39.4804L58.0253 41.1346L56.2111 42.782L58.6578 42.6569L58.5327 45.0827L60.1522 43.2755Z" fill="#FF698D"/>
<path d="M44.0541 33.322L41.3711 36.3248L40.8498 36.9086L40.3354 36.3248L37.6455 33.322L37.854 37.3743V38.1389H37.0894L33.0719 37.9304L36.0607 40.6551L36.6237 41.1694L36.0607 41.6838L33.0719 44.4085L37.0894 44.2L37.854 44.1583V44.9298L37.6455 48.9751L40.3633 45.9376L40.8776 45.3607L41.3989 45.9376L44.0819 48.9404L43.8734 44.895L43.8386 44.1235L44.6102 44.1652L48.6277 44.3737L45.6319 41.649L45.0689 41.1347L45.6319 40.6203L48.6277 37.8956L44.6102 38.1041H43.8386V37.3743L44.0472 33.322M36.8462 31.3967L40.8498 35.866L44.8465 31.3967L44.5337 37.4091L50.4905 37.0963L46.0629 41.1347L50.4975 45.18L44.5337 44.8603L44.8395 50.8727L40.8429 46.4033L36.8462 50.8727L37.152 44.8603L31.1952 45.1661L35.6228 41.1347L31.1952 37.0963L37.152 37.4091L36.8462 31.3967Z" fill="white"/>
<path d="M40.8499 43.2755L42.4694 45.0827L42.3443 42.6569L44.7909 42.782L42.9768 41.1346L44.7909 39.4804L42.3443 39.6055L42.4694 37.1866L40.8499 38.9938L39.2303 37.1866L39.3555 39.6055L36.9088 39.4804L38.7229 41.1346L36.9088 42.782L39.3555 42.6569L39.2303 45.0827L40.8499 43.2755Z" fill="#FF698D"/>
<path d="M18.3433 33.322L18.5518 37.3743V38.1389H17.7873L13.7697 37.9304L16.7585 40.6551L17.3216 41.1694L16.7585 41.6838L13.7697 44.4085L17.7873 44.2L18.5518 44.1582V44.9298L18.3433 48.9751L21.0333 45.9724L21.5476 45.3955L22.0689 45.9724L24.7519 48.9751L24.5503 44.9298L24.5086 44.1582L25.2802 44.2L29.2977 44.4085L26.3019 41.6838L25.7389 41.1694L26.3019 40.6551L29.2977 37.9304L25.2802 38.1389H24.5086L24.5503 37.3743L24.7519 33.322L22.0689 36.3248L21.5476 36.9086L21.0333 36.3248L18.3433 33.322ZM17.5509 31.3967L21.5476 35.866L25.5443 31.3967L25.2454 37.4091L31.2022 37.0963L26.7746 41.1347L31.2022 45.18L25.2454 44.8742L25.5443 50.8866L21.5476 46.4172L17.5509 50.8866L17.8568 44.8742L11.8652 45.18L16.2928 41.1486L11.8652 37.0963L17.822 37.4091L17.5162 31.3967H17.5509Z" fill="white"/>
<path d="M21.5475 43.2755L23.1671 45.0827L23.0419 42.6569L25.4886 42.782L23.6745 41.1346L25.4886 39.4804L23.0419 39.6055L23.1671 37.1866L21.5475 38.9938L19.935 37.1866L20.0531 39.6055L17.6134 39.4804L19.4206 41.1346L17.6134 42.782L20.0531 42.6569L19.935 45.0827L21.5475 43.2755Z" fill="#FF698D"/>
<path d="M82.6518 52.8258L79.9827 55.8007L79.4683 56.3846L78.947 55.8007L76.2501 52.8258L76.4517 56.8711L76.5073 57.6148H75.7358L71.7182 57.4063L74.7001 60.0963L75.2631 60.6106L74.7001 61.125L71.7043 63.8497L75.7219 63.6411H76.4934L76.4517 64.4057L76.2501 68.458L78.9331 65.4553L79.4544 64.8714L79.9688 65.4553L82.6518 68.458L82.4502 64.4057L82.4085 63.6411H83.18L87.1976 63.8497L84.2087 61.125L83.6388 60.6106L84.2087 60.0963L87.1976 57.3716L83.18 57.5801H82.4085L82.4502 56.8155L82.6518 52.8258ZM75.4508 50.8935L79.4544 55.3628L83.4581 50.8726L83.1522 56.885L89.109 56.5792L84.6814 60.6106L89.1021 64.6421L83.1453 64.3362L83.4581 70.3486L79.4614 65.8793L75.4577 70.3486L75.7636 64.3362L69.8068 64.6421L74.2344 60.6106L69.8068 56.5792L75.7636 56.885L75.4577 50.8726L75.4508 50.8935Z" fill="white"/>
<path d="M79.4544 62.7515L81.067 64.5587L80.9488 62.1329L83.3885 62.2649L81.5813 60.6107L83.3885 58.9564L80.9488 59.0815L81.067 56.6626L79.4544 58.4698L77.8349 56.6626L77.96 59.0815L75.5133 58.9564L77.3275 60.6107L75.5133 62.2649L77.96 62.1329L77.8349 64.5587L79.4544 62.7515Z" fill="#FF698D"/>
<path d="M63.3565 52.8258L60.6665 55.8216L60.1522 56.4054L59.6308 55.8216L56.9479 52.8258L57.1494 56.8711L57.1911 57.6357H56.4196L52.4021 57.4272L55.3978 60.1519L55.9609 60.6662L55.3978 61.1806L52.4021 63.9053L56.4196 63.6968H57.1911L57.1494 64.4613L56.9479 68.5136L59.6308 65.5109L60.1522 64.927L60.6665 65.5109L63.3565 68.5136L63.1479 64.4613L63.1132 63.6968H63.8778L67.8953 63.9053L64.9065 61.1806L64.3435 60.6662L64.9065 60.1519L67.8953 57.4272L63.8778 57.6357H63.1132L63.1479 56.8711L63.3565 52.8258ZM56.1555 50.8935L60.1522 55.3628L64.1488 50.8935L63.843 56.9059L69.7998 56.6L65.3861 60.6106L69.7998 64.6421L63.843 64.3362L64.1488 70.3486L60.1522 65.8793L56.1555 70.3486L56.4613 64.3362L50.4976 64.6421L54.9252 60.6106L50.4976 56.5792L56.4613 56.885L56.1555 50.8726V50.8935Z" fill="white"/>
<path d="M60.1522 62.7515L61.7648 64.5587L61.6466 62.1329L64.0933 62.2649L62.2791 60.6107L64.0933 58.9564L61.6466 59.0815L61.7648 56.6626L60.1522 58.4698L58.5327 56.6626L58.6578 59.0815L56.2111 58.9564L58.0253 60.6107L56.2111 62.2649L58.6578 62.1329L58.5327 64.5587L60.1522 62.7515Z" fill="#FF698D"/>
<path d="M44.0541 52.8258L41.3711 55.8216L40.8498 56.4054L40.3354 55.8216L37.6455 52.8258L37.854 56.8711V57.6357H37.0894L33.0719 57.4272L36.0607 60.1519L36.6237 60.6662L36.0607 61.1806L33.0719 63.9053L37.0894 63.6968H37.854V64.4613L37.6455 68.5136L40.3633 65.4205L40.8776 64.8367L41.3989 65.4205L44.0819 68.4233L43.8734 64.371L43.8386 63.6064H44.6102L48.6277 63.8149L45.6319 61.0902L45.0689 60.5759L45.6319 60.0615L48.6277 57.3368L44.6102 57.5453H43.8386V56.8503L44.0541 52.8258ZM36.8531 50.8935L40.8498 55.342L44.8465 50.8726L44.5337 56.885L50.4905 56.5792L46.0629 60.6106L50.4975 64.6421L44.5337 64.3362L44.8395 70.3486L40.8429 65.8793L36.8462 70.3486L37.152 64.3362L31.1952 64.6421L35.6228 60.6106L31.1952 56.5792L37.152 56.885L36.8462 50.8726L36.8531 50.8935Z" fill="white"/>
<path d="M40.8499 62.7515L42.4694 64.5587L42.3443 62.1329L44.7909 62.2649L42.9768 60.6107L44.7909 58.9564L42.3443 59.0815L42.4694 56.6626L40.8499 58.4698L39.2303 56.6626L39.3555 59.0815L36.9088 58.9564L38.7229 60.6107L36.9088 62.2649L39.3555 62.1329L39.2303 64.5587L40.8499 62.7515Z" fill="#FF698D"/>
<path d="M18.3433 52.8258L18.5518 56.8711V57.6357H17.7873L13.7697 57.4272L16.7585 60.1519L17.3216 60.6662L16.7585 61.1806L13.7697 63.9053L17.7873 63.6968H18.5518V64.4613L18.3433 68.5136L21.0333 65.5109L21.5476 64.927L22.0689 65.5109L24.7519 68.5136L24.5503 64.4613L24.5086 63.6968H25.2802L29.2977 63.9053L26.3019 61.1806L25.7389 60.6662L26.3019 60.1519L29.2977 57.4272L25.2802 57.6357H24.5086L24.5503 56.8711L24.7519 52.8258L22.0689 55.8216L21.5476 56.4054L21.0333 55.8216L18.3433 52.8258ZM17.5509 50.8935L21.5476 55.3628L25.5443 50.8935L25.2454 56.9059L31.2022 56.6L26.7746 60.6315L31.2022 64.6421L25.2454 64.3362L25.5443 70.3486L21.5476 65.8793L17.5509 70.3486L17.8568 64.3362L11.8652 64.6421L16.2928 60.6106L11.8652 56.5792L17.822 56.885L17.5162 50.8726L17.5509 50.8935Z" fill="white"/>
<path d="M21.5475 62.7515L23.1671 64.5587L23.0419 62.1329L25.4886 62.2649L23.6745 60.6107L25.4886 58.9564L23.0419 59.0815L23.1671 56.6626L21.5475 58.4698L19.935 56.6626L20.0531 59.0815L17.6134 58.9564L19.4206 60.6107L17.6134 62.2649L20.0531 62.1329L19.935 64.5587L21.5475 62.7515Z" fill="#FF698D"/>
<path d="M76.2501 72.2879L76.4517 76.3333L76.5073 77.0978L75.7358 77.0561L71.7182 76.8476L74.714 79.5723L75.277 80.0867L74.714 80.601L71.7182 83.3257L75.7358 83.1241L76.5073 83.0824L76.4656 83.854L76.264 87.8993L78.947 84.8966L79.4683 84.3197L79.9827 84.8966L82.6657 87.8993L82.4641 83.854L82.4224 83.0824L83.1939 83.1241L87.2115 83.3257L84.2226 80.601L83.6527 80.0867L84.2226 79.5723L87.2115 76.8476L83.1939 77.0561L82.4224 77.0978L82.4641 76.3263L82.6518 72.2879L79.9827 75.2837L79.4683 75.8606L78.947 75.2837L76.2501 72.2879ZM75.4508 70.3556L79.4544 74.8249L83.4581 70.3487L83.1522 76.3611L89.109 76.0552L84.6814 80.0867L89.1021 84.1042L83.1453 83.7914L83.4581 89.8247L79.4614 85.3623L75.4577 89.8247L75.7636 83.8123L69.8068 84.1251L74.2344 80.0867L69.8068 76.0552L75.7636 76.3611L75.4577 70.3487L75.4508 70.3556Z" fill="white"/>
<path d="M79.4544 82.2345L81.067 84.0417L80.9488 81.6159L83.3885 81.741L81.5813 80.0867L83.3885 78.4394L80.9488 78.5645L81.067 76.1387L79.4544 77.9459L77.8349 76.1387L77.96 78.5645L75.5133 78.4394L77.3275 80.0867L75.5133 81.741L77.96 81.6159L77.8349 84.0417L79.4544 82.2345Z" fill="#FF698D"/>
<path d="M63.3565 72.2879L60.6665 75.2906L60.1522 75.8675L59.6308 75.2906L56.9479 72.2879L57.1494 76.3332L57.1911 77.1048L56.4196 77.0631L52.4021 76.8545L55.3978 79.5792L55.9609 80.0936L55.3978 80.608L52.4021 83.3326L56.4196 83.1311L57.1911 83.0894L57.1494 83.8609L56.9479 87.9062L59.6308 84.9035L60.1522 84.3266L60.6665 84.9035L63.3565 87.9062L63.1479 83.8609L63.1132 83.0894L63.8778 83.1311L67.8953 83.3326L64.9065 80.608L64.3435 80.0936L64.9065 79.5792L67.8953 76.8545L63.8778 77.0631L63.1132 77.1048L63.1479 76.3332L63.3565 72.2879ZM56.1555 70.3556L60.1522 74.8249L64.1488 70.3556L63.843 76.368L69.7998 76.0622L65.3722 80.0936L69.7998 84.1042L63.843 83.7914L64.1488 89.8038L60.1522 85.3414L56.1555 89.8038L56.4613 83.7914L50.4976 84.1042L54.9252 80.0658L50.4976 76.0344L56.4613 76.3402L56.1555 70.3278V70.3556Z" fill="white"/>
<path d="M60.1522 82.2345L61.7648 84.0417L61.6466 81.6159L64.0933 81.741L62.2791 80.0867L64.0933 78.4394L61.6466 78.5645L61.7648 76.1387L60.1522 77.9459L58.5327 76.1387L58.6578 78.5645L56.2111 78.4394L58.0253 80.0867L56.2111 81.741L58.6578 81.6159L58.5327 84.0417L60.1522 82.2345Z" fill="#FF698D"/>
<path d="M44.0541 72.2879L41.3711 75.2906L40.8498 75.8675L40.3354 75.2906L37.6455 72.2879L37.854 76.3332V77.1048L37.0894 77.0631L33.0719 76.8545L36.0607 79.5792L36.6237 80.0936L36.0607 80.608L33.0719 83.3326L37.0894 83.1311L37.854 83.0894V83.8609L37.6455 87.9062L40.3633 84.8966L40.8776 84.3197L41.3989 84.8966L44.0819 87.8993L43.8734 83.854L43.8386 83.0824L44.6102 83.1241L48.6277 83.3257L45.6041 80.6288L45.0411 80.1145L45.6041 79.6001L48.5999 76.8754L44.5824 77.0839L43.8108 77.1256L43.8386 76.3263L44.0472 72.2809M36.8462 70.3486L40.8429 74.818L44.8395 70.3486L44.5337 76.361L50.4905 76.0552L46.0629 80.0866L50.4975 84.1042L44.5407 83.7914L44.8465 89.8038L40.8498 85.3414L36.8531 89.8038L37.159 83.7914L31.2022 84.1042L35.6298 80.0658L31.2022 76.0344L37.159 76.3402L36.8531 70.3278L36.8462 70.3486Z" fill="white"/>
<path d="M40.8499 82.2345L42.4694 84.0417L42.3443 81.6159L44.7909 81.741L42.9768 80.0867L44.7909 78.4394L42.3443 78.5645L42.4694 76.1387L40.8499 77.9459L39.2303 76.1387L39.3555 78.5645L36.9088 78.4394L38.7229 80.0867L36.9088 81.741L39.3555 81.6159L39.2303 84.0417L40.8499 82.2345Z" fill="#FF698D"/>
<path d="M18.3433 72.2879L18.5518 76.3332V77.1048L17.7873 77.0631L13.7697 76.8545L16.7585 79.5792L17.3216 80.0936L16.7585 80.608L13.7697 83.3326L17.7873 83.1311L18.5518 83.0894V83.8609L18.3433 87.9062L21.0333 84.9035L21.5476 84.3266L22.0689 84.9035L24.7519 87.9062L24.5503 83.8609L24.5086 83.0894L25.2802 83.1311L29.2977 83.3326L26.3019 80.608L25.7389 80.0936L26.3019 79.5792L29.2977 76.8545L25.2802 77.0631L24.5086 77.1048L24.5503 76.3332L24.7519 72.2879L22.0689 75.2906L21.5476 75.8675L21.0333 75.2906L18.3433 72.2879ZM17.5509 70.3556L21.5476 74.8249L25.5443 70.3556L25.2454 76.368L31.2022 76.0622L26.7746 80.0936L31.2022 84.1042L25.2454 83.7914L25.5443 89.8038L21.5476 85.3414L17.5509 89.8038L17.8568 83.7914L11.8652 84.1042L16.2928 80.0658L11.8652 76.0344L17.822 76.3402L17.5162 70.3278L17.5509 70.3556Z" fill="white"/>
<path d="M21.5475 82.2345L23.1671 84.0417L23.0419 81.6159L25.4886 81.741L23.6745 80.0867L25.4886 78.4394L23.0419 78.5645L23.1671 76.1387L21.5475 77.9459L19.935 76.1387L20.0531 78.5645L17.6134 78.4394L19.4206 80.0867L17.6134 81.741L20.0531 81.6159L19.935 84.0417L21.5475 82.2345Z" fill="#FF698D"/>
<path d="M82.6518 91.75L79.9827 94.7597L79.4683 95.3366L78.947 94.7597L76.2501 91.75L76.4517 95.7954L76.5073 96.5739L75.7358 96.5321L71.7182 96.3236L74.714 99.0553L75.277 99.5696L74.714 100.077L71.7182 102.809L75.7358 102.6L76.5073 102.558L76.4656 103.33L76.264 107.375L78.947 104.373L79.4683 103.796L79.9827 104.373L82.6657 107.375L82.4641 103.33L82.4224 102.558L83.1939 102.6L87.2115 102.809L84.2226 100.077L83.6527 99.5696L84.2226 99.0553L87.2115 96.3236L83.1939 96.5321L82.4224 96.5739L82.4641 95.8023L82.6518 91.75ZM75.4508 89.8177L79.4544 94.287L83.4581 89.8247L83.1522 95.8371L89.109 95.5312L84.6814 99.5696L89.109 103.601L83.1522 103.295L83.4581 109.308L79.4614 104.838L75.4577 109.308L75.7636 103.295L69.8068 103.601L74.2344 99.5696L69.8068 95.5312L75.7636 95.8371L75.4577 89.8247L75.4508 89.8177Z" fill="white"/>
<path d="M79.4544 101.71L81.067 103.518L80.9488 101.092L83.3885 101.217L81.5813 99.5696L83.3885 97.9154L80.9488 98.0405L81.067 95.6147L79.4544 97.4219L77.8349 95.6147L77.96 98.0405L75.5133 97.9154L77.3275 99.5696L75.5133 101.217L77.96 101.092L77.8349 103.518L79.4544 101.71Z" fill="#FF698D"/>
<path d="M63.3563 91.75L60.6664 94.7528L60.152 95.3297L59.6307 94.7528L56.9477 91.75L57.1493 95.7954L57.191 96.5669L56.4195 96.5252L52.4019 96.3167L55.3977 99.0483L55.9607 99.5627L55.3977 100.07L52.4019 102.802L56.4195 102.593L57.191 102.551L57.1493 103.323L56.9477 107.368L59.6307 104.366L60.152 103.789L60.6664 104.366L63.3563 107.368L63.1478 103.323L63.113 102.551L63.8776 102.593L67.8951 102.802L64.9063 100.07L64.3433 99.5627L64.9063 99.0483L67.8951 96.3167L63.8776 96.5252L63.113 96.5669L63.1478 95.7954L63.3563 91.75ZM56.1553 89.8177L60.152 94.287L64.1487 89.8177L63.8429 95.8301L69.7997 95.5243L65.3859 99.5696L69.8136 103.601L63.8568 103.295L64.1626 109.308L60.1659 104.838L56.1692 109.308L56.4751 103.295L50.5113 103.601L54.9389 99.5696L50.5113 95.5312L56.4751 95.8371L56.1692 89.8247L56.1553 89.8177Z" fill="white"/>
<path d="M60.1522 101.71L61.7648 103.518L61.6466 101.092L64.0933 101.217L62.2791 99.5696L64.0933 97.9154L61.6466 98.0405L61.7648 95.6147L60.1522 97.4219L58.5327 95.6147L58.6578 98.0405L56.2111 97.9154L58.0253 99.5696L56.2111 101.217L58.6578 101.092L58.5327 103.518L60.1522 101.71Z" fill="#FF698D"/>
<path d="M44.0542 91.75L41.3712 94.7527L40.8499 95.3296L40.3355 94.7527L37.6456 91.75L37.8541 95.7954V96.5669L37.0895 96.5252L33.072 96.3167L36.0608 99.0483L36.6238 99.5627L36.0608 100.07L33.072 102.802L37.0895 102.593L37.8541 102.551V103.323L37.6456 107.368L40.3633 104.373L40.8777 103.796L41.399 104.373L44.082 107.375L43.8735 103.33L43.8387 102.558L44.6102 102.6L48.6278 102.809L45.6042 100.091L45.0412 99.5835L45.6042 99.0691L48.6 96.3375L44.5824 96.546L43.8109 96.5877L43.8387 95.8023L44.0472 91.757M36.8462 89.8246L40.8429 94.294L44.8396 89.8246L44.5338 95.8371L50.4906 95.5312L46.0629 99.5696L50.4906 103.601L44.5338 103.295L44.8396 109.308L40.8429 104.838L36.8462 109.308L37.1521 103.295L31.1953 103.601L35.6229 99.5696L31.1953 95.5312L37.1521 95.8371L36.8462 89.8246Z" fill="white"/>
<path d="M40.8499 101.71L42.4694 103.518L42.3443 101.092L44.7909 101.217L42.9768 99.5696L44.7909 97.9154L42.3443 98.0405L42.4694 95.6147L40.8499 97.4219L39.2303 95.6147L39.3555 98.0405L36.9088 97.9154L38.7229 99.5696L36.9088 101.217L39.3555 101.092L39.2303 103.518L40.8499 101.71Z" fill="#FF698D"/>
<path d="M18.3433 91.75L18.5518 95.7954V96.5669L17.7873 96.5252L13.7697 96.3167L16.7585 99.0483L17.3216 99.5627L16.7585 100.07L13.7697 102.802L17.7873 102.593L18.5518 102.551V103.323L18.3433 107.368L21.0333 104.366L21.5476 103.789L22.0689 104.366L24.7519 107.368L24.5503 103.323L24.5086 102.551L25.2802 102.593L29.2977 102.802L26.3019 100.07L25.7389 99.5627L26.3019 99.0483L29.2977 96.3167L25.2802 96.5252L24.5086 96.5669L24.5503 95.7954L24.7519 91.75L22.0689 94.7528L21.5476 95.3297L21.0333 94.7528L18.3433 91.75ZM17.5509 89.8177L21.5476 94.287L25.5443 89.8177L25.2454 95.8301L31.2022 95.5243L26.7746 99.5627L31.2022 103.594L25.2454 103.288L25.5443 109.301L21.5476 104.831L17.5509 109.301L17.8568 103.288L11.9 103.594L16.3276 99.5627L11.9 95.5243L17.8568 95.8301L17.5509 89.8177Z" fill="white"/>
<path d="M21.5475 101.71L23.1671 103.518L23.0419 101.092L25.4886 101.217L23.6745 99.5696L25.4886 97.9154L23.0419 98.0405L23.1671 95.6147L21.5475 97.4219L19.935 95.6147L20.0531 98.0405L17.6134 97.9154L19.4206 99.5696L17.6134 101.217L20.0531 101.092L19.935 103.518L21.5475 101.71Z" fill="#FF698D"/>
<path d="M82.6518 111.212L79.9827 114.236L79.4683 114.813L78.947 114.236L76.2501 111.212L76.4517 115.257L76.5073 116.078L75.7358 116.036L71.7182 115.834L74.714 118.559L75.277 119.073L74.714 119.588L71.7182 122.312L75.7358 122.104L76.5073 122.034L76.4656 122.806L76.264 126.851L78.947 123.849L79.4683 123.272L79.9827 123.849L82.6657 126.851L82.4641 122.806L82.4224 122.034L83.1939 122.076L87.2115 122.285L84.2226 119.56L83.6527 119.046L84.2226 118.531L87.2115 115.807L83.1939 116.008L82.4224 116.05L82.4641 115.278L82.6518 111.212ZM75.4508 109.287L79.4544 113.749L83.4581 109.308L83.1522 115.32L89.109 115.007L84.6814 119.046L89.109 123.077L83.1522 122.771L83.4581 128.784L79.4614 124.314L75.4577 128.784L75.7636 122.771L69.8068 123.077L74.2344 119.046L69.8068 115.007L75.7636 115.32L75.4577 109.308L75.4508 109.287Z" fill="white"/>
<path d="M79.4544 121.186L81.067 122.994L80.9488 120.568L83.3885 120.693L81.5813 119.046L83.3885 117.391L80.9488 117.516L81.067 115.091L79.4544 116.898L77.8349 115.091L77.96 117.516L75.5133 117.391L77.3275 119.046L75.5133 120.693L77.96 120.568L77.8349 122.994L79.4544 121.186Z" fill="#FF698D"/>
<path d="M63.3563 111.212L60.6664 114.215L60.152 114.792L59.6307 114.215L56.9477 111.212L57.1493 115.258L57.191 116.078L56.4195 116.036L52.4019 115.834L55.3977 118.559L55.9607 119.073L55.3977 119.588L52.4019 122.313L56.4195 122.104L57.191 122.062L57.1493 122.834L56.9477 126.879L59.6307 123.876L60.152 123.3L60.6664 123.876L63.3563 126.879L63.1478 122.834L63.113 122.062L63.8776 122.104L67.8951 122.313L64.9063 119.588L64.3433 119.073L64.9063 118.559L67.8951 115.834L63.8776 116.036L63.113 116.078L63.1478 115.306L63.3563 111.261M56.1553 109.335L60.152 113.798L64.1487 109.335L63.8429 115.348L69.7997 115.035L65.3859 119.046L69.8136 123.077L63.8568 122.771L64.1626 128.784L60.1659 124.314L56.1692 128.784L56.4751 122.771L50.5113 123.077L54.9389 119.046L50.5113 115.007L56.4751 115.32L56.1692 109.308L56.1553 109.335Z" fill="white"/>
<path d="M60.1522 121.186L61.7648 122.994L61.6466 120.568L64.0933 120.693L62.2791 119.046L64.0933 117.391L61.6466 117.516L61.7648 115.091L60.1522 116.898L58.5327 115.091L58.6578 117.516L56.2111 117.391L58.0253 119.046L56.2111 120.693L58.6578 120.568L58.5327 122.994L60.1522 121.186Z" fill="#FF698D"/>
<path d="M44.0542 111.212L41.3712 114.215L40.8499 114.792L40.3355 114.215L37.6456 111.212L37.8541 115.258V116.029L37.0895 115.987L33.072 115.786L36.0608 118.51L36.6238 119.025L36.0608 119.539L33.072 122.264L37.0895 122.055L37.8541 122.014V122.785L37.6456 126.831L40.3633 123.849L40.8777 123.272L41.399 123.849L44.082 126.851L43.8735 122.806L43.8387 122.034L44.6102 122.076L48.6278 122.285L45.6042 119.553L45.0412 119.039L45.6042 118.524L48.6 115.8L44.5824 116.001L43.8387 116.078V115.278L44.0472 111.233M36.8462 109.308L40.8429 113.77L44.8396 109.308L44.5338 115.32L50.4906 115.007L46.0629 119.046L50.4906 123.077L44.5338 122.771L44.8396 128.784L40.8429 124.314L36.8462 128.784L37.1521 122.771L31.1953 123.077L35.6229 119.046L31.1953 115.007L37.1521 115.32L36.8462 109.308Z" fill="white"/>
<path d="M40.8499 121.186L42.4694 122.994L42.3443 120.568L44.7909 120.693L42.9768 119.046L44.7909 117.391L42.3443 117.516L42.4694 115.091L40.8499 116.898L39.2303 115.091L39.3555 117.516L36.9088 117.391L38.7229 119.046L36.9088 120.693L39.3555 120.568L39.2303 122.994L40.8499 121.186Z" fill="#FF698D"/>
<path d="M18.3433 111.212L18.5518 115.257V116.029L17.7873 115.987L13.7697 115.786L16.7585 118.51L17.3216 119.025L16.7585 119.539L13.7697 122.264L17.7873 122.055L18.5518 122.014V122.785L18.3433 126.83L21.0333 123.828L21.5476 123.251L22.0689 123.828L24.7519 126.83L24.5503 122.785L24.5086 122.014L25.2802 122.055L29.2977 122.264L26.3019 119.539L25.7389 119.025L26.3019 118.51L29.2977 115.786L25.2802 115.987L24.5086 116.029L24.5503 115.257L24.7519 111.212L22.0689 114.215L21.5476 114.792L21.0333 114.215L18.3433 111.212ZM17.5509 109.287L21.5476 113.749L25.5443 109.287L25.2454 115.299L31.2022 114.986L26.7746 119.025L31.2022 123.056L25.2454 122.75L25.5443 128.763L21.5476 124.293L17.5509 128.763L17.8568 122.75L11.9 123.056L16.3276 119.025L11.9 114.986L17.8568 115.299L17.5509 109.287Z" fill="white"/>
<path d="M21.5475 121.186L23.1671 122.994L23.0419 120.568L25.4886 120.693L23.6745 119.046L25.4886 117.391L23.0419 117.516L23.1671 115.091L21.5475 116.898L19.935 115.091L20.0531 117.516L17.6134 117.391L19.4206 119.046L17.6134 120.693L20.0531 120.568L19.935 122.994L21.5475 121.186Z" fill="#FF698D"/>
<path d="M69.7995 34.9345C67.8456 34.9345 66.2616 33.3506 66.2616 31.3966C66.2616 29.4427 67.8456 27.8587 69.7995 27.8587C71.7535 27.8587 73.3375 29.4427 73.3375 31.3966C73.3375 33.3506 71.7535 34.9345 69.7995 34.9345Z" stroke="white" stroke-miterlimit="10"/>
<path d="M85.4667 31.3967C85.4681 32.0955 85.6764 32.7783 86.0654 33.3589C86.4544 33.9395 87.0066 34.3919 87.6524 34.659C88.2982 34.9261 89.0086 34.996 89.694 34.8598C90.3795 34.7236 91.0093 34.3875 91.5039 33.8938C91.9985 33.4001 92.3359 32.771 92.4734 32.0859C92.6109 31.4007 92.5425 30.6901 92.2766 30.0438C92.0107 29.3975 91.5594 28.8444 90.9796 28.4543C90.3998 28.0642 89.7174 27.8545 89.0186 27.8518C88.5522 27.8499 88.0901 27.9403 87.6588 28.1177C87.2275 28.2952 86.8355 28.5561 86.5054 28.8855C86.1753 29.215 85.9136 29.6064 85.7354 30.0374C85.5571 30.4683 85.4658 30.9303 85.4667 31.3967Z" stroke="white" stroke-miterlimit="10"/>
<path d="M46.9457 31.3966C46.9471 32.0961 47.1558 32.7794 47.5453 33.3603C47.9349 33.9412 48.488 34.3936 49.1345 34.6603C49.7811 34.927 50.4923 34.9961 51.1781 34.8588C51.8639 34.7215 52.4937 34.384 52.9878 33.8889C53.4819 33.3939 53.8182 32.7634 53.9541 32.0773C54.0901 31.3912 54.0196 30.6802 53.7516 30.0342C53.4836 29.3881 53.0302 28.836 52.4485 28.4475C51.8668 28.0591 51.1831 27.8517 50.4836 27.8517C50.0185 27.8517 49.5578 27.9435 49.1281 28.1217C48.6984 28.3 48.3081 28.5612 47.9795 28.8904C47.6509 29.2197 47.3904 29.6105 47.213 30.0406C47.0356 30.4706 46.9448 30.9314 46.9457 31.3966Z" stroke="white" stroke-miterlimit="10"/>
<path d="M27.6574 31.3966C27.6574 32.0977 27.8653 32.7831 28.2549 33.3661C28.6444 33.949 29.198 34.4034 29.8457 34.6717C30.4935 34.94 31.2062 35.0102 31.8939 34.8734C32.5815 34.7366 33.2132 34.399 33.7089 33.9032C34.2047 33.4075 34.5423 32.7758 34.6791 32.0882C34.8159 31.4006 34.7457 30.6878 34.4774 30.0401C34.2091 29.3923 33.7547 28.8387 33.1717 28.4492C32.5888 28.0597 31.9034 27.8518 31.2023 27.8518C30.7365 27.8508 30.2752 27.9419 29.8447 28.1197C29.4142 28.2975 29.023 28.5586 28.6937 28.888C28.3643 29.2173 28.1032 29.6085 27.9254 30.039C27.7476 30.4695 27.6565 30.9309 27.6574 31.3966Z" stroke="white" stroke-miterlimit="10"/>
<path d="M8.38986 31.3966C8.39123 32.0961 8.59989 32.7794 8.98948 33.3603C9.37907 33.9412 9.9321 34.3936 10.5787 34.6603C11.2253 34.927 11.9364 34.9961 12.6223 34.8588C13.3081 34.7215 13.9378 34.384 14.4319 33.8889C14.926 33.3939 15.2623 32.7634 15.3982 32.0773C15.5342 31.3912 15.4637 30.6802 15.1957 30.0342C14.9278 29.3881 14.4743 28.836 13.8926 28.4475C13.311 28.0591 12.6272 27.8517 11.9278 27.8517C11.4626 27.8517 11.002 27.9435 10.5723 28.1217C10.1426 28.3 9.75226 28.5612 9.42364 28.8904C9.09502 29.2197 8.83456 29.6105 8.65717 30.0406C8.47979 30.4706 8.38895 30.9314 8.38986 31.3966Z" stroke="white" stroke-miterlimit="10"/>
<path d="M79.454 29.5187L81.3315 31.3962L79.454 33.2737L77.5765 31.3962L79.454 29.5187Z" fill="#681A38"/>
<path d="M60.1424 29.5163L62.0199 31.3938L60.1424 33.2713L58.2649 31.3938L60.1424 29.5163Z" fill="#681A38"/>
<path d="M40.8378 29.5209L42.7153 31.3984L40.8378 33.2759L38.9603 31.3984L40.8378 29.5209Z" fill="#681A38"/>
<path d="M21.5261 29.5185L23.4036 31.396L21.5261 33.2735L19.6486 31.396L21.5261 29.5185Z" fill="#681A38"/>
<path d="M69.7995 15.4586C67.8456 15.4586 66.2616 13.8746 66.2616 11.9206C66.2616 9.96668 67.8456 8.38269 69.7995 8.38269C71.7535 8.38269 73.3375 9.96668 73.3375 11.9206C73.3375 13.8746 71.7535 15.4586 69.7995 15.4586Z" stroke="white" stroke-miterlimit="10"/>
<path d="M85.4666 11.9206C85.468 12.6194 85.6763 13.3022 86.0653 13.8828C86.4543 14.4634 87.0065 14.9158 87.6523 15.1829C88.298 15.45 89.0085 15.5199 89.6939 15.3837C90.3794 15.2476 91.0091 14.9114 91.5038 14.4177C91.9984 13.9241 92.3358 13.295 92.4733 12.6098C92.6108 11.9246 92.5423 11.214 92.2765 10.5677C92.0106 9.92142 91.5593 9.36832 90.9795 8.97821C90.3997 8.5881 89.7173 8.37845 89.0185 8.3757C88.5521 8.37387 88.09 8.46425 87.6587 8.64167C87.2274 8.81908 86.8354 9.08001 86.5053 9.40946C86.1752 9.73891 85.9135 10.1304 85.7352 10.5613C85.557 10.9923 85.4657 11.4542 85.4666 11.9206Z" stroke="white" stroke-miterlimit="10"/>
<path d="M46.9457 11.9206C46.9471 12.6201 47.1558 13.3034 47.5453 13.8843C47.9349 14.4652 48.488 14.9176 49.1345 15.1843C49.7811 15.451 50.4923 15.5201 51.1781 15.3828C51.8639 15.2455 52.4937 14.908 52.9878 14.4129C53.4819 13.9179 53.8182 13.2875 53.9541 12.6014C54.0901 11.9153 54.0196 11.2043 53.7516 10.5582C53.4836 9.91212 53.0302 9.35998 52.4485 8.97153C51.8668 8.58309 51.1831 8.37576 50.4836 8.37576C50.0185 8.37576 49.5578 8.4675 49.1281 8.64574C48.6984 8.82397 48.3081 9.08519 47.9795 9.41446C47.6509 9.74372 47.3904 10.1346 47.213 10.5646C47.0356 10.9946 46.9448 11.4555 46.9457 11.9206Z" stroke="white" stroke-miterlimit="10"/>
<path d="M27.6574 11.9206C27.6574 12.6217 27.8653 13.3071 28.2549 13.89C28.6444 14.473 29.198 14.9273 29.8457 15.1956C30.4935 15.4639 31.2062 15.5341 31.8939 15.3974C32.5815 15.2606 33.2132 14.923 33.7089 14.4272C34.2047 13.9314 34.5423 13.2998 34.6791 12.6122C34.8159 11.9245 34.7457 11.2118 34.4774 10.564C34.2091 9.91628 33.7547 9.36265 33.1717 8.97313C32.5888 8.58361 31.9034 8.37571 31.2023 8.37571C30.7365 8.37479 30.2752 8.46586 29.8447 8.64368C29.4142 8.8215 29.023 9.08258 28.6937 9.41194C28.3643 9.74129 28.1032 10.1324 27.9254 10.5629C27.7476 10.9934 27.6565 11.4548 27.6574 11.9206Z" stroke="white" stroke-miterlimit="10"/>
<path d="M8.38986 11.9206C8.39123 12.6201 8.59989 13.3034 8.98948 13.8843C9.37907 14.4652 9.9321 14.9176 10.5787 15.1843C11.2253 15.451 11.9364 15.5201 12.6223 15.3828C13.3081 15.2455 13.9378 14.908 14.4319 14.4129C14.926 13.9179 15.2623 13.2875 15.3982 12.6014C15.5342 11.9153 15.4637 11.2043 15.1957 10.5582C14.9278 9.91212 14.4743 9.35998 13.8926 8.97153C13.311 8.58309 12.6272 8.37576 11.9278 8.37576C11.4626 8.37576 11.002 8.4675 10.5723 8.64574C10.1426 8.82397 9.75226 9.08519 9.42364 9.41446C9.09502 9.74372 8.83456 10.1346 8.65717 10.5646C8.47979 10.9946 8.38895 11.4555 8.38986 11.9206Z" stroke="white" stroke-miterlimit="10"/>
<path d="M79.454 10.0426L81.3315 11.9201L79.454 13.7976L77.5765 11.9201L79.454 10.0426Z" fill="#681A38"/>
<path d="M60.1495 10.0402L62.027 11.9177L60.1495 13.7952L58.272 11.9177L60.1495 10.0402Z" fill="#681A38"/>
<path d="M40.8378 10.0378L42.7153 11.9153L40.8378 13.7928L38.9603 11.9153L40.8378 10.0378Z" fill="#681A38"/>
<path d="M21.5264 10.0355L23.4039 11.913L21.5264 13.7905L19.6489 11.913L21.5264 10.0355Z" fill="#681A38"/>
<path d="M69.7995 73.8866C67.8456 73.8866 66.2616 72.3026 66.2616 70.3487C66.2616 68.3947 67.8456 66.8107 69.7995 66.8107C71.7535 66.8107 73.3375 68.3947 73.3375 70.3487C73.3375 72.3026 71.7535 73.8866 69.7995 73.8866Z" stroke="white" stroke-miterlimit="10"/>
<path d="M85.4667 70.3487C85.4667 71.0478 85.6739 71.7313 86.062 72.3128C86.4502 72.8943 87.0019 73.3478 87.6476 73.616C88.2932 73.8841 89.0039 73.955 89.6898 73.8196C90.3757 73.6842 91.0061 73.3487 91.5014 72.8553C91.9968 72.3619 92.3348 71.7328 92.4729 71.0474C92.611 70.362 92.5429 69.6511 92.2773 69.0044C92.0116 68.3577 91.5603 67.8042 90.9803 67.4138C90.4004 67.0233 89.7177 66.8135 89.0186 66.8108C88.5528 66.8089 88.0912 66.8991 87.6604 67.0761C87.2295 67.253 86.8379 67.5134 86.5079 67.8421C86.1779 68.1708 85.916 68.5614 85.7374 68.9916C85.5587 69.4217 85.4667 69.8829 85.4667 70.3487Z" stroke="white" stroke-miterlimit="10"/>
<path d="M46.9457 70.3487C46.9457 71.0484 47.1532 71.7324 47.542 72.3142C47.9307 72.896 48.4833 73.3495 49.1297 73.6173C49.7762 73.8851 50.4876 73.9551 51.1739 73.8186C51.8601 73.6821 52.4905 73.3451 52.9853 72.8504C53.4801 72.3556 53.8171 71.7252 53.9536 71.0389C54.0901 70.3526 54.02 69.6412 53.7523 68.9948C53.4845 68.3483 53.031 67.7957 52.4492 67.407C51.8674 67.0182 51.1834 66.8107 50.4836 66.8107C49.5453 66.8107 48.6454 67.1835 47.9819 67.847C47.3184 68.5105 46.9457 69.4103 46.9457 70.3487Z" stroke="white" stroke-miterlimit="10"/>
<path d="M27.6574 70.3487C27.6561 71.0501 27.8628 71.7361 28.2515 72.32C28.6402 72.9039 29.1933 73.3593 29.8409 73.6287C30.4885 73.898 31.2015 73.9692 31.8896 73.8332C32.5777 73.6972 33.21 73.3602 33.7065 72.8647C34.2029 72.3692 34.5412 71.7376 34.6786 71.0498C34.8159 70.3619 34.7461 69.6488 34.478 69.0007C34.2099 68.3525 33.7556 67.7985 33.1725 67.4086C32.5894 67.0188 31.9037 66.8107 31.2023 66.8107C30.7371 66.8098 30.2763 66.9007 29.8463 67.078C29.4162 67.2554 29.0254 67.5159 28.6961 67.8445C28.3669 68.1731 28.1056 68.5635 27.9274 68.9932C27.7492 69.4228 27.6574 69.8835 27.6574 70.3487Z" stroke="white" stroke-miterlimit="10"/>
<path d="M8.38986 70.3487C8.38997 71.051 8.59914 71.7375 8.99073 72.3206C9.38232 72.9037 9.9386 73.357 10.5887 73.6228C11.2388 73.8887 11.9534 73.955 12.6413 73.8133C13.3293 73.6717 13.9595 73.3285 14.4517 72.8274C14.9439 72.3263 15.2758 71.6901 15.4052 70.9997C15.5346 70.3094 15.4555 69.5961 15.1781 68.9509C14.9007 68.3056 14.4375 67.7575 13.8476 67.3763C13.2576 66.9952 12.5675 66.7983 11.8652 66.8107C10.9378 66.8271 10.0539 67.2071 9.40387 67.8688C8.75385 68.5305 8.38971 69.4211 8.38986 70.3487Z" stroke="white" stroke-miterlimit="10"/>
<path d="M79.4565 68.4751L81.334 70.3526L79.4565 72.2301L77.579 70.3526L79.4565 68.4751Z" fill="#681A38"/>
<path d="M60.1448 68.4727L62.0223 70.3502L60.1448 72.2277L58.2673 70.3502L60.1448 68.4727Z" fill="#681A38"/>
<path d="M40.8334 68.4703L42.7109 70.3478L40.8334 72.2253L38.9559 70.3478L40.8334 68.4703Z" fill="#681A38"/>
<path d="M21.5286 68.468L23.4061 70.3455L21.5286 72.223L19.6511 70.3455L21.5286 68.468Z" fill="#681A38"/>
<path d="M69.7995 54.4106C67.8456 54.4106 66.2616 52.8266 66.2616 50.8727C66.2616 48.9187 67.8456 47.3347 69.7995 47.3347C71.7535 47.3347 73.3375 48.9187 73.3375 50.8727C73.3375 52.8266 71.7535 54.4106 69.7995 54.4106Z" stroke="white" stroke-miterlimit="10"/>
<path d="M85.4667 50.8726C85.4667 51.5718 85.6739 52.2553 86.062 52.8368C86.4502 53.4183 87.0019 53.8717 87.6476 54.1399C88.2932 54.4081 89.0039 54.479 89.6898 54.3436C90.3757 54.2082 91.0061 53.8726 91.5014 53.3792C91.9968 52.8858 92.3348 52.2567 92.4729 51.5713C92.611 50.886 92.5429 50.1751 92.2773 49.5283C92.0116 48.8816 91.5603 48.3281 90.9803 47.9377C90.4004 47.5473 89.7177 47.3375 89.0186 47.3347C88.5528 47.3329 88.0912 47.423 87.6604 47.6C87.2295 47.777 86.8379 48.0373 86.5079 48.366C86.1779 48.6947 85.916 49.0854 85.7374 49.5155C85.5587 49.9457 85.4667 50.4069 85.4667 50.8726Z" stroke="white" stroke-miterlimit="10"/>
<path d="M46.9457 50.8727C46.9457 51.5724 47.1532 52.2564 47.542 52.8382C47.9307 53.42 48.4833 53.8735 49.1297 54.1413C49.7762 54.4091 50.4876 54.4791 51.1739 54.3426C51.8601 54.2061 52.4905 53.8691 52.9853 53.3744C53.4801 52.8796 53.8171 52.2492 53.9536 51.5629C54.0901 50.8766 54.02 50.1652 53.7523 49.5187C53.4845 48.8723 53.031 48.3197 52.4492 47.931C51.8674 47.5422 51.1834 47.3347 50.4836 47.3347C50.019 47.3347 49.559 47.4262 49.1297 47.604C48.7005 47.7818 48.3105 48.0424 47.9819 48.371C47.6534 48.6995 47.3928 49.0895 47.215 49.5187C47.0372 49.948 46.9457 50.408 46.9457 50.8727Z" stroke="white" stroke-miterlimit="10"/>
<path d="M27.6574 50.8727C27.6561 51.5741 27.8628 52.2601 28.2515 52.844C28.6402 53.4278 29.1933 53.8833 29.8409 54.1527C30.4885 54.422 31.2015 54.4932 31.8896 54.3572C32.5777 54.2212 33.21 53.8842 33.7065 53.3887C34.2029 52.8932 34.5412 52.2616 34.6786 51.5737C34.8159 50.8859 34.7461 50.1728 34.478 49.5247C34.2099 48.8765 33.7556 48.3225 33.1725 47.9326C32.5894 47.5428 31.9037 47.3347 31.2023 47.3347C30.7371 47.3338 30.2763 47.4246 29.8463 47.602C29.4162 47.7794 29.0254 48.0399 28.6961 48.3685C28.3669 48.6971 28.1056 49.0874 27.9274 49.5171C27.7492 49.9468 27.6574 50.4075 27.6574 50.8727Z" stroke="white" stroke-miterlimit="10"/>
<path d="M8.38986 50.8727C8.38997 51.575 8.59914 52.2615 8.99073 52.8446C9.38232 53.4277 9.9386 53.881 10.5887 54.1468C11.2388 54.4127 11.9534 54.479 12.6413 54.3373C13.3293 54.1957 13.9595 53.8525 14.4517 53.3514C14.9439 52.8503 15.2758 52.2141 15.4052 51.5237C15.5346 50.8334 15.4555 50.1201 15.1781 49.4748C14.9007 48.8296 14.4375 48.2814 13.8476 47.9003C13.2576 47.5192 12.5675 47.3223 11.8652 47.3347C10.9378 47.3511 10.0539 47.7311 9.40387 48.3928C8.75385 49.0545 8.38971 49.9451 8.38986 50.8727Z" stroke="white" stroke-miterlimit="10"/>
<path d="M79.4518 48.9969L81.3293 50.8744L79.4518 52.7519L77.5743 50.8744L79.4518 48.9969Z" fill="#681A38"/>
<path d="M60.147 48.9946L62.0245 50.8721L60.147 52.7496L58.2695 50.8721L60.147 48.9946Z" fill="#681A38"/>
<path d="M40.8356 48.9922L42.7131 50.8697L40.8356 52.7472L38.9581 50.8697L40.8356 48.9922Z" fill="#681A38"/>
<path d="M21.5239 48.9967L23.4014 50.8742L21.5239 52.7517L19.6464 50.8742L21.5239 48.9967Z" fill="#681A38"/>
<path d="M69.7995 112.846C67.8456 112.846 66.2616 111.262 66.2616 109.308C66.2616 107.354 67.8456 105.77 69.7995 105.77C71.7535 105.77 73.3375 107.354 73.3375 109.308C73.3375 111.262 71.7535 112.846 69.7995 112.846Z" stroke="white" stroke-miterlimit="10"/>
<path d="M85.4667 109.308C85.4681 110.007 85.6768 110.69 86.0664 111.271C86.4559 111.852 87.009 112.305 87.6556 112.571C88.3022 112.838 89.0133 112.907 89.6991 112.77C90.385 112.632 91.0147 112.295 91.5088 111.8C92.0029 111.305 92.3392 110.674 92.4751 109.988C92.6111 109.302 92.5406 108.591 92.2726 107.945C92.0046 107.299 91.5512 106.747 90.9695 106.359C90.3879 105.97 89.7041 105.763 89.0047 105.763C88.5395 105.763 88.0788 105.854 87.6492 106.033C87.2195 106.211 86.8291 106.472 86.5005 106.801C86.1719 107.131 85.9114 107.522 85.734 107.952C85.5567 108.382 85.4658 108.842 85.4667 109.308Z" stroke="white" stroke-miterlimit="10"/>
<path d="M46.9457 109.308C46.9471 110.007 47.1558 110.69 47.5453 111.271C47.9349 111.852 48.488 112.305 49.1345 112.571C49.7811 112.838 50.4923 112.907 51.1781 112.77C51.8639 112.632 52.4937 112.295 52.9878 111.8C53.4819 111.305 53.8182 110.674 53.9541 109.988C54.0901 109.302 54.0196 108.591 53.7516 107.945C53.4836 107.299 53.0302 106.747 52.4485 106.359C51.8668 105.97 51.1831 105.763 50.4836 105.763C50.0185 105.763 49.5578 105.854 49.1281 106.033C48.6984 106.211 48.3081 106.472 47.9795 106.801C47.6509 107.131 47.3904 107.522 47.213 107.952C47.0356 108.382 46.9448 108.842 46.9457 109.308Z" stroke="white" stroke-miterlimit="10"/>
<path d="M27.6574 109.308C27.6574 110.009 27.8653 110.694 28.2549 111.277C28.6444 111.86 29.198 112.314 29.8457 112.583C30.4935 112.851 31.2062 112.921 31.8939 112.784C32.5815 112.648 33.2132 112.31 33.7089 111.814C34.2047 111.318 34.5423 110.687 34.6791 109.999C34.8159 109.312 34.7457 108.599 34.4774 107.951C34.2091 107.303 33.7547 106.75 33.1717 106.36C32.5888 105.971 31.9034 105.763 31.2023 105.763C30.7365 105.762 30.2752 105.853 29.8447 106.031C29.4142 106.209 29.023 106.47 28.6937 106.799C28.3643 107.128 28.1032 107.519 27.9254 107.95C27.7476 108.38 27.6565 108.842 27.6574 109.308Z" stroke="white" stroke-miterlimit="10"/>
<path d="M8.38986 109.308C8.39123 110.007 8.59989 110.69 8.98948 111.271C9.37907 111.852 9.9321 112.305 10.5787 112.571C11.2253 112.838 11.9364 112.907 12.6223 112.77C13.3081 112.632 13.9378 112.295 14.4319 111.8C14.926 111.305 15.2623 110.674 15.3982 109.988C15.5342 109.302 15.4637 108.591 15.1957 107.945C14.9278 107.299 14.4743 106.747 13.8926 106.359C13.311 105.97 12.6272 105.763 11.9278 105.763C11.4626 105.763 11.002 105.854 10.5723 106.033C10.1426 106.211 9.75226 106.472 9.42364 106.801C9.09502 107.131 8.83456 107.522 8.65717 107.952C8.47979 108.382 8.38895 108.842 8.38986 109.308Z" stroke="white" stroke-miterlimit="10"/>
<path d="M79.4589 107.425L81.3364 109.302L79.4589 111.18L77.5814 109.302L79.4589 107.425Z" fill="#681A38"/>
<path d="M60.1475 107.422L62.025 109.3L60.1475 111.177L58.27 109.3L60.1475 107.422Z" fill="#681A38"/>
<path d="M40.8358 107.427L42.7133 109.304L40.8358 111.182L38.9583 109.304L40.8358 107.427Z" fill="#681A38"/>
<path d="M21.5315 107.424L23.409 109.302L21.5315 111.179L19.654 109.302L21.5315 107.424Z" fill="#681A38"/>
<path d="M69.7995 93.3626C67.8456 93.3626 66.2616 91.7786 66.2616 89.8246C66.2616 87.8707 67.8456 86.2867 69.7995 86.2867C71.7535 86.2867 73.3375 87.8707 73.3375 89.8246C73.3375 91.7786 71.7535 93.3626 69.7995 93.3626Z" stroke="white" stroke-miterlimit="10"/>
<path d="M85.4667 89.8247C85.4667 90.5238 85.6739 91.2073 86.062 91.7888C86.4502 92.3703 87.0019 92.8238 87.6476 93.0919C88.2932 93.3601 89.0039 93.431 89.6898 93.2956C90.3757 93.1602 91.0061 92.8246 91.5014 92.3312C91.9968 91.8378 92.3348 91.2087 92.4729 90.5234C92.611 89.838 92.5429 89.1271 92.2773 88.4804C92.0116 87.8337 91.5603 87.2802 90.9803 86.8897C90.4004 86.4993 89.7177 86.2895 89.0186 86.2867C88.5528 86.2849 88.0912 86.3751 87.6604 86.552C87.2295 86.729 86.8379 86.9893 86.5079 87.318C86.1779 87.6468 85.916 88.0374 85.7374 88.4675C85.5587 88.8977 85.4667 89.3589 85.4667 89.8247Z" stroke="white" stroke-miterlimit="10"/>
<path d="M46.9457 89.8246C46.9457 90.5244 47.1532 91.2084 47.542 91.7902C47.9307 92.372 48.4833 92.8255 49.1297 93.0933C49.7762 93.361 50.4876 93.4311 51.1739 93.2946C51.8601 93.1581 52.4905 92.8211 52.9853 92.3263C53.4801 91.8316 53.8171 91.2012 53.9536 90.5149C54.0901 89.8286 54.02 89.1172 53.7523 88.4707C53.4845 87.8243 53.031 87.2717 52.4492 86.883C51.8674 86.4942 51.1834 86.2867 50.4836 86.2867C49.5453 86.2867 48.6454 86.6595 47.9819 87.323C47.3184 87.9864 46.9457 88.8863 46.9457 89.8246Z" stroke="white" stroke-miterlimit="10"/>
<path d="M27.6574 89.8246C27.6561 90.526 27.8628 91.2121 28.2515 91.796C28.6402 92.3798 29.1933 92.8353 29.8409 93.1046C30.4885 93.374 31.2015 93.4452 31.8896 93.3092C32.5777 93.1732 33.21 92.8361 33.7065 92.3407C34.2029 91.8452 34.5412 91.2136 34.6786 90.5257C34.8159 89.8379 34.7461 89.1248 34.478 88.4766C34.2099 87.8285 33.7556 87.2744 33.1725 86.8846C32.5894 86.4948 31.9037 86.2867 31.2023 86.2867C30.2634 86.2867 29.3628 86.6592 28.6982 87.3225C28.0336 87.9858 27.6593 88.8857 27.6574 89.8246Z" stroke="white" stroke-miterlimit="10"/>
<path d="M8.38985 89.8246C8.38985 90.5244 8.59735 91.2084 8.9861 91.7902C9.37485 92.372 9.9274 92.8255 10.5739 93.0933C11.2203 93.361 11.9317 93.4311 12.618 93.2946C13.3043 93.1581 13.9347 92.8211 14.4295 92.3263C14.9243 91.8316 15.2612 91.2012 15.3977 90.5149C15.5343 89.8286 15.4642 89.1172 15.1964 88.4707C14.9286 87.8243 14.4752 87.2717 13.8934 86.883C13.3115 86.4942 12.6275 86.2867 11.9278 86.2867C10.9895 86.2867 10.0896 86.6595 9.42609 87.323C8.7626 87.9864 8.38985 88.8863 8.38985 89.8246Z" stroke="white" stroke-miterlimit="10"/>
<path d="M79.4543 87.9532L81.3318 89.8307L79.4543 91.7083L77.5768 89.8308L79.4543 87.9532Z" fill="#681A38"/>
<path d="M60.1426 87.9509L62.0201 89.8284L60.1426 91.7059L58.2651 89.8284L60.1426 87.9509Z" fill="#681A38"/>
<path d="M40.838 87.9485L42.7155 89.826L40.838 91.7036L38.9605 89.826L40.838 87.9485Z" fill="#681A38"/>
<path d="M21.5264 87.9462L23.4039 89.8237L21.5264 91.7012L19.6489 89.8237L21.5264 87.9462Z" fill="#681A38"/>
<path d="M69.7995 132.322C67.8456 132.322 66.2616 130.738 66.2616 128.784C66.2616 126.83 67.8456 125.246 69.7995 125.246C71.7535 125.246 73.3375 126.83 73.3375 128.784C73.3375 130.738 71.7535 132.322 69.7995 132.322Z" stroke="white" stroke-miterlimit="10"/>
<path d="M85.4667 128.784C85.4667 129.483 85.6739 130.166 86.062 130.748C86.4502 131.329 87.0019 131.783 87.6476 132.051C88.2932 132.319 89.0039 132.39 89.6898 132.255C90.3757 132.119 91.0061 131.784 91.5014 131.29C91.9968 130.797 92.3348 130.168 92.4729 129.482C92.611 128.797 92.5429 128.086 92.2773 127.439C92.0116 126.793 91.5603 126.239 90.9803 125.849C90.4004 125.458 89.7177 125.248 89.0186 125.246C88.5528 125.244 88.0912 125.334 87.6604 125.511C87.2295 125.688 86.8379 125.948 86.5079 126.277C86.1779 126.606 85.916 126.996 85.7374 127.427C85.5587 127.857 85.4667 128.318 85.4667 128.784Z" stroke="white" stroke-miterlimit="10"/>
<path d="M46.9457 128.784C46.9457 129.483 47.1532 130.167 47.542 130.749C47.9307 131.331 48.4833 131.785 49.1297 132.052C49.7762 132.32 50.4876 132.39 51.1739 132.254C51.8601 132.117 52.4905 131.78 52.9853 131.285C53.4801 130.791 53.8171 130.16 53.9536 129.474C54.0901 128.788 54.02 128.076 53.7523 127.43C53.4845 126.783 53.031 126.231 52.4492 125.842C51.8674 125.453 51.1834 125.246 50.4836 125.246C49.5453 125.246 48.6454 125.619 47.9819 126.282C47.3184 126.945 46.9457 127.845 46.9457 128.784Z" stroke="white" stroke-miterlimit="10"/>
<path d="M27.6574 128.784C27.6561 129.485 27.8628 130.171 28.2515 130.755C28.6402 131.339 29.1933 131.794 29.8409 132.064C30.4885 132.333 31.2015 132.404 31.8896 132.268C32.5777 132.132 33.21 131.795 33.7065 131.3C34.2029 130.804 34.5412 130.173 34.6786 129.485C34.8159 128.797 34.7461 128.084 34.478 127.436C34.2099 126.787 33.7556 126.233 33.1725 125.844C32.5894 125.454 31.9037 125.246 31.2023 125.246C30.7371 125.245 30.2763 125.336 29.8463 125.513C29.4162 125.69 29.0254 125.951 28.6961 126.279C28.3669 126.608 28.1056 126.998 27.9274 127.428C27.7492 127.858 27.6574 128.318 27.6574 128.784Z" stroke="white" stroke-miterlimit="10"/>
<path d="M8.38985 128.784C8.38985 129.483 8.59735 130.167 8.9861 130.749C9.37485 131.331 9.9274 131.785 10.5739 132.052C11.2203 132.32 11.9317 132.39 12.618 132.254C13.3043 132.117 13.9347 131.78 14.4295 131.285C14.9243 130.791 15.2612 130.16 15.3977 129.474C15.5343 128.788 15.4642 128.076 15.1964 127.43C14.9286 126.783 14.4752 126.231 13.8934 125.842C13.3115 125.453 12.6275 125.246 11.9278 125.246C10.9895 125.246 10.0896 125.619 9.42609 126.282C8.7626 126.945 8.38985 127.845 8.38985 128.784Z" stroke="white" stroke-miterlimit="10"/>
<path d="M79.452 126.908L81.3295 128.785L79.452 130.663L77.5745 128.785L79.452 126.908Z" fill="#681A38"/>
<path d="M60.1404 126.905L62.0179 128.783L60.1404 130.66L58.2629 128.783L60.1404 126.905Z" fill="#681A38"/>
<path d="M40.8358 126.91L42.7133 128.787L40.8358 130.665L38.9583 128.787L40.8358 126.91Z" fill="#681A38"/>
<path d="M21.5241 126.907L23.4016 128.785L21.5241 130.662L19.6466 128.785L21.5241 126.907Z" fill="#681A38"/>
</g>
</svg>
