<svg width="269" height="404" viewBox="0 0 269 404" fill="none" xmlns="http://www.w3.org/2000/svg">
<rect x="4" y="4" width="261" height="396" rx="11" fill="url(#paint0_linear_104_2671)" stroke="#404040" stroke-width="8"/>
<path d="M62.2354 109.014C57.1161 109.014 52.5522 108.072 48.5437 106.189C44.5593 104.305 41.396 101.71 39.0536 98.4013C36.7113 95.093 35.4918 91.3018 35.3952 87.0277H50.6083C50.7773 89.9013 51.9847 92.2315 54.2305 94.0185C56.4762 95.8054 59.1445 96.6989 62.2354 96.6989C64.6985 96.6989 66.8718 96.1555 68.7553 95.0689C70.663 93.9581 72.1481 92.4247 73.2106 90.4688C74.2972 88.4886 74.8406 86.2187 74.8406 83.6591C74.8406 81.0511 74.2852 78.7571 73.1744 76.777C72.0877 74.7969 70.5785 73.2514 68.6467 72.1406C66.7148 71.0298 64.5053 70.4624 62.0181 70.4382C59.8448 70.4382 57.7319 70.8849 55.6793 71.7784C53.6509 72.6719 52.0692 73.8913 50.9343 75.4368L36.989 72.9375L40.5025 33.8182H85.8519V46.6406H53.4336L51.5139 65.2223H51.9485C53.2525 63.3871 55.2205 61.8658 57.8526 60.6584C60.4847 59.451 63.4308 58.8473 66.6907 58.8473C71.158 58.8473 75.1424 59.8977 78.6438 61.9986C82.1452 64.0994 84.9102 66.9851 86.9386 70.6555C88.967 74.3018 89.9691 78.5036 89.945 83.2607C89.9691 88.2592 88.81 92.7024 86.4677 96.5902C84.1495 100.454 80.9016 103.496 76.7241 105.718C72.5707 107.915 67.7411 109.014 62.2354 109.014Z" fill="#1F1D1D"/>
<path d="M74.0786 146.15C74.4456 144.848 74.634 143.503 74.6386 142.15C74.6386 140.16 74.2467 138.19 73.4854 136.352C72.724 134.514 71.6081 132.844 70.2012 131.437C68.7944 130.031 67.1243 128.915 65.2862 128.153C63.4482 127.392 61.4781 127 59.4886 127C57.4991 127 55.529 127.392 53.6909 128.153C51.8528 128.915 50.1827 130.031 48.7759 131.437C47.3691 132.844 46.2532 134.514 45.4918 136.352C44.7304 138.19 44.3386 140.16 44.3386 142.15C44.3465 143.503 44.5382 144.849 44.9086 146.15C42.4439 146.351 40.0659 147.153 37.9827 148.485C35.8994 149.818 34.1742 151.64 32.9579 153.793C31.7416 155.946 31.0712 158.365 31.0054 160.837C30.9395 163.309 31.4802 165.759 32.5801 167.974C33.6801 170.189 35.3058 172.101 37.3151 173.542C39.3245 174.983 41.6564 175.911 44.1069 176.243C46.5574 176.575 49.052 176.302 51.3725 175.447C53.693 174.592 55.7689 173.182 57.4186 171.34C56.8086 175.24 55.1886 181.1 50.9286 184.13H68.0586C63.8386 181.36 62.2086 175.35 61.5886 171.36C63.2408 173.199 65.3181 174.605 67.639 175.455C69.9599 176.306 72.4538 176.575 74.9028 176.24C77.3519 175.905 79.6816 174.975 81.6884 173.532C83.6953 172.089 85.3183 170.176 86.4157 167.961C87.513 165.746 88.0514 163.296 87.9837 160.825C87.916 158.355 87.2444 155.938 86.0274 153.786C84.8104 151.635 83.0851 149.814 81.0023 148.483C78.9194 147.152 76.5423 146.351 74.0786 146.15Z" fill="url(#paint1_linear_104_2671)"/>
<path d="M150.039 76.4248C150.355 75.3083 150.517 74.1541 150.521 72.994C150.521 71.2876 150.184 69.598 149.529 68.0214C148.875 66.4449 147.915 65.0125 146.706 63.8059C145.496 62.5993 144.06 61.6421 142.48 60.9891C140.899 60.3361 139.205 60 137.495 60C135.784 60 134.09 60.3361 132.51 60.9891C130.929 61.6421 129.493 62.5993 128.284 63.8059C127.074 65.0125 126.115 66.4449 125.46 68.0214C124.806 69.598 124.469 71.2876 124.469 72.994C124.475 74.1545 124.64 75.3087 124.959 76.4248C122.84 76.5973 120.795 77.285 119.004 78.4278C117.213 79.5706 115.729 81.1337 114.683 82.9804C113.638 84.8271 113.061 86.9012 113.005 89.0215C112.948 91.1417 113.413 93.2435 114.359 95.1431C115.304 97.0428 116.702 98.6824 118.43 99.9187C120.157 101.155 122.162 101.95 124.269 102.235C126.376 102.52 128.521 102.286 130.516 101.553C132.512 100.82 134.296 99.6101 135.715 98.0301C135.19 101.375 133.798 106.401 130.135 109H144.863C141.235 106.624 139.833 101.469 139.3 98.0473C140.721 99.6242 142.507 100.83 144.503 101.56C146.498 102.289 148.642 102.52 150.748 102.233C152.854 101.945 154.857 101.148 156.582 99.9101C158.308 98.6723 159.703 97.0319 160.647 95.1322C161.59 93.2325 162.053 91.1312 161.995 89.0119C161.937 86.8925 161.359 84.8197 160.313 82.9743C159.267 81.1289 157.783 79.5672 155.992 78.4255C154.202 77.2839 152.158 76.597 150.039 76.4248Z" fill="url(#paint2_linear_104_2671)"/>
<path d="M150.039 329.575C150.355 330.692 150.517 331.846 150.521 333.006C150.521 334.712 150.184 336.402 149.529 337.979C148.875 339.555 147.915 340.988 146.706 342.194C145.496 343.401 144.06 344.358 142.48 345.011C140.899 345.664 139.205 346 137.495 346C135.784 346 134.09 345.664 132.51 345.011C130.929 344.358 129.493 343.401 128.284 342.194C127.074 340.988 126.115 339.555 125.46 337.979C124.806 336.402 124.469 334.712 124.469 333.006C124.475 331.845 124.64 330.691 124.959 329.575C122.84 329.403 120.795 328.715 119.004 327.572C117.213 326.429 115.729 324.866 114.683 323.02C113.638 321.173 113.061 319.099 113.005 316.979C112.948 314.858 113.413 312.757 114.359 310.857C115.304 308.957 116.702 307.318 118.43 306.081C120.157 304.845 122.162 304.05 124.269 303.765C126.376 303.48 128.521 303.714 130.516 304.447C132.512 305.18 134.296 306.39 135.715 307.97C135.19 304.625 133.798 299.599 130.135 297H144.863C141.235 299.376 139.833 304.531 139.3 307.953C140.721 306.376 142.507 305.17 144.503 304.44C146.498 303.711 148.642 303.48 150.748 303.767C152.854 304.055 154.857 304.852 156.582 306.09C158.308 307.328 159.703 308.968 160.647 310.868C161.59 312.768 162.053 314.869 161.995 316.988C161.937 319.107 161.359 321.18 160.313 323.026C159.267 324.871 157.783 326.433 155.992 327.574C154.202 328.716 152.158 329.403 150.039 329.575Z" fill="url(#paint3_linear_104_2671)"/>
<path d="M191.039 190.425C191.355 189.308 191.517 188.154 191.521 186.994C191.521 185.288 191.184 183.598 190.529 182.021C189.875 180.445 188.915 179.012 187.706 177.806C186.496 176.599 185.06 175.642 183.48 174.989C181.899 174.336 180.205 174 178.495 174C176.784 174 175.09 174.336 173.51 174.989C171.929 175.642 170.493 176.599 169.284 177.806C168.074 179.012 167.115 180.445 166.46 182.021C165.806 183.598 165.469 185.288 165.469 186.994C165.475 188.155 165.64 189.309 165.959 190.425C163.84 190.597 161.795 191.285 160.004 192.428C158.213 193.571 156.729 195.134 155.683 196.98C154.638 198.827 154.061 200.901 154.005 203.021C153.948 205.142 154.413 207.243 155.359 209.143C156.304 211.043 157.702 212.682 159.43 213.919C161.157 215.155 163.162 215.95 165.269 216.235C167.376 216.52 169.521 216.286 171.516 215.553C173.512 214.82 175.296 213.61 176.715 212.03C176.19 215.375 174.798 220.401 171.135 223H185.863C182.235 220.624 180.833 215.469 180.3 212.047C181.721 213.624 183.507 214.83 185.503 215.56C187.498 216.289 189.642 216.52 191.748 216.233C193.854 215.945 195.857 215.148 197.582 213.91C199.308 212.672 200.703 211.032 201.647 209.132C202.59 207.232 203.053 205.131 202.995 203.012C202.937 200.893 202.359 198.82 201.313 196.974C200.267 195.129 198.783 193.567 196.992 192.426C195.202 191.284 193.158 190.597 191.039 190.425Z" fill="url(#paint4_linear_104_2671)"/>
<path d="M230.039 76.4248C230.355 75.3083 230.517 74.1541 230.521 72.994C230.521 71.2876 230.184 69.598 229.529 68.0214C228.875 66.4449 227.915 65.0125 226.706 63.8059C225.496 62.5993 224.06 61.6421 222.48 60.9891C220.899 60.3361 219.205 60 217.495 60C215.784 60 214.09 60.3361 212.51 60.9891C210.929 61.6421 209.493 62.5993 208.284 63.8059C207.074 65.0125 206.115 66.4449 205.46 68.0214C204.806 69.598 204.469 71.2876 204.469 72.994C204.475 74.1545 204.64 75.3087 204.959 76.4248C202.84 76.5973 200.795 77.285 199.004 78.4278C197.213 79.5706 195.729 81.1337 194.683 82.9804C193.638 84.8271 193.061 86.9012 193.005 89.0215C192.948 91.1417 193.413 93.2435 194.359 95.1431C195.304 97.0428 196.702 98.6824 198.43 99.9187C200.157 101.155 202.162 101.95 204.269 102.235C206.376 102.52 208.521 102.286 210.516 101.553C212.512 100.82 214.296 99.6101 215.715 98.0301C215.19 101.375 213.798 106.401 210.135 109H224.863C221.235 106.624 219.833 101.469 219.3 98.0473C220.721 99.6242 222.507 100.83 224.503 101.56C226.498 102.289 228.642 102.52 230.748 102.233C232.854 101.945 234.857 101.148 236.582 99.9101C238.308 98.6723 239.703 97.0319 240.647 95.1322C241.59 93.2325 242.053 91.1312 241.995 89.0119C241.937 86.8925 241.359 84.8197 240.313 82.9743C239.267 81.1289 237.783 79.5672 235.992 78.4255C234.202 77.2839 232.158 76.597 230.039 76.4248Z" fill="url(#paint5_linear_104_2671)"/>
<path d="M230.039 329.575C230.355 330.692 230.517 331.846 230.521 333.006C230.521 334.712 230.184 336.402 229.529 337.979C228.875 339.555 227.915 340.988 226.706 342.194C225.496 343.401 224.06 344.358 222.48 345.011C220.899 345.664 219.205 346 217.495 346C215.784 346 214.09 345.664 212.51 345.011C210.929 344.358 209.493 343.401 208.284 342.194C207.074 340.988 206.115 339.555 205.46 337.979C204.806 336.402 204.469 334.712 204.469 333.006C204.475 331.845 204.64 330.691 204.959 329.575C202.84 329.403 200.795 328.715 199.004 327.572C197.213 326.429 195.729 324.866 194.683 323.02C193.638 321.173 193.061 319.099 193.005 316.979C192.948 314.858 193.413 312.757 194.359 310.857C195.304 308.957 196.702 307.318 198.43 306.081C200.157 304.845 202.162 304.05 204.269 303.765C206.376 303.48 208.521 303.714 210.516 304.447C212.512 305.18 214.296 306.39 215.715 307.97C215.19 304.625 213.798 299.599 210.135 297H224.863C221.235 299.376 219.833 304.531 219.3 307.953C220.721 306.376 222.507 305.17 224.503 304.44C226.498 303.711 228.642 303.48 230.748 303.767C232.854 304.055 234.857 304.852 236.582 306.09C238.308 307.328 239.703 308.968 240.647 310.868C241.59 312.768 242.053 314.869 241.995 316.988C241.937 319.107 241.359 321.18 240.313 323.026C239.267 324.871 237.783 326.433 235.992 327.574C234.202 328.716 232.158 329.403 230.039 329.575Z" fill="url(#paint6_linear_104_2671)"/>
<defs>
<linearGradient id="paint0_linear_104_2671" x1="269" y1="202" x2="0" y2="202" gradientUnits="userSpaceOnUse">
<stop stop-color="#B4B4B4"/>
<stop offset="0.5" stop-color="#B7B3B8"/>
<stop offset="0.9999" stop-color="#F9F8F9"/>
<stop offset="1" stop-color="#B9B6BA"/>
</linearGradient>
<linearGradient id="paint1_linear_104_2671" x1="29.1386" y1="155.61" x2="91.2786" y2="155.49" gradientUnits="userSpaceOnUse">
<stop stop-color="#140F14"/>
<stop offset="0.13" stop-color="#302E32"/>
<stop offset="0.36" stop-color="#140F14"/>
<stop offset="0.62" stop-color="#302E32"/>
<stop offset="1" stop-color="#140F14"/>
</linearGradient>
<linearGradient id="paint2_linear_104_2671" x1="111.4" y1="84.5386" x2="164.828" y2="84.4352" gradientUnits="userSpaceOnUse">
<stop stop-color="#140F14"/>
<stop offset="0.13" stop-color="#302E32"/>
<stop offset="0.36" stop-color="#140F14"/>
<stop offset="0.62" stop-color="#302E32"/>
<stop offset="1" stop-color="#140F14"/>
</linearGradient>
<linearGradient id="paint3_linear_104_2671" x1="111.4" y1="321.461" x2="164.828" y2="321.565" gradientUnits="userSpaceOnUse">
<stop stop-color="#140F14"/>
<stop offset="0.13" stop-color="#302E32"/>
<stop offset="0.36" stop-color="#140F14"/>
<stop offset="0.62" stop-color="#302E32"/>
<stop offset="1" stop-color="#140F14"/>
</linearGradient>
<linearGradient id="paint4_linear_104_2671" x1="152.4" y1="198.539" x2="205.828" y2="198.435" gradientUnits="userSpaceOnUse">
<stop stop-color="#140F14"/>
<stop offset="0.13" stop-color="#302E32"/>
<stop offset="0.36" stop-color="#140F14"/>
<stop offset="0.62" stop-color="#302E32"/>
<stop offset="1" stop-color="#140F14"/>
</linearGradient>
<linearGradient id="paint5_linear_104_2671" x1="191.4" y1="84.5386" x2="244.828" y2="84.4352" gradientUnits="userSpaceOnUse">
<stop stop-color="#140F14"/>
<stop offset="0.13" stop-color="#302E32"/>
<stop offset="0.36" stop-color="#140F14"/>
<stop offset="0.62" stop-color="#302E32"/>
<stop offset="1" stop-color="#140F14"/>
</linearGradient>
<linearGradient id="paint6_linear_104_2671" x1="191.4" y1="321.461" x2="244.828" y2="321.565" gradientUnits="userSpaceOnUse">
<stop stop-color="#140F14"/>
<stop offset="0.13" stop-color="#302E32"/>
<stop offset="0.36" stop-color="#140F14"/>
<stop offset="0.62" stop-color="#302E32"/>
<stop offset="1" stop-color="#140F14"/>
</linearGradient>
</defs>
</svg>
