<svg width="269" height="404" viewBox="0 0 269 404" fill="none" xmlns="http://www.w3.org/2000/svg">
<rect x="4" y="4" width="261" height="396" rx="11" fill="url(#paint0_linear_104_2771)" stroke="#404040" stroke-width="8"/>
<path d="M61.185 32.804C65.0004 32.804 68.6708 33.4439 72.1964 34.7237C75.7461 36.0035 78.9094 38.044 81.6864 40.8452C84.4876 43.6463 86.6971 47.3651 88.315 52.0014C89.957 56.6136 90.7901 62.2763 90.8143 68.9893C90.8143 75.2919 90.1019 80.9183 88.6772 85.8686C87.2766 90.7947 85.2603 94.9844 82.6282 98.4375C79.9961 101.891 76.8207 104.523 73.1019 106.334C69.3832 108.121 65.2298 109.014 60.6417 109.014C55.6914 109.014 51.3207 108.06 47.5295 106.153C43.7383 104.221 40.6836 101.601 38.3654 98.2926C36.0714 94.9602 34.6829 91.2173 34.1999 87.0639H49.6665C50.2702 89.7685 51.538 91.8693 53.4698 93.3665C55.4016 94.8395 57.7923 95.576 60.6417 95.576C65.4712 95.576 69.1417 93.4751 71.6531 89.2734C74.1644 85.0476 75.4322 79.2642 75.4563 71.9233H74.9492C73.8384 74.0966 72.3413 75.968 70.4577 77.5376C68.5742 79.0831 66.413 80.2784 63.9741 81.1236C61.5593 81.9688 58.9876 82.3913 56.2589 82.3913C51.8881 82.3913 47.9883 81.3651 44.5593 79.3125C41.1303 77.2599 38.4258 74.4347 36.4457 70.8366C34.4656 67.2386 33.4755 63.1335 33.4755 58.5213C33.4513 53.5469 34.5984 49.1158 36.9165 45.228C39.2347 41.3402 42.4705 38.2976 46.6239 36.1001C50.8015 33.8785 55.6552 32.7798 61.185 32.804ZM61.2937 45.1193C58.8548 45.1193 56.6815 45.6989 54.7738 46.858C52.8903 48.017 51.3931 49.5746 50.2823 51.5305C49.1957 53.4865 48.6644 55.6719 48.6886 58.0866C48.6886 60.5256 49.2198 62.723 50.2823 64.679C51.369 66.6108 52.842 68.1562 54.7014 69.3153C56.5849 70.4503 58.734 71.0178 61.1488 71.0178C62.9599 71.0178 64.6381 70.6797 66.1836 70.0035C67.729 69.3274 69.0692 68.3977 70.2042 67.2145C71.3633 66.0071 72.2688 64.6186 72.9208 63.049C73.5728 61.4794 73.8988 59.8132 73.8988 58.0504C73.8746 55.7081 73.3192 53.5589 72.2326 51.603C71.146 49.647 69.6488 48.0774 67.7411 46.8942C65.8335 45.7109 63.6843 45.1193 61.2937 45.1193Z" fill="#1F1D1D"/>
<path d="M74.0786 146.15C74.4456 144.848 74.634 143.503 74.6386 142.15C74.6386 140.16 74.2467 138.19 73.4854 136.352C72.724 134.514 71.6081 132.844 70.2012 131.437C68.7944 130.031 67.1243 128.915 65.2862 128.153C63.4482 127.392 61.4781 127 59.4886 127C57.4991 127 55.529 127.392 53.6909 128.153C51.8528 128.915 50.1827 130.031 48.7759 131.437C47.3691 132.844 46.2532 134.514 45.4918 136.352C44.7304 138.19 44.3386 140.16 44.3386 142.15C44.3465 143.503 44.5382 144.849 44.9086 146.15C42.4439 146.351 40.0659 147.153 37.9827 148.485C35.8994 149.818 34.1742 151.64 32.9579 153.793C31.7416 155.946 31.0712 158.365 31.0054 160.837C30.9395 163.309 31.4802 165.759 32.5801 167.974C33.6801 170.189 35.3058 172.101 37.3151 173.542C39.3245 174.983 41.6564 175.911 44.1069 176.243C46.5574 176.575 49.052 176.302 51.3725 175.447C53.693 174.592 55.7689 173.182 57.4186 171.34C56.8086 175.24 55.1886 181.1 50.9286 184.13H68.0586C63.8386 181.36 62.2086 175.35 61.5886 171.36C63.2408 173.199 65.3181 174.605 67.639 175.455C69.9599 176.306 72.4538 176.575 74.9028 176.24C77.3519 175.905 79.6816 174.975 81.6884 173.532C83.6953 172.089 85.3183 170.176 86.4157 167.961C87.513 165.746 88.0514 163.296 87.9837 160.825C87.916 158.355 87.2444 155.938 86.0274 153.786C84.8104 151.635 83.0851 149.814 81.0023 148.483C78.9194 147.152 76.5423 146.351 74.0786 146.15Z" fill="url(#paint1_linear_104_2771)"/>
<path d="M153.039 76.4248C153.355 75.3083 153.517 74.1541 153.521 72.994C153.521 71.2876 153.184 69.598 152.529 68.0214C151.875 66.4449 150.915 65.0125 149.706 63.8059C148.496 62.5993 147.06 61.6421 145.48 60.9891C143.899 60.3361 142.205 60 140.495 60C138.784 60 137.09 60.3361 135.51 60.9891C133.929 61.6421 132.493 62.5993 131.284 63.8059C130.074 65.0125 129.115 66.4449 128.46 68.0214C127.806 69.598 127.469 71.2876 127.469 72.994C127.475 74.1545 127.64 75.3087 127.959 76.4248C125.84 76.5973 123.795 77.285 122.004 78.4278C120.213 79.5706 118.729 81.1337 117.683 82.9804C116.638 84.8271 116.061 86.9012 116.005 89.0215C115.948 91.1417 116.413 93.2435 117.359 95.1431C118.304 97.0428 119.702 98.6824 121.43 99.9187C123.157 101.155 125.162 101.95 127.269 102.235C129.376 102.52 131.521 102.286 133.516 101.553C135.512 100.82 137.296 99.6101 138.715 98.0301C138.19 101.375 136.798 106.401 133.135 109H147.863C144.235 106.624 142.833 101.469 142.3 98.0473C143.721 99.6242 145.507 100.83 147.503 101.56C149.498 102.289 151.642 102.52 153.748 102.233C155.854 101.945 157.857 101.148 159.582 99.9101C161.308 98.6723 162.703 97.0319 163.647 95.1322C164.59 93.2325 165.053 91.1312 164.995 89.0119C164.937 86.8925 164.359 84.8197 163.313 82.9743C162.267 81.1289 160.783 79.5672 158.992 78.4255C157.202 77.2839 155.158 76.597 153.039 76.4248Z" fill="url(#paint2_linear_104_2771)"/>
<path d="M153.039 329.575C153.355 330.692 153.517 331.846 153.521 333.006C153.521 334.712 153.184 336.402 152.529 337.979C151.875 339.555 150.915 340.988 149.706 342.194C148.496 343.401 147.06 344.358 145.48 345.011C143.899 345.664 142.205 346 140.495 346C138.784 346 137.09 345.664 135.51 345.011C133.929 344.358 132.493 343.401 131.284 342.194C130.074 340.988 129.115 339.555 128.46 337.979C127.806 336.402 127.469 334.712 127.469 333.006C127.475 331.845 127.64 330.691 127.959 329.575C125.84 329.403 123.795 328.715 122.004 327.572C120.213 326.429 118.729 324.866 117.683 323.02C116.638 321.173 116.061 319.099 116.005 316.979C115.948 314.858 116.413 312.757 117.359 310.857C118.304 308.957 119.702 307.318 121.43 306.081C123.157 304.845 125.162 304.05 127.269 303.765C129.376 303.48 131.521 303.714 133.516 304.447C135.512 305.18 137.296 306.39 138.715 307.97C138.19 304.625 136.798 299.599 133.135 297H147.863C144.235 299.376 142.833 304.531 142.3 307.953C143.721 306.376 145.507 305.17 147.503 304.44C149.498 303.711 151.642 303.48 153.748 303.767C155.854 304.055 157.857 304.852 159.582 306.09C161.308 307.328 162.703 308.968 163.647 310.868C164.59 312.768 165.053 314.869 164.995 316.988C164.937 319.107 164.359 321.18 163.313 323.026C162.267 324.871 160.783 326.433 158.992 327.574C157.202 328.716 155.158 329.403 153.039 329.575Z" fill="url(#paint3_linear_104_2771)"/>
<path d="M153.039 141.425C153.355 140.308 153.517 139.154 153.521 137.994C153.521 136.288 153.184 134.598 152.529 133.021C151.875 131.445 150.915 130.012 149.706 128.806C148.496 127.599 147.06 126.642 145.48 125.989C143.899 125.336 142.205 125 140.495 125C138.784 125 137.09 125.336 135.51 125.989C133.929 126.642 132.493 127.599 131.284 128.806C130.074 130.012 129.115 131.445 128.46 133.021C127.806 134.598 127.469 136.288 127.469 137.994C127.475 139.155 127.64 140.309 127.959 141.425C125.84 141.597 123.795 142.285 122.004 143.428C120.213 144.571 118.729 146.134 117.683 147.98C116.638 149.827 116.061 151.901 116.005 154.021C115.948 156.142 116.413 158.243 117.359 160.143C118.304 162.043 119.702 163.682 121.43 164.919C123.157 166.155 125.162 166.95 127.269 167.235C129.376 167.52 131.521 167.286 133.516 166.553C135.512 165.82 137.296 164.61 138.715 163.03C138.19 166.375 136.798 171.401 133.135 174H147.863C144.235 171.624 142.833 166.469 142.3 163.047C143.721 164.624 145.507 165.83 147.503 166.56C149.498 167.289 151.642 167.52 153.748 167.233C155.854 166.945 157.857 166.148 159.582 164.91C161.308 163.672 162.703 162.032 163.647 160.132C164.59 158.232 165.053 156.131 164.995 154.012C164.937 151.893 164.359 149.82 163.313 147.974C162.267 146.129 160.783 144.567 158.992 143.426C157.202 142.284 155.158 141.597 153.039 141.425Z" fill="url(#paint4_linear_104_2771)"/>
<path d="M153.039 264.575C153.355 265.692 153.517 266.846 153.521 268.006C153.521 269.712 153.184 271.402 152.529 272.979C151.875 274.555 150.915 275.988 149.706 277.194C148.496 278.401 147.06 279.358 145.48 280.011C143.899 280.664 142.205 281 140.495 281C138.784 281 137.09 280.664 135.51 280.011C133.929 279.358 132.493 278.401 131.284 277.194C130.074 275.988 129.115 274.555 128.46 272.979C127.806 271.402 127.469 269.712 127.469 268.006C127.475 266.845 127.64 265.691 127.959 264.575C125.84 264.403 123.795 263.715 122.004 262.572C120.213 261.429 118.729 259.866 117.683 258.02C116.638 256.173 116.061 254.099 116.005 251.979C115.948 249.858 116.413 247.757 117.359 245.857C118.304 243.957 119.702 242.318 121.43 241.081C123.157 239.845 125.162 239.05 127.269 238.765C129.376 238.48 131.521 238.714 133.516 239.447C135.512 240.18 137.296 241.39 138.715 242.97C138.19 239.625 136.798 234.599 133.135 232H147.863C144.235 234.376 142.833 239.531 142.3 242.953C143.721 241.376 145.507 240.17 147.503 239.44C149.498 238.711 151.642 238.48 153.748 238.767C155.854 239.055 157.857 239.852 159.582 241.09C161.308 242.328 162.703 243.968 163.647 245.868C164.59 247.768 165.053 249.869 164.995 251.988C164.937 254.107 164.359 256.18 163.313 258.026C162.267 259.871 160.783 261.433 158.992 262.574C157.202 263.716 155.158 264.403 153.039 264.575Z" fill="url(#paint5_linear_104_2771)"/>
<path d="M230.039 141.425C230.355 140.308 230.517 139.154 230.521 137.994C230.521 136.288 230.184 134.598 229.529 133.021C228.875 131.445 227.915 130.012 226.706 128.806C225.496 127.599 224.06 126.642 222.48 125.989C220.899 125.336 219.205 125 217.495 125C215.784 125 214.09 125.336 212.51 125.989C210.929 126.642 209.493 127.599 208.284 128.806C207.074 130.012 206.115 131.445 205.46 133.021C204.806 134.598 204.469 136.288 204.469 137.994C204.475 139.155 204.64 140.309 204.959 141.425C202.84 141.597 200.795 142.285 199.004 143.428C197.213 144.571 195.729 146.134 194.683 147.98C193.638 149.827 193.061 151.901 193.005 154.021C192.948 156.142 193.413 158.243 194.359 160.143C195.304 162.043 196.702 163.682 198.43 164.919C200.157 166.155 202.162 166.95 204.269 167.235C206.376 167.52 208.521 167.286 210.516 166.553C212.512 165.82 214.296 164.61 215.715 163.03C215.19 166.375 213.798 171.401 210.135 174H224.863C221.235 171.624 219.833 166.469 219.3 163.047C220.721 164.624 222.507 165.83 224.503 166.56C226.498 167.289 228.642 167.52 230.748 167.233C232.854 166.945 234.857 166.148 236.582 164.91C238.308 163.672 239.703 162.032 240.647 160.132C241.59 158.232 242.053 156.131 241.995 154.012C241.937 151.893 241.359 149.82 240.313 147.974C239.267 146.129 237.783 144.567 235.992 143.426C234.202 142.284 232.158 141.597 230.039 141.425Z" fill="url(#paint6_linear_104_2771)"/>
<path d="M230.039 264.575C230.355 265.692 230.517 266.846 230.521 268.006C230.521 269.712 230.184 271.402 229.529 272.979C228.875 274.555 227.915 275.988 226.706 277.194C225.496 278.401 224.06 279.358 222.48 280.011C220.899 280.664 219.205 281 217.495 281C215.784 281 214.09 280.664 212.51 280.011C210.929 279.358 209.493 278.401 208.284 277.194C207.074 275.988 206.115 274.555 205.46 272.979C204.806 271.402 204.469 269.712 204.469 268.006C204.475 266.845 204.64 265.691 204.959 264.575C202.84 264.403 200.795 263.715 199.004 262.572C197.213 261.429 195.729 259.866 194.683 258.02C193.638 256.173 193.061 254.099 193.005 251.979C192.948 249.858 193.413 247.757 194.359 245.857C195.304 243.957 196.702 242.318 198.43 241.081C200.157 239.845 202.162 239.05 204.269 238.765C206.376 238.48 208.521 238.714 210.516 239.447C212.512 240.18 214.296 241.39 215.715 242.97C215.19 239.625 213.798 234.599 210.135 232H224.863C221.235 234.376 219.833 239.531 219.3 242.953C220.721 241.376 222.507 240.17 224.503 239.44C226.498 238.711 228.642 238.48 230.748 238.767C232.854 239.055 234.857 239.852 236.582 241.09C238.308 242.328 239.703 243.968 240.647 245.868C241.59 247.768 242.053 249.869 241.995 251.988C241.937 254.107 241.359 256.18 240.313 258.026C239.267 259.871 237.783 261.433 235.992 262.574C234.202 263.716 232.158 264.403 230.039 264.575Z" fill="url(#paint7_linear_104_2771)"/>
<path d="M191.039 195.425C191.355 194.308 191.517 193.154 191.521 191.994C191.521 190.288 191.184 188.598 190.529 187.021C189.875 185.445 188.915 184.012 187.706 182.806C186.496 181.599 185.06 180.642 183.48 179.989C181.899 179.336 180.205 179 178.495 179C176.784 179 175.09 179.336 173.51 179.989C171.929 180.642 170.493 181.599 169.284 182.806C168.074 184.012 167.115 185.445 166.46 187.021C165.806 188.598 165.469 190.288 165.469 191.994C165.475 193.155 165.64 194.309 165.959 195.425C163.84 195.597 161.795 196.285 160.004 197.428C158.213 198.571 156.729 200.134 155.683 201.98C154.638 203.827 154.061 205.901 154.005 208.021C153.948 210.142 154.413 212.243 155.359 214.143C156.304 216.043 157.702 217.682 159.43 218.919C161.157 220.155 163.162 220.95 165.269 221.235C167.376 221.52 169.521 221.286 171.516 220.553C173.512 219.82 175.296 218.61 176.715 217.03C176.19 220.375 174.798 225.401 171.135 228H185.863C182.235 225.624 180.833 220.469 180.3 217.047C181.721 218.624 183.507 219.83 185.503 220.56C187.498 221.289 189.642 221.52 191.748 221.233C193.854 220.945 195.857 220.148 197.582 218.91C199.308 217.672 200.703 216.032 201.647 214.132C202.59 212.232 203.053 210.131 202.995 208.012C202.937 205.893 202.359 203.82 201.313 201.974C200.267 200.129 198.783 198.567 196.992 197.426C195.202 196.284 193.158 195.597 191.039 195.425Z" fill="url(#paint8_linear_104_2771)"/>
<path d="M230.039 76.4248C230.355 75.3083 230.517 74.1541 230.521 72.994C230.521 71.2876 230.184 69.598 229.529 68.0214C228.875 66.4449 227.915 65.0125 226.706 63.8059C225.496 62.5993 224.06 61.6421 222.48 60.9891C220.899 60.3361 219.205 60 217.495 60C215.784 60 214.09 60.3361 212.51 60.9891C210.929 61.6421 209.493 62.5993 208.284 63.8059C207.074 65.0125 206.115 66.4449 205.46 68.0214C204.806 69.598 204.469 71.2876 204.469 72.994C204.475 74.1545 204.64 75.3087 204.959 76.4248C202.84 76.5973 200.795 77.285 199.004 78.4278C197.213 79.5706 195.729 81.1337 194.683 82.9804C193.638 84.8271 193.061 86.9012 193.005 89.0215C192.948 91.1417 193.413 93.2435 194.359 95.1431C195.304 97.0428 196.702 98.6824 198.43 99.9187C200.157 101.155 202.162 101.95 204.269 102.235C206.376 102.52 208.521 102.286 210.516 101.553C212.512 100.82 214.296 99.6101 215.715 98.0301C215.19 101.375 213.798 106.401 210.135 109H224.863C221.235 106.624 219.833 101.469 219.3 98.0473C220.721 99.6242 222.507 100.83 224.503 101.56C226.498 102.289 228.642 102.52 230.748 102.233C232.854 101.945 234.857 101.148 236.582 99.9101C238.308 98.6723 239.703 97.0319 240.647 95.1322C241.59 93.2325 242.053 91.1312 241.995 89.0119C241.937 86.8925 241.359 84.8197 240.313 82.9743C239.267 81.1289 237.783 79.5672 235.992 78.4255C234.202 77.2839 232.158 76.597 230.039 76.4248Z" fill="url(#paint9_linear_104_2771)"/>
<path d="M230.039 329.575C230.355 330.692 230.517 331.846 230.521 333.006C230.521 334.712 230.184 336.402 229.529 337.979C228.875 339.555 227.915 340.988 226.706 342.194C225.496 343.401 224.06 344.358 222.48 345.011C220.899 345.664 219.205 346 217.495 346C215.784 346 214.09 345.664 212.51 345.011C210.929 344.358 209.493 343.401 208.284 342.194C207.074 340.988 206.115 339.555 205.46 337.979C204.806 336.402 204.469 334.712 204.469 333.006C204.475 331.845 204.64 330.691 204.959 329.575C202.84 329.403 200.795 328.715 199.004 327.572C197.213 326.429 195.729 324.866 194.683 323.02C193.638 321.173 193.061 319.099 193.005 316.979C192.948 314.858 193.413 312.757 194.359 310.857C195.304 308.957 196.702 307.318 198.43 306.081C200.157 304.845 202.162 304.05 204.269 303.765C206.376 303.48 208.521 303.714 210.516 304.447C212.512 305.18 214.296 306.39 215.715 307.97C215.19 304.625 213.798 299.599 210.135 297H224.863C221.235 299.376 219.833 304.531 219.3 307.953C220.721 306.376 222.507 305.17 224.503 304.44C226.498 303.711 228.642 303.48 230.748 303.767C232.854 304.055 234.857 304.852 236.582 306.09C238.308 307.328 239.703 308.968 240.647 310.868C241.59 312.768 242.053 314.869 241.995 316.988C241.937 319.107 241.359 321.18 240.313 323.026C239.267 324.871 237.783 326.433 235.992 327.574C234.202 328.716 232.158 329.403 230.039 329.575Z" fill="url(#paint10_linear_104_2771)"/>
<defs>
<linearGradient id="paint0_linear_104_2771" x1="269" y1="202" x2="0" y2="202" gradientUnits="userSpaceOnUse">
<stop stop-color="#B4B4B4"/>
<stop offset="0.5" stop-color="#B7B3B8"/>
<stop offset="0.9999" stop-color="#F9F8F9"/>
<stop offset="1" stop-color="#B9B6BA"/>
</linearGradient>
<linearGradient id="paint1_linear_104_2771" x1="29.1386" y1="155.61" x2="91.2786" y2="155.49" gradientUnits="userSpaceOnUse">
<stop stop-color="#140F14"/>
<stop offset="0.13" stop-color="#302E32"/>
<stop offset="0.36" stop-color="#140F14"/>
<stop offset="0.62" stop-color="#302E32"/>
<stop offset="1" stop-color="#140F14"/>
</linearGradient>
<linearGradient id="paint2_linear_104_2771" x1="114.4" y1="84.5386" x2="167.828" y2="84.4352" gradientUnits="userSpaceOnUse">
<stop stop-color="#140F14"/>
<stop offset="0.13" stop-color="#302E32"/>
<stop offset="0.36" stop-color="#140F14"/>
<stop offset="0.62" stop-color="#302E32"/>
<stop offset="1" stop-color="#140F14"/>
</linearGradient>
<linearGradient id="paint3_linear_104_2771" x1="114.4" y1="321.461" x2="167.828" y2="321.565" gradientUnits="userSpaceOnUse">
<stop stop-color="#140F14"/>
<stop offset="0.13" stop-color="#302E32"/>
<stop offset="0.36" stop-color="#140F14"/>
<stop offset="0.62" stop-color="#302E32"/>
<stop offset="1" stop-color="#140F14"/>
</linearGradient>
<linearGradient id="paint4_linear_104_2771" x1="114.4" y1="149.539" x2="167.828" y2="149.435" gradientUnits="userSpaceOnUse">
<stop stop-color="#140F14"/>
<stop offset="0.13" stop-color="#302E32"/>
<stop offset="0.36" stop-color="#140F14"/>
<stop offset="0.62" stop-color="#302E32"/>
<stop offset="1" stop-color="#140F14"/>
</linearGradient>
<linearGradient id="paint5_linear_104_2771" x1="114.4" y1="256.461" x2="167.828" y2="256.565" gradientUnits="userSpaceOnUse">
<stop stop-color="#140F14"/>
<stop offset="0.13" stop-color="#302E32"/>
<stop offset="0.36" stop-color="#140F14"/>
<stop offset="0.62" stop-color="#302E32"/>
<stop offset="1" stop-color="#140F14"/>
</linearGradient>
<linearGradient id="paint6_linear_104_2771" x1="191.4" y1="149.539" x2="244.828" y2="149.435" gradientUnits="userSpaceOnUse">
<stop stop-color="#140F14"/>
<stop offset="0.13" stop-color="#302E32"/>
<stop offset="0.36" stop-color="#140F14"/>
<stop offset="0.62" stop-color="#302E32"/>
<stop offset="1" stop-color="#140F14"/>
</linearGradient>
<linearGradient id="paint7_linear_104_2771" x1="191.4" y1="256.461" x2="244.828" y2="256.565" gradientUnits="userSpaceOnUse">
<stop stop-color="#140F14"/>
<stop offset="0.13" stop-color="#302E32"/>
<stop offset="0.36" stop-color="#140F14"/>
<stop offset="0.62" stop-color="#302E32"/>
<stop offset="1" stop-color="#140F14"/>
</linearGradient>
<linearGradient id="paint8_linear_104_2771" x1="152.4" y1="203.539" x2="205.828" y2="203.435" gradientUnits="userSpaceOnUse">
<stop stop-color="#140F14"/>
<stop offset="0.13" stop-color="#302E32"/>
<stop offset="0.36" stop-color="#140F14"/>
<stop offset="0.62" stop-color="#302E32"/>
<stop offset="1" stop-color="#140F14"/>
</linearGradient>
<linearGradient id="paint9_linear_104_2771" x1="191.4" y1="84.5386" x2="244.828" y2="84.4352" gradientUnits="userSpaceOnUse">
<stop stop-color="#140F14"/>
<stop offset="0.13" stop-color="#302E32"/>
<stop offset="0.36" stop-color="#140F14"/>
<stop offset="0.62" stop-color="#302E32"/>
<stop offset="1" stop-color="#140F14"/>
</linearGradient>
<linearGradient id="paint10_linear_104_2771" x1="191.4" y1="321.461" x2="244.828" y2="321.565" gradientUnits="userSpaceOnUse">
<stop stop-color="#140F14"/>
<stop offset="0.13" stop-color="#302E32"/>
<stop offset="0.36" stop-color="#140F14"/>
<stop offset="0.62" stop-color="#302E32"/>
<stop offset="1" stop-color="#140F14"/>
</linearGradient>
</defs>
</svg>
