<svg width="269" height="404" viewBox="0 0 269 404" fill="none" xmlns="http://www.w3.org/2000/svg">
<rect x="4" y="4" width="261" height="396" rx="11" fill="url(#paint0_linear_104_2595)" stroke="#404040" stroke-width="8"/>
<path d="M33.3888 108V96.6989L59.7943 72.2493C62.04 70.076 63.9236 68.12 65.4449 66.3814C66.9903 64.6428 68.1615 62.9403 68.9584 61.2741C69.7552 59.5838 70.1537 57.7607 70.1537 55.8047C70.1537 53.6314 69.6586 51.7599 68.6686 50.1903C67.6785 48.5966 66.3263 47.3771 64.6118 46.532C62.8973 45.6626 60.9534 45.228 58.7801 45.228C56.5102 45.228 54.5301 45.6868 52.8398 46.6044C51.1494 47.522 49.8454 48.8381 48.9278 50.5526C48.0102 52.267 47.5514 54.3075 47.5514 56.674H32.6643C32.6643 51.8203 33.7631 47.6065 35.9605 44.0327C38.1579 40.4588 41.2368 37.6939 45.197 35.7379C49.1572 33.782 53.7211 32.804 58.8888 32.804C64.2013 32.804 68.8256 33.7457 72.7616 35.6293C76.7219 37.4886 79.8007 40.0724 81.9981 43.3807C84.1956 46.6889 85.2943 50.4801 85.2943 54.7543C85.2943 57.5554 84.7389 60.3203 83.6281 63.049C82.5415 65.7777 80.5976 68.8082 77.7964 72.1406C74.9953 75.4489 71.0471 79.4212 65.952 84.0575L55.1217 94.6705V95.1776H86.2723V108H33.3888Z" fill="#1F1D1D"/>
<path d="M74.0786 146.15C74.4456 144.848 74.634 143.503 74.6386 142.15C74.6386 140.16 74.2467 138.19 73.4854 136.352C72.724 134.514 71.6081 132.844 70.2012 131.437C68.7944 130.031 67.1243 128.915 65.2862 128.153C63.4482 127.392 61.4781 127 59.4886 127C57.4991 127 55.529 127.392 53.6909 128.153C51.8528 128.915 50.1827 130.031 48.7759 131.437C47.3691 132.844 46.2532 134.514 45.4918 136.352C44.7304 138.19 44.3386 140.16 44.3386 142.15C44.3465 143.503 44.5382 144.849 44.9086 146.15C42.4439 146.351 40.0659 147.153 37.9827 148.485C35.8994 149.818 34.1742 151.64 32.9579 153.793C31.7416 155.946 31.0712 158.365 31.0054 160.837C30.9395 163.309 31.4802 165.759 32.5801 167.974C33.6801 170.189 35.3058 172.101 37.3151 173.542C39.3245 174.983 41.6564 175.911 44.1069 176.243C46.5574 176.575 49.052 176.302 51.3725 175.447C53.693 174.592 55.7689 173.182 57.4186 171.34C56.8086 175.24 55.1886 181.1 50.9286 184.13H68.0586C63.8386 181.36 62.2086 175.35 61.5886 171.36C63.2408 173.199 65.3181 174.605 67.639 175.455C69.9599 176.306 72.4538 176.575 74.9028 176.24C77.3519 175.905 79.6816 174.975 81.6884 173.532C83.6953 172.089 85.3183 170.176 86.4157 167.961C87.513 165.746 88.0514 163.296 87.9837 160.825C87.916 158.355 87.2444 155.938 86.0274 153.786C84.8104 151.635 83.0851 149.814 81.0023 148.483C78.9194 147.152 76.5423 146.351 74.0786 146.15Z" fill="url(#paint1_linear_104_2595)"/>
<path d="M177.039 76.4248C177.355 75.3083 177.517 74.1541 177.521 72.994C177.521 71.2876 177.184 69.598 176.529 68.0214C175.875 66.4449 174.915 65.0125 173.706 63.8059C172.496 62.5993 171.06 61.6421 169.48 60.9891C167.899 60.3361 166.205 60 164.495 60C162.784 60 161.09 60.3361 159.51 60.9891C157.929 61.6421 156.493 62.5993 155.284 63.8059C154.074 65.0125 153.115 66.4449 152.46 68.0214C151.806 69.598 151.469 71.2876 151.469 72.994C151.475 74.1545 151.64 75.3087 151.959 76.4248C149.84 76.5973 147.795 77.285 146.004 78.4278C144.213 79.5706 142.729 81.1337 141.683 82.9804C140.638 84.8271 140.061 86.9012 140.005 89.0215C139.948 91.1417 140.413 93.2435 141.359 95.1431C142.304 97.0428 143.702 98.6824 145.43 99.9187C147.157 101.155 149.162 101.95 151.269 102.235C153.376 102.52 155.521 102.286 157.516 101.553C159.512 100.82 161.296 99.6101 162.715 98.0301C162.19 101.375 160.798 106.401 157.135 109H171.863C168.235 106.624 166.833 101.469 166.3 98.0473C167.721 99.6242 169.507 100.83 171.503 101.56C173.498 102.289 175.642 102.52 177.748 102.233C179.854 101.945 181.857 101.148 183.582 99.9101C185.308 98.6723 186.703 97.0319 187.647 95.1322C188.59 93.2325 189.053 91.1312 188.995 89.0119C188.937 86.8925 188.359 84.8197 187.313 82.9743C186.267 81.1289 184.783 79.5672 182.992 78.4255C181.202 77.2839 179.158 76.597 177.039 76.4248Z" fill="url(#paint2_linear_104_2595)"/>
<path d="M177.039 329.575C177.355 330.692 177.517 331.846 177.521 333.006C177.521 334.712 177.184 336.402 176.529 337.979C175.875 339.555 174.915 340.988 173.706 342.194C172.496 343.401 171.06 344.358 169.48 345.011C167.899 345.664 166.205 346 164.495 346C162.784 346 161.09 345.664 159.51 345.011C157.929 344.358 156.493 343.401 155.284 342.194C154.074 340.988 153.115 339.555 152.46 337.979C151.806 336.402 151.469 334.712 151.469 333.006C151.475 331.845 151.64 330.691 151.959 329.575C149.84 329.403 147.795 328.715 146.004 327.572C144.213 326.429 142.729 324.866 141.683 323.02C140.638 321.173 140.061 319.099 140.005 316.979C139.948 314.858 140.413 312.757 141.359 310.857C142.304 308.957 143.702 307.318 145.43 306.081C147.157 304.845 149.162 304.05 151.269 303.765C153.376 303.48 155.521 303.714 157.516 304.447C159.512 305.18 161.296 306.39 162.715 307.97C162.19 304.625 160.798 299.599 157.135 297H171.863C168.235 299.376 166.833 304.531 166.3 307.953C167.721 306.376 169.507 305.17 171.503 304.44C173.498 303.711 175.642 303.48 177.748 303.767C179.854 304.055 181.857 304.852 183.582 306.09C185.308 307.328 186.703 308.968 187.647 310.868C188.59 312.768 189.053 314.869 188.995 316.988C188.937 319.107 188.359 321.18 187.313 323.026C186.267 324.871 184.783 326.433 182.992 327.574C181.202 328.716 179.158 329.403 177.039 329.575Z" fill="url(#paint3_linear_104_2595)"/>
<defs>
<linearGradient id="paint0_linear_104_2595" x1="269" y1="202" x2="0" y2="202" gradientUnits="userSpaceOnUse">
<stop stop-color="#B4B4B4"/>
<stop offset="0.5" stop-color="#B7B3B8"/>
<stop offset="0.9999" stop-color="#F9F8F9"/>
<stop offset="1" stop-color="#B9B6BA"/>
</linearGradient>
<linearGradient id="paint1_linear_104_2595" x1="29.1386" y1="155.61" x2="91.2786" y2="155.49" gradientUnits="userSpaceOnUse">
<stop stop-color="#140F14"/>
<stop offset="0.13" stop-color="#302E32"/>
<stop offset="0.36" stop-color="#140F14"/>
<stop offset="0.62" stop-color="#302E32"/>
<stop offset="1" stop-color="#140F14"/>
</linearGradient>
<linearGradient id="paint2_linear_104_2595" x1="138.4" y1="84.5386" x2="191.828" y2="84.4352" gradientUnits="userSpaceOnUse">
<stop stop-color="#140F14"/>
<stop offset="0.13" stop-color="#302E32"/>
<stop offset="0.36" stop-color="#140F14"/>
<stop offset="0.62" stop-color="#302E32"/>
<stop offset="1" stop-color="#140F14"/>
</linearGradient>
<linearGradient id="paint3_linear_104_2595" x1="138.4" y1="321.461" x2="191.828" y2="321.565" gradientUnits="userSpaceOnUse">
<stop stop-color="#140F14"/>
<stop offset="0.13" stop-color="#302E32"/>
<stop offset="0.36" stop-color="#140F14"/>
<stop offset="0.62" stop-color="#302E32"/>
<stop offset="1" stop-color="#140F14"/>
</linearGradient>
</defs>
</svg>
