<svg width="269" height="404" viewBox="0 0 269 404" fill="none" xmlns="http://www.w3.org/2000/svg">
<rect x="4" y="4" width="261" height="396" rx="11" fill="url(#paint0_linear_104_2740)" stroke="#404040" stroke-width="8"/>
<path d="M61.9683 109.014C56.3902 109.014 51.4278 108.109 47.0812 106.298C42.7588 104.462 39.366 101.963 36.903 98.7997C34.4399 95.6364 33.2084 92.0504 33.2084 88.0419C33.2084 84.951 33.9086 82.1136 35.3092 79.5298C36.7339 76.9219 38.6657 74.7607 41.1047 73.0462C43.5436 71.3075 46.2723 70.1967 49.2908 69.7138V69.2067C45.3305 68.4098 42.1189 66.4901 39.6558 63.4474C37.1927 60.3807 35.9612 56.8189 35.9612 52.7621C35.9612 48.9226 37.0841 45.5057 39.3298 42.5114C41.5756 39.4929 44.6544 37.1264 48.5663 35.4119C52.5024 33.6733 56.9697 32.804 61.9683 32.804C66.9669 32.804 71.4221 33.6733 75.3341 35.4119C79.2702 37.1506 82.3611 39.5291 84.6068 42.5476C86.8525 45.5419 87.9875 48.9467 88.0116 52.7621C87.9875 56.843 86.7318 60.4048 84.2446 63.4474C81.7574 66.4901 78.5699 68.4098 74.6821 69.2067V69.7138C77.6523 70.1967 80.3447 71.3075 82.7595 73.0462C85.1984 74.7607 87.1302 76.9219 88.555 79.5298C90.0038 82.1136 90.7403 84.951 90.7645 88.0419C90.7403 92.0504 89.4967 95.6364 87.0336 98.7997C84.5706 101.963 81.1658 104.462 76.8192 106.298C72.4967 108.109 67.5464 109.014 61.9683 109.014ZM61.9683 97.4957C64.4555 97.4957 66.6288 97.049 68.4882 96.1555C70.3476 95.2379 71.7964 93.9822 72.8348 92.3885C73.8973 90.7706 74.4285 88.9112 74.4285 86.8104C74.4285 84.6612 73.8852 82.7656 72.7986 81.1236C71.7119 79.4574 70.2389 78.1534 68.3795 77.2116C66.5202 76.2457 64.3831 75.7628 61.9683 75.7628C59.5777 75.7628 57.4406 76.2457 55.5571 77.2116C53.6736 78.1534 52.1885 79.4574 51.1018 81.1236C50.0393 82.7656 49.5081 84.6612 49.5081 86.8104C49.5081 88.9112 50.0273 90.7706 51.0656 92.3885C52.104 93.9822 53.5649 95.2379 55.4484 96.1555C57.3319 97.049 59.5052 97.4957 61.9683 97.4957ZM61.9683 64.353C64.045 64.353 65.8923 63.9304 67.5102 63.0852C69.1281 62.2401 70.3959 61.0689 71.3135 59.5717C72.2311 58.0746 72.6899 56.348 72.6899 54.392C72.6899 52.4602 72.2311 50.7699 71.3135 49.321C70.3959 47.848 69.1402 46.701 67.5464 45.88C65.9527 45.0348 64.0933 44.6122 61.9683 44.6122C59.8675 44.6122 58.0081 45.0348 56.3902 45.88C54.7723 46.701 53.5045 47.848 52.5869 49.321C51.6934 50.7699 51.2467 52.4602 51.2467 54.392C51.2467 56.348 51.7055 58.0746 52.6231 59.5717C53.5408 61.0689 54.8085 62.2401 56.4264 63.0852C58.0443 63.9304 59.8916 64.353 61.9683 64.353Z" fill="#1F1D1D"/>
<path d="M74.0786 146.15C74.4456 144.848 74.634 143.503 74.6386 142.15C74.6386 140.16 74.2467 138.19 73.4854 136.352C72.724 134.514 71.6081 132.844 70.2012 131.437C68.7944 130.031 67.1243 128.915 65.2862 128.153C63.4482 127.392 61.4781 127 59.4886 127C57.4991 127 55.529 127.392 53.6909 128.153C51.8528 128.915 50.1827 130.031 48.7759 131.437C47.3691 132.844 46.2532 134.514 45.4918 136.352C44.7304 138.19 44.3386 140.16 44.3386 142.15C44.3465 143.503 44.5382 144.849 44.9086 146.15C42.4439 146.351 40.0659 147.153 37.9827 148.485C35.8994 149.818 34.1742 151.64 32.9579 153.793C31.7416 155.946 31.0712 158.365 31.0054 160.837C30.9395 163.309 31.4802 165.759 32.5801 167.974C33.6801 170.189 35.3058 172.101 37.3151 173.542C39.3245 174.983 41.6564 175.911 44.1069 176.243C46.5574 176.575 49.052 176.302 51.3725 175.447C53.693 174.592 55.7689 173.182 57.4186 171.34C56.8086 175.24 55.1886 181.1 50.9286 184.13H68.0586C63.8386 181.36 62.2086 175.35 61.5886 171.36C63.2408 173.199 65.3181 174.605 67.639 175.455C69.9599 176.306 72.4538 176.575 74.9028 176.24C77.3519 175.905 79.6816 174.975 81.6884 173.532C83.6953 172.089 85.3183 170.176 86.4157 167.961C87.513 165.746 88.0514 163.296 87.9837 160.825C87.916 158.355 87.2444 155.938 86.0274 153.786C84.8104 151.635 83.0851 149.814 81.0023 148.483C78.9194 147.152 76.5423 146.351 74.0786 146.15Z" fill="url(#paint1_linear_104_2740)"/>
<path d="M149.039 76.4248C149.355 75.3083 149.517 74.1541 149.521 72.994C149.521 71.2876 149.184 69.598 148.529 68.0214C147.875 66.4449 146.915 65.0125 145.706 63.8059C144.496 62.5993 143.06 61.6421 141.48 60.9891C139.899 60.3361 138.205 60 136.495 60C134.784 60 133.09 60.3361 131.51 60.9891C129.929 61.6421 128.493 62.5993 127.284 63.8059C126.074 65.0125 125.115 66.4449 124.46 68.0214C123.806 69.598 123.469 71.2876 123.469 72.994C123.475 74.1545 123.64 75.3087 123.959 76.4248C121.84 76.5973 119.795 77.285 118.004 78.4278C116.213 79.5706 114.729 81.1337 113.683 82.9804C112.638 84.8271 112.061 86.9012 112.005 89.0215C111.948 91.1417 112.413 93.2435 113.359 95.1431C114.304 97.0428 115.702 98.6824 117.43 99.9187C119.157 101.155 121.162 101.95 123.269 102.235C125.376 102.52 127.521 102.286 129.516 101.553C131.512 100.82 133.296 99.6101 134.715 98.0301C134.19 101.375 132.798 106.401 129.135 109H143.863C140.235 106.624 138.833 101.469 138.3 98.0473C139.721 99.6242 141.507 100.83 143.503 101.56C145.498 102.289 147.642 102.52 149.748 102.233C151.854 101.945 153.857 101.148 155.582 99.9101C157.308 98.6723 158.703 97.0319 159.647 95.1322C160.59 93.2325 161.053 91.1312 160.995 89.0119C160.937 86.8925 160.359 84.8197 159.313 82.9743C158.267 81.1289 156.783 79.5672 154.992 78.4255C153.202 77.2839 151.158 76.597 149.039 76.4248Z" fill="url(#paint2_linear_104_2740)"/>
<path d="M149.039 190.425C149.355 189.308 149.517 188.154 149.521 186.994C149.521 185.288 149.184 183.598 148.529 182.021C147.875 180.445 146.915 179.012 145.706 177.806C144.496 176.599 143.06 175.642 141.48 174.989C139.899 174.336 138.205 174 136.495 174C134.784 174 133.09 174.336 131.51 174.989C129.929 175.642 128.493 176.599 127.284 177.806C126.074 179.012 125.115 180.445 124.46 182.021C123.806 183.598 123.469 185.288 123.469 186.994C123.475 188.155 123.64 189.309 123.959 190.425C121.84 190.597 119.795 191.285 118.004 192.428C116.213 193.571 114.729 195.134 113.683 196.98C112.638 198.827 112.061 200.901 112.005 203.021C111.948 205.142 112.413 207.243 113.359 209.143C114.304 211.043 115.702 212.682 117.43 213.919C119.157 215.155 121.162 215.95 123.269 216.235C125.376 216.52 127.521 216.286 129.516 215.553C131.512 214.82 133.296 213.61 134.715 212.03C134.19 215.375 132.798 220.401 129.135 223H143.863C140.235 220.624 138.833 215.469 138.3 212.047C139.721 213.624 141.507 214.83 143.503 215.56C145.498 216.289 147.642 216.52 149.748 216.233C151.854 215.945 153.857 215.148 155.582 213.91C157.308 212.672 158.703 211.032 159.647 209.132C160.59 207.232 161.053 205.131 160.995 203.012C160.937 200.893 160.359 198.82 159.313 196.974C158.267 195.129 156.783 193.567 154.992 192.426C153.202 191.284 151.158 190.597 149.039 190.425Z" fill="url(#paint3_linear_104_2740)"/>
<path d="M149.039 329.575C149.355 330.692 149.517 331.846 149.521 333.006C149.521 334.712 149.184 336.402 148.529 337.979C147.875 339.555 146.915 340.988 145.706 342.194C144.496 343.401 143.06 344.358 141.48 345.011C139.899 345.664 138.205 346 136.495 346C134.784 346 133.09 345.664 131.51 345.011C129.929 344.358 128.493 343.401 127.284 342.194C126.074 340.988 125.115 339.555 124.46 337.979C123.806 336.402 123.469 334.712 123.469 333.006C123.475 331.845 123.64 330.691 123.959 329.575C121.84 329.403 119.795 328.715 118.004 327.572C116.213 326.429 114.729 324.866 113.683 323.02C112.638 321.173 112.061 319.099 112.005 316.979C111.948 314.858 112.413 312.757 113.359 310.857C114.304 308.957 115.702 307.318 117.43 306.081C119.157 304.845 121.162 304.05 123.269 303.765C125.376 303.48 127.521 303.714 129.516 304.447C131.512 305.18 133.296 306.39 134.715 307.97C134.19 304.625 132.798 299.599 129.135 297H143.863C140.235 299.376 138.833 304.531 138.3 307.953C139.721 306.376 141.507 305.17 143.503 304.44C145.498 303.711 147.642 303.48 149.748 303.767C151.854 304.055 153.857 304.852 155.582 306.09C157.308 307.328 158.703 308.968 159.647 310.868C160.59 312.768 161.053 314.869 160.995 316.988C160.937 319.107 160.359 321.18 159.313 323.026C158.267 324.871 156.783 326.433 154.992 327.574C153.202 328.716 151.158 329.403 149.039 329.575Z" fill="url(#paint4_linear_104_2740)"/>
<path d="M230.039 190.425C230.355 189.308 230.517 188.154 230.521 186.994C230.521 185.288 230.184 183.598 229.529 182.021C228.875 180.445 227.915 179.012 226.706 177.806C225.496 176.599 224.06 175.642 222.48 174.989C220.899 174.336 219.205 174 217.495 174C215.784 174 214.09 174.336 212.51 174.989C210.929 175.642 209.493 176.599 208.284 177.806C207.074 179.012 206.115 180.445 205.46 182.021C204.806 183.598 204.469 185.288 204.469 186.994C204.475 188.155 204.64 189.309 204.959 190.425C202.84 190.597 200.795 191.285 199.004 192.428C197.213 193.571 195.729 195.134 194.683 196.98C193.638 198.827 193.061 200.901 193.005 203.021C192.948 205.142 193.413 207.243 194.359 209.143C195.304 211.043 196.702 212.682 198.43 213.919C200.157 215.155 202.162 215.95 204.269 216.235C206.376 216.52 208.521 216.286 210.516 215.553C212.512 214.82 214.296 213.61 215.715 212.03C215.19 215.375 213.798 220.401 210.135 223H224.863C221.235 220.624 219.833 215.469 219.3 212.047C220.721 213.624 222.507 214.83 224.503 215.56C226.498 216.289 228.642 216.52 230.748 216.233C232.854 215.945 234.857 215.148 236.582 213.91C238.308 212.672 239.703 211.032 240.647 209.132C241.59 207.232 242.053 205.131 241.995 203.012C241.937 200.893 241.359 198.82 240.313 196.974C239.267 195.129 237.783 193.567 235.992 192.426C234.202 191.284 232.158 190.597 230.039 190.425Z" fill="url(#paint5_linear_104_2740)"/>
<path d="M230.039 329.575C230.355 330.692 230.517 331.846 230.521 333.006C230.521 334.712 230.184 336.402 229.529 337.979C228.875 339.555 227.915 340.988 226.706 342.194C225.496 343.401 224.06 344.358 222.48 345.011C220.899 345.664 219.205 346 217.495 346C215.784 346 214.09 345.664 212.51 345.011C210.929 344.358 209.493 343.401 208.284 342.194C207.074 340.988 206.115 339.555 205.46 337.979C204.806 336.402 204.469 334.712 204.469 333.006C204.475 331.845 204.64 330.691 204.959 329.575C202.84 329.403 200.795 328.715 199.004 327.572C197.213 326.429 195.729 324.866 194.683 323.02C193.638 321.173 193.061 319.099 193.005 316.979C192.948 314.858 193.413 312.757 194.359 310.857C195.304 308.957 196.702 307.318 198.43 306.081C200.157 304.845 202.162 304.05 204.269 303.765C206.376 303.48 208.521 303.714 210.516 304.447C212.512 305.18 214.296 306.39 215.715 307.97C215.19 304.625 213.798 299.599 210.135 297H224.863C221.235 299.376 219.833 304.531 219.3 307.953C220.721 306.376 222.507 305.17 224.503 304.44C226.498 303.711 228.642 303.48 230.748 303.767C232.854 304.055 234.857 304.852 236.582 306.09C238.308 307.328 239.703 308.968 240.647 310.868C241.59 312.768 242.053 314.869 241.995 316.988C241.937 319.107 241.359 321.18 240.313 323.026C239.267 324.871 237.783 326.433 235.992 327.574C234.202 328.716 232.158 329.403 230.039 329.575Z" fill="url(#paint6_linear_104_2740)"/>
<path d="M189.039 272.575C189.355 273.692 189.517 274.846 189.521 276.006C189.521 277.712 189.184 279.402 188.529 280.979C187.875 282.555 186.915 283.988 185.706 285.194C184.496 286.401 183.06 287.358 181.48 288.011C179.899 288.664 178.205 289 176.495 289C174.784 289 173.09 288.664 171.51 288.011C169.929 287.358 168.493 286.401 167.284 285.194C166.074 283.988 165.115 282.555 164.46 280.979C163.806 279.402 163.469 277.712 163.469 276.006C163.475 274.845 163.64 273.691 163.959 272.575C161.84 272.403 159.795 271.715 158.004 270.572C156.213 269.429 154.729 267.866 153.683 266.02C152.638 264.173 152.061 262.099 152.005 259.979C151.948 257.858 152.413 255.757 153.359 253.857C154.304 251.957 155.702 250.318 157.43 249.081C159.157 247.845 161.162 247.05 163.269 246.765C165.376 246.48 167.521 246.714 169.516 247.447C171.512 248.18 173.296 249.39 174.715 250.97C174.19 247.625 172.798 242.599 169.135 240H183.863C180.235 242.376 178.833 247.531 178.3 250.953C179.721 249.376 181.507 248.17 183.503 247.44C185.498 246.711 187.642 246.48 189.748 246.767C191.854 247.055 193.857 247.852 195.582 249.09C197.308 250.328 198.703 251.968 199.647 253.868C200.59 255.768 201.053 257.869 200.995 259.988C200.937 262.107 200.359 264.18 199.313 266.026C198.267 267.871 196.783 269.433 194.992 270.574C193.202 271.716 191.158 272.403 189.039 272.575Z" fill="url(#paint7_linear_104_2740)"/>
<path d="M189.039 133.425C189.355 132.308 189.517 131.154 189.521 129.994C189.521 128.288 189.184 126.598 188.529 125.021C187.875 123.445 186.915 122.012 185.706 120.806C184.496 119.599 183.06 118.642 181.48 117.989C179.899 117.336 178.205 117 176.495 117C174.784 117 173.09 117.336 171.51 117.989C169.929 118.642 168.493 119.599 167.284 120.806C166.074 122.012 165.115 123.445 164.46 125.021C163.806 126.598 163.469 128.288 163.469 129.994C163.475 131.155 163.64 132.309 163.959 133.425C161.84 133.597 159.795 134.285 158.004 135.428C156.213 136.571 154.729 138.134 153.683 139.98C152.638 141.827 152.061 143.901 152.005 146.021C151.948 148.142 152.413 150.243 153.359 152.143C154.304 154.043 155.702 155.682 157.43 156.919C159.157 158.155 161.162 158.95 163.269 159.235C165.376 159.52 167.521 159.286 169.516 158.553C171.512 157.82 173.296 156.61 174.715 155.03C174.19 158.375 172.798 163.401 169.135 166H183.863C180.235 163.624 178.833 158.469 178.3 155.047C179.721 156.624 181.507 157.83 183.503 158.56C185.498 159.289 187.642 159.52 189.748 159.233C191.854 158.945 193.857 158.148 195.582 156.91C197.308 155.672 198.703 154.032 199.647 152.132C200.59 150.232 201.053 148.131 200.995 146.012C200.937 143.893 200.359 141.82 199.313 139.974C198.267 138.129 196.783 136.567 194.992 135.426C193.202 134.284 191.158 133.597 189.039 133.425Z" fill="url(#paint8_linear_104_2740)"/>
<path d="M230.039 76.4248C230.355 75.3083 230.517 74.1541 230.521 72.994C230.521 71.2876 230.184 69.598 229.529 68.0214C228.875 66.4449 227.915 65.0125 226.706 63.8059C225.496 62.5993 224.06 61.6421 222.48 60.9891C220.899 60.3361 219.205 60 217.495 60C215.784 60 214.09 60.3361 212.51 60.9891C210.929 61.6421 209.493 62.5993 208.284 63.8059C207.074 65.0125 206.115 66.4449 205.46 68.0214C204.806 69.598 204.469 71.2876 204.469 72.994C204.475 74.1545 204.64 75.3087 204.959 76.4248C202.84 76.5973 200.795 77.285 199.004 78.4278C197.213 79.5706 195.729 81.1337 194.683 82.9804C193.638 84.8271 193.061 86.9012 193.005 89.0215C192.948 91.1417 193.413 93.2435 194.359 95.1431C195.304 97.0428 196.702 98.6824 198.43 99.9187C200.157 101.155 202.162 101.95 204.269 102.235C206.376 102.52 208.521 102.286 210.516 101.553C212.512 100.82 214.296 99.6101 215.715 98.0301C215.19 101.375 213.798 106.401 210.135 109H224.863C221.235 106.624 219.833 101.469 219.3 98.0473C220.721 99.6242 222.507 100.83 224.503 101.56C226.498 102.289 228.642 102.52 230.748 102.233C232.854 101.945 234.857 101.148 236.582 99.9101C238.308 98.6723 239.703 97.0319 240.647 95.1322C241.59 93.2325 242.053 91.1312 241.995 89.0119C241.937 86.8925 241.359 84.8197 240.313 82.9743C239.267 81.1289 237.783 79.5672 235.992 78.4255C234.202 77.2839 232.158 76.597 230.039 76.4248Z" fill="url(#paint9_linear_104_2740)"/>
<defs>
<linearGradient id="paint0_linear_104_2740" x1="269" y1="202" x2="0" y2="202" gradientUnits="userSpaceOnUse">
<stop stop-color="#B4B4B4"/>
<stop offset="0.5" stop-color="#B7B3B8"/>
<stop offset="0.9999" stop-color="#F9F8F9"/>
<stop offset="1" stop-color="#B9B6BA"/>
</linearGradient>
<linearGradient id="paint1_linear_104_2740" x1="29.1386" y1="155.61" x2="91.2786" y2="155.49" gradientUnits="userSpaceOnUse">
<stop stop-color="#140F14"/>
<stop offset="0.13" stop-color="#302E32"/>
<stop offset="0.36" stop-color="#140F14"/>
<stop offset="0.62" stop-color="#302E32"/>
<stop offset="1" stop-color="#140F14"/>
</linearGradient>
<linearGradient id="paint2_linear_104_2740" x1="110.4" y1="84.5386" x2="163.828" y2="84.4352" gradientUnits="userSpaceOnUse">
<stop stop-color="#140F14"/>
<stop offset="0.13" stop-color="#302E32"/>
<stop offset="0.36" stop-color="#140F14"/>
<stop offset="0.62" stop-color="#302E32"/>
<stop offset="1" stop-color="#140F14"/>
</linearGradient>
<linearGradient id="paint3_linear_104_2740" x1="110.4" y1="198.539" x2="163.828" y2="198.435" gradientUnits="userSpaceOnUse">
<stop stop-color="#140F14"/>
<stop offset="0.13" stop-color="#302E32"/>
<stop offset="0.36" stop-color="#140F14"/>
<stop offset="0.62" stop-color="#302E32"/>
<stop offset="1" stop-color="#140F14"/>
</linearGradient>
<linearGradient id="paint4_linear_104_2740" x1="110.4" y1="321.461" x2="163.828" y2="321.565" gradientUnits="userSpaceOnUse">
<stop stop-color="#140F14"/>
<stop offset="0.13" stop-color="#302E32"/>
<stop offset="0.36" stop-color="#140F14"/>
<stop offset="0.62" stop-color="#302E32"/>
<stop offset="1" stop-color="#140F14"/>
</linearGradient>
<linearGradient id="paint5_linear_104_2740" x1="191.4" y1="198.539" x2="244.828" y2="198.435" gradientUnits="userSpaceOnUse">
<stop stop-color="#140F14"/>
<stop offset="0.13" stop-color="#302E32"/>
<stop offset="0.36" stop-color="#140F14"/>
<stop offset="0.62" stop-color="#302E32"/>
<stop offset="1" stop-color="#140F14"/>
</linearGradient>
<linearGradient id="paint6_linear_104_2740" x1="191.4" y1="321.461" x2="244.828" y2="321.565" gradientUnits="userSpaceOnUse">
<stop stop-color="#140F14"/>
<stop offset="0.13" stop-color="#302E32"/>
<stop offset="0.36" stop-color="#140F14"/>
<stop offset="0.62" stop-color="#302E32"/>
<stop offset="1" stop-color="#140F14"/>
</linearGradient>
<linearGradient id="paint7_linear_104_2740" x1="150.4" y1="264.461" x2="203.828" y2="264.565" gradientUnits="userSpaceOnUse">
<stop stop-color="#140F14"/>
<stop offset="0.13" stop-color="#302E32"/>
<stop offset="0.36" stop-color="#140F14"/>
<stop offset="0.62" stop-color="#302E32"/>
<stop offset="1" stop-color="#140F14"/>
</linearGradient>
<linearGradient id="paint8_linear_104_2740" x1="150.4" y1="141.539" x2="203.828" y2="141.435" gradientUnits="userSpaceOnUse">
<stop stop-color="#140F14"/>
<stop offset="0.13" stop-color="#302E32"/>
<stop offset="0.36" stop-color="#140F14"/>
<stop offset="0.62" stop-color="#302E32"/>
<stop offset="1" stop-color="#140F14"/>
</linearGradient>
<linearGradient id="paint9_linear_104_2740" x1="191.4" y1="84.5386" x2="244.828" y2="84.4352" gradientUnits="userSpaceOnUse">
<stop stop-color="#140F14"/>
<stop offset="0.13" stop-color="#302E32"/>
<stop offset="0.36" stop-color="#140F14"/>
<stop offset="0.62" stop-color="#302E32"/>
<stop offset="1" stop-color="#140F14"/>
</linearGradient>
</defs>
</svg>
