<svg width="269" height="404" viewBox="0 0 269 404" fill="none" xmlns="http://www.w3.org/2000/svg">
<rect x="4" y="4" width="261" height="396" rx="11" fill="url(#paint0_linear_104_2803)" stroke="#404040" stroke-width="8"/>
<path d="M42.7839 41.5455V107H28.9451V54.6811H28.5616L13.5723 64.0774V51.8047L29.7761 41.5455H42.7839ZM84.0046 108.438C78.5075 108.417 73.7773 107.064 69.8143 104.379C65.8725 101.695 62.8363 97.8061 60.7056 92.7138C58.5962 87.6214 57.5522 81.4957 57.5735 74.3366C57.5735 67.1989 58.6282 61.1158 60.7376 56.0874C62.8683 51.0589 65.9045 47.2344 69.8462 44.6136C73.8093 41.9716 78.5288 40.6506 84.0046 40.6506C89.4805 40.6506 94.1893 41.9716 98.131 44.6136C102.094 47.2557 105.141 51.0909 107.272 56.1193C109.402 61.1264 110.457 67.1989 110.436 74.3366C110.436 81.517 109.37 87.6534 107.24 92.7457C105.13 97.8381 102.105 101.727 98.163 104.411C94.2212 107.096 89.5018 108.438 84.0046 108.438ZM84.0046 96.9645C87.7546 96.9645 90.7482 95.0788 92.9854 91.3075C95.2227 87.5362 96.3306 81.8793 96.3093 74.3366C96.3093 69.3722 95.7979 65.2386 94.7752 61.9361C93.7738 58.6335 92.3462 56.1513 90.4925 54.4893C88.6602 52.8274 86.4975 51.9964 84.0046 51.9964C80.2759 51.9964 77.293 53.8608 75.0558 57.5895C72.8185 61.3182 71.6893 66.9006 71.668 74.3366C71.668 79.3651 72.1687 83.5625 73.1701 86.929C74.1928 90.2741 75.631 92.7884 77.4847 94.4716C79.3384 96.1335 81.5117 96.9645 84.0046 96.9645Z" fill="#1F1D1D"/>
<path d="M74.0786 146.15C74.4456 144.848 74.634 143.503 74.6386 142.15C74.6386 140.16 74.2467 138.19 73.4854 136.352C72.724 134.514 71.6081 132.844 70.2012 131.437C68.7944 130.031 67.1243 128.915 65.2862 128.153C63.4482 127.392 61.4781 127 59.4886 127C57.4991 127 55.529 127.392 53.6909 128.153C51.8528 128.915 50.1827 130.031 48.7759 131.437C47.3691 132.844 46.2532 134.514 45.4918 136.352C44.7304 138.19 44.3386 140.16 44.3386 142.15C44.3465 143.503 44.5382 144.849 44.9086 146.15C42.4439 146.351 40.0659 147.153 37.9827 148.485C35.8994 149.818 34.1742 151.64 32.9579 153.793C31.7416 155.946 31.0712 158.365 31.0054 160.837C30.9395 163.309 31.4802 165.759 32.5801 167.974C33.6801 170.189 35.3058 172.101 37.3151 173.542C39.3245 174.983 41.6564 175.911 44.1069 176.243C46.5574 176.575 49.052 176.302 51.3725 175.447C53.693 174.592 55.7689 173.182 57.4186 171.34C56.8086 175.24 55.1886 181.1 50.9286 184.13H68.0586C63.8386 181.36 62.2086 175.35 61.5886 171.36C63.2408 173.199 65.3181 174.605 67.639 175.455C69.9599 176.306 72.4538 176.575 74.9028 176.24C77.3519 175.905 79.6816 174.975 81.6884 173.532C83.6953 172.089 85.3183 170.176 86.4157 167.961C87.513 165.746 88.0514 163.296 87.9837 160.825C87.916 158.355 87.2444 155.938 86.0274 153.786C84.8104 151.635 83.0851 149.814 81.0023 148.483C78.9194 147.152 76.5423 146.351 74.0786 146.15Z" fill="url(#paint1_linear_104_2803)"/>
<path d="M152.039 76.4248C152.355 75.3083 152.517 74.1541 152.521 72.994C152.521 71.2876 152.184 69.598 151.529 68.0214C150.875 66.4449 149.915 65.0125 148.706 63.8059C147.496 62.5993 146.06 61.6421 144.48 60.9891C142.899 60.3361 141.205 60 139.495 60C137.784 60 136.09 60.3361 134.51 60.9891C132.929 61.6421 131.493 62.5993 130.284 63.8059C129.074 65.0125 128.115 66.4449 127.46 68.0214C126.806 69.598 126.469 71.2876 126.469 72.994C126.475 74.1545 126.64 75.3087 126.959 76.4248C124.84 76.5973 122.795 77.285 121.004 78.4278C119.213 79.5706 117.729 81.1337 116.683 82.9804C115.638 84.8271 115.061 86.9012 115.005 89.0215C114.948 91.1417 115.413 93.2435 116.359 95.1431C117.304 97.0428 118.702 98.6824 120.43 99.9187C122.157 101.155 124.162 101.95 126.269 102.235C128.376 102.52 130.521 102.286 132.516 101.553C134.512 100.82 136.296 99.6101 137.715 98.0301C137.19 101.375 135.798 106.401 132.135 109H146.863C143.235 106.624 141.833 101.469 141.3 98.0473C142.721 99.6242 144.507 100.83 146.503 101.56C148.498 102.289 150.642 102.52 152.748 102.233C154.854 101.945 156.857 101.148 158.582 99.9101C160.308 98.6723 161.703 97.0319 162.647 95.1322C163.59 93.2325 164.053 91.1312 163.995 89.0119C163.937 86.8925 163.359 84.8197 162.313 82.9743C161.267 81.1289 159.783 79.5672 157.992 78.4255C156.202 77.2839 154.158 76.597 152.039 76.4248Z" fill="url(#paint2_linear_104_2803)"/>
<path d="M152.039 329.575C152.355 330.692 152.517 331.846 152.521 333.006C152.521 334.712 152.184 336.402 151.529 337.979C150.875 339.555 149.915 340.988 148.706 342.194C147.496 343.401 146.06 344.358 144.48 345.011C142.899 345.664 141.205 346 139.495 346C137.784 346 136.09 345.664 134.51 345.011C132.929 344.358 131.493 343.401 130.284 342.194C129.074 340.988 128.115 339.555 127.46 337.979C126.806 336.402 126.469 334.712 126.469 333.006C126.475 331.845 126.64 330.691 126.959 329.575C124.84 329.403 122.795 328.715 121.004 327.572C119.213 326.429 117.729 324.866 116.683 323.02C115.638 321.173 115.061 319.099 115.005 316.979C114.948 314.858 115.413 312.757 116.359 310.857C117.304 308.957 118.702 307.318 120.43 306.081C122.157 304.845 124.162 304.05 126.269 303.765C128.376 303.48 130.521 303.714 132.516 304.447C134.512 305.18 136.296 306.39 137.715 307.97C137.19 304.625 135.798 299.599 132.135 297H146.863C143.235 299.376 141.833 304.531 141.3 307.953C142.721 306.376 144.507 305.17 146.503 304.44C148.498 303.711 150.642 303.48 152.748 303.767C154.854 304.055 156.857 304.852 158.582 306.09C160.308 307.328 161.703 308.968 162.647 310.868C163.59 312.768 164.053 314.869 163.995 316.988C163.937 319.107 163.359 321.18 162.313 323.026C161.267 324.871 159.783 326.433 157.992 327.574C156.202 328.716 154.158 329.403 152.039 329.575Z" fill="url(#paint3_linear_104_2803)"/>
<path d="M152.039 161.425C152.355 160.308 152.517 159.154 152.521 157.994C152.521 156.288 152.184 154.598 151.529 153.021C150.875 151.445 149.915 150.012 148.706 148.806C147.496 147.599 146.06 146.642 144.48 145.989C142.899 145.336 141.205 145 139.495 145C137.784 145 136.09 145.336 134.51 145.989C132.929 146.642 131.493 147.599 130.284 148.806C129.074 150.012 128.115 151.445 127.46 153.021C126.806 154.598 126.469 156.288 126.469 157.994C126.475 159.155 126.64 160.309 126.959 161.425C124.84 161.597 122.795 162.285 121.004 163.428C119.213 164.571 117.729 166.134 116.683 167.98C115.638 169.827 115.061 171.901 115.005 174.021C114.948 176.142 115.413 178.243 116.359 180.143C117.304 182.043 118.702 183.682 120.43 184.919C122.157 186.155 124.162 186.95 126.269 187.235C128.376 187.52 130.521 187.286 132.516 186.553C134.512 185.82 136.296 184.61 137.715 183.03C137.19 186.375 135.798 191.401 132.135 194H146.863C143.235 191.624 141.833 186.469 141.3 183.047C142.721 184.624 144.507 185.83 146.503 186.56C148.498 187.289 150.642 187.52 152.748 187.233C154.854 186.945 156.857 186.148 158.582 184.91C160.308 183.672 161.703 182.032 162.647 180.132C163.59 178.232 164.053 176.131 163.995 174.012C163.937 171.893 163.359 169.82 162.313 167.974C161.267 166.129 159.783 164.567 157.992 163.426C156.202 162.284 154.158 161.597 152.039 161.425Z" fill="url(#paint4_linear_104_2803)"/>
<path d="M152.039 244.575C152.355 245.692 152.517 246.846 152.521 248.006C152.521 249.712 152.184 251.402 151.529 252.979C150.875 254.555 149.915 255.988 148.706 257.194C147.496 258.401 146.06 259.358 144.48 260.011C142.899 260.664 141.205 261 139.495 261C137.784 261 136.09 260.664 134.51 260.011C132.929 259.358 131.493 258.401 130.284 257.194C129.074 255.988 128.115 254.555 127.46 252.979C126.806 251.402 126.469 249.712 126.469 248.006C126.475 246.845 126.64 245.691 126.959 244.575C124.84 244.403 122.795 243.715 121.004 242.572C119.213 241.429 117.729 239.866 116.683 238.02C115.638 236.173 115.061 234.099 115.005 231.979C114.948 229.858 115.413 227.757 116.359 225.857C117.304 223.957 118.702 222.318 120.43 221.081C122.157 219.845 124.162 219.05 126.269 218.765C128.376 218.48 130.521 218.714 132.516 219.447C134.512 220.18 136.296 221.39 137.715 222.97C137.19 219.625 135.798 214.599 132.135 212H146.863C143.235 214.376 141.833 219.531 141.3 222.953C142.721 221.376 144.507 220.17 146.503 219.44C148.498 218.711 150.642 218.48 152.748 218.767C154.854 219.055 156.857 219.852 158.582 221.09C160.308 222.328 161.703 223.968 162.647 225.868C163.59 227.768 164.053 229.869 163.995 231.988C163.937 234.107 163.359 236.18 162.313 238.026C161.267 239.871 159.783 241.433 157.992 242.574C156.202 243.716 154.158 244.403 152.039 244.575Z" fill="url(#paint5_linear_104_2803)"/>
<path d="M229.039 161.425C229.355 160.308 229.517 159.154 229.521 157.994C229.521 156.288 229.184 154.598 228.529 153.021C227.875 151.445 226.915 150.012 225.706 148.806C224.496 147.599 223.06 146.642 221.48 145.989C219.899 145.336 218.205 145 216.495 145C214.784 145 213.09 145.336 211.51 145.989C209.929 146.642 208.493 147.599 207.284 148.806C206.074 150.012 205.115 151.445 204.46 153.021C203.806 154.598 203.469 156.288 203.469 157.994C203.475 159.155 203.64 160.309 203.959 161.425C201.84 161.597 199.795 162.285 198.004 163.428C196.213 164.571 194.729 166.134 193.683 167.98C192.638 169.827 192.061 171.901 192.005 174.021C191.948 176.142 192.413 178.243 193.359 180.143C194.304 182.043 195.702 183.682 197.43 184.919C199.157 186.155 201.162 186.95 203.269 187.235C205.376 187.52 207.521 187.286 209.516 186.553C211.512 185.82 213.296 184.61 214.715 183.03C214.19 186.375 212.798 191.401 209.135 194H223.863C220.235 191.624 218.833 186.469 218.3 183.047C219.721 184.624 221.507 185.83 223.503 186.56C225.498 187.289 227.642 187.52 229.748 187.233C231.854 186.945 233.857 186.148 235.582 184.91C237.308 183.672 238.703 182.032 239.647 180.132C240.59 178.232 241.053 176.131 240.995 174.012C240.937 171.893 240.359 169.82 239.313 167.974C238.267 166.129 236.783 164.567 234.992 163.426C233.202 162.284 231.158 161.597 229.039 161.425Z" fill="url(#paint6_linear_104_2803)"/>
<path d="M229.039 244.575C229.355 245.692 229.517 246.846 229.521 248.006C229.521 249.712 229.184 251.402 228.529 252.979C227.875 254.555 226.915 255.988 225.706 257.194C224.496 258.401 223.06 259.358 221.48 260.011C219.899 260.664 218.205 261 216.495 261C214.784 261 213.09 260.664 211.51 260.011C209.929 259.358 208.493 258.401 207.284 257.194C206.074 255.988 205.115 254.555 204.46 252.979C203.806 251.402 203.469 249.712 203.469 248.006C203.475 246.845 203.64 245.691 203.959 244.575C201.84 244.403 199.795 243.715 198.004 242.572C196.213 241.429 194.729 239.866 193.683 238.02C192.638 236.173 192.061 234.099 192.005 231.979C191.948 229.858 192.413 227.757 193.359 225.857C194.304 223.957 195.702 222.318 197.43 221.081C199.157 219.845 201.162 219.05 203.269 218.765C205.376 218.48 207.521 218.714 209.516 219.447C211.512 220.18 213.296 221.39 214.715 222.97C214.19 219.625 212.798 214.599 209.135 212H223.863C220.235 214.376 218.833 219.531 218.3 222.953C219.721 221.376 221.507 220.17 223.503 219.44C225.498 218.711 227.642 218.48 229.748 218.767C231.854 219.055 233.857 219.852 235.582 221.09C237.308 222.328 238.703 223.968 239.647 225.868C240.59 227.768 241.053 229.869 240.995 231.988C240.937 234.107 240.359 236.18 239.313 238.026C238.267 239.871 236.783 241.433 234.992 242.574C233.202 243.716 231.158 244.403 229.039 244.575Z" fill="url(#paint7_linear_104_2803)"/>
<path d="M191.039 123.425C191.355 122.308 191.517 121.154 191.521 119.994C191.521 118.288 191.184 116.598 190.529 115.021C189.875 113.445 188.915 112.012 187.706 110.806C186.496 109.599 185.06 108.642 183.48 107.989C181.899 107.336 180.205 107 178.495 107C176.784 107 175.09 107.336 173.51 107.989C171.929 108.642 170.493 109.599 169.284 110.806C168.074 112.012 167.115 113.445 166.46 115.021C165.806 116.598 165.469 118.288 165.469 119.994C165.475 121.155 165.64 122.309 165.959 123.425C163.84 123.597 161.795 124.285 160.004 125.428C158.213 126.571 156.729 128.134 155.683 129.98C154.638 131.827 154.061 133.901 154.005 136.021C153.948 138.142 154.413 140.243 155.359 142.143C156.304 144.043 157.702 145.682 159.43 146.919C161.157 148.155 163.162 148.95 165.269 149.235C167.376 149.52 169.521 149.286 171.516 148.553C173.512 147.82 175.296 146.61 176.715 145.03C176.19 148.375 174.798 153.401 171.135 156H185.863C182.235 153.624 180.833 148.469 180.3 145.047C181.721 146.624 183.507 147.83 185.503 148.56C187.498 149.289 189.642 149.52 191.748 149.233C193.854 148.945 195.857 148.148 197.582 146.91C199.308 145.672 200.703 144.032 201.647 142.132C202.59 140.232 203.053 138.131 202.995 136.012C202.937 133.893 202.359 131.82 201.313 129.974C200.267 128.129 198.783 126.567 196.992 125.426C195.202 124.284 193.158 123.597 191.039 123.425Z" fill="url(#paint8_linear_104_2803)"/>
<path d="M191.039 287.575C191.355 288.692 191.517 289.846 191.521 291.006C191.521 292.712 191.184 294.402 190.529 295.979C189.875 297.555 188.915 298.988 187.706 300.194C186.496 301.401 185.06 302.358 183.48 303.011C181.899 303.664 180.205 304 178.495 304C176.784 304 175.09 303.664 173.51 303.011C171.929 302.358 170.493 301.401 169.284 300.194C168.074 298.988 167.115 297.555 166.46 295.979C165.806 294.402 165.469 292.712 165.469 291.006C165.475 289.845 165.64 288.691 165.959 287.575C163.84 287.403 161.795 286.715 160.004 285.572C158.213 284.429 156.729 282.866 155.683 281.02C154.638 279.173 154.061 277.099 154.005 274.979C153.948 272.858 154.413 270.757 155.359 268.857C156.304 266.957 157.702 265.318 159.43 264.081C161.157 262.845 163.162 262.05 165.269 261.765C167.376 261.48 169.521 261.714 171.516 262.447C173.512 263.18 175.296 264.39 176.715 265.97C176.19 262.625 174.798 257.599 171.135 255H185.863C182.235 257.376 180.833 262.531 180.3 265.953C181.721 264.376 183.507 263.17 185.503 262.44C187.498 261.711 189.642 261.48 191.748 261.767C193.854 262.055 195.857 262.852 197.582 264.09C199.308 265.328 200.703 266.968 201.647 268.868C202.59 270.768 203.053 272.869 202.995 274.988C202.937 277.107 202.359 279.18 201.313 281.026C200.267 282.871 198.783 284.433 196.992 285.574C195.202 286.716 193.158 287.403 191.039 287.575Z" fill="url(#paint9_linear_104_2803)"/>
<path d="M229.039 76.4248C229.355 75.3083 229.517 74.1541 229.521 72.994C229.521 71.2876 229.184 69.598 228.529 68.0214C227.875 66.4449 226.915 65.0125 225.706 63.8059C224.496 62.5993 223.06 61.6421 221.48 60.9891C219.899 60.3361 218.205 60 216.495 60C214.784 60 213.09 60.3361 211.51 60.9891C209.929 61.6421 208.493 62.5993 207.284 63.8059C206.074 65.0125 205.115 66.4449 204.46 68.0214C203.806 69.598 203.469 71.2876 203.469 72.994C203.475 74.1545 203.64 75.3087 203.959 76.4248C201.84 76.5973 199.795 77.285 198.004 78.4278C196.213 79.5706 194.729 81.1337 193.683 82.9804C192.638 84.8271 192.061 86.9012 192.005 89.0215C191.948 91.1417 192.413 93.2435 193.359 95.1431C194.304 97.0428 195.702 98.6824 197.43 99.9187C199.157 101.155 201.162 101.95 203.269 102.235C205.376 102.52 207.521 102.286 209.516 101.553C211.512 100.82 213.296 99.6101 214.715 98.0301C214.19 101.375 212.798 106.401 209.135 109H223.863C220.235 106.624 218.833 101.469 218.3 98.0473C219.721 99.6242 221.507 100.83 223.503 101.56C225.498 102.289 227.642 102.52 229.748 102.233C231.854 101.945 233.857 101.148 235.582 99.9101C237.308 98.6723 238.703 97.0319 239.647 95.1322C240.59 93.2325 241.053 91.1312 240.995 89.0119C240.937 86.8925 240.359 84.8197 239.313 82.9743C238.267 81.1289 236.783 79.5672 234.992 78.4255C233.202 77.2839 231.158 76.597 229.039 76.4248Z" fill="url(#paint10_linear_104_2803)"/>
<path d="M229.039 329.575C229.355 330.692 229.517 331.846 229.521 333.006C229.521 334.712 229.184 336.402 228.529 337.979C227.875 339.555 226.915 340.988 225.706 342.194C224.496 343.401 223.06 344.358 221.48 345.011C219.899 345.664 218.205 346 216.495 346C214.784 346 213.09 345.664 211.51 345.011C209.929 344.358 208.493 343.401 207.284 342.194C206.074 340.988 205.115 339.555 204.46 337.979C203.806 336.402 203.469 334.712 203.469 333.006C203.475 331.845 203.64 330.691 203.959 329.575C201.84 329.403 199.795 328.715 198.004 327.572C196.213 326.429 194.729 324.866 193.683 323.02C192.638 321.173 192.061 319.099 192.005 316.979C191.948 314.858 192.413 312.757 193.359 310.857C194.304 308.957 195.702 307.318 197.43 306.081C199.157 304.845 201.162 304.05 203.269 303.765C205.376 303.48 207.521 303.714 209.516 304.447C211.512 305.18 213.296 306.39 214.715 307.97C214.19 304.625 212.798 299.599 209.135 297H223.863C220.235 299.376 218.833 304.531 218.3 307.953C219.721 306.376 221.507 305.17 223.503 304.44C225.498 303.711 227.642 303.48 229.748 303.767C231.854 304.055 233.857 304.852 235.582 306.09C237.308 307.328 238.703 308.968 239.647 310.868C240.59 312.768 241.053 314.869 240.995 316.988C240.937 319.107 240.359 321.18 239.313 323.026C238.267 324.871 236.783 326.433 234.992 327.574C233.202 328.716 231.158 329.403 229.039 329.575Z" fill="url(#paint11_linear_104_2803)"/>
<defs>
<linearGradient id="paint0_linear_104_2803" x1="269" y1="202" x2="0" y2="202" gradientUnits="userSpaceOnUse">
<stop stop-color="#B4B4B4"/>
<stop offset="0.5" stop-color="#B7B3B8"/>
<stop offset="0.9999" stop-color="#F9F8F9"/>
<stop offset="1" stop-color="#B9B6BA"/>
</linearGradient>
<linearGradient id="paint1_linear_104_2803" x1="29.1386" y1="155.61" x2="91.2786" y2="155.49" gradientUnits="userSpaceOnUse">
<stop stop-color="#140F14"/>
<stop offset="0.13" stop-color="#302E32"/>
<stop offset="0.36" stop-color="#140F14"/>
<stop offset="0.62" stop-color="#302E32"/>
<stop offset="1" stop-color="#140F14"/>
</linearGradient>
<linearGradient id="paint2_linear_104_2803" x1="113.4" y1="84.5386" x2="166.828" y2="84.4352" gradientUnits="userSpaceOnUse">
<stop stop-color="#140F14"/>
<stop offset="0.13" stop-color="#302E32"/>
<stop offset="0.36" stop-color="#140F14"/>
<stop offset="0.62" stop-color="#302E32"/>
<stop offset="1" stop-color="#140F14"/>
</linearGradient>
<linearGradient id="paint3_linear_104_2803" x1="113.4" y1="321.461" x2="166.828" y2="321.565" gradientUnits="userSpaceOnUse">
<stop stop-color="#140F14"/>
<stop offset="0.13" stop-color="#302E32"/>
<stop offset="0.36" stop-color="#140F14"/>
<stop offset="0.62" stop-color="#302E32"/>
<stop offset="1" stop-color="#140F14"/>
</linearGradient>
<linearGradient id="paint4_linear_104_2803" x1="113.4" y1="169.539" x2="166.828" y2="169.435" gradientUnits="userSpaceOnUse">
<stop stop-color="#140F14"/>
<stop offset="0.13" stop-color="#302E32"/>
<stop offset="0.36" stop-color="#140F14"/>
<stop offset="0.62" stop-color="#302E32"/>
<stop offset="1" stop-color="#140F14"/>
</linearGradient>
<linearGradient id="paint5_linear_104_2803" x1="113.4" y1="236.461" x2="166.828" y2="236.565" gradientUnits="userSpaceOnUse">
<stop stop-color="#140F14"/>
<stop offset="0.13" stop-color="#302E32"/>
<stop offset="0.36" stop-color="#140F14"/>
<stop offset="0.62" stop-color="#302E32"/>
<stop offset="1" stop-color="#140F14"/>
</linearGradient>
<linearGradient id="paint6_linear_104_2803" x1="190.4" y1="169.539" x2="243.828" y2="169.435" gradientUnits="userSpaceOnUse">
<stop stop-color="#140F14"/>
<stop offset="0.13" stop-color="#302E32"/>
<stop offset="0.36" stop-color="#140F14"/>
<stop offset="0.62" stop-color="#302E32"/>
<stop offset="1" stop-color="#140F14"/>
</linearGradient>
<linearGradient id="paint7_linear_104_2803" x1="190.4" y1="236.461" x2="243.828" y2="236.565" gradientUnits="userSpaceOnUse">
<stop stop-color="#140F14"/>
<stop offset="0.13" stop-color="#302E32"/>
<stop offset="0.36" stop-color="#140F14"/>
<stop offset="0.62" stop-color="#302E32"/>
<stop offset="1" stop-color="#140F14"/>
</linearGradient>
<linearGradient id="paint8_linear_104_2803" x1="152.4" y1="131.539" x2="205.828" y2="131.435" gradientUnits="userSpaceOnUse">
<stop stop-color="#140F14"/>
<stop offset="0.13" stop-color="#302E32"/>
<stop offset="0.36" stop-color="#140F14"/>
<stop offset="0.62" stop-color="#302E32"/>
<stop offset="1" stop-color="#140F14"/>
</linearGradient>
<linearGradient id="paint9_linear_104_2803" x1="152.4" y1="279.461" x2="205.828" y2="279.565" gradientUnits="userSpaceOnUse">
<stop stop-color="#140F14"/>
<stop offset="0.13" stop-color="#302E32"/>
<stop offset="0.36" stop-color="#140F14"/>
<stop offset="0.62" stop-color="#302E32"/>
<stop offset="1" stop-color="#140F14"/>
</linearGradient>
<linearGradient id="paint10_linear_104_2803" x1="190.4" y1="84.5386" x2="243.828" y2="84.4352" gradientUnits="userSpaceOnUse">
<stop stop-color="#140F14"/>
<stop offset="0.13" stop-color="#302E32"/>
<stop offset="0.36" stop-color="#140F14"/>
<stop offset="0.62" stop-color="#302E32"/>
<stop offset="1" stop-color="#140F14"/>
</linearGradient>
<linearGradient id="paint11_linear_104_2803" x1="190.4" y1="321.461" x2="243.828" y2="321.565" gradientUnits="userSpaceOnUse">
<stop stop-color="#140F14"/>
<stop offset="0.13" stop-color="#302E32"/>
<stop offset="0.36" stop-color="#140F14"/>
<stop offset="0.62" stop-color="#302E32"/>
<stop offset="1" stop-color="#140F14"/>
</linearGradient>
</defs>
</svg>
