<svg width="269" height="404" viewBox="0 0 269 404" fill="none" xmlns="http://www.w3.org/2000/svg">
<rect x="4" y="4" width="261" height="396" rx="11" fill="url(#paint0_linear_104_3523)" stroke="#404040" stroke-width="8"/>
<path d="M57.694 84.2443H69.4553L75.368 91.8509L81.1848 98.6264L92.1471 112.369H79.2352L71.6926 103.101L67.8254 97.6037L57.694 84.2443ZM93.1379 74.2727C93.1379 81.4105 91.7849 87.483 89.0789 92.4901C86.3943 97.4972 82.7295 101.322 78.0846 103.964C73.461 106.585 68.2622 107.895 62.488 107.895C56.6713 107.895 51.4511 106.574 46.8275 103.932C42.2039 101.29 38.5498 97.4652 35.8651 92.4581C33.1805 87.451 31.8382 81.3892 31.8382 74.2727C31.8382 67.1349 33.1805 61.0625 35.8651 56.0554C38.5498 51.0483 42.2039 47.2344 46.8275 44.6136C51.4511 41.9716 56.6713 40.6506 62.488 40.6506C68.2622 40.6506 73.461 41.9716 78.0846 44.6136C82.7295 47.2344 86.3943 51.0483 89.0789 56.0554C91.7849 61.0625 93.1379 67.1349 93.1379 74.2727ZM79.1073 74.2727C79.1073 69.6491 78.4149 65.75 77.0299 62.5753C75.6663 59.4006 73.738 56.9929 71.2451 55.3523C68.7522 53.7116 65.8332 52.8913 62.488 52.8913C59.1428 52.8913 56.2238 53.7116 53.7309 55.3523C51.238 56.9929 49.2991 59.4006 47.9142 62.5753C46.5505 65.75 45.8687 69.6491 45.8687 74.2727C45.8687 78.8963 46.5505 82.7955 47.9142 85.9702C49.2991 89.1449 51.238 91.5526 53.7309 93.1932C56.2238 94.8338 59.1428 95.6541 62.488 95.6541C65.8332 95.6541 68.7522 94.8338 71.2451 93.1932C73.738 91.5526 75.6663 89.1449 77.0299 85.9702C78.4149 82.7955 79.1073 78.8963 79.1073 74.2727Z" fill="#1F1D1D"/>
<path d="M125.422 284.017H147.638L158.806 298.385L169.793 311.183L190.5 337.142H166.111L151.864 319.635L144.559 309.251L125.422 284.017ZM192.372 265.182C192.372 278.664 189.816 290.134 184.705 299.592C179.634 309.05 172.711 316.274 163.938 321.265C155.204 326.215 145.384 328.69 134.477 328.69C123.49 328.69 113.63 326.195 104.896 321.205C96.163 316.214 89.2607 308.99 84.1897 299.532C79.1187 290.074 76.5832 278.624 76.5832 265.182C76.5832 251.699 79.1187 240.229 84.1897 230.771C89.2607 221.313 96.163 214.109 104.896 209.159C113.63 204.169 123.49 201.673 134.477 201.673C145.384 201.673 155.204 204.169 163.938 209.159C172.711 214.109 179.634 221.313 184.705 230.771C189.816 240.229 192.372 251.699 192.372 265.182ZM165.869 265.182C165.869 256.448 164.561 249.083 161.945 243.087C159.37 237.09 155.727 232.542 151.019 229.443C146.31 226.344 140.796 224.795 134.477 224.795C128.159 224.795 122.645 226.344 117.936 229.443C113.227 232.542 109.565 237.09 106.949 243.087C104.373 249.083 103.085 256.448 103.085 265.182C103.085 273.915 104.373 281.28 106.949 287.277C109.565 293.274 113.227 297.821 117.936 300.92C122.645 304.019 128.159 305.569 134.477 305.569C140.796 305.569 146.31 304.019 151.019 300.92C155.727 297.821 159.37 293.274 161.945 287.277C164.561 281.28 165.869 273.915 165.869 265.182Z" fill="#1F1D1D"/>
<path d="M74.0786 146.15C74.4456 144.848 74.634 143.503 74.6386 142.15C74.6386 140.16 74.2467 138.19 73.4854 136.352C72.724 134.514 71.6081 132.844 70.2012 131.437C68.7944 130.031 67.1243 128.915 65.2862 128.153C63.4482 127.392 61.4781 127 59.4886 127C57.4991 127 55.529 127.392 53.6909 128.153C51.8528 128.915 50.1827 130.031 48.7759 131.437C47.3691 132.844 46.2532 134.514 45.4918 136.352C44.7304 138.19 44.3386 140.16 44.3386 142.15C44.3465 143.503 44.5382 144.849 44.9086 146.15C42.4439 146.351 40.0659 147.153 37.9827 148.485C35.8994 149.818 34.1742 151.64 32.9579 153.793C31.7416 155.946 31.0712 158.365 31.0054 160.837C30.9395 163.309 31.4802 165.759 32.5801 167.974C33.6801 170.189 35.3058 172.101 37.3151 173.542C39.3245 174.983 41.6564 175.911 44.1069 176.243C46.5574 176.575 49.052 176.302 51.3725 175.447C53.693 174.592 55.7689 173.182 57.4186 171.34C56.8086 175.24 55.1886 181.1 50.9286 184.13H68.0586C63.8386 181.36 62.2086 175.35 61.5886 171.36C63.2408 173.199 65.3181 174.605 67.639 175.455C69.9599 176.306 72.4538 176.575 74.9028 176.24C77.3519 175.905 79.6816 174.975 81.6884 173.532C83.6953 172.089 85.3183 170.176 86.4157 167.961C87.513 165.746 88.0514 163.296 87.9837 160.825C87.916 158.355 87.2444 155.938 86.0274 153.786C84.8104 151.635 83.0851 149.814 81.0023 148.483C78.9194 147.152 76.5423 146.351 74.0786 146.15Z" fill="url(#paint1_linear_104_3523)"/>
<defs>
<linearGradient id="paint0_linear_104_3523" x1="269" y1="202" x2="0" y2="202" gradientUnits="userSpaceOnUse">
<stop stop-color="#B4B4B4"/>
<stop offset="0.5" stop-color="#B7B3B8"/>
<stop offset="0.9999" stop-color="#F9F8F9"/>
<stop offset="1" stop-color="#B9B6BA"/>
</linearGradient>
<linearGradient id="paint1_linear_104_3523" x1="29.1386" y1="155.61" x2="91.2786" y2="155.49" gradientUnits="userSpaceOnUse">
<stop stop-color="#140F14"/>
<stop offset="0.13" stop-color="#302E32"/>
<stop offset="0.36" stop-color="#140F14"/>
<stop offset="0.62" stop-color="#302E32"/>
<stop offset="1" stop-color="#140F14"/>
</linearGradient>
</defs>
</svg>
