<svg width="269" height="404" viewBox="0 0 269 404" fill="none" xmlns="http://www.w3.org/2000/svg">
<rect x="4" y="4" width="261" height="396" rx="11" fill="url(#paint0_linear_104_3485)" stroke="#404040" stroke-width="8"/>
<path d="M68.2322 41.5455H81.9112V87.1847C81.9112 91.4034 80.9631 95.0682 79.0668 98.179C77.1918 101.29 74.5817 103.687 71.2365 105.37C67.8913 107.053 64.0028 107.895 59.571 107.895C55.6293 107.895 52.0497 107.202 48.8324 105.817C45.6364 104.411 43.1009 102.281 41.2259 99.4254C39.3509 96.549 38.424 92.9375 38.4453 88.5909H52.2202C52.2628 90.3168 52.6143 91.7976 53.2749 93.0334C53.9567 94.2479 54.8835 95.1854 56.0554 95.8459C57.2486 96.4851 58.6548 96.8047 60.2741 96.8047C61.9787 96.8047 63.4169 96.4425 64.5888 95.718C65.782 94.9723 66.6875 93.8857 67.3054 92.4581C67.9233 91.0305 68.2322 89.2727 68.2322 87.1847V41.5455Z" fill="#1F1D1D"/>
<path d="M146.272 203.364H172.11V289.571C172.11 297.54 170.319 304.462 166.737 310.338C163.196 316.214 158.265 320.742 151.947 323.921C145.628 327.101 138.283 328.69 129.912 328.69C122.466 328.69 115.705 327.382 109.628 324.766C103.591 322.11 98.8016 318.085 95.2599 312.692C91.7183 307.259 89.9676 300.437 90.0078 292.227H116.027C116.107 295.487 116.772 298.284 118.019 300.619C119.307 302.913 121.058 304.683 123.271 305.931C125.525 307.138 128.181 307.742 131.24 307.742C134.46 307.742 137.176 307.058 139.39 305.69C141.644 304.281 143.354 302.228 144.521 299.532C145.688 296.835 146.272 293.515 146.272 289.571V203.364Z" fill="#1F1D1D"/>
<path d="M74.0786 146.15C74.4456 144.848 74.634 143.503 74.6386 142.15C74.6386 140.16 74.2467 138.19 73.4854 136.352C72.724 134.514 71.6081 132.844 70.2012 131.437C68.7944 130.031 67.1243 128.915 65.2862 128.153C63.4482 127.392 61.4781 127 59.4886 127C57.4991 127 55.529 127.392 53.6909 128.153C51.8528 128.915 50.1827 130.031 48.7759 131.437C47.3691 132.844 46.2532 134.514 45.4918 136.352C44.7304 138.19 44.3386 140.16 44.3386 142.15C44.3465 143.503 44.5382 144.849 44.9086 146.15C42.4439 146.351 40.0659 147.153 37.9827 148.485C35.8994 149.818 34.1742 151.64 32.9579 153.793C31.7416 155.946 31.0712 158.365 31.0054 160.837C30.9395 163.309 31.4802 165.759 32.5801 167.974C33.6801 170.189 35.3058 172.101 37.3151 173.542C39.3245 174.983 41.6564 175.911 44.1069 176.243C46.5574 176.575 49.052 176.302 51.3725 175.447C53.693 174.592 55.7689 173.182 57.4186 171.34C56.8086 175.24 55.1886 181.1 50.9286 184.13H68.0586C63.8386 181.36 62.2086 175.35 61.5886 171.36C63.2408 173.199 65.3181 174.605 67.639 175.455C69.9599 176.306 72.4538 176.575 74.9028 176.24C77.3519 175.905 79.6816 174.975 81.6884 173.532C83.6953 172.089 85.3183 170.176 86.4157 167.961C87.513 165.746 88.0514 163.296 87.9837 160.825C87.916 158.355 87.2444 155.938 86.0274 153.786C84.8104 151.635 83.0851 149.814 81.0023 148.483C78.9194 147.152 76.5423 146.351 74.0786 146.15Z" fill="url(#paint1_linear_104_3485)"/>
<defs>
<linearGradient id="paint0_linear_104_3485" x1="269" y1="202" x2="0" y2="202" gradientUnits="userSpaceOnUse">
<stop stop-color="#B4B4B4"/>
<stop offset="0.5" stop-color="#B7B3B8"/>
<stop offset="0.9999" stop-color="#F9F8F9"/>
<stop offset="1" stop-color="#B9B6BA"/>
</linearGradient>
<linearGradient id="paint1_linear_104_3485" x1="29.1386" y1="155.61" x2="91.2786" y2="155.49" gradientUnits="userSpaceOnUse">
<stop stop-color="#140F14"/>
<stop offset="0.13" stop-color="#302E32"/>
<stop offset="0.36" stop-color="#140F14"/>
<stop offset="0.62" stop-color="#302E32"/>
<stop offset="1" stop-color="#140F14"/>
</linearGradient>
</defs>
</svg>
