<svg width="269" height="404" viewBox="0 0 269 404" fill="none" xmlns="http://www.w3.org/2000/svg">
<rect x="4" y="4" width="261" height="396" rx="11" fill="url(#paint0_linear_104_2691)" stroke="#404040" stroke-width="8"/>
<path d="M62.815 109.014C58.9996 108.99 55.3171 108.35 51.7674 107.094C48.2418 105.839 45.0785 103.798 42.2773 100.973C39.4762 98.1477 37.2546 94.4048 35.6126 89.7443C33.9947 85.0838 33.1857 79.3608 33.1857 72.5753C33.2099 66.3452 33.9222 60.7791 35.3228 55.8771C36.7475 50.951 38.7759 46.7734 41.408 43.3445C44.0643 39.9155 47.2397 37.3075 50.9343 35.5206C54.6289 33.7095 58.7702 32.804 63.3583 32.804C68.3086 32.804 72.6793 33.7699 76.4705 35.7017C80.2617 37.6094 83.3043 40.2053 85.5984 43.4893C87.9165 46.7734 89.3171 50.456 89.8001 54.5369H74.3335C73.7298 51.9531 72.462 49.9247 70.5302 48.4517C68.5984 46.9787 66.2077 46.2422 63.3583 46.2422C58.5288 46.2422 54.8583 48.343 52.3469 52.5447C49.8597 56.7464 48.592 62.4574 48.5437 69.6776H49.0508C50.1616 67.4801 51.6587 65.6087 53.5423 64.0632C55.4499 62.4936 57.6112 61.2983 60.0259 60.4773C62.4648 59.6321 65.0366 59.2095 67.7411 59.2095C72.136 59.2095 76.0479 60.2479 79.4769 62.3246C82.9059 64.3771 85.6104 67.2024 87.5906 70.8004C89.5707 74.3984 90.5607 78.5156 90.5607 83.152C90.5607 88.1747 89.3896 92.642 87.0472 96.554C84.7291 100.466 81.4812 103.533 77.3036 105.754C73.1502 107.952 68.3207 109.038 62.815 109.014ZM62.7425 96.6989C65.1573 96.6989 67.3185 96.1193 69.2262 94.9602C71.1339 93.8011 72.631 92.2315 73.7177 90.2514C74.8043 88.2713 75.3477 86.0497 75.3477 83.5866C75.3477 81.1236 74.8043 78.9141 73.7177 76.9581C72.6552 75.0021 71.1822 73.4446 69.2987 72.2855C67.4151 71.1264 65.266 70.5469 62.8512 70.5469C61.0401 70.5469 59.3619 70.8849 57.8164 71.5611C56.2951 72.2372 54.9549 73.179 53.7958 74.3864C52.6609 75.5937 51.7674 76.9943 51.1154 78.5881C50.4634 80.1577 50.1374 81.8359 50.1374 83.6229C50.1374 86.0135 50.6808 88.1989 51.7674 90.179C52.8782 92.1591 54.3754 93.7408 56.2589 94.924C58.1665 96.1072 60.3278 96.6989 62.7425 96.6989Z" fill="#1F1D1D"/>
<path d="M74.0786 146.15C74.4456 144.848 74.634 143.503 74.6386 142.15C74.6386 140.16 74.2467 138.19 73.4854 136.352C72.724 134.514 71.6081 132.844 70.2012 131.437C68.7944 130.031 67.1243 128.915 65.2862 128.153C63.4482 127.392 61.4781 127 59.4886 127C57.4991 127 55.529 127.392 53.6909 128.153C51.8528 128.915 50.1827 130.031 48.7759 131.437C47.3691 132.844 46.2532 134.514 45.4918 136.352C44.7304 138.19 44.3386 140.16 44.3386 142.15C44.3465 143.503 44.5382 144.849 44.9086 146.15C42.4439 146.351 40.0659 147.153 37.9827 148.485C35.8994 149.818 34.1742 151.64 32.9579 153.793C31.7416 155.946 31.0712 158.365 31.0054 160.837C30.9395 163.309 31.4802 165.759 32.5801 167.974C33.6801 170.189 35.3058 172.101 37.3151 173.542C39.3245 174.983 41.6564 175.911 44.1069 176.243C46.5574 176.575 49.052 176.302 51.3725 175.447C53.693 174.592 55.7689 173.182 57.4186 171.34C56.8086 175.24 55.1886 181.1 50.9286 184.13H68.0586C63.8386 181.36 62.2086 175.35 61.5886 171.36C63.2408 173.199 65.3181 174.605 67.639 175.455C69.9599 176.306 72.4538 176.575 74.9028 176.24C77.3519 175.905 79.6816 174.975 81.6884 173.532C83.6953 172.089 85.3183 170.176 86.4157 167.961C87.513 165.746 88.0514 163.296 87.9837 160.825C87.916 158.355 87.2444 155.938 86.0274 153.786C84.8104 151.635 83.0851 149.814 81.0023 148.483C78.9194 147.152 76.5423 146.351 74.0786 146.15Z" fill="url(#paint1_linear_104_2691)"/>
<path d="M153.039 76.4248C153.355 75.3083 153.517 74.1541 153.521 72.994C153.521 71.2876 153.184 69.598 152.529 68.0214C151.875 66.4449 150.915 65.0125 149.706 63.8059C148.496 62.5993 147.06 61.6421 145.48 60.9891C143.899 60.3361 142.205 60 140.495 60C138.784 60 137.09 60.3361 135.51 60.9891C133.929 61.6421 132.493 62.5993 131.284 63.8059C130.074 65.0125 129.115 66.4449 128.46 68.0214C127.806 69.598 127.469 71.2876 127.469 72.994C127.475 74.1545 127.64 75.3087 127.959 76.4248C125.84 76.5973 123.795 77.285 122.004 78.4278C120.213 79.5706 118.729 81.1337 117.683 82.9804C116.638 84.8271 116.061 86.9012 116.005 89.0215C115.948 91.1417 116.413 93.2435 117.359 95.1431C118.304 97.0428 119.702 98.6824 121.43 99.9187C123.157 101.155 125.162 101.95 127.269 102.235C129.376 102.52 131.521 102.286 133.516 101.553C135.512 100.82 137.296 99.6101 138.715 98.0301C138.19 101.375 136.798 106.401 133.135 109H147.863C144.235 106.624 142.833 101.469 142.3 98.0473C143.721 99.6242 145.507 100.83 147.503 101.56C149.498 102.289 151.642 102.52 153.748 102.233C155.854 101.945 157.857 101.148 159.582 99.9101C161.308 98.6723 162.703 97.0319 163.647 95.1322C164.59 93.2325 165.053 91.1312 164.995 89.0119C164.937 86.8925 164.359 84.8197 163.313 82.9743C162.267 81.1289 160.783 79.5672 158.992 78.4255C157.202 77.2839 155.158 76.597 153.039 76.4248Z" fill="url(#paint2_linear_104_2691)"/>
<path d="M153.039 190.425C153.355 189.308 153.517 188.154 153.521 186.994C153.521 185.288 153.184 183.598 152.529 182.021C151.875 180.445 150.915 179.012 149.706 177.806C148.496 176.599 147.06 175.642 145.48 174.989C143.899 174.336 142.205 174 140.495 174C138.784 174 137.09 174.336 135.51 174.989C133.929 175.642 132.493 176.599 131.284 177.806C130.074 179.012 129.115 180.445 128.46 182.021C127.806 183.598 127.469 185.288 127.469 186.994C127.475 188.155 127.64 189.309 127.959 190.425C125.84 190.597 123.795 191.285 122.004 192.428C120.213 193.571 118.729 195.134 117.683 196.98C116.638 198.827 116.061 200.901 116.005 203.021C115.948 205.142 116.413 207.243 117.359 209.143C118.304 211.043 119.702 212.682 121.43 213.919C123.157 215.155 125.162 215.95 127.269 216.235C129.376 216.52 131.521 216.286 133.516 215.553C135.512 214.82 137.296 213.61 138.715 212.03C138.19 215.375 136.798 220.401 133.135 223H147.863C144.235 220.624 142.833 215.469 142.3 212.047C143.721 213.624 145.507 214.83 147.503 215.56C149.498 216.289 151.642 216.52 153.748 216.233C155.854 215.945 157.857 215.148 159.582 213.91C161.308 212.672 162.703 211.032 163.647 209.132C164.59 207.232 165.053 205.131 164.995 203.012C164.937 200.893 164.359 198.82 163.313 196.974C162.267 195.129 160.783 193.567 158.992 192.426C157.202 191.284 155.158 190.597 153.039 190.425Z" fill="url(#paint3_linear_104_2691)"/>
<path d="M153.039 329.575C153.355 330.692 153.517 331.846 153.521 333.006C153.521 334.712 153.184 336.402 152.529 337.979C151.875 339.555 150.915 340.988 149.706 342.194C148.496 343.401 147.06 344.358 145.48 345.011C143.899 345.664 142.205 346 140.495 346C138.784 346 137.09 345.664 135.51 345.011C133.929 344.358 132.493 343.401 131.284 342.194C130.074 340.988 129.115 339.555 128.46 337.979C127.806 336.402 127.469 334.712 127.469 333.006C127.475 331.845 127.64 330.691 127.959 329.575C125.84 329.403 123.795 328.715 122.004 327.572C120.213 326.429 118.729 324.866 117.683 323.02C116.638 321.173 116.061 319.099 116.005 316.979C115.948 314.858 116.413 312.757 117.359 310.857C118.304 308.957 119.702 307.318 121.43 306.081C123.157 304.845 125.162 304.05 127.269 303.765C129.376 303.48 131.521 303.714 133.516 304.447C135.512 305.18 137.296 306.39 138.715 307.97C138.19 304.625 136.798 299.599 133.135 297H147.863C144.235 299.376 142.833 304.531 142.3 307.953C143.721 306.376 145.507 305.17 147.503 304.44C149.498 303.711 151.642 303.48 153.748 303.767C155.854 304.055 157.857 304.852 159.582 306.09C161.308 307.328 162.703 308.968 163.647 310.868C164.59 312.768 165.053 314.869 164.995 316.988C164.937 319.107 164.359 321.18 163.313 323.026C162.267 324.871 160.783 326.433 158.992 327.574C157.202 328.716 155.158 329.403 153.039 329.575Z" fill="url(#paint4_linear_104_2691)"/>
<path d="M230.039 190.425C230.355 189.308 230.517 188.154 230.521 186.994C230.521 185.288 230.184 183.598 229.529 182.021C228.875 180.445 227.915 179.012 226.706 177.806C225.496 176.599 224.06 175.642 222.48 174.989C220.899 174.336 219.205 174 217.495 174C215.784 174 214.09 174.336 212.51 174.989C210.929 175.642 209.493 176.599 208.284 177.806C207.074 179.012 206.115 180.445 205.46 182.021C204.806 183.598 204.469 185.288 204.469 186.994C204.475 188.155 204.64 189.309 204.959 190.425C202.84 190.597 200.795 191.285 199.004 192.428C197.213 193.571 195.729 195.134 194.683 196.98C193.638 198.827 193.061 200.901 193.005 203.021C192.948 205.142 193.413 207.243 194.359 209.143C195.304 211.043 196.702 212.682 198.43 213.919C200.157 215.155 202.162 215.95 204.269 216.235C206.376 216.52 208.521 216.286 210.516 215.553C212.512 214.82 214.296 213.61 215.715 212.03C215.19 215.375 213.798 220.401 210.135 223H224.863C221.235 220.624 219.833 215.469 219.3 212.047C220.721 213.624 222.507 214.83 224.503 215.56C226.498 216.289 228.642 216.52 230.748 216.233C232.854 215.945 234.857 215.148 236.582 213.91C238.308 212.672 239.703 211.032 240.647 209.132C241.59 207.232 242.053 205.131 241.995 203.012C241.937 200.893 241.359 198.82 240.313 196.974C239.267 195.129 237.783 193.567 235.992 192.426C234.202 191.284 232.158 190.597 230.039 190.425Z" fill="url(#paint5_linear_104_2691)"/>
<path d="M230.039 329.575C230.355 330.692 230.517 331.846 230.521 333.006C230.521 334.712 230.184 336.402 229.529 337.979C228.875 339.555 227.915 340.988 226.706 342.194C225.496 343.401 224.06 344.358 222.48 345.011C220.899 345.664 219.205 346 217.495 346C215.784 346 214.09 345.664 212.51 345.011C210.929 344.358 209.493 343.401 208.284 342.194C207.074 340.988 206.115 339.555 205.46 337.979C204.806 336.402 204.469 334.712 204.469 333.006C204.475 331.845 204.64 330.691 204.959 329.575C202.84 329.403 200.795 328.715 199.004 327.572C197.213 326.429 195.729 324.866 194.683 323.02C193.638 321.173 193.061 319.099 193.005 316.979C192.948 314.858 193.413 312.757 194.359 310.857C195.304 308.957 196.702 307.318 198.43 306.081C200.157 304.845 202.162 304.05 204.269 303.765C206.376 303.48 208.521 303.714 210.516 304.447C212.512 305.18 214.296 306.39 215.715 307.97C215.19 304.625 213.798 299.599 210.135 297H224.863C221.235 299.376 219.833 304.531 219.3 307.953C220.721 306.376 222.507 305.17 224.503 304.44C226.498 303.711 228.642 303.48 230.748 303.767C232.854 304.055 234.857 304.852 236.582 306.09C238.308 307.328 239.703 308.968 240.647 310.868C241.59 312.768 242.053 314.869 241.995 316.988C241.937 319.107 241.359 321.18 240.313 323.026C239.267 324.871 237.783 326.433 235.992 327.574C234.202 328.716 232.158 329.403 230.039 329.575Z" fill="url(#paint6_linear_104_2691)"/>
<path d="M230.039 76.4248C230.355 75.3083 230.517 74.1541 230.521 72.994C230.521 71.2876 230.184 69.598 229.529 68.0214C228.875 66.4449 227.915 65.0125 226.706 63.8059C225.496 62.5993 224.06 61.6421 222.48 60.9891C220.899 60.3361 219.205 60 217.495 60C215.784 60 214.09 60.3361 212.51 60.9891C210.929 61.6421 209.493 62.5993 208.284 63.8059C207.074 65.0125 206.115 66.4449 205.46 68.0214C204.806 69.598 204.469 71.2876 204.469 72.994C204.475 74.1545 204.64 75.3087 204.959 76.4248C202.84 76.5973 200.795 77.285 199.004 78.4278C197.213 79.5706 195.729 81.1337 194.683 82.9804C193.638 84.8271 193.061 86.9012 193.005 89.0215C192.948 91.1417 193.413 93.2435 194.359 95.1431C195.304 97.0428 196.702 98.6824 198.43 99.9187C200.157 101.155 202.162 101.95 204.269 102.235C206.376 102.52 208.521 102.286 210.516 101.553C212.512 100.82 214.296 99.6101 215.715 98.0301C215.19 101.375 213.798 106.401 210.135 109H224.863C221.235 106.624 219.833 101.469 219.3 98.0473C220.721 99.6242 222.507 100.83 224.503 101.56C226.498 102.289 228.642 102.52 230.748 102.233C232.854 101.945 234.857 101.148 236.582 99.9101C238.308 98.6723 239.703 97.0319 240.647 95.1322C241.59 93.2325 242.053 91.1312 241.995 89.0119C241.937 86.8925 241.359 84.8197 240.313 82.9743C239.267 81.1289 237.783 79.5672 235.992 78.4255C234.202 77.2839 232.158 76.597 230.039 76.4248Z" fill="url(#paint7_linear_104_2691)"/>
<defs>
<linearGradient id="paint0_linear_104_2691" x1="269" y1="202" x2="0" y2="202" gradientUnits="userSpaceOnUse">
<stop stop-color="#B4B4B4"/>
<stop offset="0.5" stop-color="#B7B3B8"/>
<stop offset="0.9999" stop-color="#F9F8F9"/>
<stop offset="1" stop-color="#B9B6BA"/>
</linearGradient>
<linearGradient id="paint1_linear_104_2691" x1="29.1386" y1="155.61" x2="91.2786" y2="155.49" gradientUnits="userSpaceOnUse">
<stop stop-color="#140F14"/>
<stop offset="0.13" stop-color="#302E32"/>
<stop offset="0.36" stop-color="#140F14"/>
<stop offset="0.62" stop-color="#302E32"/>
<stop offset="1" stop-color="#140F14"/>
</linearGradient>
<linearGradient id="paint2_linear_104_2691" x1="114.4" y1="84.5386" x2="167.828" y2="84.4352" gradientUnits="userSpaceOnUse">
<stop stop-color="#140F14"/>
<stop offset="0.13" stop-color="#302E32"/>
<stop offset="0.36" stop-color="#140F14"/>
<stop offset="0.62" stop-color="#302E32"/>
<stop offset="1" stop-color="#140F14"/>
</linearGradient>
<linearGradient id="paint3_linear_104_2691" x1="114.4" y1="198.539" x2="167.828" y2="198.435" gradientUnits="userSpaceOnUse">
<stop stop-color="#140F14"/>
<stop offset="0.13" stop-color="#302E32"/>
<stop offset="0.36" stop-color="#140F14"/>
<stop offset="0.62" stop-color="#302E32"/>
<stop offset="1" stop-color="#140F14"/>
</linearGradient>
<linearGradient id="paint4_linear_104_2691" x1="114.4" y1="321.461" x2="167.828" y2="321.565" gradientUnits="userSpaceOnUse">
<stop stop-color="#140F14"/>
<stop offset="0.13" stop-color="#302E32"/>
<stop offset="0.36" stop-color="#140F14"/>
<stop offset="0.62" stop-color="#302E32"/>
<stop offset="1" stop-color="#140F14"/>
</linearGradient>
<linearGradient id="paint5_linear_104_2691" x1="191.4" y1="198.539" x2="244.828" y2="198.435" gradientUnits="userSpaceOnUse">
<stop stop-color="#140F14"/>
<stop offset="0.13" stop-color="#302E32"/>
<stop offset="0.36" stop-color="#140F14"/>
<stop offset="0.62" stop-color="#302E32"/>
<stop offset="1" stop-color="#140F14"/>
</linearGradient>
<linearGradient id="paint6_linear_104_2691" x1="191.4" y1="321.461" x2="244.828" y2="321.565" gradientUnits="userSpaceOnUse">
<stop stop-color="#140F14"/>
<stop offset="0.13" stop-color="#302E32"/>
<stop offset="0.36" stop-color="#140F14"/>
<stop offset="0.62" stop-color="#302E32"/>
<stop offset="1" stop-color="#140F14"/>
</linearGradient>
<linearGradient id="paint7_linear_104_2691" x1="191.4" y1="84.5386" x2="244.828" y2="84.4352" gradientUnits="userSpaceOnUse">
<stop stop-color="#140F14"/>
<stop offset="0.13" stop-color="#302E32"/>
<stop offset="0.36" stop-color="#140F14"/>
<stop offset="0.62" stop-color="#302E32"/>
<stop offset="1" stop-color="#140F14"/>
</linearGradient>
</defs>
</svg>
