<svg width="269" height="404" viewBox="0 0 269 404" fill="none" xmlns="http://www.w3.org/2000/svg">
<rect x="4" y="4" width="261" height="396" rx="11" fill="url(#paint0_linear_104_2651)" stroke="#404040" stroke-width="8"/>
<path d="M32.3255 94.9602V82.6087L63.2949 33.8182H73.9441V50.9148H67.6415L48.1181 81.8118V82.3913H92.1273V94.9602H32.3255ZM67.9313 108V91.1932L68.2211 85.7237V33.8182H82.927V108H67.9313Z" fill="#1F1D1D"/>
<path d="M74.0786 146.15C74.4456 144.848 74.634 143.503 74.6386 142.15C74.6386 140.16 74.2467 138.19 73.4854 136.352C72.724 134.514 71.6081 132.844 70.2012 131.437C68.7944 130.031 67.1243 128.915 65.2862 128.153C63.4482 127.392 61.4781 127 59.4886 127C57.4991 127 55.529 127.392 53.6909 128.153C51.8528 128.915 50.1827 130.031 48.7759 131.437C47.3691 132.844 46.2532 134.514 45.4918 136.352C44.7304 138.19 44.3386 140.16 44.3386 142.15C44.3465 143.503 44.5382 144.849 44.9086 146.15C42.4439 146.351 40.0659 147.153 37.9827 148.485C35.8994 149.818 34.1742 151.64 32.9579 153.793C31.7416 155.946 31.0712 158.365 31.0054 160.837C30.9395 163.309 31.4802 165.759 32.5801 167.974C33.6801 170.189 35.3058 172.101 37.3151 173.542C39.3245 174.983 41.6564 175.911 44.1069 176.243C46.5574 176.575 49.052 176.302 51.3725 175.447C53.693 174.592 55.7689 173.182 57.4186 171.34C56.8086 175.24 55.1886 181.1 50.9286 184.13H68.0586C63.8386 181.36 62.2086 175.35 61.5886 171.36C63.2408 173.199 65.3181 174.605 67.639 175.455C69.9599 176.306 72.4538 176.575 74.9028 176.24C77.3519 175.905 79.6816 174.975 81.6884 173.532C83.6953 172.089 85.3183 170.176 86.4157 167.961C87.513 165.746 88.0514 163.296 87.9837 160.825C87.916 158.355 87.2444 155.938 86.0274 153.786C84.8104 151.635 83.0851 149.814 81.0023 148.483C78.9194 147.152 76.5423 146.351 74.0786 146.15Z" fill="url(#paint1_linear_104_2651)"/>
<path d="M146.039 76.4248C146.355 75.3083 146.517 74.1541 146.521 72.994C146.521 71.2876 146.184 69.598 145.529 68.0214C144.875 66.4449 143.915 65.0125 142.706 63.8059C141.496 62.5993 140.06 61.6421 138.48 60.9891C136.899 60.3361 135.205 60 133.495 60C131.784 60 130.09 60.3361 128.51 60.9891C126.929 61.6421 125.493 62.5993 124.284 63.8059C123.074 65.0125 122.115 66.4449 121.46 68.0214C120.806 69.598 120.469 71.2876 120.469 72.994C120.475 74.1545 120.64 75.3087 120.959 76.4248C118.84 76.5973 116.795 77.285 115.004 78.4278C113.213 79.5706 111.729 81.1337 110.683 82.9804C109.638 84.8271 109.061 86.9012 109.005 89.0215C108.948 91.1417 109.413 93.2435 110.359 95.1431C111.304 97.0428 112.702 98.6824 114.43 99.9187C116.157 101.155 118.162 101.95 120.269 102.235C122.376 102.52 124.521 102.286 126.516 101.553C128.512 100.82 130.296 99.6101 131.715 98.0301C131.19 101.375 129.798 106.401 126.135 109H140.863C137.235 106.624 135.833 101.469 135.3 98.0473C136.721 99.6242 138.507 100.83 140.503 101.56C142.498 102.289 144.642 102.52 146.748 102.233C148.854 101.945 150.857 101.148 152.582 99.9101C154.308 98.6723 155.703 97.0319 156.647 95.1322C157.59 93.2325 158.053 91.1312 157.995 89.0119C157.937 86.8925 157.359 84.8197 156.313 82.9743C155.267 81.1289 153.783 79.5672 151.992 78.4255C150.202 77.2839 148.158 76.597 146.039 76.4248Z" fill="url(#paint2_linear_104_2651)"/>
<path d="M146.039 329.575C146.355 330.692 146.517 331.846 146.521 333.006C146.521 334.712 146.184 336.402 145.529 337.979C144.875 339.555 143.915 340.988 142.706 342.194C141.496 343.401 140.06 344.358 138.48 345.011C136.899 345.664 135.205 346 133.495 346C131.784 346 130.09 345.664 128.51 345.011C126.929 344.358 125.493 343.401 124.284 342.194C123.074 340.988 122.115 339.555 121.46 337.979C120.806 336.402 120.469 334.712 120.469 333.006C120.475 331.845 120.64 330.691 120.959 329.575C118.84 329.403 116.795 328.715 115.004 327.572C113.213 326.429 111.729 324.866 110.683 323.02C109.638 321.173 109.061 319.099 109.005 316.979C108.948 314.858 109.413 312.757 110.359 310.857C111.304 308.957 112.702 307.318 114.43 306.081C116.157 304.845 118.162 304.05 120.269 303.765C122.376 303.48 124.521 303.714 126.516 304.447C128.512 305.18 130.296 306.39 131.715 307.97C131.19 304.625 129.798 299.599 126.135 297H140.863C137.235 299.376 135.833 304.531 135.3 307.953C136.721 306.376 138.507 305.17 140.503 304.44C142.498 303.711 144.642 303.48 146.748 303.767C148.854 304.055 150.857 304.852 152.582 306.09C154.308 307.328 155.703 308.968 156.647 310.868C157.59 312.768 158.053 314.869 157.995 316.988C157.937 319.107 157.359 321.18 156.313 323.026C155.267 324.871 153.783 326.433 151.992 327.574C150.202 328.716 148.158 329.403 146.039 329.575Z" fill="url(#paint3_linear_104_2651)"/>
<path d="M230.039 76.4248C230.355 75.3083 230.517 74.1541 230.521 72.994C230.521 71.2876 230.184 69.598 229.529 68.0214C228.875 66.4449 227.915 65.0125 226.706 63.8059C225.496 62.5993 224.06 61.6421 222.48 60.9891C220.899 60.3361 219.205 60 217.495 60C215.784 60 214.09 60.3361 212.51 60.9891C210.929 61.6421 209.493 62.5993 208.284 63.8059C207.074 65.0125 206.115 66.4449 205.46 68.0214C204.806 69.598 204.469 71.2876 204.469 72.994C204.475 74.1545 204.64 75.3087 204.959 76.4248C202.84 76.5973 200.795 77.285 199.004 78.4278C197.213 79.5706 195.729 81.1337 194.683 82.9804C193.638 84.8271 193.061 86.9012 193.005 89.0215C192.948 91.1417 193.413 93.2435 194.359 95.1431C195.304 97.0428 196.702 98.6824 198.43 99.9187C200.157 101.155 202.162 101.95 204.269 102.235C206.376 102.52 208.521 102.286 210.516 101.553C212.512 100.82 214.296 99.6101 215.715 98.0301C215.19 101.375 213.798 106.401 210.135 109H224.863C221.235 106.624 219.833 101.469 219.3 98.0473C220.721 99.6242 222.507 100.83 224.503 101.56C226.498 102.289 228.642 102.52 230.748 102.233C232.854 101.945 234.857 101.148 236.582 99.9101C238.308 98.6723 239.703 97.0319 240.647 95.1322C241.59 93.2325 242.053 91.1312 241.995 89.0119C241.937 86.8925 241.359 84.8197 240.313 82.9743C239.267 81.1289 237.783 79.5672 235.992 78.4255C234.202 77.2839 232.158 76.597 230.039 76.4248Z" fill="url(#paint4_linear_104_2651)"/>
<path d="M230.039 329.575C230.355 330.692 230.517 331.846 230.521 333.006C230.521 334.712 230.184 336.402 229.529 337.979C228.875 339.555 227.915 340.988 226.706 342.194C225.496 343.401 224.06 344.358 222.48 345.011C220.899 345.664 219.205 346 217.495 346C215.784 346 214.09 345.664 212.51 345.011C210.929 344.358 209.493 343.401 208.284 342.194C207.074 340.988 206.115 339.555 205.46 337.979C204.806 336.402 204.469 334.712 204.469 333.006C204.475 331.845 204.64 330.691 204.959 329.575C202.84 329.403 200.795 328.715 199.004 327.572C197.213 326.429 195.729 324.866 194.683 323.02C193.638 321.173 193.061 319.099 193.005 316.979C192.948 314.858 193.413 312.757 194.359 310.857C195.304 308.957 196.702 307.318 198.43 306.081C200.157 304.845 202.162 304.05 204.269 303.765C206.376 303.48 208.521 303.714 210.516 304.447C212.512 305.18 214.296 306.39 215.715 307.97C215.19 304.625 213.798 299.599 210.135 297H224.863C221.235 299.376 219.833 304.531 219.3 307.953C220.721 306.376 222.507 305.17 224.503 304.44C226.498 303.711 228.642 303.48 230.748 303.767C232.854 304.055 234.857 304.852 236.582 306.09C238.308 307.328 239.703 308.968 240.647 310.868C241.59 312.768 242.053 314.869 241.995 316.988C241.937 319.107 241.359 321.18 240.313 323.026C239.267 324.871 237.783 326.433 235.992 327.574C234.202 328.716 232.158 329.403 230.039 329.575Z" fill="url(#paint5_linear_104_2651)"/>
<defs>
<linearGradient id="paint0_linear_104_2651" x1="269" y1="202" x2="0" y2="202" gradientUnits="userSpaceOnUse">
<stop stop-color="#B4B4B4"/>
<stop offset="0.5" stop-color="#B7B3B8"/>
<stop offset="0.9999" stop-color="#F9F8F9"/>
<stop offset="1" stop-color="#B9B6BA"/>
</linearGradient>
<linearGradient id="paint1_linear_104_2651" x1="29.1386" y1="155.61" x2="91.2786" y2="155.49" gradientUnits="userSpaceOnUse">
<stop stop-color="#140F14"/>
<stop offset="0.13" stop-color="#302E32"/>
<stop offset="0.36" stop-color="#140F14"/>
<stop offset="0.62" stop-color="#302E32"/>
<stop offset="1" stop-color="#140F14"/>
</linearGradient>
<linearGradient id="paint2_linear_104_2651" x1="107.4" y1="84.5386" x2="160.828" y2="84.4352" gradientUnits="userSpaceOnUse">
<stop stop-color="#140F14"/>
<stop offset="0.13" stop-color="#302E32"/>
<stop offset="0.36" stop-color="#140F14"/>
<stop offset="0.62" stop-color="#302E32"/>
<stop offset="1" stop-color="#140F14"/>
</linearGradient>
<linearGradient id="paint3_linear_104_2651" x1="107.4" y1="321.461" x2="160.828" y2="321.565" gradientUnits="userSpaceOnUse">
<stop stop-color="#140F14"/>
<stop offset="0.13" stop-color="#302E32"/>
<stop offset="0.36" stop-color="#140F14"/>
<stop offset="0.62" stop-color="#302E32"/>
<stop offset="1" stop-color="#140F14"/>
</linearGradient>
<linearGradient id="paint4_linear_104_2651" x1="191.4" y1="84.5386" x2="244.828" y2="84.4352" gradientUnits="userSpaceOnUse">
<stop stop-color="#140F14"/>
<stop offset="0.13" stop-color="#302E32"/>
<stop offset="0.36" stop-color="#140F14"/>
<stop offset="0.62" stop-color="#302E32"/>
<stop offset="1" stop-color="#140F14"/>
</linearGradient>
<linearGradient id="paint5_linear_104_2651" x1="191.4" y1="321.461" x2="244.828" y2="321.565" gradientUnits="userSpaceOnUse">
<stop stop-color="#140F14"/>
<stop offset="0.13" stop-color="#302E32"/>
<stop offset="0.36" stop-color="#140F14"/>
<stop offset="0.62" stop-color="#302E32"/>
<stop offset="1" stop-color="#140F14"/>
</linearGradient>
</defs>
</svg>
