<svg width="269" height="404" viewBox="0 0 269 404" fill="none" xmlns="http://www.w3.org/2000/svg">
<rect x="4" y="4" width="261" height="396" rx="11" fill="url(#paint0_linear_104_2596)" stroke="#404040" stroke-width="8"/>
<path d="M60.8144 109.014C55.4053 109.014 50.5878 108.085 46.3619 106.225C42.1602 104.342 38.8399 101.758 36.401 98.4737C33.9862 95.1655 32.7426 91.3501 32.6702 87.0277H48.4628C48.5594 88.8388 49.151 90.4325 50.2377 91.8089C51.3485 93.1612 52.8215 94.2116 54.6567 94.9602C56.4919 95.7088 58.5566 96.0831 60.8506 96.0831C63.2412 96.0831 65.3541 95.6605 67.1894 94.8153C69.0246 93.9702 70.4614 92.799 71.4997 91.3018C72.5381 89.8047 73.0573 88.0781 73.0573 86.1222C73.0573 84.142 72.5019 82.3913 71.3911 80.87C70.3044 79.3246 68.7348 78.1172 66.6823 77.2479C64.6539 76.3786 62.2391 75.9439 59.4379 75.9439H52.5196V64.4254H59.4379C61.8044 64.4254 63.8932 64.0149 65.7043 63.1939C67.5395 62.3729 68.9642 61.2379 69.9784 59.7891C70.9926 58.3161 71.4997 56.6016 71.4997 54.6456C71.4997 52.7862 71.053 51.1563 70.1595 49.7557C69.2902 48.331 68.0587 47.2202 66.4649 46.4233C64.8953 45.6264 63.0601 45.228 60.9593 45.228C58.8343 45.228 56.8904 45.6143 55.1276 46.3871C53.3648 47.1357 51.9521 48.2102 50.8896 49.6108C49.8271 51.0114 49.2597 52.6534 49.1872 54.5369H34.1553C34.2277 50.2628 35.4472 46.4957 37.8137 43.2358C40.1801 39.9758 43.3676 37.4283 47.3762 35.593C51.4088 33.7337 55.9607 32.804 61.0317 32.804C66.151 32.804 70.6304 33.7337 74.4699 35.593C78.3094 37.4524 81.2916 39.9638 83.4166 43.1271C85.5658 46.2663 86.6283 49.7919 86.6041 53.7038C86.6283 57.8572 85.3364 61.3224 82.7284 64.0994C80.1446 66.8764 76.776 68.6392 72.6226 69.3878V69.9673C78.08 70.6676 82.2334 72.5632 85.0828 75.6541C87.9564 78.7209 89.3811 82.5604 89.357 87.1726C89.3811 91.3984 88.1617 95.1534 85.6986 98.4375C83.2597 101.722 79.8911 104.305 75.5928 106.189C71.2945 108.072 66.3683 109.014 60.8144 109.014Z" fill="#1F1D1D"/>
<path d="M74.0786 146.15C74.4456 144.848 74.634 143.503 74.6386 142.15C74.6386 140.16 74.2467 138.19 73.4854 136.352C72.724 134.514 71.6081 132.844 70.2012 131.437C68.7944 130.031 67.1243 128.915 65.2862 128.153C63.4482 127.392 61.4781 127 59.4886 127C57.4991 127 55.529 127.392 53.6909 128.153C51.8528 128.915 50.1827 130.031 48.7759 131.437C47.3691 132.844 46.2532 134.514 45.4918 136.352C44.7304 138.19 44.3386 140.16 44.3386 142.15C44.3465 143.503 44.5382 144.849 44.9086 146.15C42.4439 146.351 40.0659 147.153 37.9827 148.485C35.8994 149.818 34.1742 151.64 32.9579 153.793C31.7416 155.946 31.0712 158.365 31.0054 160.837C30.9395 163.309 31.4802 165.759 32.5801 167.974C33.6801 170.189 35.3058 172.101 37.3151 173.542C39.3245 174.983 41.6564 175.911 44.1069 176.243C46.5574 176.575 49.052 176.302 51.3725 175.447C53.693 174.592 55.7689 173.182 57.4186 171.34C56.8086 175.24 55.1886 181.1 50.9286 184.13H68.0586C63.8386 181.36 62.2086 175.35 61.5886 171.36C63.2408 173.199 65.3181 174.605 67.639 175.455C69.9599 176.306 72.4538 176.575 74.9028 176.24C77.3519 175.905 79.6816 174.975 81.6884 173.532C83.6953 172.089 85.3183 170.176 86.4157 167.961C87.513 165.746 88.0514 163.296 87.9837 160.825C87.916 158.355 87.2444 155.938 86.0274 153.786C84.8104 151.635 83.0851 149.814 81.0023 148.483C78.9194 147.152 76.5423 146.351 74.0786 146.15Z" fill="url(#paint1_linear_104_2596)"/>
<path d="M177.039 76.4248C177.355 75.3083 177.517 74.1541 177.521 72.994C177.521 71.2876 177.184 69.598 176.529 68.0214C175.875 66.4449 174.915 65.0125 173.706 63.8059C172.496 62.5993 171.06 61.6421 169.48 60.9891C167.899 60.3361 166.205 60 164.495 60C162.784 60 161.09 60.3361 159.51 60.9891C157.929 61.6421 156.493 62.5993 155.284 63.8059C154.074 65.0125 153.115 66.4449 152.46 68.0214C151.806 69.598 151.469 71.2876 151.469 72.994C151.475 74.1545 151.64 75.3087 151.959 76.4248C149.84 76.5973 147.795 77.285 146.004 78.4278C144.213 79.5706 142.729 81.1337 141.683 82.9804C140.638 84.8271 140.061 86.9012 140.005 89.0215C139.948 91.1417 140.413 93.2435 141.359 95.1431C142.304 97.0428 143.702 98.6824 145.43 99.9187C147.157 101.155 149.162 101.95 151.269 102.235C153.376 102.52 155.521 102.286 157.516 101.553C159.512 100.82 161.296 99.6101 162.715 98.0301C162.19 101.375 160.798 106.401 157.135 109H171.863C168.235 106.624 166.833 101.469 166.3 98.0473C167.721 99.6242 169.507 100.83 171.503 101.56C173.498 102.289 175.642 102.52 177.748 102.233C179.854 101.945 181.857 101.148 183.582 99.9101C185.308 98.6723 186.703 97.0319 187.647 95.1322C188.59 93.2325 189.053 91.1312 188.995 89.0119C188.937 86.8925 188.359 84.8197 187.313 82.9743C186.267 81.1289 184.783 79.5672 182.992 78.4255C181.202 77.2839 179.158 76.597 177.039 76.4248Z" fill="url(#paint2_linear_104_2596)"/>
<path d="M177.039 191.425C177.355 190.308 177.517 189.154 177.521 187.994C177.521 186.288 177.184 184.598 176.529 183.021C175.875 181.445 174.915 180.012 173.706 178.806C172.496 177.599 171.06 176.642 169.48 175.989C167.899 175.336 166.205 175 164.495 175C162.784 175 161.09 175.336 159.51 175.989C157.929 176.642 156.493 177.599 155.284 178.806C154.074 180.012 153.115 181.445 152.46 183.021C151.806 184.598 151.469 186.288 151.469 187.994C151.475 189.155 151.64 190.309 151.959 191.425C149.84 191.597 147.795 192.285 146.004 193.428C144.213 194.571 142.729 196.134 141.683 197.98C140.638 199.827 140.061 201.901 140.005 204.021C139.948 206.142 140.413 208.243 141.359 210.143C142.304 212.043 143.702 213.682 145.43 214.919C147.157 216.155 149.162 216.95 151.269 217.235C153.376 217.52 155.521 217.286 157.516 216.553C159.512 215.82 161.296 214.61 162.715 213.03C162.19 216.375 160.798 221.401 157.135 224H171.863C168.235 221.624 166.833 216.469 166.3 213.047C167.721 214.624 169.507 215.83 171.503 216.56C173.498 217.289 175.642 217.52 177.748 217.233C179.854 216.945 181.857 216.148 183.582 214.91C185.308 213.672 186.703 212.032 187.647 210.132C188.59 208.232 189.053 206.131 188.995 204.012C188.937 201.893 188.359 199.82 187.313 197.974C186.267 196.129 184.783 194.567 182.992 193.426C181.202 192.284 179.158 191.597 177.039 191.425Z" fill="url(#paint3_linear_104_2596)"/>
<path d="M177.039 329.575C177.355 330.692 177.517 331.846 177.521 333.006C177.521 334.712 177.184 336.402 176.529 337.979C175.875 339.555 174.915 340.988 173.706 342.194C172.496 343.401 171.06 344.358 169.48 345.011C167.899 345.664 166.205 346 164.495 346C162.784 346 161.09 345.664 159.51 345.011C157.929 344.358 156.493 343.401 155.284 342.194C154.074 340.988 153.115 339.555 152.46 337.979C151.806 336.402 151.469 334.712 151.469 333.006C151.475 331.845 151.64 330.691 151.959 329.575C149.84 329.403 147.795 328.715 146.004 327.572C144.213 326.429 142.729 324.866 141.683 323.02C140.638 321.173 140.061 319.099 140.005 316.979C139.948 314.858 140.413 312.757 141.359 310.857C142.304 308.957 143.702 307.318 145.43 306.081C147.157 304.845 149.162 304.05 151.269 303.765C153.376 303.48 155.521 303.714 157.516 304.447C159.512 305.18 161.296 306.39 162.715 307.97C162.19 304.625 160.798 299.599 157.135 297H171.863C168.235 299.376 166.833 304.531 166.3 307.953C167.721 306.376 169.507 305.17 171.503 304.44C173.498 303.711 175.642 303.48 177.748 303.767C179.854 304.055 181.857 304.852 183.582 306.09C185.308 307.328 186.703 308.968 187.647 310.868C188.59 312.768 189.053 314.869 188.995 316.988C188.937 319.107 188.359 321.18 187.313 323.026C186.267 324.871 184.783 326.433 182.992 327.574C181.202 328.716 179.158 329.403 177.039 329.575Z" fill="url(#paint4_linear_104_2596)"/>
<defs>
<linearGradient id="paint0_linear_104_2596" x1="269" y1="202" x2="0" y2="202" gradientUnits="userSpaceOnUse">
<stop stop-color="#B4B4B4"/>
<stop offset="0.5" stop-color="#B7B3B8"/>
<stop offset="0.9999" stop-color="#F9F8F9"/>
<stop offset="1" stop-color="#B9B6BA"/>
</linearGradient>
<linearGradient id="paint1_linear_104_2596" x1="29.1386" y1="155.61" x2="91.2786" y2="155.49" gradientUnits="userSpaceOnUse">
<stop stop-color="#140F14"/>
<stop offset="0.13" stop-color="#302E32"/>
<stop offset="0.36" stop-color="#140F14"/>
<stop offset="0.62" stop-color="#302E32"/>
<stop offset="1" stop-color="#140F14"/>
</linearGradient>
<linearGradient id="paint2_linear_104_2596" x1="138.4" y1="84.5386" x2="191.828" y2="84.4352" gradientUnits="userSpaceOnUse">
<stop stop-color="#140F14"/>
<stop offset="0.13" stop-color="#302E32"/>
<stop offset="0.36" stop-color="#140F14"/>
<stop offset="0.62" stop-color="#302E32"/>
<stop offset="1" stop-color="#140F14"/>
</linearGradient>
<linearGradient id="paint3_linear_104_2596" x1="138.4" y1="199.539" x2="191.828" y2="199.435" gradientUnits="userSpaceOnUse">
<stop stop-color="#140F14"/>
<stop offset="0.13" stop-color="#302E32"/>
<stop offset="0.36" stop-color="#140F14"/>
<stop offset="0.62" stop-color="#302E32"/>
<stop offset="1" stop-color="#140F14"/>
</linearGradient>
<linearGradient id="paint4_linear_104_2596" x1="138.4" y1="321.461" x2="191.828" y2="321.565" gradientUnits="userSpaceOnUse">
<stop stop-color="#140F14"/>
<stop offset="0.13" stop-color="#302E32"/>
<stop offset="0.36" stop-color="#140F14"/>
<stop offset="0.62" stop-color="#302E32"/>
<stop offset="1" stop-color="#140F14"/>
</linearGradient>
</defs>
</svg>
