<svg width="269" height="404" viewBox="0 0 269 404" fill="none" xmlns="http://www.w3.org/2000/svg">
<rect x="4" y="4" width="261" height="396" rx="11" fill="url(#paint0_linear_104_3657)" stroke="#404040" stroke-width="8"/>
<path d="M42.7839 41.5455V107H28.9451V54.6811H28.5616L13.5723 64.0774V51.8047L29.7761 41.5455H42.7839ZM84.0046 108.438C78.5075 108.417 73.7773 107.064 69.8143 104.379C65.8725 101.695 62.8363 97.8061 60.7056 92.7138C58.5962 87.6214 57.5522 81.4957 57.5735 74.3366C57.5735 67.1989 58.6282 61.1158 60.7376 56.0874C62.8683 51.0589 65.9045 47.2344 69.8462 44.6136C73.8093 41.9716 78.5288 40.6506 84.0046 40.6506C89.4805 40.6506 94.1893 41.9716 98.131 44.6136C102.094 47.2557 105.141 51.0909 107.272 56.1193C109.402 61.1264 110.457 67.1989 110.436 74.3366C110.436 81.517 109.37 87.6534 107.24 92.7457C105.13 97.8381 102.105 101.727 98.163 104.411C94.2212 107.096 89.5018 108.438 84.0046 108.438ZM84.0046 96.9645C87.7546 96.9645 90.7482 95.0788 92.9854 91.3075C95.2227 87.5362 96.3306 81.8793 96.3093 74.3366C96.3093 69.3722 95.7979 65.2386 94.7752 61.9361C93.7738 58.6335 92.3462 56.1513 90.4925 54.4893C88.6602 52.8274 86.4975 51.9964 84.0046 51.9964C80.2759 51.9964 77.293 53.8608 75.0558 57.5895C72.8185 61.3182 71.6893 66.9006 71.668 74.3366C71.668 79.3651 72.1687 83.5625 73.1701 86.929C74.1928 90.2741 75.631 92.7884 77.4847 94.4716C79.3384 96.1335 81.5117 96.9645 84.0046 96.9645Z" fill="#7E2226"/>
<path d="M85.32 157.34C73.05 162.86 64.17 175.43 58.66 187.7C53.15 175.43 44.26 162.86 32 157.34C44.26 151.84 53.15 139.26 58.66 127C64.17 139.26 73.05 151.84 85.32 157.34Z" fill="url(#paint1_linear_104_3657)"/>
<path d="M161.705 86.0224C151.155 90.7569 143.52 101.538 138.782 112.062C134.045 101.538 126.401 90.7569 115.86 86.0224C126.401 81.3051 134.045 70.5153 138.782 60C143.52 70.5153 151.155 81.3051 161.705 86.0224Z" fill="url(#paint2_linear_104_3657)"/>
<path d="M161.705 319.978C151.155 315.243 143.52 304.462 138.782 293.938C134.045 304.462 126.401 315.243 115.86 319.978C126.401 324.695 134.045 335.485 138.782 346C143.52 335.485 151.155 324.695 161.705 319.978Z" fill="url(#paint3_linear_104_3657)"/>
<path d="M161.705 171.022C151.155 175.757 143.52 186.538 138.782 197.062C134.045 186.538 126.401 175.757 115.86 171.022C126.401 166.305 134.045 155.515 138.782 145C143.52 155.515 151.155 166.305 161.705 171.022Z" fill="url(#paint4_linear_104_3657)"/>
<path d="M161.705 234.978C151.155 230.243 143.52 219.462 138.782 208.938C134.045 219.462 126.401 230.243 115.86 234.978C126.401 239.695 134.045 250.485 138.782 261C143.52 250.485 151.155 239.695 161.705 234.978Z" fill="url(#paint5_linear_104_3657)"/>
<path d="M238.705 171.022C228.155 175.757 220.52 186.538 215.782 197.062C211.045 186.538 203.401 175.757 192.86 171.022C203.401 166.305 211.045 155.515 215.782 145C220.52 155.515 228.155 166.305 238.705 171.022Z" fill="url(#paint6_linear_104_3657)"/>
<path d="M238.705 234.978C228.155 230.243 220.52 219.462 215.782 208.938C211.045 219.462 203.401 230.243 192.86 234.978C203.401 239.695 211.045 250.485 215.782 261C220.52 250.485 228.155 239.695 238.705 234.978Z" fill="url(#paint7_linear_104_3657)"/>
<path d="M200.705 133.022C190.155 137.757 182.52 148.538 177.782 159.062C173.045 148.538 165.401 137.757 154.86 133.022C165.401 128.305 173.045 117.515 177.782 107C182.52 117.515 190.155 128.305 200.705 133.022Z" fill="url(#paint8_linear_104_3657)"/>
<path d="M200.705 277.978C190.155 273.243 182.52 262.462 177.782 251.938C173.045 262.462 165.401 273.243 154.86 277.978C165.401 282.695 173.045 293.485 177.782 304C182.52 293.485 190.155 282.695 200.705 277.978Z" fill="url(#paint9_linear_104_3657)"/>
<path d="M238.705 86.0224C228.155 90.7569 220.52 101.538 215.782 112.062C211.045 101.538 203.401 90.7569 192.86 86.0224C203.401 81.3051 211.045 70.5153 215.782 60C220.52 70.5153 228.155 81.3051 238.705 86.0224Z" fill="url(#paint10_linear_104_3657)"/>
<path d="M238.705 319.978C228.155 315.243 220.52 304.462 215.782 293.938C211.045 304.462 203.401 315.243 192.86 319.978C203.401 324.695 211.045 335.485 215.782 346C220.52 335.485 228.155 324.695 238.705 319.978Z" fill="url(#paint11_linear_104_3657)"/>
<defs>
<linearGradient id="paint0_linear_104_3657" x1="269" y1="202" x2="0" y2="202" gradientUnits="userSpaceOnUse">
<stop stop-color="#B4B4B4"/>
<stop offset="0.5" stop-color="#B7B3B8"/>
<stop offset="0.9999" stop-color="#F9F8F9"/>
<stop offset="1" stop-color="#B9B6BA"/>
</linearGradient>
<linearGradient id="paint1_linear_104_3657" x1="32" y1="157.35" x2="85.32" y2="157.35" gradientUnits="userSpaceOnUse">
<stop stop-color="#490303"/>
<stop offset="0.08" stop-color="#69191B"/>
<stop offset="0.15" stop-color="#7B2224"/>
<stop offset="0.33" stop-color="#6D1B1D"/>
<stop offset="0.37" stop-color="#69191B"/>
<stop offset="0.52" stop-color="#771F22"/>
<stop offset="0.69" stop-color="#8D292D"/>
<stop offset="0.8" stop-color="#781D20"/>
<stop offset="1" stop-color="#490303"/>
</linearGradient>
<linearGradient id="paint2_linear_104_3657" x1="115.86" y1="86.031" x2="161.705" y2="86.031" gradientUnits="userSpaceOnUse">
<stop stop-color="#490303"/>
<stop offset="0.08" stop-color="#69191B"/>
<stop offset="0.15" stop-color="#7B2224"/>
<stop offset="0.33" stop-color="#6D1B1D"/>
<stop offset="0.37" stop-color="#69191B"/>
<stop offset="0.52" stop-color="#771F22"/>
<stop offset="0.69" stop-color="#8D292D"/>
<stop offset="0.8" stop-color="#781D20"/>
<stop offset="1" stop-color="#490303"/>
</linearGradient>
<linearGradient id="paint3_linear_104_3657" x1="115.86" y1="319.969" x2="161.705" y2="319.969" gradientUnits="userSpaceOnUse">
<stop stop-color="#490303"/>
<stop offset="0.08" stop-color="#69191B"/>
<stop offset="0.15" stop-color="#7B2224"/>
<stop offset="0.33" stop-color="#6D1B1D"/>
<stop offset="0.37" stop-color="#69191B"/>
<stop offset="0.52" stop-color="#771F22"/>
<stop offset="0.69" stop-color="#8D292D"/>
<stop offset="0.8" stop-color="#781D20"/>
<stop offset="1" stop-color="#490303"/>
</linearGradient>
<linearGradient id="paint4_linear_104_3657" x1="115.86" y1="171.031" x2="161.705" y2="171.031" gradientUnits="userSpaceOnUse">
<stop stop-color="#490303"/>
<stop offset="0.08" stop-color="#69191B"/>
<stop offset="0.15" stop-color="#7B2224"/>
<stop offset="0.33" stop-color="#6D1B1D"/>
<stop offset="0.37" stop-color="#69191B"/>
<stop offset="0.52" stop-color="#771F22"/>
<stop offset="0.69" stop-color="#8D292D"/>
<stop offset="0.8" stop-color="#781D20"/>
<stop offset="1" stop-color="#490303"/>
</linearGradient>
<linearGradient id="paint5_linear_104_3657" x1="115.86" y1="234.969" x2="161.705" y2="234.969" gradientUnits="userSpaceOnUse">
<stop stop-color="#490303"/>
<stop offset="0.08" stop-color="#69191B"/>
<stop offset="0.15" stop-color="#7B2224"/>
<stop offset="0.33" stop-color="#6D1B1D"/>
<stop offset="0.37" stop-color="#69191B"/>
<stop offset="0.52" stop-color="#771F22"/>
<stop offset="0.69" stop-color="#8D292D"/>
<stop offset="0.8" stop-color="#781D20"/>
<stop offset="1" stop-color="#490303"/>
</linearGradient>
<linearGradient id="paint6_linear_104_3657" x1="192.86" y1="171.031" x2="238.705" y2="171.031" gradientUnits="userSpaceOnUse">
<stop stop-color="#490303"/>
<stop offset="0.08" stop-color="#69191B"/>
<stop offset="0.15" stop-color="#7B2224"/>
<stop offset="0.33" stop-color="#6D1B1D"/>
<stop offset="0.37" stop-color="#69191B"/>
<stop offset="0.52" stop-color="#771F22"/>
<stop offset="0.69" stop-color="#8D292D"/>
<stop offset="0.8" stop-color="#781D20"/>
<stop offset="1" stop-color="#490303"/>
</linearGradient>
<linearGradient id="paint7_linear_104_3657" x1="192.86" y1="234.969" x2="238.705" y2="234.969" gradientUnits="userSpaceOnUse">
<stop stop-color="#490303"/>
<stop offset="0.08" stop-color="#69191B"/>
<stop offset="0.15" stop-color="#7B2224"/>
<stop offset="0.33" stop-color="#6D1B1D"/>
<stop offset="0.37" stop-color="#69191B"/>
<stop offset="0.52" stop-color="#771F22"/>
<stop offset="0.69" stop-color="#8D292D"/>
<stop offset="0.8" stop-color="#781D20"/>
<stop offset="1" stop-color="#490303"/>
</linearGradient>
<linearGradient id="paint8_linear_104_3657" x1="154.86" y1="133.031" x2="200.705" y2="133.031" gradientUnits="userSpaceOnUse">
<stop stop-color="#490303"/>
<stop offset="0.08" stop-color="#69191B"/>
<stop offset="0.15" stop-color="#7B2224"/>
<stop offset="0.33" stop-color="#6D1B1D"/>
<stop offset="0.37" stop-color="#69191B"/>
<stop offset="0.52" stop-color="#771F22"/>
<stop offset="0.69" stop-color="#8D292D"/>
<stop offset="0.8" stop-color="#781D20"/>
<stop offset="1" stop-color="#490303"/>
</linearGradient>
<linearGradient id="paint9_linear_104_3657" x1="154.86" y1="277.969" x2="200.705" y2="277.969" gradientUnits="userSpaceOnUse">
<stop stop-color="#490303"/>
<stop offset="0.08" stop-color="#69191B"/>
<stop offset="0.15" stop-color="#7B2224"/>
<stop offset="0.33" stop-color="#6D1B1D"/>
<stop offset="0.37" stop-color="#69191B"/>
<stop offset="0.52" stop-color="#771F22"/>
<stop offset="0.69" stop-color="#8D292D"/>
<stop offset="0.8" stop-color="#781D20"/>
<stop offset="1" stop-color="#490303"/>
</linearGradient>
<linearGradient id="paint10_linear_104_3657" x1="192.86" y1="86.031" x2="238.705" y2="86.031" gradientUnits="userSpaceOnUse">
<stop stop-color="#490303"/>
<stop offset="0.08" stop-color="#69191B"/>
<stop offset="0.15" stop-color="#7B2224"/>
<stop offset="0.33" stop-color="#6D1B1D"/>
<stop offset="0.37" stop-color="#69191B"/>
<stop offset="0.52" stop-color="#771F22"/>
<stop offset="0.69" stop-color="#8D292D"/>
<stop offset="0.8" stop-color="#781D20"/>
<stop offset="1" stop-color="#490303"/>
</linearGradient>
<linearGradient id="paint11_linear_104_3657" x1="192.86" y1="319.969" x2="238.705" y2="319.969" gradientUnits="userSpaceOnUse">
<stop stop-color="#490303"/>
<stop offset="0.08" stop-color="#69191B"/>
<stop offset="0.15" stop-color="#7B2224"/>
<stop offset="0.33" stop-color="#6D1B1D"/>
<stop offset="0.37" stop-color="#69191B"/>
<stop offset="0.52" stop-color="#771F22"/>
<stop offset="0.69" stop-color="#8D292D"/>
<stop offset="0.8" stop-color="#781D20"/>
<stop offset="1" stop-color="#490303"/>
</linearGradient>
</defs>
</svg>
