<svg width="269" height="404" viewBox="0 0 269 404" fill="none" xmlns="http://www.w3.org/2000/svg">
<rect x="4" y="4" width="261" height="396" rx="11" fill="url(#paint0_linear_104_3587)" stroke="#404040" stroke-width="8"/>
<path d="M60.8144 109.014C55.4053 109.014 50.5878 108.085 46.3619 106.225C42.1602 104.342 38.8399 101.758 36.401 98.4737C33.9862 95.1655 32.7426 91.3501 32.6702 87.0277H48.4628C48.5594 88.8388 49.151 90.4325 50.2377 91.8089C51.3485 93.1612 52.8215 94.2116 54.6567 94.9602C56.4919 95.7088 58.5566 96.0831 60.8506 96.0831C63.2412 96.0831 65.3541 95.6605 67.1894 94.8153C69.0246 93.9702 70.4614 92.799 71.4997 91.3018C72.5381 89.8047 73.0573 88.0781 73.0573 86.1222C73.0573 84.142 72.5019 82.3913 71.3911 80.87C70.3044 79.3246 68.7348 78.1172 66.6823 77.2479C64.6539 76.3786 62.2391 75.9439 59.4379 75.9439H52.5196V64.4254H59.4379C61.8044 64.4254 63.8932 64.0149 65.7043 63.1939C67.5395 62.3729 68.9642 61.2379 69.9784 59.7891C70.9926 58.3161 71.4997 56.6016 71.4997 54.6456C71.4997 52.7862 71.053 51.1563 70.1595 49.7557C69.2902 48.331 68.0587 47.2202 66.4649 46.4233C64.8953 45.6264 63.0601 45.228 60.9593 45.228C58.8343 45.228 56.8904 45.6143 55.1276 46.3871C53.3648 47.1357 51.9521 48.2102 50.8896 49.6108C49.8271 51.0114 49.2597 52.6534 49.1872 54.5369H34.1553C34.2277 50.2628 35.4472 46.4957 37.8137 43.2358C40.1801 39.9758 43.3676 37.4283 47.3762 35.593C51.4088 33.7337 55.9607 32.804 61.0317 32.804C66.151 32.804 70.6304 33.7337 74.4699 35.593C78.3094 37.4524 81.2916 39.9638 83.4166 43.1271C85.5658 46.2663 86.6283 49.7919 86.6041 53.7038C86.6283 57.8572 85.3364 61.3224 82.7284 64.0994C80.1446 66.8764 76.776 68.6392 72.6226 69.3878V69.9673C78.08 70.6676 82.2334 72.5632 85.0828 75.6541C87.9564 78.7209 89.3811 82.5604 89.357 87.1726C89.3811 91.3984 88.1617 95.1534 85.6986 98.4375C83.2597 101.722 79.8911 104.305 75.5928 106.189C71.2945 108.072 66.3683 109.014 60.8144 109.014Z" fill="#7E2226"/>
<path d="M85.32 157.34C73.05 162.86 64.17 175.43 58.66 187.7C53.15 175.43 44.26 162.86 32 157.34C44.26 151.84 53.15 139.26 58.66 127C64.17 139.26 73.05 151.84 85.32 157.34Z" fill="url(#paint1_linear_104_3587)"/>
<path d="M186.705 86.0224C176.155 90.7569 168.52 101.538 163.782 112.062C159.045 101.538 151.401 90.7569 140.86 86.0224C151.401 81.3051 159.045 70.5153 163.782 60C168.52 70.5153 176.155 81.3051 186.705 86.0224Z" fill="url(#paint2_linear_104_3587)"/>
<path d="M186.705 201.022C176.155 205.757 168.52 216.538 163.782 227.062C159.045 216.538 151.401 205.757 140.86 201.022C151.401 196.305 159.045 185.515 163.782 175C168.52 185.515 176.155 196.305 186.705 201.022Z" fill="url(#paint3_linear_104_3587)"/>
<path d="M186.705 319.978C176.155 315.243 168.52 304.462 163.782 293.938C159.045 304.462 151.401 315.243 140.86 319.978C151.401 324.695 159.045 335.485 163.782 346C168.52 335.485 176.155 324.695 186.705 319.978Z" fill="url(#paint4_linear_104_3587)"/>
<defs>
<linearGradient id="paint0_linear_104_3587" x1="269" y1="202" x2="0" y2="202" gradientUnits="userSpaceOnUse">
<stop stop-color="#B4B4B4"/>
<stop offset="0.5" stop-color="#B7B3B8"/>
<stop offset="0.9999" stop-color="#F9F8F9"/>
<stop offset="1" stop-color="#B9B6BA"/>
</linearGradient>
<linearGradient id="paint1_linear_104_3587" x1="32" y1="157.35" x2="85.32" y2="157.35" gradientUnits="userSpaceOnUse">
<stop stop-color="#490303"/>
<stop offset="0.08" stop-color="#69191B"/>
<stop offset="0.15" stop-color="#7B2224"/>
<stop offset="0.33" stop-color="#6D1B1D"/>
<stop offset="0.37" stop-color="#69191B"/>
<stop offset="0.52" stop-color="#771F22"/>
<stop offset="0.69" stop-color="#8D292D"/>
<stop offset="0.8" stop-color="#781D20"/>
<stop offset="1" stop-color="#490303"/>
</linearGradient>
<linearGradient id="paint2_linear_104_3587" x1="140.86" y1="86.031" x2="186.705" y2="86.031" gradientUnits="userSpaceOnUse">
<stop stop-color="#490303"/>
<stop offset="0.08" stop-color="#69191B"/>
<stop offset="0.15" stop-color="#7B2224"/>
<stop offset="0.33" stop-color="#6D1B1D"/>
<stop offset="0.37" stop-color="#69191B"/>
<stop offset="0.52" stop-color="#771F22"/>
<stop offset="0.69" stop-color="#8D292D"/>
<stop offset="0.8" stop-color="#781D20"/>
<stop offset="1" stop-color="#490303"/>
</linearGradient>
<linearGradient id="paint3_linear_104_3587" x1="140.86" y1="201.031" x2="186.705" y2="201.031" gradientUnits="userSpaceOnUse">
<stop stop-color="#490303"/>
<stop offset="0.08" stop-color="#69191B"/>
<stop offset="0.15" stop-color="#7B2224"/>
<stop offset="0.33" stop-color="#6D1B1D"/>
<stop offset="0.37" stop-color="#69191B"/>
<stop offset="0.52" stop-color="#771F22"/>
<stop offset="0.69" stop-color="#8D292D"/>
<stop offset="0.8" stop-color="#781D20"/>
<stop offset="1" stop-color="#490303"/>
</linearGradient>
<linearGradient id="paint4_linear_104_3587" x1="140.86" y1="319.969" x2="186.705" y2="319.969" gradientUnits="userSpaceOnUse">
<stop stop-color="#490303"/>
<stop offset="0.08" stop-color="#69191B"/>
<stop offset="0.15" stop-color="#7B2224"/>
<stop offset="0.33" stop-color="#6D1B1D"/>
<stop offset="0.37" stop-color="#69191B"/>
<stop offset="0.52" stop-color="#771F22"/>
<stop offset="0.69" stop-color="#8D292D"/>
<stop offset="0.8" stop-color="#781D20"/>
<stop offset="1" stop-color="#490303"/>
</linearGradient>
</defs>
</svg>
