<svg width="269" height="404" viewBox="0 0 269 404" fill="none" xmlns="http://www.w3.org/2000/svg">
<rect x="4" y="4" width="261" height="396" rx="11" fill="url(#paint0_linear_104_3681)" stroke="#404040" stroke-width="8"/>
<path d="M37.1635 107V41.5455H51.0023V70.4055H51.8652L75.4199 41.5455H92.0073L67.7175 70.853L92.2949 107H75.7395L57.8098 80.0895L51.0023 88.3991V107H37.1635Z" fill="#7E2226"/>
<path d="M86.1422 327V203.364H112.282V257.877H113.912L158.404 203.364H189.736L143.855 258.722L190.279 327H159.008L125.141 276.169L112.282 291.865V327H86.1422Z" fill="#7E2226"/>
<path d="M85.32 157.34C73.05 162.86 64.17 175.43 58.66 187.7C53.15 175.43 44.26 162.86 32 157.34C44.26 151.84 53.15 139.26 58.66 127C64.17 139.26 73.05 151.84 85.32 157.34Z" fill="url(#paint1_linear_104_3681)"/>
<defs>
<linearGradient id="paint0_linear_104_3681" x1="269" y1="202" x2="0" y2="202" gradientUnits="userSpaceOnUse">
<stop stop-color="#B4B4B4"/>
<stop offset="0.5" stop-color="#B7B3B8"/>
<stop offset="0.9999" stop-color="#F9F8F9"/>
<stop offset="1" stop-color="#B9B6BA"/>
</linearGradient>
<linearGradient id="paint1_linear_104_3681" x1="32" y1="157.35" x2="85.32" y2="157.35" gradientUnits="userSpaceOnUse">
<stop stop-color="#490303"/>
<stop offset="0.08" stop-color="#69191B"/>
<stop offset="0.15" stop-color="#7B2224"/>
<stop offset="0.33" stop-color="#6D1B1D"/>
<stop offset="0.37" stop-color="#69191B"/>
<stop offset="0.52" stop-color="#771F22"/>
<stop offset="0.69" stop-color="#8D292D"/>
<stop offset="0.8" stop-color="#781D20"/>
<stop offset="1" stop-color="#490303"/>
</linearGradient>
</defs>
</svg>
