<svg width="269" height="404" viewBox="0 0 269 404" fill="none" xmlns="http://www.w3.org/2000/svg">
<rect x="4" y="4" width="261" height="396" rx="11" fill="url(#paint0_linear_104_3644)" stroke="#404040" stroke-width="8"/>
<path d="M61.185 32.804C65.0004 32.804 68.6708 33.4439 72.1964 34.7237C75.7461 36.0035 78.9094 38.044 81.6864 40.8452C84.4876 43.6463 86.6971 47.3651 88.315 52.0014C89.957 56.6136 90.7901 62.2763 90.8143 68.9893C90.8143 75.2919 90.1019 80.9183 88.6772 85.8686C87.2766 90.7947 85.2603 94.9844 82.6282 98.4375C79.9961 101.891 76.8207 104.523 73.1019 106.334C69.3832 108.121 65.2298 109.014 60.6417 109.014C55.6914 109.014 51.3207 108.06 47.5295 106.153C43.7383 104.221 40.6836 101.601 38.3654 98.2926C36.0714 94.9602 34.6829 91.2173 34.1999 87.0639H49.6665C50.2702 89.7685 51.538 91.8693 53.4698 93.3665C55.4016 94.8395 57.7923 95.576 60.6417 95.576C65.4712 95.576 69.1417 93.4751 71.6531 89.2734C74.1644 85.0476 75.4322 79.2642 75.4563 71.9233H74.9492C73.8384 74.0966 72.3413 75.968 70.4577 77.5376C68.5742 79.0831 66.413 80.2784 63.9741 81.1236C61.5593 81.9688 58.9876 82.3913 56.2589 82.3913C51.8881 82.3913 47.9883 81.3651 44.5593 79.3125C41.1303 77.2599 38.4258 74.4347 36.4457 70.8366C34.4656 67.2386 33.4755 63.1335 33.4755 58.5213C33.4513 53.5469 34.5984 49.1158 36.9165 45.228C39.2347 41.3402 42.4705 38.2976 46.6239 36.1001C50.8015 33.8785 55.6552 32.7798 61.185 32.804ZM61.2937 45.1193C58.8548 45.1193 56.6815 45.6989 54.7738 46.858C52.8903 48.017 51.3931 49.5746 50.2823 51.5305C49.1957 53.4865 48.6644 55.6719 48.6886 58.0866C48.6886 60.5256 49.2198 62.723 50.2823 64.679C51.369 66.6108 52.842 68.1562 54.7014 69.3153C56.5849 70.4503 58.734 71.0178 61.1488 71.0178C62.9599 71.0178 64.6381 70.6797 66.1836 70.0035C67.729 69.3274 69.0692 68.3977 70.2042 67.2145C71.3633 66.0071 72.2688 64.6186 72.9208 63.049C73.5728 61.4794 73.8988 59.8132 73.8988 58.0504C73.8746 55.7081 73.3192 53.5589 72.2326 51.603C71.146 49.647 69.6488 48.0774 67.7411 46.8942C65.8335 45.7109 63.6843 45.1193 61.2937 45.1193Z" fill="#7E2226"/>
<path d="M85.32 157.34C73.05 162.86 64.17 175.43 58.66 187.7C53.15 175.43 44.26 162.86 32 157.34C44.26 151.84 53.15 139.26 58.66 127C64.17 139.26 73.05 151.84 85.32 157.34Z" fill="url(#paint1_linear_104_3644)"/>
<path d="M162.705 86.0224C152.155 90.7569 144.52 101.538 139.782 112.062C135.045 101.538 127.401 90.7569 116.86 86.0224C127.401 81.3051 135.045 70.5153 139.782 60C144.52 70.5153 152.155 81.3051 162.705 86.0224Z" fill="url(#paint2_linear_104_3644)"/>
<path d="M162.705 319.978C152.155 315.243 144.52 304.462 139.782 293.938C135.045 304.462 127.401 315.243 116.86 319.978C127.401 324.695 135.045 335.485 139.782 346C144.52 335.485 152.155 324.695 162.705 319.978Z" fill="url(#paint3_linear_104_3644)"/>
<path d="M162.705 151.022C152.155 155.757 144.52 166.538 139.782 177.062C135.045 166.538 127.401 155.757 116.86 151.022C127.401 146.305 135.045 135.515 139.782 125C144.52 135.515 152.155 146.305 162.705 151.022Z" fill="url(#paint4_linear_104_3644)"/>
<path d="M162.705 254.978C152.155 250.243 144.52 239.462 139.782 228.938C135.045 239.462 127.401 250.243 116.86 254.978C127.401 259.695 135.045 270.485 139.782 281C144.52 270.485 152.155 259.695 162.705 254.978Z" fill="url(#paint5_linear_104_3644)"/>
<path d="M239.705 151.022C229.155 155.757 221.52 166.538 216.782 177.062C212.045 166.538 204.401 155.757 193.86 151.022C204.401 146.305 212.045 135.515 216.782 125C221.52 135.515 229.155 146.305 239.705 151.022Z" fill="url(#paint6_linear_104_3644)"/>
<path d="M239.705 254.978C229.155 250.243 221.52 239.462 216.782 228.938C212.045 239.462 204.401 250.243 193.86 254.978C204.401 259.695 212.045 270.485 216.782 281C221.52 270.485 229.155 259.695 239.705 254.978Z" fill="url(#paint7_linear_104_3644)"/>
<path d="M200.705 205.022C190.155 209.757 182.52 220.538 177.782 231.062C173.045 220.538 165.401 209.757 154.86 205.022C165.401 200.305 173.045 189.515 177.782 179C182.52 189.515 190.155 200.305 200.705 205.022Z" fill="url(#paint8_linear_104_3644)"/>
<path d="M239.705 86.0224C229.155 90.7569 221.52 101.538 216.782 112.062C212.045 101.538 204.401 90.7569 193.86 86.0224C204.401 81.3051 212.045 70.5153 216.782 60C221.52 70.5153 229.155 81.3051 239.705 86.0224Z" fill="url(#paint9_linear_104_3644)"/>
<path d="M239.705 319.978C229.155 315.243 221.52 304.462 216.782 293.938C212.045 304.462 204.401 315.243 193.86 319.978C204.401 324.695 212.045 335.485 216.782 346C221.52 335.485 229.155 324.695 239.705 319.978Z" fill="url(#paint10_linear_104_3644)"/>
<defs>
<linearGradient id="paint0_linear_104_3644" x1="269" y1="202" x2="0" y2="202" gradientUnits="userSpaceOnUse">
<stop stop-color="#B4B4B4"/>
<stop offset="0.5" stop-color="#B7B3B8"/>
<stop offset="0.9999" stop-color="#F9F8F9"/>
<stop offset="1" stop-color="#B9B6BA"/>
</linearGradient>
<linearGradient id="paint1_linear_104_3644" x1="32" y1="157.35" x2="85.32" y2="157.35" gradientUnits="userSpaceOnUse">
<stop stop-color="#490303"/>
<stop offset="0.08" stop-color="#69191B"/>
<stop offset="0.15" stop-color="#7B2224"/>
<stop offset="0.33" stop-color="#6D1B1D"/>
<stop offset="0.37" stop-color="#69191B"/>
<stop offset="0.52" stop-color="#771F22"/>
<stop offset="0.69" stop-color="#8D292D"/>
<stop offset="0.8" stop-color="#781D20"/>
<stop offset="1" stop-color="#490303"/>
</linearGradient>
<linearGradient id="paint2_linear_104_3644" x1="116.86" y1="86.031" x2="162.705" y2="86.031" gradientUnits="userSpaceOnUse">
<stop stop-color="#490303"/>
<stop offset="0.08" stop-color="#69191B"/>
<stop offset="0.15" stop-color="#7B2224"/>
<stop offset="0.33" stop-color="#6D1B1D"/>
<stop offset="0.37" stop-color="#69191B"/>
<stop offset="0.52" stop-color="#771F22"/>
<stop offset="0.69" stop-color="#8D292D"/>
<stop offset="0.8" stop-color="#781D20"/>
<stop offset="1" stop-color="#490303"/>
</linearGradient>
<linearGradient id="paint3_linear_104_3644" x1="116.86" y1="319.969" x2="162.705" y2="319.969" gradientUnits="userSpaceOnUse">
<stop stop-color="#490303"/>
<stop offset="0.08" stop-color="#69191B"/>
<stop offset="0.15" stop-color="#7B2224"/>
<stop offset="0.33" stop-color="#6D1B1D"/>
<stop offset="0.37" stop-color="#69191B"/>
<stop offset="0.52" stop-color="#771F22"/>
<stop offset="0.69" stop-color="#8D292D"/>
<stop offset="0.8" stop-color="#781D20"/>
<stop offset="1" stop-color="#490303"/>
</linearGradient>
<linearGradient id="paint4_linear_104_3644" x1="116.86" y1="151.031" x2="162.705" y2="151.031" gradientUnits="userSpaceOnUse">
<stop stop-color="#490303"/>
<stop offset="0.08" stop-color="#69191B"/>
<stop offset="0.15" stop-color="#7B2224"/>
<stop offset="0.33" stop-color="#6D1B1D"/>
<stop offset="0.37" stop-color="#69191B"/>
<stop offset="0.52" stop-color="#771F22"/>
<stop offset="0.69" stop-color="#8D292D"/>
<stop offset="0.8" stop-color="#781D20"/>
<stop offset="1" stop-color="#490303"/>
</linearGradient>
<linearGradient id="paint5_linear_104_3644" x1="116.86" y1="254.969" x2="162.705" y2="254.969" gradientUnits="userSpaceOnUse">
<stop stop-color="#490303"/>
<stop offset="0.08" stop-color="#69191B"/>
<stop offset="0.15" stop-color="#7B2224"/>
<stop offset="0.33" stop-color="#6D1B1D"/>
<stop offset="0.37" stop-color="#69191B"/>
<stop offset="0.52" stop-color="#771F22"/>
<stop offset="0.69" stop-color="#8D292D"/>
<stop offset="0.8" stop-color="#781D20"/>
<stop offset="1" stop-color="#490303"/>
</linearGradient>
<linearGradient id="paint6_linear_104_3644" x1="193.86" y1="151.031" x2="239.705" y2="151.031" gradientUnits="userSpaceOnUse">
<stop stop-color="#490303"/>
<stop offset="0.08" stop-color="#69191B"/>
<stop offset="0.15" stop-color="#7B2224"/>
<stop offset="0.33" stop-color="#6D1B1D"/>
<stop offset="0.37" stop-color="#69191B"/>
<stop offset="0.52" stop-color="#771F22"/>
<stop offset="0.69" stop-color="#8D292D"/>
<stop offset="0.8" stop-color="#781D20"/>
<stop offset="1" stop-color="#490303"/>
</linearGradient>
<linearGradient id="paint7_linear_104_3644" x1="193.86" y1="254.969" x2="239.705" y2="254.969" gradientUnits="userSpaceOnUse">
<stop stop-color="#490303"/>
<stop offset="0.08" stop-color="#69191B"/>
<stop offset="0.15" stop-color="#7B2224"/>
<stop offset="0.33" stop-color="#6D1B1D"/>
<stop offset="0.37" stop-color="#69191B"/>
<stop offset="0.52" stop-color="#771F22"/>
<stop offset="0.69" stop-color="#8D292D"/>
<stop offset="0.8" stop-color="#781D20"/>
<stop offset="1" stop-color="#490303"/>
</linearGradient>
<linearGradient id="paint8_linear_104_3644" x1="154.86" y1="205.031" x2="200.705" y2="205.031" gradientUnits="userSpaceOnUse">
<stop stop-color="#490303"/>
<stop offset="0.08" stop-color="#69191B"/>
<stop offset="0.15" stop-color="#7B2224"/>
<stop offset="0.33" stop-color="#6D1B1D"/>
<stop offset="0.37" stop-color="#69191B"/>
<stop offset="0.52" stop-color="#771F22"/>
<stop offset="0.69" stop-color="#8D292D"/>
<stop offset="0.8" stop-color="#781D20"/>
<stop offset="1" stop-color="#490303"/>
</linearGradient>
<linearGradient id="paint9_linear_104_3644" x1="193.86" y1="86.031" x2="239.705" y2="86.031" gradientUnits="userSpaceOnUse">
<stop stop-color="#490303"/>
<stop offset="0.08" stop-color="#69191B"/>
<stop offset="0.15" stop-color="#7B2224"/>
<stop offset="0.33" stop-color="#6D1B1D"/>
<stop offset="0.37" stop-color="#69191B"/>
<stop offset="0.52" stop-color="#771F22"/>
<stop offset="0.69" stop-color="#8D292D"/>
<stop offset="0.8" stop-color="#781D20"/>
<stop offset="1" stop-color="#490303"/>
</linearGradient>
<linearGradient id="paint10_linear_104_3644" x1="193.86" y1="319.969" x2="239.705" y2="319.969" gradientUnits="userSpaceOnUse">
<stop stop-color="#490303"/>
<stop offset="0.08" stop-color="#69191B"/>
<stop offset="0.15" stop-color="#7B2224"/>
<stop offset="0.33" stop-color="#6D1B1D"/>
<stop offset="0.37" stop-color="#69191B"/>
<stop offset="0.52" stop-color="#771F22"/>
<stop offset="0.69" stop-color="#8D292D"/>
<stop offset="0.8" stop-color="#781D20"/>
<stop offset="1" stop-color="#490303"/>
</linearGradient>
</defs>
</svg>
