<svg width="269" height="404" viewBox="0 0 269 404" fill="none" xmlns="http://www.w3.org/2000/svg">
<rect x="4" y="4" width="261" height="396" rx="11" fill="url(#paint0_linear_104_3602)" stroke="#404040" stroke-width="8"/>
<path d="M62.2354 109.014C57.1161 109.014 52.5522 108.072 48.5437 106.189C44.5593 104.305 41.396 101.71 39.0536 98.4013C36.7113 95.093 35.4918 91.3018 35.3952 87.0277H50.6083C50.7773 89.9013 51.9847 92.2315 54.2305 94.0185C56.4762 95.8054 59.1445 96.6989 62.2354 96.6989C64.6985 96.6989 66.8718 96.1555 68.7553 95.0689C70.663 93.9581 72.1481 92.4247 73.2106 90.4688C74.2972 88.4886 74.8406 86.2187 74.8406 83.6591C74.8406 81.0511 74.2852 78.7571 73.1744 76.777C72.0877 74.7969 70.5785 73.2514 68.6467 72.1406C66.7148 71.0298 64.5053 70.4624 62.0181 70.4382C59.8448 70.4382 57.7319 70.8849 55.6793 71.7784C53.6509 72.6719 52.0692 73.8913 50.9343 75.4368L36.989 72.9375L40.5025 33.8182H85.8519V46.6406H53.4336L51.5139 65.2223H51.9485C53.2525 63.3871 55.2205 61.8658 57.8526 60.6584C60.4847 59.451 63.4308 58.8473 66.6907 58.8473C71.158 58.8473 75.1424 59.8977 78.6438 61.9986C82.1452 64.0994 84.9102 66.9851 86.9386 70.6555C88.967 74.3018 89.9691 78.5036 89.945 83.2607C89.9691 88.2592 88.81 92.7024 86.4677 96.5902C84.1495 100.454 80.9016 103.496 76.7241 105.718C72.5707 107.915 67.7411 109.014 62.2354 109.014Z" fill="#7E2226"/>
<path d="M85.32 157.34C73.05 162.86 64.17 175.43 58.66 187.7C53.15 175.43 44.26 162.86 32 157.34C44.26 151.84 53.15 139.26 58.66 127C64.17 139.26 73.05 151.84 85.32 157.34Z" fill="url(#paint1_linear_104_3602)"/>
<path d="M159.705 86.0224C149.155 90.7569 141.52 101.538 136.782 112.062C132.045 101.538 124.401 90.7569 113.86 86.0224C124.401 81.3051 132.045 70.5153 136.782 60C141.52 70.5153 149.155 81.3051 159.705 86.0224Z" fill="url(#paint2_linear_104_3602)"/>
<path d="M159.705 319.978C149.155 315.243 141.52 304.462 136.782 293.938C132.045 304.462 124.401 315.243 113.86 319.978C124.401 324.695 132.045 335.485 136.782 346C141.52 335.485 149.155 324.695 159.705 319.978Z" fill="url(#paint3_linear_104_3602)"/>
<path d="M200.705 200.022C190.155 204.757 182.52 215.538 177.782 226.062C173.045 215.538 165.401 204.757 154.86 200.022C165.401 195.305 173.045 184.515 177.782 174C182.52 184.515 190.155 195.305 200.705 200.022Z" fill="url(#paint4_linear_104_3602)"/>
<path d="M239.705 86.0224C229.155 90.7569 221.52 101.538 216.782 112.062C212.045 101.538 204.401 90.7569 193.86 86.0224C204.401 81.3051 212.045 70.5153 216.782 60C221.52 70.5153 229.155 81.3051 239.705 86.0224Z" fill="url(#paint5_linear_104_3602)"/>
<path d="M239.705 319.978C229.155 315.243 221.52 304.462 216.782 293.938C212.045 304.462 204.401 315.243 193.86 319.978C204.401 324.695 212.045 335.485 216.782 346C221.52 335.485 229.155 324.695 239.705 319.978Z" fill="url(#paint6_linear_104_3602)"/>
<defs>
<linearGradient id="paint0_linear_104_3602" x1="269" y1="202" x2="0" y2="202" gradientUnits="userSpaceOnUse">
<stop stop-color="#B4B4B4"/>
<stop offset="0.5" stop-color="#B7B3B8"/>
<stop offset="0.9999" stop-color="#F9F8F9"/>
<stop offset="1" stop-color="#B9B6BA"/>
</linearGradient>
<linearGradient id="paint1_linear_104_3602" x1="32" y1="157.35" x2="85.32" y2="157.35" gradientUnits="userSpaceOnUse">
<stop stop-color="#490303"/>
<stop offset="0.08" stop-color="#69191B"/>
<stop offset="0.15" stop-color="#7B2224"/>
<stop offset="0.33" stop-color="#6D1B1D"/>
<stop offset="0.37" stop-color="#69191B"/>
<stop offset="0.52" stop-color="#771F22"/>
<stop offset="0.69" stop-color="#8D292D"/>
<stop offset="0.8" stop-color="#781D20"/>
<stop offset="1" stop-color="#490303"/>
</linearGradient>
<linearGradient id="paint2_linear_104_3602" x1="113.86" y1="86.031" x2="159.705" y2="86.031" gradientUnits="userSpaceOnUse">
<stop stop-color="#490303"/>
<stop offset="0.08" stop-color="#69191B"/>
<stop offset="0.15" stop-color="#7B2224"/>
<stop offset="0.33" stop-color="#6D1B1D"/>
<stop offset="0.37" stop-color="#69191B"/>
<stop offset="0.52" stop-color="#771F22"/>
<stop offset="0.69" stop-color="#8D292D"/>
<stop offset="0.8" stop-color="#781D20"/>
<stop offset="1" stop-color="#490303"/>
</linearGradient>
<linearGradient id="paint3_linear_104_3602" x1="113.86" y1="319.969" x2="159.705" y2="319.969" gradientUnits="userSpaceOnUse">
<stop stop-color="#490303"/>
<stop offset="0.08" stop-color="#69191B"/>
<stop offset="0.15" stop-color="#7B2224"/>
<stop offset="0.33" stop-color="#6D1B1D"/>
<stop offset="0.37" stop-color="#69191B"/>
<stop offset="0.52" stop-color="#771F22"/>
<stop offset="0.69" stop-color="#8D292D"/>
<stop offset="0.8" stop-color="#781D20"/>
<stop offset="1" stop-color="#490303"/>
</linearGradient>
<linearGradient id="paint4_linear_104_3602" x1="154.86" y1="200.031" x2="200.705" y2="200.031" gradientUnits="userSpaceOnUse">
<stop stop-color="#490303"/>
<stop offset="0.08" stop-color="#69191B"/>
<stop offset="0.15" stop-color="#7B2224"/>
<stop offset="0.33" stop-color="#6D1B1D"/>
<stop offset="0.37" stop-color="#69191B"/>
<stop offset="0.52" stop-color="#771F22"/>
<stop offset="0.69" stop-color="#8D292D"/>
<stop offset="0.8" stop-color="#781D20"/>
<stop offset="1" stop-color="#490303"/>
</linearGradient>
<linearGradient id="paint5_linear_104_3602" x1="193.86" y1="86.031" x2="239.705" y2="86.031" gradientUnits="userSpaceOnUse">
<stop stop-color="#490303"/>
<stop offset="0.08" stop-color="#69191B"/>
<stop offset="0.15" stop-color="#7B2224"/>
<stop offset="0.33" stop-color="#6D1B1D"/>
<stop offset="0.37" stop-color="#69191B"/>
<stop offset="0.52" stop-color="#771F22"/>
<stop offset="0.69" stop-color="#8D292D"/>
<stop offset="0.8" stop-color="#781D20"/>
<stop offset="1" stop-color="#490303"/>
</linearGradient>
<linearGradient id="paint6_linear_104_3602" x1="193.86" y1="319.969" x2="239.705" y2="319.969" gradientUnits="userSpaceOnUse">
<stop stop-color="#490303"/>
<stop offset="0.08" stop-color="#69191B"/>
<stop offset="0.15" stop-color="#7B2224"/>
<stop offset="0.33" stop-color="#6D1B1D"/>
<stop offset="0.37" stop-color="#69191B"/>
<stop offset="0.52" stop-color="#771F22"/>
<stop offset="0.69" stop-color="#8D292D"/>
<stop offset="0.8" stop-color="#781D20"/>
<stop offset="1" stop-color="#490303"/>
</linearGradient>
</defs>
</svg>
