<svg width="269" height="404" viewBox="0 0 269 404" fill="none" xmlns="http://www.w3.org/2000/svg">
<rect x="4" y="4" width="261" height="396" rx="11" fill="url(#paint0_linear_104_3621)" stroke="#404040" stroke-width="8"/>
<path d="M41.1157 108L71.8678 47.1477V46.6406H36.0447V33.8182H88.0951V46.8217L57.3067 108H41.1157Z" fill="#7E2226"/>
<path d="M85.32 157.34C73.05 162.86 64.17 175.43 58.66 187.7C53.15 175.43 44.26 162.86 32 157.34C44.26 151.84 53.15 139.26 58.66 127C64.17 139.26 73.05 151.84 85.32 157.34Z" fill="url(#paint1_linear_104_3621)"/>
<path d="M159.705 86.0224C149.155 90.7569 141.52 101.538 136.782 112.062C132.045 101.538 124.401 90.7569 113.86 86.0224C124.401 81.3051 132.045 70.5153 136.782 60C141.52 70.5153 149.155 81.3051 159.705 86.0224Z" fill="url(#paint2_linear_104_3621)"/>
<path d="M159.705 200.022C149.155 204.757 141.52 215.538 136.782 226.062C132.045 215.538 124.401 204.757 113.86 200.022C124.401 195.305 132.045 184.515 136.782 174C141.52 184.515 149.155 195.305 159.705 200.022Z" fill="url(#paint3_linear_104_3621)"/>
<path d="M159.705 319.978C149.155 315.243 141.52 304.462 136.782 293.938C132.045 304.462 124.401 315.243 113.86 319.978C124.401 324.695 132.045 335.485 136.782 346C141.52 335.485 149.155 324.695 159.705 319.978Z" fill="url(#paint4_linear_104_3621)"/>
<path d="M239.705 200.022C229.155 204.757 221.52 215.538 216.782 226.062C212.045 215.538 204.401 204.757 193.86 200.022C204.401 195.305 212.045 184.515 216.782 174C221.52 184.515 229.155 195.305 239.705 200.022Z" fill="url(#paint5_linear_104_3621)"/>
<path d="M239.705 319.978C229.155 315.243 221.52 304.462 216.782 293.938C212.045 304.462 204.401 315.243 193.86 319.978C204.401 324.695 212.045 335.485 216.782 346C221.52 335.485 229.155 324.695 239.705 319.978Z" fill="url(#paint6_linear_104_3621)"/>
<path d="M199.705 144.022C189.155 148.757 181.52 159.538 176.782 170.062C172.045 159.538 164.401 148.757 153.86 144.022C164.401 139.305 172.045 128.515 176.782 118C181.52 128.515 189.155 139.305 199.705 144.022Z" fill="url(#paint7_linear_104_3621)"/>
<path d="M239.705 86.0224C229.155 90.7569 221.52 101.538 216.782 112.062C212.045 101.538 204.401 90.7569 193.86 86.0224C204.401 81.3051 212.045 70.5153 216.782 60C221.52 70.5153 229.155 81.3051 239.705 86.0224Z" fill="url(#paint8_linear_104_3621)"/>
<defs>
<linearGradient id="paint0_linear_104_3621" x1="269" y1="202" x2="0" y2="202" gradientUnits="userSpaceOnUse">
<stop stop-color="#B4B4B4"/>
<stop offset="0.5" stop-color="#B7B3B8"/>
<stop offset="0.9999" stop-color="#F9F8F9"/>
<stop offset="1" stop-color="#B9B6BA"/>
</linearGradient>
<linearGradient id="paint1_linear_104_3621" x1="32" y1="157.35" x2="85.32" y2="157.35" gradientUnits="userSpaceOnUse">
<stop stop-color="#490303"/>
<stop offset="0.08" stop-color="#69191B"/>
<stop offset="0.15" stop-color="#7B2224"/>
<stop offset="0.33" stop-color="#6D1B1D"/>
<stop offset="0.37" stop-color="#69191B"/>
<stop offset="0.52" stop-color="#771F22"/>
<stop offset="0.69" stop-color="#8D292D"/>
<stop offset="0.8" stop-color="#781D20"/>
<stop offset="1" stop-color="#490303"/>
</linearGradient>
<linearGradient id="paint2_linear_104_3621" x1="113.86" y1="86.031" x2="159.705" y2="86.031" gradientUnits="userSpaceOnUse">
<stop stop-color="#490303"/>
<stop offset="0.08" stop-color="#69191B"/>
<stop offset="0.15" stop-color="#7B2224"/>
<stop offset="0.33" stop-color="#6D1B1D"/>
<stop offset="0.37" stop-color="#69191B"/>
<stop offset="0.52" stop-color="#771F22"/>
<stop offset="0.69" stop-color="#8D292D"/>
<stop offset="0.8" stop-color="#781D20"/>
<stop offset="1" stop-color="#490303"/>
</linearGradient>
<linearGradient id="paint3_linear_104_3621" x1="113.86" y1="200.031" x2="159.705" y2="200.031" gradientUnits="userSpaceOnUse">
<stop stop-color="#490303"/>
<stop offset="0.08" stop-color="#69191B"/>
<stop offset="0.15" stop-color="#7B2224"/>
<stop offset="0.33" stop-color="#6D1B1D"/>
<stop offset="0.37" stop-color="#69191B"/>
<stop offset="0.52" stop-color="#771F22"/>
<stop offset="0.69" stop-color="#8D292D"/>
<stop offset="0.8" stop-color="#781D20"/>
<stop offset="1" stop-color="#490303"/>
</linearGradient>
<linearGradient id="paint4_linear_104_3621" x1="113.86" y1="319.969" x2="159.705" y2="319.969" gradientUnits="userSpaceOnUse">
<stop stop-color="#490303"/>
<stop offset="0.08" stop-color="#69191B"/>
<stop offset="0.15" stop-color="#7B2224"/>
<stop offset="0.33" stop-color="#6D1B1D"/>
<stop offset="0.37" stop-color="#69191B"/>
<stop offset="0.52" stop-color="#771F22"/>
<stop offset="0.69" stop-color="#8D292D"/>
<stop offset="0.8" stop-color="#781D20"/>
<stop offset="1" stop-color="#490303"/>
</linearGradient>
<linearGradient id="paint5_linear_104_3621" x1="193.86" y1="200.031" x2="239.705" y2="200.031" gradientUnits="userSpaceOnUse">
<stop stop-color="#490303"/>
<stop offset="0.08" stop-color="#69191B"/>
<stop offset="0.15" stop-color="#7B2224"/>
<stop offset="0.33" stop-color="#6D1B1D"/>
<stop offset="0.37" stop-color="#69191B"/>
<stop offset="0.52" stop-color="#771F22"/>
<stop offset="0.69" stop-color="#8D292D"/>
<stop offset="0.8" stop-color="#781D20"/>
<stop offset="1" stop-color="#490303"/>
</linearGradient>
<linearGradient id="paint6_linear_104_3621" x1="193.86" y1="319.969" x2="239.705" y2="319.969" gradientUnits="userSpaceOnUse">
<stop stop-color="#490303"/>
<stop offset="0.08" stop-color="#69191B"/>
<stop offset="0.15" stop-color="#7B2224"/>
<stop offset="0.33" stop-color="#6D1B1D"/>
<stop offset="0.37" stop-color="#69191B"/>
<stop offset="0.52" stop-color="#771F22"/>
<stop offset="0.69" stop-color="#8D292D"/>
<stop offset="0.8" stop-color="#781D20"/>
<stop offset="1" stop-color="#490303"/>
</linearGradient>
<linearGradient id="paint7_linear_104_3621" x1="153.86" y1="144.031" x2="199.705" y2="144.031" gradientUnits="userSpaceOnUse">
<stop stop-color="#490303"/>
<stop offset="0.08" stop-color="#69191B"/>
<stop offset="0.15" stop-color="#7B2224"/>
<stop offset="0.33" stop-color="#6D1B1D"/>
<stop offset="0.37" stop-color="#69191B"/>
<stop offset="0.52" stop-color="#771F22"/>
<stop offset="0.69" stop-color="#8D292D"/>
<stop offset="0.8" stop-color="#781D20"/>
<stop offset="1" stop-color="#490303"/>
</linearGradient>
<linearGradient id="paint8_linear_104_3621" x1="193.86" y1="86.031" x2="239.705" y2="86.031" gradientUnits="userSpaceOnUse">
<stop stop-color="#490303"/>
<stop offset="0.08" stop-color="#69191B"/>
<stop offset="0.15" stop-color="#7B2224"/>
<stop offset="0.33" stop-color="#6D1B1D"/>
<stop offset="0.37" stop-color="#69191B"/>
<stop offset="0.52" stop-color="#771F22"/>
<stop offset="0.69" stop-color="#8D292D"/>
<stop offset="0.8" stop-color="#781D20"/>
<stop offset="1" stop-color="#490303"/>
</linearGradient>
</defs>
</svg>
