<svg width="269" height="404" viewBox="0 0 269 404" fill="none" xmlns="http://www.w3.org/2000/svg">
<rect x="4" y="4" width="261" height="396" rx="11" fill="url(#paint0_linear_104_10897)" stroke="#404040" stroke-width="8"/>
<path d="M42.7839 41.5455V107H28.9451V54.6811H28.5616L13.5723 64.0774V51.8047L29.7761 41.5455H42.7839ZM84.0046 108.438C78.5075 108.417 73.7773 107.064 69.8143 104.379C65.8725 101.695 62.8363 97.8061 60.7056 92.7138C58.5962 87.6214 57.5522 81.4957 57.5735 74.3366C57.5735 67.1989 58.6282 61.1158 60.7376 56.0874C62.8683 51.0589 65.9045 47.2344 69.8462 44.6136C73.8093 41.9716 78.5288 40.6506 84.0046 40.6506C89.4805 40.6506 94.1893 41.9716 98.131 44.6136C102.094 47.2557 105.141 51.0909 107.272 56.1193C109.402 61.1264 110.457 67.1989 110.436 74.3366C110.436 81.517 109.37 87.6534 107.24 92.7457C105.13 97.8381 102.105 101.727 98.163 104.411C94.2212 107.096 89.5018 108.438 84.0046 108.438ZM84.0046 96.9645C87.7546 96.9645 90.7482 95.0788 92.9854 91.3075C95.2227 87.5362 96.3306 81.8793 96.3093 74.3366C96.3093 69.3722 95.7979 65.2386 94.7752 61.9361C93.7738 58.6335 92.3462 56.1513 90.4925 54.4893C88.6602 52.8274 86.4975 51.9964 84.0046 51.9964C80.2759 51.9964 77.293 53.8608 75.0558 57.5895C72.8185 61.3182 71.6893 66.9006 71.668 74.3366C71.668 79.3651 72.1687 83.5625 73.1701 86.929C74.1928 90.2741 75.631 92.7884 77.4847 94.4716C79.3384 96.1335 81.5117 96.9645 84.0046 96.9645Z" fill="#7E2226"/>
<path d="M83.9336 135.194C77.7891 128.131 64.9749 130.335 60.0874 139.209C55.2 130.335 42.3483 128.131 36.2413 135.194C30.1344 142.258 31.2413 151.245 35.6503 158.825C41.7385 169.331 53.5302 173.009 60.0874 182.783C66.6447 173.009 78.427 169.331 84.5621 158.825C88.9242 151.245 89.9654 142.136 83.9336 135.194Z" fill="url(#paint1_linear_104_10897)"/>
<path d="M160.513 67.0283C155.23 60.9698 144.212 62.8606 140.01 70.472C135.807 62.8606 124.757 60.9698 119.507 67.0283C114.256 73.0869 115.208 80.7948 118.998 87.2959C124.233 96.3073 134.372 99.4613 140.01 107.845C145.648 99.4613 155.778 96.3073 161.053 87.2959C164.804 80.7948 165.699 72.9823 160.513 67.0283Z" fill="url(#paint2_linear_104_10897)"/>
<path d="M160.513 338.972C155.23 345.03 144.212 343.139 140.01 335.528C135.807 343.139 124.757 345.03 119.507 338.972C114.256 332.913 115.208 325.205 118.998 318.704C124.233 309.693 134.372 306.539 140.01 298.155C145.648 306.539 155.778 309.693 161.053 318.704C164.804 325.205 165.699 333.018 160.513 338.972Z" fill="url(#paint3_linear_104_10897)"/>
<path d="M160.513 152.028C155.23 145.97 144.212 147.861 140.01 155.472C135.807 147.861 124.757 145.97 119.507 152.028C114.256 158.087 115.208 165.795 118.998 172.296C124.233 181.307 134.372 184.461 140.01 192.845C145.648 184.461 155.778 181.307 161.053 172.296C164.804 165.795 165.699 157.982 160.513 152.028Z" fill="url(#paint4_linear_104_10897)"/>
<path d="M160.513 253.972C155.23 260.03 144.212 258.139 140.01 250.528C135.807 258.139 124.757 260.03 119.507 253.972C114.256 247.913 115.208 240.205 118.998 233.704C124.233 224.693 134.372 221.539 140.01 213.155C145.648 221.539 155.778 224.693 161.053 233.704C164.804 240.205 165.699 248.018 160.513 253.972Z" fill="url(#paint5_linear_104_10897)"/>
<path d="M237.513 152.028C232.23 145.97 221.212 147.861 217.01 155.472C212.807 147.861 201.757 145.97 196.507 152.028C191.256 158.087 192.208 165.795 195.998 172.296C201.233 181.307 211.372 184.461 217.01 192.845C222.648 184.461 232.778 181.307 238.053 172.296C241.804 165.795 242.699 157.982 237.513 152.028Z" fill="url(#paint6_linear_104_10897)"/>
<path d="M237.513 253.972C232.23 260.03 221.212 258.139 217.01 250.528C212.807 258.139 201.757 260.03 196.507 253.972C191.256 247.913 192.208 240.205 195.998 233.704C201.233 224.693 211.372 221.539 217.01 213.155C222.648 221.539 232.778 224.693 238.053 233.704C241.804 240.205 242.699 248.018 237.513 253.972Z" fill="url(#paint7_linear_104_10897)"/>
<path d="M199.513 114.028C194.23 107.97 183.212 109.861 179.01 117.472C174.807 109.861 163.757 107.97 158.507 114.028C153.256 120.087 154.208 127.795 157.998 134.296C163.233 143.307 173.372 146.461 179.01 154.845C184.648 146.461 194.778 143.307 200.053 134.296C203.804 127.795 204.699 119.982 199.513 114.028Z" fill="url(#paint8_linear_104_10897)"/>
<path d="M199.513 296.972C194.23 303.03 183.212 301.139 179.01 293.528C174.807 301.139 163.757 303.03 158.507 296.972C153.256 290.913 154.208 283.205 157.998 276.704C163.233 267.693 173.372 264.539 179.01 256.155C184.648 264.539 194.778 267.693 200.053 276.704C203.804 283.205 204.699 291.018 199.513 296.972Z" fill="url(#paint9_linear_104_10897)"/>
<path d="M237.513 67.0283C232.23 60.9698 221.212 62.8606 217.01 70.472C212.807 62.8606 201.757 60.9698 196.507 67.0283C191.256 73.0869 192.208 80.7948 195.998 87.2959C201.233 96.3073 211.372 99.4613 217.01 107.845C222.648 99.4613 232.778 96.3073 238.053 87.2959C241.804 80.7948 242.699 72.9823 237.513 67.0283Z" fill="url(#paint10_linear_104_10897)"/>
<path d="M237.513 338.972C232.23 345.03 221.212 343.139 217.01 335.528C212.807 343.139 201.757 345.03 196.507 338.972C191.256 332.913 192.208 325.205 195.998 318.704C201.233 309.693 211.372 306.539 217.01 298.155C222.648 306.539 232.778 309.693 238.053 318.704C241.804 325.205 242.699 333.018 237.513 338.972Z" fill="url(#paint11_linear_104_10897)"/>
<defs>
<linearGradient id="paint0_linear_104_10897" x1="269" y1="202" x2="0" y2="202" gradientUnits="userSpaceOnUse">
<stop stop-color="#B4B4B4"/>
<stop offset="0.5" stop-color="#B7B3B8"/>
<stop offset="0.9999" stop-color="#F9F8F9"/>
<stop offset="1" stop-color="#B9B6BA"/>
</linearGradient>
<linearGradient id="paint1_linear_104_10897" x1="31.4852" y1="156.892" x2="88.2769" y2="156.892" gradientUnits="userSpaceOnUse">
<stop stop-color="#490303"/>
<stop offset="0.08" stop-color="#69191B"/>
<stop offset="0.15" stop-color="#7B2224"/>
<stop offset="0.33" stop-color="#6D1B1D"/>
<stop offset="0.37" stop-color="#69191B"/>
<stop offset="0.52" stop-color="#771F22"/>
<stop offset="0.69" stop-color="#8D292D"/>
<stop offset="0.8" stop-color="#781D20"/>
<stop offset="1" stop-color="#490303"/>
</linearGradient>
<linearGradient id="paint2_linear_104_10897" x1="115.417" y1="85.6385" x2="164.247" y2="85.6385" gradientUnits="userSpaceOnUse">
<stop stop-color="#490303"/>
<stop offset="0.08" stop-color="#69191B"/>
<stop offset="0.15" stop-color="#7B2224"/>
<stop offset="0.33" stop-color="#6D1B1D"/>
<stop offset="0.37" stop-color="#69191B"/>
<stop offset="0.52" stop-color="#771F22"/>
<stop offset="0.69" stop-color="#8D292D"/>
<stop offset="0.8" stop-color="#781D20"/>
<stop offset="1" stop-color="#490303"/>
</linearGradient>
<linearGradient id="paint3_linear_104_10897" x1="115.417" y1="320.362" x2="164.247" y2="320.362" gradientUnits="userSpaceOnUse">
<stop stop-color="#490303"/>
<stop offset="0.08" stop-color="#69191B"/>
<stop offset="0.15" stop-color="#7B2224"/>
<stop offset="0.33" stop-color="#6D1B1D"/>
<stop offset="0.37" stop-color="#69191B"/>
<stop offset="0.52" stop-color="#771F22"/>
<stop offset="0.69" stop-color="#8D292D"/>
<stop offset="0.8" stop-color="#781D20"/>
<stop offset="1" stop-color="#490303"/>
</linearGradient>
<linearGradient id="paint4_linear_104_10897" x1="115.417" y1="170.638" x2="164.247" y2="170.638" gradientUnits="userSpaceOnUse">
<stop stop-color="#490303"/>
<stop offset="0.08" stop-color="#69191B"/>
<stop offset="0.15" stop-color="#7B2224"/>
<stop offset="0.33" stop-color="#6D1B1D"/>
<stop offset="0.37" stop-color="#69191B"/>
<stop offset="0.52" stop-color="#771F22"/>
<stop offset="0.69" stop-color="#8D292D"/>
<stop offset="0.8" stop-color="#781D20"/>
<stop offset="1" stop-color="#490303"/>
</linearGradient>
<linearGradient id="paint5_linear_104_10897" x1="115.417" y1="235.362" x2="164.247" y2="235.362" gradientUnits="userSpaceOnUse">
<stop stop-color="#490303"/>
<stop offset="0.08" stop-color="#69191B"/>
<stop offset="0.15" stop-color="#7B2224"/>
<stop offset="0.33" stop-color="#6D1B1D"/>
<stop offset="0.37" stop-color="#69191B"/>
<stop offset="0.52" stop-color="#771F22"/>
<stop offset="0.69" stop-color="#8D292D"/>
<stop offset="0.8" stop-color="#781D20"/>
<stop offset="1" stop-color="#490303"/>
</linearGradient>
<linearGradient id="paint6_linear_104_10897" x1="192.417" y1="170.638" x2="241.247" y2="170.638" gradientUnits="userSpaceOnUse">
<stop stop-color="#490303"/>
<stop offset="0.08" stop-color="#69191B"/>
<stop offset="0.15" stop-color="#7B2224"/>
<stop offset="0.33" stop-color="#6D1B1D"/>
<stop offset="0.37" stop-color="#69191B"/>
<stop offset="0.52" stop-color="#771F22"/>
<stop offset="0.69" stop-color="#8D292D"/>
<stop offset="0.8" stop-color="#781D20"/>
<stop offset="1" stop-color="#490303"/>
</linearGradient>
<linearGradient id="paint7_linear_104_10897" x1="192.417" y1="235.362" x2="241.247" y2="235.362" gradientUnits="userSpaceOnUse">
<stop stop-color="#490303"/>
<stop offset="0.08" stop-color="#69191B"/>
<stop offset="0.15" stop-color="#7B2224"/>
<stop offset="0.33" stop-color="#6D1B1D"/>
<stop offset="0.37" stop-color="#69191B"/>
<stop offset="0.52" stop-color="#771F22"/>
<stop offset="0.69" stop-color="#8D292D"/>
<stop offset="0.8" stop-color="#781D20"/>
<stop offset="1" stop-color="#490303"/>
</linearGradient>
<linearGradient id="paint8_linear_104_10897" x1="154.417" y1="132.638" x2="203.247" y2="132.638" gradientUnits="userSpaceOnUse">
<stop stop-color="#490303"/>
<stop offset="0.08" stop-color="#69191B"/>
<stop offset="0.15" stop-color="#7B2224"/>
<stop offset="0.33" stop-color="#6D1B1D"/>
<stop offset="0.37" stop-color="#69191B"/>
<stop offset="0.52" stop-color="#771F22"/>
<stop offset="0.69" stop-color="#8D292D"/>
<stop offset="0.8" stop-color="#781D20"/>
<stop offset="1" stop-color="#490303"/>
</linearGradient>
<linearGradient id="paint9_linear_104_10897" x1="154.417" y1="278.362" x2="203.247" y2="278.362" gradientUnits="userSpaceOnUse">
<stop stop-color="#490303"/>
<stop offset="0.08" stop-color="#69191B"/>
<stop offset="0.15" stop-color="#7B2224"/>
<stop offset="0.33" stop-color="#6D1B1D"/>
<stop offset="0.37" stop-color="#69191B"/>
<stop offset="0.52" stop-color="#771F22"/>
<stop offset="0.69" stop-color="#8D292D"/>
<stop offset="0.8" stop-color="#781D20"/>
<stop offset="1" stop-color="#490303"/>
</linearGradient>
<linearGradient id="paint10_linear_104_10897" x1="192.417" y1="85.6385" x2="241.247" y2="85.6385" gradientUnits="userSpaceOnUse">
<stop stop-color="#490303"/>
<stop offset="0.08" stop-color="#69191B"/>
<stop offset="0.15" stop-color="#7B2224"/>
<stop offset="0.33" stop-color="#6D1B1D"/>
<stop offset="0.37" stop-color="#69191B"/>
<stop offset="0.52" stop-color="#771F22"/>
<stop offset="0.69" stop-color="#8D292D"/>
<stop offset="0.8" stop-color="#781D20"/>
<stop offset="1" stop-color="#490303"/>
</linearGradient>
<linearGradient id="paint11_linear_104_10897" x1="192.417" y1="320.362" x2="241.247" y2="320.362" gradientUnits="userSpaceOnUse">
<stop stop-color="#490303"/>
<stop offset="0.08" stop-color="#69191B"/>
<stop offset="0.15" stop-color="#7B2224"/>
<stop offset="0.33" stop-color="#6D1B1D"/>
<stop offset="0.37" stop-color="#69191B"/>
<stop offset="0.52" stop-color="#771F22"/>
<stop offset="0.69" stop-color="#8D292D"/>
<stop offset="0.8" stop-color="#781D20"/>
<stop offset="1" stop-color="#490303"/>
</linearGradient>
</defs>
</svg>
