<svg width="269" height="404" viewBox="0 0 269 404" fill="none" xmlns="http://www.w3.org/2000/svg">
<rect x="4" y="4" width="261" height="396" rx="11" fill="url(#paint0_linear_104_10842)" stroke="#404040" stroke-width="8"/>
<path d="M62.2354 109.014C57.1161 109.014 52.5522 108.072 48.5437 106.189C44.5593 104.305 41.396 101.71 39.0536 98.4013C36.7113 95.093 35.4918 91.3018 35.3952 87.0277H50.6083C50.7773 89.9013 51.9847 92.2315 54.2305 94.0185C56.4762 95.8054 59.1445 96.6989 62.2354 96.6989C64.6985 96.6989 66.8718 96.1555 68.7553 95.0689C70.663 93.9581 72.1481 92.4247 73.2106 90.4688C74.2972 88.4886 74.8406 86.2187 74.8406 83.6591C74.8406 81.0511 74.2852 78.7571 73.1744 76.777C72.0877 74.7969 70.5785 73.2514 68.6467 72.1406C66.7148 71.0298 64.5053 70.4624 62.0181 70.4382C59.8448 70.4382 57.7319 70.8849 55.6793 71.7784C53.6509 72.6719 52.0692 73.8913 50.9343 75.4368L36.989 72.9375L40.5025 33.8182H85.8519V46.6406H53.4336L51.5139 65.2223H51.9485C53.2525 63.3871 55.2205 61.8658 57.8526 60.6584C60.4847 59.451 63.4308 58.8473 66.6907 58.8473C71.158 58.8473 75.1424 59.8977 78.6438 61.9986C82.1452 64.0994 84.9102 66.9851 86.9386 70.6555C88.967 74.3018 89.9691 78.5036 89.945 83.2607C89.9691 88.2592 88.81 92.7024 86.4677 96.5902C84.1495 100.454 80.9016 103.496 76.7241 105.718C72.5707 107.915 67.7411 109.014 62.2354 109.014Z" fill="#7E2226"/>
<path d="M83.9336 135.194C77.7891 128.131 64.9749 130.335 60.0874 139.209C55.2 130.335 42.3483 128.131 36.2413 135.194C30.1344 142.258 31.2413 151.245 35.6503 158.825C41.7385 169.331 53.5302 173.009 60.0874 182.783C66.6447 173.009 78.427 169.331 84.5621 158.825C88.9242 151.245 89.9654 142.136 83.9336 135.194Z" fill="url(#paint1_linear_104_10842)"/>
<path d="M158.513 67.0283C153.23 60.9698 142.212 62.8606 138.01 70.472C133.807 62.8606 122.757 60.9698 117.507 67.0283C112.256 73.0869 113.208 80.7948 116.998 87.2959C122.233 96.3073 132.372 99.4613 138.01 107.845C143.648 99.4613 153.778 96.3073 159.053 87.2959C162.804 80.7948 163.699 72.9823 158.513 67.0283Z" fill="url(#paint2_linear_104_10842)"/>
<path d="M158.513 338.972C153.23 345.03 142.212 343.139 138.01 335.528C133.807 343.139 122.757 345.03 117.507 338.972C112.256 332.913 113.208 325.205 116.998 318.704C122.233 309.693 132.372 306.539 138.01 298.155C143.648 306.539 153.778 309.693 159.053 318.704C162.804 325.205 163.699 333.018 158.513 338.972Z" fill="url(#paint3_linear_104_10842)"/>
<path d="M199.513 181.028C194.23 174.97 183.212 176.861 179.01 184.472C174.807 176.861 163.757 174.97 158.507 181.028C153.256 187.087 154.208 194.795 157.998 201.296C163.233 210.307 173.372 213.461 179.01 221.845C184.648 213.461 194.778 210.307 200.053 201.296C203.804 194.795 204.699 186.982 199.513 181.028Z" fill="url(#paint4_linear_104_10842)"/>
<path d="M238.513 67.0283C233.23 60.9698 222.212 62.8606 218.01 70.472C213.807 62.8606 202.757 60.9698 197.507 67.0283C192.256 73.0869 193.208 80.7948 196.998 87.2959C202.233 96.3073 212.372 99.4613 218.01 107.845C223.648 99.4613 233.778 96.3073 239.053 87.2959C242.804 80.7948 243.699 72.9823 238.513 67.0283Z" fill="url(#paint5_linear_104_10842)"/>
<path d="M238.513 338.972C233.23 345.03 222.212 343.139 218.01 335.528C213.807 343.139 202.757 345.03 197.507 338.972C192.256 332.913 193.208 325.205 196.998 318.704C202.233 309.693 212.372 306.539 218.01 298.155C223.648 306.539 233.778 309.693 239.053 318.704C242.804 325.205 243.699 333.018 238.513 338.972Z" fill="url(#paint6_linear_104_10842)"/>
<defs>
<linearGradient id="paint0_linear_104_10842" x1="269" y1="202" x2="0" y2="202" gradientUnits="userSpaceOnUse">
<stop stop-color="#B4B4B4"/>
<stop offset="0.5" stop-color="#B7B3B8"/>
<stop offset="0.9999" stop-color="#F9F8F9"/>
<stop offset="1" stop-color="#B9B6BA"/>
</linearGradient>
<linearGradient id="paint1_linear_104_10842" x1="31.4852" y1="156.892" x2="88.2769" y2="156.892" gradientUnits="userSpaceOnUse">
<stop stop-color="#490303"/>
<stop offset="0.08" stop-color="#69191B"/>
<stop offset="0.15" stop-color="#7B2224"/>
<stop offset="0.33" stop-color="#6D1B1D"/>
<stop offset="0.37" stop-color="#69191B"/>
<stop offset="0.52" stop-color="#771F22"/>
<stop offset="0.69" stop-color="#8D292D"/>
<stop offset="0.8" stop-color="#781D20"/>
<stop offset="1" stop-color="#490303"/>
</linearGradient>
<linearGradient id="paint2_linear_104_10842" x1="113.417" y1="85.6385" x2="162.247" y2="85.6385" gradientUnits="userSpaceOnUse">
<stop stop-color="#490303"/>
<stop offset="0.08" stop-color="#69191B"/>
<stop offset="0.15" stop-color="#7B2224"/>
<stop offset="0.33" stop-color="#6D1B1D"/>
<stop offset="0.37" stop-color="#69191B"/>
<stop offset="0.52" stop-color="#771F22"/>
<stop offset="0.69" stop-color="#8D292D"/>
<stop offset="0.8" stop-color="#781D20"/>
<stop offset="1" stop-color="#490303"/>
</linearGradient>
<linearGradient id="paint3_linear_104_10842" x1="113.417" y1="320.362" x2="162.247" y2="320.362" gradientUnits="userSpaceOnUse">
<stop stop-color="#490303"/>
<stop offset="0.08" stop-color="#69191B"/>
<stop offset="0.15" stop-color="#7B2224"/>
<stop offset="0.33" stop-color="#6D1B1D"/>
<stop offset="0.37" stop-color="#69191B"/>
<stop offset="0.52" stop-color="#771F22"/>
<stop offset="0.69" stop-color="#8D292D"/>
<stop offset="0.8" stop-color="#781D20"/>
<stop offset="1" stop-color="#490303"/>
</linearGradient>
<linearGradient id="paint4_linear_104_10842" x1="154.417" y1="199.638" x2="203.247" y2="199.638" gradientUnits="userSpaceOnUse">
<stop stop-color="#490303"/>
<stop offset="0.08" stop-color="#69191B"/>
<stop offset="0.15" stop-color="#7B2224"/>
<stop offset="0.33" stop-color="#6D1B1D"/>
<stop offset="0.37" stop-color="#69191B"/>
<stop offset="0.52" stop-color="#771F22"/>
<stop offset="0.69" stop-color="#8D292D"/>
<stop offset="0.8" stop-color="#781D20"/>
<stop offset="1" stop-color="#490303"/>
</linearGradient>
<linearGradient id="paint5_linear_104_10842" x1="193.417" y1="85.6385" x2="242.247" y2="85.6385" gradientUnits="userSpaceOnUse">
<stop stop-color="#490303"/>
<stop offset="0.08" stop-color="#69191B"/>
<stop offset="0.15" stop-color="#7B2224"/>
<stop offset="0.33" stop-color="#6D1B1D"/>
<stop offset="0.37" stop-color="#69191B"/>
<stop offset="0.52" stop-color="#771F22"/>
<stop offset="0.69" stop-color="#8D292D"/>
<stop offset="0.8" stop-color="#781D20"/>
<stop offset="1" stop-color="#490303"/>
</linearGradient>
<linearGradient id="paint6_linear_104_10842" x1="193.417" y1="320.362" x2="242.247" y2="320.362" gradientUnits="userSpaceOnUse">
<stop stop-color="#490303"/>
<stop offset="0.08" stop-color="#69191B"/>
<stop offset="0.15" stop-color="#7B2224"/>
<stop offset="0.33" stop-color="#6D1B1D"/>
<stop offset="0.37" stop-color="#69191B"/>
<stop offset="0.52" stop-color="#771F22"/>
<stop offset="0.69" stop-color="#8D292D"/>
<stop offset="0.8" stop-color="#781D20"/>
<stop offset="1" stop-color="#490303"/>
</linearGradient>
</defs>
</svg>
