<svg width="269" height="404" viewBox="0 0 269 404" fill="none" xmlns="http://www.w3.org/2000/svg">
<rect x="4" y="4" width="261" height="396" rx="11" fill="url(#paint0_linear_104_10827)" stroke="#404040" stroke-width="8"/>
<path d="M60.8144 109.014C55.4053 109.014 50.5878 108.085 46.3619 106.225C42.1602 104.342 38.8399 101.758 36.401 98.4737C33.9862 95.1655 32.7426 91.3501 32.6702 87.0277H48.4628C48.5594 88.8388 49.151 90.4325 50.2377 91.8089C51.3485 93.1612 52.8215 94.2116 54.6567 94.9602C56.4919 95.7088 58.5566 96.0831 60.8506 96.0831C63.2412 96.0831 65.3541 95.6605 67.1894 94.8153C69.0246 93.9702 70.4614 92.799 71.4997 91.3018C72.5381 89.8047 73.0573 88.0781 73.0573 86.1222C73.0573 84.142 72.5019 82.3913 71.3911 80.87C70.3044 79.3246 68.7348 78.1172 66.6823 77.2479C64.6539 76.3786 62.2391 75.9439 59.4379 75.9439H52.5196V64.4254H59.4379C61.8044 64.4254 63.8932 64.0149 65.7043 63.1939C67.5395 62.3729 68.9642 61.2379 69.9784 59.7891C70.9926 58.3161 71.4997 56.6016 71.4997 54.6456C71.4997 52.7862 71.053 51.1563 70.1595 49.7557C69.2902 48.331 68.0587 47.2202 66.4649 46.4233C64.8953 45.6264 63.0601 45.228 60.9593 45.228C58.8343 45.228 56.8904 45.6143 55.1276 46.3871C53.3648 47.1357 51.9521 48.2102 50.8896 49.6108C49.8271 51.0114 49.2597 52.6534 49.1872 54.5369H34.1553C34.2277 50.2628 35.4472 46.4957 37.8137 43.2358C40.1801 39.9758 43.3676 37.4283 47.3762 35.593C51.4088 33.7337 55.9607 32.804 61.0317 32.804C66.151 32.804 70.6304 33.7337 74.4699 35.593C78.3094 37.4524 81.2916 39.9638 83.4166 43.1271C85.5658 46.2663 86.6283 49.7919 86.6041 53.7038C86.6283 57.8572 85.3364 61.3224 82.7284 64.0994C80.1446 66.8764 76.776 68.6392 72.6226 69.3878V69.9673C78.08 70.6676 82.2334 72.5632 85.0828 75.6541C87.9564 78.7209 89.3811 82.5604 89.357 87.1726C89.3811 91.3984 88.1617 95.1534 85.6986 98.4375C83.2597 101.722 79.8911 104.305 75.5928 106.189C71.2945 108.072 66.3683 109.014 60.8144 109.014Z" fill="#7E2226"/>
<path d="M83.9336 135.194C77.7891 128.131 64.9749 130.335 60.0874 139.209C55.2 130.335 42.3483 128.131 36.2413 135.194C30.1344 142.258 31.2413 151.245 35.6503 158.825C41.7385 169.331 53.5302 173.009 60.0874 182.783C66.6447 173.009 78.427 169.331 84.5621 158.825C88.9242 151.245 89.9654 142.136 83.9336 135.194Z" fill="url(#paint1_linear_104_10827)"/>
<path d="M185.513 67.0283C180.23 60.9698 169.212 62.8606 165.01 70.472C160.807 62.8606 149.757 60.9698 144.507 67.0283C139.256 73.0869 140.208 80.7948 143.998 87.2959C149.233 96.3073 159.372 99.4613 165.01 107.845C170.648 99.4613 180.778 96.3073 186.053 87.2959C189.804 80.7948 190.699 72.9823 185.513 67.0283Z" fill="url(#paint2_linear_104_10827)"/>
<path d="M185.513 182.028C180.23 175.97 169.212 177.861 165.01 185.472C160.807 177.861 149.757 175.97 144.507 182.028C139.256 188.087 140.208 195.795 143.998 202.296C149.233 211.307 159.372 214.461 165.01 222.845C170.648 214.461 180.778 211.307 186.053 202.296C189.804 195.795 190.699 187.982 185.513 182.028Z" fill="url(#paint3_linear_104_10827)"/>
<path d="M185.513 338.972C180.23 345.03 169.212 343.139 165.01 335.528C160.807 343.139 149.757 345.03 144.507 338.972C139.256 332.913 140.208 325.205 143.998 318.704C149.233 309.693 159.372 306.539 165.01 298.155C170.648 306.539 180.778 309.693 186.053 318.704C189.804 325.205 190.699 333.018 185.513 338.972Z" fill="url(#paint4_linear_104_10827)"/>
<defs>
<linearGradient id="paint0_linear_104_10827" x1="269" y1="202" x2="0" y2="202" gradientUnits="userSpaceOnUse">
<stop stop-color="#B4B4B4"/>
<stop offset="0.5" stop-color="#B7B3B8"/>
<stop offset="0.9999" stop-color="#F9F8F9"/>
<stop offset="1" stop-color="#B9B6BA"/>
</linearGradient>
<linearGradient id="paint1_linear_104_10827" x1="31.4852" y1="156.892" x2="88.2769" y2="156.892" gradientUnits="userSpaceOnUse">
<stop stop-color="#490303"/>
<stop offset="0.08" stop-color="#69191B"/>
<stop offset="0.15" stop-color="#7B2224"/>
<stop offset="0.33" stop-color="#6D1B1D"/>
<stop offset="0.37" stop-color="#69191B"/>
<stop offset="0.52" stop-color="#771F22"/>
<stop offset="0.69" stop-color="#8D292D"/>
<stop offset="0.8" stop-color="#781D20"/>
<stop offset="1" stop-color="#490303"/>
</linearGradient>
<linearGradient id="paint2_linear_104_10827" x1="140.417" y1="85.6385" x2="189.247" y2="85.6385" gradientUnits="userSpaceOnUse">
<stop stop-color="#490303"/>
<stop offset="0.08" stop-color="#69191B"/>
<stop offset="0.15" stop-color="#7B2224"/>
<stop offset="0.33" stop-color="#6D1B1D"/>
<stop offset="0.37" stop-color="#69191B"/>
<stop offset="0.52" stop-color="#771F22"/>
<stop offset="0.69" stop-color="#8D292D"/>
<stop offset="0.8" stop-color="#781D20"/>
<stop offset="1" stop-color="#490303"/>
</linearGradient>
<linearGradient id="paint3_linear_104_10827" x1="140.417" y1="200.638" x2="189.247" y2="200.638" gradientUnits="userSpaceOnUse">
<stop stop-color="#490303"/>
<stop offset="0.08" stop-color="#69191B"/>
<stop offset="0.15" stop-color="#7B2224"/>
<stop offset="0.33" stop-color="#6D1B1D"/>
<stop offset="0.37" stop-color="#69191B"/>
<stop offset="0.52" stop-color="#771F22"/>
<stop offset="0.69" stop-color="#8D292D"/>
<stop offset="0.8" stop-color="#781D20"/>
<stop offset="1" stop-color="#490303"/>
</linearGradient>
<linearGradient id="paint4_linear_104_10827" x1="140.417" y1="320.362" x2="189.247" y2="320.362" gradientUnits="userSpaceOnUse">
<stop stop-color="#490303"/>
<stop offset="0.08" stop-color="#69191B"/>
<stop offset="0.15" stop-color="#7B2224"/>
<stop offset="0.33" stop-color="#6D1B1D"/>
<stop offset="0.37" stop-color="#69191B"/>
<stop offset="0.52" stop-color="#771F22"/>
<stop offset="0.69" stop-color="#8D292D"/>
<stop offset="0.8" stop-color="#781D20"/>
<stop offset="1" stop-color="#490303"/>
</linearGradient>
</defs>
</svg>
