<svg width="269" height="404" viewBox="0 0 269 404" fill="none" xmlns="http://www.w3.org/2000/svg">
<rect x="4" y="4" width="261" height="396" rx="11" fill="url(#paint0_linear_104_10819)" stroke="#404040" stroke-width="8"/>
<path d="M33.3888 108V96.6989L59.7943 72.2493C62.04 70.076 63.9236 68.12 65.4449 66.3814C66.9903 64.6428 68.1615 62.9403 68.9584 61.2741C69.7552 59.5838 70.1537 57.7607 70.1537 55.8047C70.1537 53.6314 69.6586 51.7599 68.6686 50.1903C67.6785 48.5966 66.3263 47.3771 64.6118 46.532C62.8973 45.6626 60.9534 45.228 58.7801 45.228C56.5102 45.228 54.5301 45.6868 52.8398 46.6044C51.1494 47.522 49.8454 48.8381 48.9278 50.5526C48.0102 52.267 47.5514 54.3075 47.5514 56.674H32.6643C32.6643 51.8203 33.7631 47.6065 35.9605 44.0327C38.1579 40.4588 41.2368 37.6939 45.197 35.7379C49.1572 33.782 53.7211 32.804 58.8888 32.804C64.2013 32.804 68.8256 33.7457 72.7616 35.6293C76.7219 37.4886 79.8007 40.0724 81.9981 43.3807C84.1956 46.6889 85.2943 50.4801 85.2943 54.7543C85.2943 57.5554 84.7389 60.3203 83.6281 63.049C82.5415 65.7777 80.5976 68.8082 77.7964 72.1406C74.9953 75.4489 71.0471 79.4212 65.952 84.0575L55.1217 94.6705V95.1776H86.2723V108H33.3888Z" fill="#7E2226"/>
<path d="M83.9334 135.194C77.789 128.131 64.9747 130.335 60.0873 139.209C55.1999 130.335 42.3481 128.131 36.2412 135.194C30.1343 142.258 31.2412 151.245 35.6502 158.825C41.7384 169.331 53.5301 173.009 60.0873 182.783C66.6445 173.009 78.4269 169.331 84.562 158.825C88.924 151.245 89.9653 142.136 83.9334 135.194Z" fill="url(#paint1_linear_104_10819)"/>
<path d="M185.513 67.0283C180.23 60.9698 169.212 62.8606 165.01 70.472C160.807 62.8606 149.757 60.9698 144.507 67.0283C139.256 73.0869 140.208 80.7948 143.998 87.2959C149.233 96.3073 159.372 99.4613 165.01 107.845C170.648 99.4613 180.778 96.3073 186.053 87.2959C189.804 80.7948 190.699 72.9823 185.513 67.0283Z" fill="url(#paint2_linear_104_10819)"/>
<path d="M185.513 338.972C180.23 345.03 169.212 343.139 165.01 335.528C160.807 343.139 149.757 345.03 144.507 338.972C139.256 332.913 140.208 325.205 143.998 318.704C149.233 309.693 159.372 306.539 165.01 298.155C170.648 306.539 180.778 309.693 186.053 318.704C189.804 325.205 190.699 333.018 185.513 338.972Z" fill="url(#paint3_linear_104_10819)"/>
<defs>
<linearGradient id="paint0_linear_104_10819" x1="269" y1="202" x2="0" y2="202" gradientUnits="userSpaceOnUse">
<stop stop-color="#B4B4B4"/>
<stop offset="0.5" stop-color="#B7B3B8"/>
<stop offset="0.9999" stop-color="#F9F8F9"/>
<stop offset="1" stop-color="#B9B6BA"/>
</linearGradient>
<linearGradient id="paint1_linear_104_10819" x1="31.4851" y1="156.892" x2="88.2768" y2="156.892" gradientUnits="userSpaceOnUse">
<stop stop-color="#490303"/>
<stop offset="0.08" stop-color="#69191B"/>
<stop offset="0.15" stop-color="#7B2224"/>
<stop offset="0.33" stop-color="#6D1B1D"/>
<stop offset="0.37" stop-color="#69191B"/>
<stop offset="0.52" stop-color="#771F22"/>
<stop offset="0.69" stop-color="#8D292D"/>
<stop offset="0.8" stop-color="#781D20"/>
<stop offset="1" stop-color="#490303"/>
</linearGradient>
<linearGradient id="paint2_linear_104_10819" x1="140.417" y1="85.6385" x2="189.247" y2="85.6385" gradientUnits="userSpaceOnUse">
<stop stop-color="#490303"/>
<stop offset="0.08" stop-color="#69191B"/>
<stop offset="0.15" stop-color="#7B2224"/>
<stop offset="0.33" stop-color="#6D1B1D"/>
<stop offset="0.37" stop-color="#69191B"/>
<stop offset="0.52" stop-color="#771F22"/>
<stop offset="0.69" stop-color="#8D292D"/>
<stop offset="0.8" stop-color="#781D20"/>
<stop offset="1" stop-color="#490303"/>
</linearGradient>
<linearGradient id="paint3_linear_104_10819" x1="140.417" y1="320.362" x2="189.247" y2="320.362" gradientUnits="userSpaceOnUse">
<stop stop-color="#490303"/>
<stop offset="0.08" stop-color="#69191B"/>
<stop offset="0.15" stop-color="#7B2224"/>
<stop offset="0.33" stop-color="#6D1B1D"/>
<stop offset="0.37" stop-color="#69191B"/>
<stop offset="0.52" stop-color="#771F22"/>
<stop offset="0.69" stop-color="#8D292D"/>
<stop offset="0.8" stop-color="#781D20"/>
<stop offset="1" stop-color="#490303"/>
</linearGradient>
</defs>
</svg>
