<svg width="269" height="404" viewBox="0 0 269 404" fill="none" xmlns="http://www.w3.org/2000/svg">
<rect x="4" y="4" width="261" height="396" rx="11" fill="url(#paint0_linear_104_10911)" stroke="#404040" stroke-width="8"/>
<path d="M68.2322 41.5455H81.9112V87.1847C81.9112 91.4034 80.9631 95.0682 79.0668 98.179C77.1918 101.29 74.5817 103.687 71.2365 105.37C67.8913 107.053 64.0028 107.895 59.571 107.895C55.6293 107.895 52.0497 107.202 48.8324 105.817C45.6364 104.411 43.1009 102.281 41.2259 99.4254C39.3509 96.549 38.424 92.9375 38.4453 88.5909H52.2202C52.2628 90.3168 52.6143 91.7976 53.2749 93.0334C53.9567 94.2479 54.8835 95.1854 56.0554 95.8459C57.2486 96.4851 58.6548 96.8047 60.2741 96.8047C61.9787 96.8047 63.4169 96.4425 64.5888 95.718C65.782 94.9723 66.6875 93.8857 67.3054 92.4581C67.9233 91.0305 68.2322 89.2727 68.2322 87.1847V41.5455Z" fill="#7E2226"/>
<path d="M146.272 203.364H172.11V289.571C172.11 297.54 170.319 304.462 166.737 310.338C163.196 316.214 158.265 320.742 151.947 323.921C145.628 327.101 138.283 328.69 129.912 328.69C122.466 328.69 115.705 327.382 109.628 324.766C103.591 322.11 98.8016 318.085 95.2599 312.692C91.7183 307.259 89.9676 300.437 90.0078 292.227H116.027C116.107 295.487 116.772 298.284 118.019 300.619C119.307 302.913 121.058 304.683 123.271 305.931C125.525 307.138 128.181 307.742 131.24 307.742C134.46 307.742 137.176 307.058 139.39 305.69C141.644 304.281 143.354 302.228 144.521 299.532C145.688 296.835 146.272 293.515 146.272 289.571V203.364Z" fill="#7E2226"/>
<path d="M83.9336 135.194C77.7891 128.131 64.9749 130.335 60.0874 139.209C55.2 130.335 42.3483 128.131 36.2413 135.194C30.1344 142.258 31.2413 151.245 35.6503 158.825C41.7385 169.331 53.5302 173.009 60.0874 182.783C66.6447 173.009 78.427 169.331 84.5621 158.825C88.9242 151.245 89.9654 142.136 83.9336 135.194Z" fill="url(#paint1_linear_104_10911)"/>
<defs>
<linearGradient id="paint0_linear_104_10911" x1="269" y1="202" x2="0" y2="202" gradientUnits="userSpaceOnUse">
<stop stop-color="#B4B4B4"/>
<stop offset="0.5" stop-color="#B7B3B8"/>
<stop offset="0.9999" stop-color="#F9F8F9"/>
<stop offset="1" stop-color="#B9B6BA"/>
</linearGradient>
<linearGradient id="paint1_linear_104_10911" x1="31.4852" y1="156.892" x2="88.2769" y2="156.892" gradientUnits="userSpaceOnUse">
<stop stop-color="#490303"/>
<stop offset="0.08" stop-color="#69191B"/>
<stop offset="0.15" stop-color="#7B2224"/>
<stop offset="0.33" stop-color="#6D1B1D"/>
<stop offset="0.37" stop-color="#69191B"/>
<stop offset="0.52" stop-color="#771F22"/>
<stop offset="0.69" stop-color="#8D292D"/>
<stop offset="0.8" stop-color="#781D20"/>
<stop offset="1" stop-color="#490303"/>
</linearGradient>
</defs>
</svg>
