<svg width="269" height="404" viewBox="0 0 269 404" fill="none" xmlns="http://www.w3.org/2000/svg">
<rect x="4" y="4" width="261" height="396" rx="11" fill="url(#paint0_linear_104_10851)" stroke="#404040" stroke-width="8"/>
<path d="M62.815 109.014C58.9996 108.99 55.3171 108.35 51.7674 107.094C48.2418 105.839 45.0785 103.798 42.2773 100.973C39.4762 98.1477 37.2546 94.4048 35.6126 89.7443C33.9947 85.0838 33.1857 79.3608 33.1857 72.5753C33.2099 66.3452 33.9222 60.7791 35.3228 55.8771C36.7475 50.951 38.7759 46.7734 41.408 43.3445C44.0643 39.9155 47.2397 37.3075 50.9343 35.5206C54.6289 33.7095 58.7702 32.804 63.3583 32.804C68.3086 32.804 72.6793 33.7699 76.4705 35.7017C80.2617 37.6094 83.3043 40.2053 85.5984 43.4893C87.9165 46.7734 89.3171 50.456 89.8001 54.5369H74.3335C73.7298 51.9531 72.462 49.9247 70.5302 48.4517C68.5984 46.9787 66.2077 46.2422 63.3583 46.2422C58.5288 46.2422 54.8583 48.343 52.3469 52.5447C49.8597 56.7464 48.592 62.4574 48.5437 69.6776H49.0508C50.1616 67.4801 51.6587 65.6087 53.5423 64.0632C55.4499 62.4936 57.6112 61.2983 60.0259 60.4773C62.4648 59.6321 65.0366 59.2095 67.7411 59.2095C72.136 59.2095 76.0479 60.2479 79.4769 62.3246C82.9059 64.3771 85.6104 67.2024 87.5906 70.8004C89.5707 74.3984 90.5607 78.5156 90.5607 83.152C90.5607 88.1747 89.3896 92.642 87.0472 96.554C84.7291 100.466 81.4812 103.533 77.3036 105.754C73.1502 107.952 68.3207 109.038 62.815 109.014ZM62.7425 96.6989C65.1573 96.6989 67.3185 96.1193 69.2262 94.9602C71.1339 93.8011 72.631 92.2315 73.7177 90.2514C74.8043 88.2713 75.3477 86.0497 75.3477 83.5866C75.3477 81.1236 74.8043 78.9141 73.7177 76.9581C72.6552 75.0021 71.1822 73.4446 69.2987 72.2855C67.4151 71.1264 65.266 70.5469 62.8512 70.5469C61.0401 70.5469 59.3619 70.8849 57.8164 71.5611C56.2951 72.2372 54.9549 73.179 53.7958 74.3864C52.6609 75.5937 51.7674 76.9943 51.1154 78.5881C50.4634 80.1577 50.1374 81.8359 50.1374 83.6229C50.1374 86.0135 50.6808 88.1989 51.7674 90.179C52.8782 92.1591 54.3754 93.7408 56.2589 94.924C58.1665 96.1072 60.3278 96.6989 62.7425 96.6989Z" fill="#7E2226"/>
<path d="M83.9336 135.194C77.7891 128.131 64.9749 130.335 60.0874 139.209C55.2 130.335 42.3483 128.131 36.2413 135.194C30.1344 142.258 31.2413 151.245 35.6503 158.825C41.7385 169.331 53.5302 173.009 60.0874 182.783C66.6447 173.009 78.427 169.331 84.5621 158.825C88.9242 151.245 89.9654 142.136 83.9336 135.194Z" fill="url(#paint1_linear_104_10851)"/>
<path d="M161.513 67.0283C156.23 60.9698 145.212 62.8606 141.01 70.472C136.807 62.8606 125.757 60.9698 120.507 67.0283C115.256 73.0869 116.208 80.7948 119.998 87.2959C125.233 96.3073 135.372 99.4613 141.01 107.845C146.648 99.4613 156.778 96.3073 162.053 87.2959C165.804 80.7948 166.699 72.9823 161.513 67.0283Z" fill="url(#paint2_linear_104_10851)"/>
<path d="M161.513 181.028C156.23 174.97 145.212 176.861 141.01 184.472C136.807 176.861 125.757 174.97 120.507 181.028C115.256 187.087 116.208 194.795 119.998 201.296C125.233 210.307 135.372 213.461 141.01 221.845C146.648 213.461 156.778 210.307 162.053 201.296C165.804 194.795 166.699 186.982 161.513 181.028Z" fill="url(#paint3_linear_104_10851)"/>
<path d="M161.513 338.972C156.23 345.03 145.212 343.139 141.01 335.528C136.807 343.139 125.757 345.03 120.507 338.972C115.256 332.913 116.208 325.205 119.998 318.704C125.233 309.693 135.372 306.539 141.01 298.155C146.648 306.539 156.778 309.693 162.053 318.704C165.804 325.205 166.699 333.018 161.513 338.972Z" fill="url(#paint4_linear_104_10851)"/>
<path d="M238.513 181.028C233.23 174.97 222.212 176.861 218.01 184.472C213.807 176.861 202.757 174.97 197.507 181.028C192.256 187.087 193.208 194.795 196.998 201.296C202.233 210.307 212.372 213.461 218.01 221.845C223.648 213.461 233.778 210.307 239.053 201.296C242.804 194.795 243.699 186.982 238.513 181.028Z" fill="url(#paint5_linear_104_10851)"/>
<path d="M238.513 338.972C233.23 345.03 222.212 343.139 218.01 335.528C213.807 343.139 202.757 345.03 197.507 338.972C192.256 332.913 193.208 325.205 196.998 318.704C202.233 309.693 212.372 306.539 218.01 298.155C223.648 306.539 233.778 309.693 239.053 318.704C242.804 325.205 243.699 333.018 238.513 338.972Z" fill="url(#paint6_linear_104_10851)"/>
<path d="M238.513 67.0283C233.23 60.9698 222.212 62.8606 218.01 70.472C213.807 62.8606 202.757 60.9698 197.507 67.0283C192.256 73.0869 193.208 80.7948 196.998 87.2959C202.233 96.3073 212.372 99.4613 218.01 107.845C223.648 99.4613 233.778 96.3073 239.053 87.2959C242.804 80.7948 243.699 72.9823 238.513 67.0283Z" fill="url(#paint7_linear_104_10851)"/>
<defs>
<linearGradient id="paint0_linear_104_10851" x1="269" y1="202" x2="0" y2="202" gradientUnits="userSpaceOnUse">
<stop stop-color="#B4B4B4"/>
<stop offset="0.5" stop-color="#B7B3B8"/>
<stop offset="0.9999" stop-color="#F9F8F9"/>
<stop offset="1" stop-color="#B9B6BA"/>
</linearGradient>
<linearGradient id="paint1_linear_104_10851" x1="31.4852" y1="156.892" x2="88.2769" y2="156.892" gradientUnits="userSpaceOnUse">
<stop stop-color="#490303"/>
<stop offset="0.08" stop-color="#69191B"/>
<stop offset="0.15" stop-color="#7B2224"/>
<stop offset="0.33" stop-color="#6D1B1D"/>
<stop offset="0.37" stop-color="#69191B"/>
<stop offset="0.52" stop-color="#771F22"/>
<stop offset="0.69" stop-color="#8D292D"/>
<stop offset="0.8" stop-color="#781D20"/>
<stop offset="1" stop-color="#490303"/>
</linearGradient>
<linearGradient id="paint2_linear_104_10851" x1="116.417" y1="85.6385" x2="165.247" y2="85.6385" gradientUnits="userSpaceOnUse">
<stop stop-color="#490303"/>
<stop offset="0.08" stop-color="#69191B"/>
<stop offset="0.15" stop-color="#7B2224"/>
<stop offset="0.33" stop-color="#6D1B1D"/>
<stop offset="0.37" stop-color="#69191B"/>
<stop offset="0.52" stop-color="#771F22"/>
<stop offset="0.69" stop-color="#8D292D"/>
<stop offset="0.8" stop-color="#781D20"/>
<stop offset="1" stop-color="#490303"/>
</linearGradient>
<linearGradient id="paint3_linear_104_10851" x1="116.417" y1="199.638" x2="165.247" y2="199.638" gradientUnits="userSpaceOnUse">
<stop stop-color="#490303"/>
<stop offset="0.08" stop-color="#69191B"/>
<stop offset="0.15" stop-color="#7B2224"/>
<stop offset="0.33" stop-color="#6D1B1D"/>
<stop offset="0.37" stop-color="#69191B"/>
<stop offset="0.52" stop-color="#771F22"/>
<stop offset="0.69" stop-color="#8D292D"/>
<stop offset="0.8" stop-color="#781D20"/>
<stop offset="1" stop-color="#490303"/>
</linearGradient>
<linearGradient id="paint4_linear_104_10851" x1="116.417" y1="320.362" x2="165.247" y2="320.362" gradientUnits="userSpaceOnUse">
<stop stop-color="#490303"/>
<stop offset="0.08" stop-color="#69191B"/>
<stop offset="0.15" stop-color="#7B2224"/>
<stop offset="0.33" stop-color="#6D1B1D"/>
<stop offset="0.37" stop-color="#69191B"/>
<stop offset="0.52" stop-color="#771F22"/>
<stop offset="0.69" stop-color="#8D292D"/>
<stop offset="0.8" stop-color="#781D20"/>
<stop offset="1" stop-color="#490303"/>
</linearGradient>
<linearGradient id="paint5_linear_104_10851" x1="193.417" y1="199.638" x2="242.247" y2="199.638" gradientUnits="userSpaceOnUse">
<stop stop-color="#490303"/>
<stop offset="0.08" stop-color="#69191B"/>
<stop offset="0.15" stop-color="#7B2224"/>
<stop offset="0.33" stop-color="#6D1B1D"/>
<stop offset="0.37" stop-color="#69191B"/>
<stop offset="0.52" stop-color="#771F22"/>
<stop offset="0.69" stop-color="#8D292D"/>
<stop offset="0.8" stop-color="#781D20"/>
<stop offset="1" stop-color="#490303"/>
</linearGradient>
<linearGradient id="paint6_linear_104_10851" x1="193.417" y1="320.362" x2="242.247" y2="320.362" gradientUnits="userSpaceOnUse">
<stop stop-color="#490303"/>
<stop offset="0.08" stop-color="#69191B"/>
<stop offset="0.15" stop-color="#7B2224"/>
<stop offset="0.33" stop-color="#6D1B1D"/>
<stop offset="0.37" stop-color="#69191B"/>
<stop offset="0.52" stop-color="#771F22"/>
<stop offset="0.69" stop-color="#8D292D"/>
<stop offset="0.8" stop-color="#781D20"/>
<stop offset="1" stop-color="#490303"/>
</linearGradient>
<linearGradient id="paint7_linear_104_10851" x1="193.417" y1="85.6385" x2="242.247" y2="85.6385" gradientUnits="userSpaceOnUse">
<stop stop-color="#490303"/>
<stop offset="0.08" stop-color="#69191B"/>
<stop offset="0.15" stop-color="#7B2224"/>
<stop offset="0.33" stop-color="#6D1B1D"/>
<stop offset="0.37" stop-color="#69191B"/>
<stop offset="0.52" stop-color="#771F22"/>
<stop offset="0.69" stop-color="#8D292D"/>
<stop offset="0.8" stop-color="#781D20"/>
<stop offset="1" stop-color="#490303"/>
</linearGradient>
</defs>
</svg>
