<svg width="269" height="404" viewBox="0 0 269 404" fill="none" xmlns="http://www.w3.org/2000/svg">
<rect x="4" y="4" width="261" height="396" rx="11" fill="url(#paint0_linear_104_10872)" stroke="#404040" stroke-width="8"/>
<path d="M61.9683 109.014C56.3902 109.014 51.4278 108.109 47.0812 106.298C42.7588 104.462 39.366 101.963 36.903 98.7997C34.4399 95.6364 33.2084 92.0504 33.2084 88.0419C33.2084 84.951 33.9086 82.1136 35.3092 79.5298C36.7339 76.9219 38.6657 74.7607 41.1047 73.0462C43.5436 71.3075 46.2723 70.1967 49.2908 69.7138V69.2067C45.3305 68.4098 42.1189 66.4901 39.6558 63.4474C37.1927 60.3807 35.9612 56.8189 35.9612 52.7621C35.9612 48.9226 37.0841 45.5057 39.3298 42.5114C41.5756 39.4929 44.6544 37.1264 48.5663 35.4119C52.5024 33.6733 56.9697 32.804 61.9683 32.804C66.9669 32.804 71.4221 33.6733 75.3341 35.4119C79.2702 37.1506 82.3611 39.5291 84.6068 42.5476C86.8525 45.5419 87.9875 48.9467 88.0116 52.7621C87.9875 56.843 86.7318 60.4048 84.2446 63.4474C81.7574 66.4901 78.5699 68.4098 74.6821 69.2067V69.7138C77.6523 70.1967 80.3447 71.3075 82.7595 73.0462C85.1984 74.7607 87.1302 76.9219 88.555 79.5298C90.0038 82.1136 90.7403 84.951 90.7645 88.0419C90.7403 92.0504 89.4967 95.6364 87.0336 98.7997C84.5706 101.963 81.1658 104.462 76.8192 106.298C72.4967 108.109 67.5464 109.014 61.9683 109.014ZM61.9683 97.4957C64.4555 97.4957 66.6288 97.049 68.4882 96.1555C70.3476 95.2379 71.7964 93.9822 72.8348 92.3885C73.8973 90.7706 74.4285 88.9112 74.4285 86.8104C74.4285 84.6612 73.8852 82.7656 72.7986 81.1236C71.7119 79.4574 70.2389 78.1534 68.3795 77.2116C66.5202 76.2457 64.3831 75.7628 61.9683 75.7628C59.5777 75.7628 57.4406 76.2457 55.5571 77.2116C53.6736 78.1534 52.1885 79.4574 51.1018 81.1236C50.0393 82.7656 49.5081 84.6612 49.5081 86.8104C49.5081 88.9112 50.0273 90.7706 51.0656 92.3885C52.104 93.9822 53.5649 95.2379 55.4484 96.1555C57.3319 97.049 59.5052 97.4957 61.9683 97.4957ZM61.9683 64.353C64.045 64.353 65.8923 63.9304 67.5102 63.0852C69.1281 62.2401 70.3959 61.0689 71.3135 59.5717C72.2311 58.0746 72.6899 56.348 72.6899 54.392C72.6899 52.4602 72.2311 50.7699 71.3135 49.321C70.3959 47.848 69.1402 46.701 67.5464 45.88C65.9527 45.0348 64.0933 44.6122 61.9683 44.6122C59.8675 44.6122 58.0081 45.0348 56.3902 45.88C54.7723 46.701 53.5045 47.848 52.5869 49.321C51.6934 50.7699 51.2467 52.4602 51.2467 54.392C51.2467 56.348 51.7055 58.0746 52.6231 59.5717C53.5408 61.0689 54.8085 62.2401 56.4264 63.0852C58.0443 63.9304 59.8916 64.353 61.9683 64.353Z" fill="#7E2226"/>
<path d="M83.9336 135.194C77.7891 128.131 64.9749 130.335 60.0874 139.209C55.2 130.335 42.3483 128.131 36.2413 135.194C30.1344 142.258 31.2413 151.245 35.6503 158.825C41.7385 169.331 53.5302 173.009 60.0874 182.783C66.6447 173.009 78.427 169.331 84.5621 158.825C88.9242 151.245 89.9654 142.136 83.9336 135.194Z" fill="url(#paint1_linear_104_10872)"/>
<path d="M157.513 67.0283C152.23 60.9698 141.212 62.8606 137.01 70.472C132.807 62.8606 121.757 60.9698 116.507 67.0283C111.256 73.0869 112.208 80.7948 115.998 87.2959C121.233 96.3073 131.372 99.4613 137.01 107.845C142.648 99.4613 152.778 96.3073 158.053 87.2959C161.804 80.7948 162.699 72.9823 157.513 67.0283Z" fill="url(#paint2_linear_104_10872)"/>
<path d="M157.513 181.028C152.23 174.97 141.212 176.861 137.01 184.472C132.807 176.861 121.757 174.97 116.507 181.028C111.256 187.087 112.208 194.795 115.998 201.296C121.233 210.307 131.372 213.461 137.01 221.845C142.648 213.461 152.778 210.307 158.053 201.296C161.804 194.795 162.699 186.982 157.513 181.028Z" fill="url(#paint3_linear_104_10872)"/>
<path d="M157.513 338.972C152.23 345.03 141.212 343.139 137.01 335.528C132.807 343.139 121.757 345.03 116.507 338.972C111.256 332.913 112.208 325.205 115.998 318.704C121.233 309.693 131.372 306.539 137.01 298.155C142.648 306.539 152.778 309.693 158.053 318.704C161.804 325.205 162.699 333.018 157.513 338.972Z" fill="url(#paint4_linear_104_10872)"/>
<path d="M238.513 181.028C233.23 174.97 222.212 176.861 218.01 184.472C213.807 176.861 202.757 174.97 197.507 181.028C192.256 187.087 193.208 194.795 196.998 201.296C202.233 210.307 212.372 213.461 218.01 221.845C223.648 213.461 233.778 210.307 239.053 201.296C242.804 194.795 243.699 186.982 238.513 181.028Z" fill="url(#paint5_linear_104_10872)"/>
<path d="M238.513 338.972C233.23 345.03 222.212 343.139 218.01 335.528C213.807 343.139 202.757 345.03 197.507 338.972C192.256 332.913 193.208 325.205 196.998 318.704C202.233 309.693 212.372 306.539 218.01 298.155C223.648 306.539 233.778 309.693 239.053 318.704C242.804 325.205 243.699 333.018 238.513 338.972Z" fill="url(#paint6_linear_104_10872)"/>
<path d="M197.513 281.972C192.23 288.03 181.212 286.139 177.01 278.528C172.807 286.139 161.757 288.03 156.507 281.972C151.256 275.913 152.208 268.205 155.998 261.704C161.233 252.693 171.372 249.539 177.01 241.155C182.648 249.539 192.778 252.693 198.053 261.704C201.804 268.205 202.699 276.018 197.513 281.972Z" fill="url(#paint7_linear_104_10872)"/>
<path d="M197.513 124.028C192.23 117.97 181.212 119.861 177.01 127.472C172.807 119.861 161.757 117.97 156.507 124.028C151.256 130.087 152.208 137.795 155.998 144.296C161.233 153.307 171.372 156.461 177.01 164.845C182.648 156.461 192.778 153.307 198.053 144.296C201.804 137.795 202.699 129.982 197.513 124.028Z" fill="url(#paint8_linear_104_10872)"/>
<path d="M238.513 67.0283C233.23 60.9698 222.212 62.8606 218.01 70.472C213.807 62.8606 202.757 60.9698 197.507 67.0283C192.256 73.0869 193.208 80.7948 196.998 87.2959C202.233 96.3073 212.372 99.4613 218.01 107.845C223.648 99.4613 233.778 96.3073 239.053 87.2959C242.804 80.7948 243.699 72.9823 238.513 67.0283Z" fill="url(#paint9_linear_104_10872)"/>
<defs>
<linearGradient id="paint0_linear_104_10872" x1="269" y1="202" x2="0" y2="202" gradientUnits="userSpaceOnUse">
<stop stop-color="#B4B4B4"/>
<stop offset="0.5" stop-color="#B7B3B8"/>
<stop offset="0.9999" stop-color="#F9F8F9"/>
<stop offset="1" stop-color="#B9B6BA"/>
</linearGradient>
<linearGradient id="paint1_linear_104_10872" x1="31.4852" y1="156.892" x2="88.2769" y2="156.892" gradientUnits="userSpaceOnUse">
<stop stop-color="#490303"/>
<stop offset="0.08" stop-color="#69191B"/>
<stop offset="0.15" stop-color="#7B2224"/>
<stop offset="0.33" stop-color="#6D1B1D"/>
<stop offset="0.37" stop-color="#69191B"/>
<stop offset="0.52" stop-color="#771F22"/>
<stop offset="0.69" stop-color="#8D292D"/>
<stop offset="0.8" stop-color="#781D20"/>
<stop offset="1" stop-color="#490303"/>
</linearGradient>
<linearGradient id="paint2_linear_104_10872" x1="112.417" y1="85.6385" x2="161.247" y2="85.6385" gradientUnits="userSpaceOnUse">
<stop stop-color="#490303"/>
<stop offset="0.08" stop-color="#69191B"/>
<stop offset="0.15" stop-color="#7B2224"/>
<stop offset="0.33" stop-color="#6D1B1D"/>
<stop offset="0.37" stop-color="#69191B"/>
<stop offset="0.52" stop-color="#771F22"/>
<stop offset="0.69" stop-color="#8D292D"/>
<stop offset="0.8" stop-color="#781D20"/>
<stop offset="1" stop-color="#490303"/>
</linearGradient>
<linearGradient id="paint3_linear_104_10872" x1="112.417" y1="199.638" x2="161.247" y2="199.638" gradientUnits="userSpaceOnUse">
<stop stop-color="#490303"/>
<stop offset="0.08" stop-color="#69191B"/>
<stop offset="0.15" stop-color="#7B2224"/>
<stop offset="0.33" stop-color="#6D1B1D"/>
<stop offset="0.37" stop-color="#69191B"/>
<stop offset="0.52" stop-color="#771F22"/>
<stop offset="0.69" stop-color="#8D292D"/>
<stop offset="0.8" stop-color="#781D20"/>
<stop offset="1" stop-color="#490303"/>
</linearGradient>
<linearGradient id="paint4_linear_104_10872" x1="112.417" y1="320.362" x2="161.247" y2="320.362" gradientUnits="userSpaceOnUse">
<stop stop-color="#490303"/>
<stop offset="0.08" stop-color="#69191B"/>
<stop offset="0.15" stop-color="#7B2224"/>
<stop offset="0.33" stop-color="#6D1B1D"/>
<stop offset="0.37" stop-color="#69191B"/>
<stop offset="0.52" stop-color="#771F22"/>
<stop offset="0.69" stop-color="#8D292D"/>
<stop offset="0.8" stop-color="#781D20"/>
<stop offset="1" stop-color="#490303"/>
</linearGradient>
<linearGradient id="paint5_linear_104_10872" x1="193.417" y1="199.638" x2="242.247" y2="199.638" gradientUnits="userSpaceOnUse">
<stop stop-color="#490303"/>
<stop offset="0.08" stop-color="#69191B"/>
<stop offset="0.15" stop-color="#7B2224"/>
<stop offset="0.33" stop-color="#6D1B1D"/>
<stop offset="0.37" stop-color="#69191B"/>
<stop offset="0.52" stop-color="#771F22"/>
<stop offset="0.69" stop-color="#8D292D"/>
<stop offset="0.8" stop-color="#781D20"/>
<stop offset="1" stop-color="#490303"/>
</linearGradient>
<linearGradient id="paint6_linear_104_10872" x1="193.417" y1="320.362" x2="242.247" y2="320.362" gradientUnits="userSpaceOnUse">
<stop stop-color="#490303"/>
<stop offset="0.08" stop-color="#69191B"/>
<stop offset="0.15" stop-color="#7B2224"/>
<stop offset="0.33" stop-color="#6D1B1D"/>
<stop offset="0.37" stop-color="#69191B"/>
<stop offset="0.52" stop-color="#771F22"/>
<stop offset="0.69" stop-color="#8D292D"/>
<stop offset="0.8" stop-color="#781D20"/>
<stop offset="1" stop-color="#490303"/>
</linearGradient>
<linearGradient id="paint7_linear_104_10872" x1="152.417" y1="263.362" x2="201.247" y2="263.362" gradientUnits="userSpaceOnUse">
<stop stop-color="#490303"/>
<stop offset="0.08" stop-color="#69191B"/>
<stop offset="0.15" stop-color="#7B2224"/>
<stop offset="0.33" stop-color="#6D1B1D"/>
<stop offset="0.37" stop-color="#69191B"/>
<stop offset="0.52" stop-color="#771F22"/>
<stop offset="0.69" stop-color="#8D292D"/>
<stop offset="0.8" stop-color="#781D20"/>
<stop offset="1" stop-color="#490303"/>
</linearGradient>
<linearGradient id="paint8_linear_104_10872" x1="152.417" y1="142.638" x2="201.247" y2="142.638" gradientUnits="userSpaceOnUse">
<stop stop-color="#490303"/>
<stop offset="0.08" stop-color="#69191B"/>
<stop offset="0.15" stop-color="#7B2224"/>
<stop offset="0.33" stop-color="#6D1B1D"/>
<stop offset="0.37" stop-color="#69191B"/>
<stop offset="0.52" stop-color="#771F22"/>
<stop offset="0.69" stop-color="#8D292D"/>
<stop offset="0.8" stop-color="#781D20"/>
<stop offset="1" stop-color="#490303"/>
</linearGradient>
<linearGradient id="paint9_linear_104_10872" x1="193.417" y1="85.6385" x2="242.247" y2="85.6385" gradientUnits="userSpaceOnUse">
<stop stop-color="#490303"/>
<stop offset="0.08" stop-color="#69191B"/>
<stop offset="0.15" stop-color="#7B2224"/>
<stop offset="0.33" stop-color="#6D1B1D"/>
<stop offset="0.37" stop-color="#69191B"/>
<stop offset="0.52" stop-color="#771F22"/>
<stop offset="0.69" stop-color="#8D292D"/>
<stop offset="0.8" stop-color="#781D20"/>
<stop offset="1" stop-color="#490303"/>
</linearGradient>
</defs>
</svg>
