<svg width="269" height="404" viewBox="0 0 269 404" fill="none" xmlns="http://www.w3.org/2000/svg">
<rect x="4" y="4" width="261" height="396" rx="11" fill="url(#paint0_linear_104_5475)" stroke="#404040" stroke-width="8"/>
<path d="M60.8144 109.014C55.4053 109.014 50.5878 108.085 46.3619 106.225C42.1602 104.342 38.8399 101.758 36.401 98.4737C33.9862 95.1655 32.7426 91.3501 32.6702 87.0277H48.4628C48.5594 88.8388 49.151 90.4325 50.2377 91.8089C51.3485 93.1612 52.8215 94.2116 54.6567 94.9602C56.4919 95.7088 58.5566 96.0831 60.8506 96.0831C63.2412 96.0831 65.3541 95.6605 67.1894 94.8153C69.0246 93.9702 70.4614 92.799 71.4997 91.3018C72.5381 89.8047 73.0573 88.0781 73.0573 86.1222C73.0573 84.142 72.5019 82.3913 71.3911 80.87C70.3044 79.3246 68.7348 78.1172 66.6823 77.2479C64.6539 76.3786 62.2391 75.9439 59.4379 75.9439H52.5196V64.4254H59.4379C61.8044 64.4254 63.8932 64.0149 65.7043 63.1939C67.5395 62.3729 68.9642 61.2379 69.9784 59.7891C70.9926 58.3161 71.4997 56.6016 71.4997 54.6456C71.4997 52.7862 71.053 51.1563 70.1595 49.7557C69.2902 48.331 68.0587 47.2202 66.4649 46.4233C64.8953 45.6264 63.0601 45.228 60.9593 45.228C58.8343 45.228 56.8904 45.6143 55.1276 46.3871C53.3648 47.1357 51.9521 48.2102 50.8896 49.6108C49.8271 51.0114 49.2597 52.6534 49.1872 54.5369H34.1553C34.2277 50.2628 35.4472 46.4957 37.8137 43.2358C40.1801 39.9758 43.3676 37.4283 47.3762 35.593C51.4088 33.7337 55.9607 32.804 61.0317 32.804C66.151 32.804 70.6304 33.7337 74.4699 35.593C78.3094 37.4524 81.2916 39.9638 83.4166 43.1271C85.5658 46.2663 86.6283 49.7919 86.6041 53.7038C86.6283 57.8572 85.3364 61.3224 82.7284 64.0994C80.1446 66.8764 76.776 68.6392 72.6226 69.3878V69.9673C78.08 70.6676 82.2334 72.5632 85.0828 75.6541C87.9564 78.7209 89.3811 82.5604 89.357 87.1726C89.3811 91.3984 88.1617 95.1534 85.6986 98.4375C83.2597 101.722 79.8911 104.305 75.5928 106.189C71.2945 108.072 66.3683 109.014 60.8144 109.014Z" fill="#1F1D1D"/>
<path d="M85.8875 148.52C78.2975 136.1 62.0075 127.87 60.5875 127C59.2075 127.87 42.8775 136.1 35.2875 148.52C29.2875 158.32 31.8475 172.52 40.1475 175.95C45.4975 178.17 54.4975 176.32 58.7575 169.77C58.4175 173.32 57.0875 181.1 51.9375 184.77H69.2375C64.1675 181.43 62.7875 173.42 62.4275 169.77C66.6875 176.33 75.6875 178.17 81.0075 176C89.3275 172.5 91.8775 158.32 85.8875 148.52Z" fill="url(#paint1_linear_104_5475)"/>
<path d="M187.193 78.4576C180.667 67.805 166.661 60.7462 165.44 60C164.253 60.7462 150.212 67.805 143.687 78.4576C138.528 86.8629 140.729 99.0422 147.865 101.984C152.465 103.888 160.203 102.301 163.866 96.6835C163.574 99.7283 162.43 106.401 158.002 109.549H172.877C168.518 106.684 167.331 99.8141 167.022 96.6835C170.685 102.31 178.423 103.888 182.997 102.027C190.151 99.025 192.343 86.8629 187.193 78.4576Z" fill="url(#paint2_linear_104_5475)"/>
<path d="M187.193 193.458C180.667 182.805 166.661 175.746 165.44 175C164.253 175.746 150.212 182.805 143.687 193.458C138.528 201.863 140.729 214.042 147.865 216.984C152.465 218.888 160.203 217.301 163.866 211.684C163.574 214.728 162.43 221.401 158.002 224.549H172.877C168.518 221.684 167.331 214.814 167.022 211.684C170.685 217.31 178.423 218.888 182.997 217.027C190.151 214.025 192.343 201.863 187.193 193.458Z" fill="url(#paint3_linear_104_5475)"/>
<path d="M187.193 327.542C180.667 338.195 166.661 345.254 165.44 346C164.253 345.254 150.212 338.195 143.687 327.542C138.528 319.137 140.729 306.958 147.865 304.016C152.465 302.112 160.203 303.699 163.866 309.316C163.574 306.272 162.43 299.599 158.002 296.451H172.877C168.518 299.316 167.331 306.186 167.022 309.316C170.685 303.69 178.423 302.112 182.997 303.973C190.151 306.975 192.343 319.137 187.193 327.542Z" fill="url(#paint4_linear_104_5475)"/>
<defs>
<linearGradient id="paint0_linear_104_5475" x1="269" y1="202" x2="0" y2="202" gradientUnits="userSpaceOnUse">
<stop stop-color="#B4B4B4"/>
<stop offset="0.5" stop-color="#B7B3B8"/>
<stop offset="0.9999" stop-color="#F9F8F9"/>
<stop offset="1" stop-color="#B9B6BA"/>
</linearGradient>
<linearGradient id="paint1_linear_104_5475" x1="29.7475" y1="155.88" x2="93.9675" y2="155.88" gradientUnits="userSpaceOnUse">
<stop stop-color="#140F14"/>
<stop offset="0.13" stop-color="#302E32"/>
<stop offset="0.36" stop-color="#140F14"/>
<stop offset="0.62" stop-color="#302E32"/>
<stop offset="1" stop-color="#140F14"/>
</linearGradient>
<linearGradient id="paint2_linear_104_5475" x1="138.923" y1="84.7702" x2="194.14" y2="84.7702" gradientUnits="userSpaceOnUse">
<stop stop-color="#140F14"/>
<stop offset="0.13" stop-color="#302E32"/>
<stop offset="0.36" stop-color="#140F14"/>
<stop offset="0.62" stop-color="#302E32"/>
<stop offset="1" stop-color="#140F14"/>
</linearGradient>
<linearGradient id="paint3_linear_104_5475" x1="138.923" y1="199.77" x2="194.14" y2="199.77" gradientUnits="userSpaceOnUse">
<stop stop-color="#140F14"/>
<stop offset="0.13" stop-color="#302E32"/>
<stop offset="0.36" stop-color="#140F14"/>
<stop offset="0.62" stop-color="#302E32"/>
<stop offset="1" stop-color="#140F14"/>
</linearGradient>
<linearGradient id="paint4_linear_104_5475" x1="138.923" y1="321.23" x2="194.14" y2="321.23" gradientUnits="userSpaceOnUse">
<stop stop-color="#140F14"/>
<stop offset="0.13" stop-color="#302E32"/>
<stop offset="0.36" stop-color="#140F14"/>
<stop offset="0.62" stop-color="#302E32"/>
<stop offset="1" stop-color="#140F14"/>
</linearGradient>
</defs>
</svg>
