<svg width="269" height="404" viewBox="0 0 269 404" fill="none" xmlns="http://www.w3.org/2000/svg">
<rect x="4" y="4" width="261" height="396" rx="11" fill="url(#paint0_linear_104_5520)" stroke="#404040" stroke-width="8"/>
<path d="M61.9683 109.014C56.3902 109.014 51.4278 108.109 47.0812 106.298C42.7588 104.462 39.366 101.963 36.903 98.7997C34.4399 95.6364 33.2084 92.0504 33.2084 88.0419C33.2084 84.951 33.9086 82.1136 35.3092 79.5298C36.7339 76.9219 38.6657 74.7607 41.1047 73.0462C43.5436 71.3075 46.2723 70.1967 49.2908 69.7138V69.2067C45.3305 68.4098 42.1189 66.4901 39.6558 63.4474C37.1927 60.3807 35.9612 56.8189 35.9612 52.7621C35.9612 48.9226 37.0841 45.5057 39.3298 42.5114C41.5756 39.4929 44.6544 37.1264 48.5663 35.4119C52.5024 33.6733 56.9697 32.804 61.9683 32.804C66.9669 32.804 71.4221 33.6733 75.3341 35.4119C79.2702 37.1506 82.3611 39.5291 84.6068 42.5476C86.8525 45.5419 87.9875 48.9467 88.0116 52.7621C87.9875 56.843 86.7318 60.4048 84.2446 63.4474C81.7574 66.4901 78.5699 68.4098 74.6821 69.2067V69.7138C77.6523 70.1967 80.3447 71.3075 82.7595 73.0462C85.1984 74.7607 87.1302 76.9219 88.555 79.5298C90.0038 82.1136 90.7403 84.951 90.7645 88.0419C90.7403 92.0504 89.4967 95.6364 87.0336 98.7997C84.5706 101.963 81.1658 104.462 76.8192 106.298C72.4967 108.109 67.5464 109.014 61.9683 109.014ZM61.9683 97.4957C64.4555 97.4957 66.6288 97.049 68.4882 96.1555C70.3476 95.2379 71.7964 93.9822 72.8348 92.3885C73.8973 90.7706 74.4285 88.9112 74.4285 86.8104C74.4285 84.6612 73.8852 82.7656 72.7986 81.1236C71.7119 79.4574 70.2389 78.1534 68.3795 77.2116C66.5202 76.2457 64.3831 75.7628 61.9683 75.7628C59.5777 75.7628 57.4406 76.2457 55.5571 77.2116C53.6736 78.1534 52.1885 79.4574 51.1018 81.1236C50.0393 82.7656 49.5081 84.6612 49.5081 86.8104C49.5081 88.9112 50.0273 90.7706 51.0656 92.3885C52.104 93.9822 53.5649 95.2379 55.4484 96.1555C57.3319 97.049 59.5052 97.4957 61.9683 97.4957ZM61.9683 64.353C64.045 64.353 65.8923 63.9304 67.5102 63.0852C69.1281 62.2401 70.3959 61.0689 71.3135 59.5717C72.2311 58.0746 72.6899 56.348 72.6899 54.392C72.6899 52.4602 72.2311 50.7699 71.3135 49.321C70.3959 47.848 69.1402 46.701 67.5464 45.88C65.9527 45.0348 64.0933 44.6122 61.9683 44.6122C59.8675 44.6122 58.0081 45.0348 56.3902 45.88C54.7723 46.701 53.5045 47.848 52.5869 49.321C51.6934 50.7699 51.2467 52.4602 51.2467 54.392C51.2467 56.348 51.7055 58.0746 52.6231 59.5717C53.5408 61.0689 54.8085 62.2401 56.4264 63.0852C58.0443 63.9304 59.8916 64.353 61.9683 64.353Z" fill="#1F1D1D"/>
<path d="M85.8875 148.52C78.2975 136.1 62.0075 127.87 60.5875 127C59.2075 127.87 42.8775 136.1 35.2875 148.52C29.2875 158.32 31.8475 172.52 40.1475 175.95C45.4975 178.17 54.4975 176.32 58.7575 169.77C58.4175 173.32 57.0875 181.1 51.9375 184.77H69.2375C64.1675 181.43 62.7875 173.42 62.4275 169.77C66.6875 176.33 75.6875 178.17 81.0075 176C89.3275 172.5 91.8775 158.32 85.8875 148.52Z" fill="url(#paint1_linear_104_5520)"/>
<path d="M159.193 78.4576C152.667 67.805 138.661 60.7462 137.44 60C136.253 60.7462 122.212 67.805 115.687 78.4576C110.528 86.8629 112.729 99.0422 119.865 101.984C124.465 103.888 132.203 102.301 135.866 96.6835C135.574 99.7283 134.43 106.401 130.002 109.549H144.877C140.518 106.684 139.331 99.8141 139.022 96.6835C142.685 102.31 150.423 103.888 154.997 102.027C162.151 99.025 164.343 86.8629 159.193 78.4576Z" fill="url(#paint2_linear_104_5520)"/>
<path d="M159.193 192.458C152.667 181.805 138.661 174.746 137.44 174C136.253 174.746 122.212 181.805 115.687 192.458C110.528 200.863 112.729 213.042 119.865 215.984C124.465 217.888 132.203 216.301 135.866 210.684C135.574 213.728 134.43 220.401 130.002 223.549H144.877C140.518 220.684 139.331 213.814 139.022 210.684C142.685 216.31 150.423 217.888 154.997 216.027C162.151 213.025 164.343 200.863 159.193 192.458Z" fill="url(#paint3_linear_104_5520)"/>
<path d="M159.193 327.542C152.667 338.195 138.661 345.254 137.44 346C136.253 345.254 122.212 338.195 115.687 327.542C110.528 319.137 112.729 306.958 119.865 304.016C124.465 302.112 132.203 303.699 135.866 309.316C135.574 306.272 134.43 299.599 130.002 296.451H144.877C140.518 299.316 139.331 306.186 139.022 309.316C142.685 303.69 150.423 302.112 154.997 303.973C162.151 306.975 164.343 319.137 159.193 327.542Z" fill="url(#paint4_linear_104_5520)"/>
<path d="M240.193 192.458C233.667 181.805 219.661 174.746 218.44 174C217.253 174.746 203.212 181.805 196.687 192.458C191.528 200.863 193.729 213.042 200.865 215.984C205.465 217.888 213.203 216.301 216.866 210.684C216.574 213.728 215.43 220.401 211.002 223.549H225.877C221.518 220.684 220.331 213.814 220.022 210.684C223.685 216.31 231.423 217.888 235.997 216.027C243.151 213.025 245.343 200.863 240.193 192.458Z" fill="url(#paint5_linear_104_5520)"/>
<path d="M240.193 327.542C233.667 338.195 219.661 345.254 218.44 346C217.253 345.254 203.212 338.195 196.687 327.542C191.528 319.137 193.729 306.958 200.865 304.016C205.465 302.112 213.203 303.699 216.866 309.316C216.574 306.272 215.43 299.599 211.002 296.451H225.877C221.518 299.316 220.331 306.186 220.022 309.316C223.685 303.69 231.423 302.112 235.997 303.973C243.151 306.975 245.343 319.137 240.193 327.542Z" fill="url(#paint6_linear_104_5520)"/>
<path d="M199.193 270.542C192.667 281.195 178.661 288.254 177.44 289C176.253 288.254 162.212 281.195 155.687 270.542C150.528 262.137 152.729 249.958 159.865 247.016C164.465 245.112 172.203 246.699 175.866 252.316C175.574 249.272 174.43 242.599 170.002 239.451H184.877C180.518 242.316 179.331 249.186 179.022 252.316C182.685 246.69 190.423 245.112 194.997 246.973C202.151 249.975 204.343 262.137 199.193 270.542Z" fill="url(#paint7_linear_104_5520)"/>
<path d="M199.193 135.458C192.667 124.805 178.661 117.746 177.44 117C176.253 117.746 162.212 124.805 155.687 135.458C150.528 143.863 152.729 156.042 159.865 158.984C164.465 160.888 172.203 159.301 175.866 153.684C175.574 156.728 174.43 163.401 170.002 166.549H184.877C180.518 163.684 179.331 156.814 179.022 153.684C182.685 159.31 190.423 160.888 194.997 159.027C202.151 156.025 204.343 143.863 199.193 135.458Z" fill="url(#paint8_linear_104_5520)"/>
<path d="M240.193 78.4576C233.667 67.805 219.661 60.7462 218.44 60C217.253 60.7462 203.212 67.805 196.687 78.4576C191.528 86.8629 193.729 99.0422 200.865 101.984C205.465 103.888 213.203 102.301 216.866 96.6835C216.574 99.7283 215.43 106.401 211.002 109.549H225.877C221.518 106.684 220.331 99.8141 220.022 96.6835C223.685 102.31 231.423 103.888 235.997 102.027C243.151 99.025 245.343 86.8629 240.193 78.4576Z" fill="url(#paint9_linear_104_5520)"/>
<defs>
<linearGradient id="paint0_linear_104_5520" x1="269" y1="202" x2="0" y2="202" gradientUnits="userSpaceOnUse">
<stop stop-color="#B4B4B4"/>
<stop offset="0.5" stop-color="#B7B3B8"/>
<stop offset="0.9999" stop-color="#F9F8F9"/>
<stop offset="1" stop-color="#B9B6BA"/>
</linearGradient>
<linearGradient id="paint1_linear_104_5520" x1="29.7475" y1="155.88" x2="93.9675" y2="155.88" gradientUnits="userSpaceOnUse">
<stop stop-color="#140F14"/>
<stop offset="0.13" stop-color="#302E32"/>
<stop offset="0.36" stop-color="#140F14"/>
<stop offset="0.62" stop-color="#302E32"/>
<stop offset="1" stop-color="#140F14"/>
</linearGradient>
<linearGradient id="paint2_linear_104_5520" x1="110.923" y1="84.7702" x2="166.14" y2="84.7702" gradientUnits="userSpaceOnUse">
<stop stop-color="#140F14"/>
<stop offset="0.13" stop-color="#302E32"/>
<stop offset="0.36" stop-color="#140F14"/>
<stop offset="0.62" stop-color="#302E32"/>
<stop offset="1" stop-color="#140F14"/>
</linearGradient>
<linearGradient id="paint3_linear_104_5520" x1="110.923" y1="198.77" x2="166.14" y2="198.77" gradientUnits="userSpaceOnUse">
<stop stop-color="#140F14"/>
<stop offset="0.13" stop-color="#302E32"/>
<stop offset="0.36" stop-color="#140F14"/>
<stop offset="0.62" stop-color="#302E32"/>
<stop offset="1" stop-color="#140F14"/>
</linearGradient>
<linearGradient id="paint4_linear_104_5520" x1="110.923" y1="321.23" x2="166.14" y2="321.23" gradientUnits="userSpaceOnUse">
<stop stop-color="#140F14"/>
<stop offset="0.13" stop-color="#302E32"/>
<stop offset="0.36" stop-color="#140F14"/>
<stop offset="0.62" stop-color="#302E32"/>
<stop offset="1" stop-color="#140F14"/>
</linearGradient>
<linearGradient id="paint5_linear_104_5520" x1="191.923" y1="198.77" x2="247.14" y2="198.77" gradientUnits="userSpaceOnUse">
<stop stop-color="#140F14"/>
<stop offset="0.13" stop-color="#302E32"/>
<stop offset="0.36" stop-color="#140F14"/>
<stop offset="0.62" stop-color="#302E32"/>
<stop offset="1" stop-color="#140F14"/>
</linearGradient>
<linearGradient id="paint6_linear_104_5520" x1="191.923" y1="321.23" x2="247.14" y2="321.23" gradientUnits="userSpaceOnUse">
<stop stop-color="#140F14"/>
<stop offset="0.13" stop-color="#302E32"/>
<stop offset="0.36" stop-color="#140F14"/>
<stop offset="0.62" stop-color="#302E32"/>
<stop offset="1" stop-color="#140F14"/>
</linearGradient>
<linearGradient id="paint7_linear_104_5520" x1="150.923" y1="264.23" x2="206.14" y2="264.23" gradientUnits="userSpaceOnUse">
<stop stop-color="#140F14"/>
<stop offset="0.13" stop-color="#302E32"/>
<stop offset="0.36" stop-color="#140F14"/>
<stop offset="0.62" stop-color="#302E32"/>
<stop offset="1" stop-color="#140F14"/>
</linearGradient>
<linearGradient id="paint8_linear_104_5520" x1="150.923" y1="141.77" x2="206.14" y2="141.77" gradientUnits="userSpaceOnUse">
<stop stop-color="#140F14"/>
<stop offset="0.13" stop-color="#302E32"/>
<stop offset="0.36" stop-color="#140F14"/>
<stop offset="0.62" stop-color="#302E32"/>
<stop offset="1" stop-color="#140F14"/>
</linearGradient>
<linearGradient id="paint9_linear_104_5520" x1="191.923" y1="84.7702" x2="247.14" y2="84.7702" gradientUnits="userSpaceOnUse">
<stop stop-color="#140F14"/>
<stop offset="0.13" stop-color="#302E32"/>
<stop offset="0.36" stop-color="#140F14"/>
<stop offset="0.62" stop-color="#302E32"/>
<stop offset="1" stop-color="#140F14"/>
</linearGradient>
</defs>
</svg>
