<svg width="269" height="404" viewBox="0 0 269 404" fill="none" xmlns="http://www.w3.org/2000/svg">
<rect x="4" y="4" width="261" height="396" rx="11" fill="url(#paint0_linear_104_5482)" stroke="#404040" stroke-width="8"/>
<path d="M32.3255 94.9602V82.6087L63.2949 33.8182H73.9441V50.9148H67.6415L48.1181 81.8118V82.3913H92.1273V94.9602H32.3255ZM67.9313 108V91.1932L68.2211 85.7237V33.8182H82.927V108H67.9313Z" fill="#1F1D1D"/>
<path d="M85.8875 148.52C78.2975 136.1 62.0075 127.87 60.5875 127C59.2075 127.87 42.8775 136.1 35.2875 148.52C29.2875 158.32 31.8475 172.52 40.1475 175.95C45.4975 178.17 54.4975 176.32 58.7575 169.77C58.4175 173.32 57.0875 181.1 51.9375 184.77H69.2375C64.1675 181.43 62.7875 173.42 62.4275 169.77C66.6875 176.33 75.6875 178.17 81.0075 176C89.3275 172.5 91.8775 158.32 85.8875 148.52Z" fill="url(#paint1_linear_104_5482)"/>
<path d="M156.193 78.4576C149.667 67.805 135.661 60.7462 134.44 60C133.253 60.7462 119.212 67.805 112.687 78.4576C107.528 86.8629 109.729 99.0422 116.865 101.984C121.465 103.888 129.203 102.301 132.866 96.6835C132.574 99.7283 131.43 106.401 127.002 109.549H141.877C137.518 106.684 136.331 99.8141 136.022 96.6835C139.685 102.31 147.423 103.888 151.997 102.027C159.151 99.025 161.343 86.8629 156.193 78.4576Z" fill="url(#paint2_linear_104_5482)"/>
<path d="M156.193 327.542C149.667 338.195 135.661 345.254 134.44 346C133.253 345.254 119.212 338.195 112.687 327.542C107.528 319.137 109.729 306.958 116.865 304.016C121.465 302.112 129.203 303.699 132.866 309.316C132.574 306.272 131.43 299.599 127.002 296.451H141.877C137.518 299.316 136.331 306.186 136.022 309.316C139.685 303.69 147.423 302.112 151.997 303.973C159.151 306.975 161.343 319.137 156.193 327.542Z" fill="url(#paint3_linear_104_5482)"/>
<path d="M240.193 78.4576C233.667 67.805 219.661 60.7462 218.44 60C217.253 60.7462 203.212 67.805 196.687 78.4576C191.528 86.8629 193.729 99.0422 200.865 101.984C205.465 103.888 213.203 102.301 216.866 96.6835C216.574 99.7283 215.43 106.401 211.002 109.549H225.877C221.518 106.684 220.331 99.8141 220.022 96.6835C223.685 102.31 231.423 103.888 235.997 102.027C243.151 99.025 245.343 86.8629 240.193 78.4576Z" fill="url(#paint4_linear_104_5482)"/>
<path d="M240.193 327.542C233.667 338.195 219.661 345.254 218.44 346C217.253 345.254 203.212 338.195 196.687 327.542C191.528 319.137 193.729 306.958 200.865 304.016C205.465 302.112 213.203 303.699 216.866 309.316C216.574 306.272 215.43 299.599 211.002 296.451H225.877C221.518 299.316 220.331 306.186 220.022 309.316C223.685 303.69 231.423 302.112 235.997 303.973C243.151 306.975 245.343 319.137 240.193 327.542Z" fill="url(#paint5_linear_104_5482)"/>
<defs>
<linearGradient id="paint0_linear_104_5482" x1="269" y1="202" x2="0" y2="202" gradientUnits="userSpaceOnUse">
<stop stop-color="#B4B4B4"/>
<stop offset="0.5" stop-color="#B7B3B8"/>
<stop offset="0.9999" stop-color="#F9F8F9"/>
<stop offset="1" stop-color="#B9B6BA"/>
</linearGradient>
<linearGradient id="paint1_linear_104_5482" x1="29.7475" y1="155.88" x2="93.9675" y2="155.88" gradientUnits="userSpaceOnUse">
<stop stop-color="#140F14"/>
<stop offset="0.13" stop-color="#302E32"/>
<stop offset="0.36" stop-color="#140F14"/>
<stop offset="0.62" stop-color="#302E32"/>
<stop offset="1" stop-color="#140F14"/>
</linearGradient>
<linearGradient id="paint2_linear_104_5482" x1="107.923" y1="84.7702" x2="163.14" y2="84.7702" gradientUnits="userSpaceOnUse">
<stop stop-color="#140F14"/>
<stop offset="0.13" stop-color="#302E32"/>
<stop offset="0.36" stop-color="#140F14"/>
<stop offset="0.62" stop-color="#302E32"/>
<stop offset="1" stop-color="#140F14"/>
</linearGradient>
<linearGradient id="paint3_linear_104_5482" x1="107.923" y1="321.23" x2="163.14" y2="321.23" gradientUnits="userSpaceOnUse">
<stop stop-color="#140F14"/>
<stop offset="0.13" stop-color="#302E32"/>
<stop offset="0.36" stop-color="#140F14"/>
<stop offset="0.62" stop-color="#302E32"/>
<stop offset="1" stop-color="#140F14"/>
</linearGradient>
<linearGradient id="paint4_linear_104_5482" x1="191.923" y1="84.7702" x2="247.14" y2="84.7702" gradientUnits="userSpaceOnUse">
<stop stop-color="#140F14"/>
<stop offset="0.13" stop-color="#302E32"/>
<stop offset="0.36" stop-color="#140F14"/>
<stop offset="0.62" stop-color="#302E32"/>
<stop offset="1" stop-color="#140F14"/>
</linearGradient>
<linearGradient id="paint5_linear_104_5482" x1="191.923" y1="321.23" x2="247.14" y2="321.23" gradientUnits="userSpaceOnUse">
<stop stop-color="#140F14"/>
<stop offset="0.13" stop-color="#302E32"/>
<stop offset="0.36" stop-color="#140F14"/>
<stop offset="0.62" stop-color="#302E32"/>
<stop offset="1" stop-color="#140F14"/>
</linearGradient>
</defs>
</svg>
