<svg width="269" height="404" viewBox="0 0 269 404" fill="none" xmlns="http://www.w3.org/2000/svg">
<rect x="4" y="4" width="261" height="396" rx="11" fill="url(#paint0_linear_104_5499)" stroke="#404040" stroke-width="8"/>
<path d="M62.815 109.014C58.9996 108.99 55.3171 108.35 51.7674 107.094C48.2418 105.839 45.0785 103.798 42.2773 100.973C39.4762 98.1477 37.2546 94.4048 35.6126 89.7443C33.9947 85.0838 33.1857 79.3608 33.1857 72.5753C33.2099 66.3452 33.9222 60.7791 35.3228 55.8771C36.7475 50.951 38.7759 46.7734 41.408 43.3445C44.0643 39.9155 47.2397 37.3075 50.9343 35.5206C54.6289 33.7095 58.7702 32.804 63.3583 32.804C68.3086 32.804 72.6793 33.7699 76.4705 35.7017C80.2617 37.6094 83.3043 40.2053 85.5984 43.4893C87.9165 46.7734 89.3171 50.456 89.8001 54.5369H74.3335C73.7298 51.9531 72.462 49.9247 70.5302 48.4517C68.5984 46.9787 66.2077 46.2422 63.3583 46.2422C58.5288 46.2422 54.8583 48.343 52.3469 52.5447C49.8597 56.7464 48.592 62.4574 48.5437 69.6776H49.0508C50.1616 67.4801 51.6587 65.6087 53.5423 64.0632C55.4499 62.4936 57.6112 61.2983 60.0259 60.4773C62.4648 59.6321 65.0366 59.2095 67.7411 59.2095C72.136 59.2095 76.0479 60.2479 79.4769 62.3246C82.9059 64.3771 85.6104 67.2024 87.5906 70.8004C89.5707 74.3984 90.5607 78.5156 90.5607 83.152C90.5607 88.1747 89.3896 92.642 87.0472 96.554C84.7291 100.466 81.4812 103.533 77.3036 105.754C73.1502 107.952 68.3207 109.038 62.815 109.014ZM62.7425 96.6989C65.1573 96.6989 67.3185 96.1193 69.2262 94.9602C71.1339 93.8011 72.631 92.2315 73.7177 90.2514C74.8043 88.2713 75.3477 86.0497 75.3477 83.5866C75.3477 81.1236 74.8043 78.9141 73.7177 76.9581C72.6552 75.0021 71.1822 73.4446 69.2987 72.2855C67.4151 71.1264 65.266 70.5469 62.8512 70.5469C61.0401 70.5469 59.3619 70.8849 57.8164 71.5611C56.2951 72.2372 54.9549 73.179 53.7958 74.3864C52.6609 75.5937 51.7674 76.9943 51.1154 78.5881C50.4634 80.1577 50.1374 81.8359 50.1374 83.6229C50.1374 86.0135 50.6808 88.1989 51.7674 90.179C52.8782 92.1591 54.3754 93.7408 56.2589 94.924C58.1665 96.1072 60.3278 96.6989 62.7425 96.6989Z" fill="#1F1D1D"/>
<path d="M85.8875 148.52C78.2975 136.1 62.0075 127.87 60.5875 127C59.2075 127.87 42.8775 136.1 35.2875 148.52C29.2875 158.32 31.8475 172.52 40.1475 175.95C45.4975 178.17 54.4975 176.32 58.7575 169.77C58.4175 173.32 57.0875 181.1 51.9375 184.77H69.2375C64.1675 181.43 62.7875 173.42 62.4275 169.77C66.6875 176.33 75.6875 178.17 81.0075 176C89.3275 172.5 91.8775 158.32 85.8875 148.52Z" fill="url(#paint1_linear_104_5499)"/>
<path d="M163.193 78.4576C156.667 67.805 142.661 60.7462 141.44 60C140.253 60.7462 126.212 67.805 119.687 78.4576C114.528 86.8629 116.729 99.0422 123.865 101.984C128.465 103.888 136.203 102.301 139.866 96.6835C139.574 99.7283 138.43 106.401 134.002 109.549H148.877C144.518 106.684 143.331 99.8141 143.022 96.6835C146.685 102.31 154.423 103.888 158.997 102.027C166.151 99.025 168.343 86.8629 163.193 78.4576Z" fill="url(#paint2_linear_104_5499)"/>
<path d="M163.193 192.458C156.667 181.805 142.661 174.746 141.44 174C140.253 174.746 126.212 181.805 119.687 192.458C114.528 200.863 116.729 213.042 123.865 215.984C128.465 217.888 136.203 216.301 139.866 210.684C139.574 213.728 138.43 220.401 134.002 223.549H148.877C144.518 220.684 143.331 213.814 143.022 210.684C146.685 216.31 154.423 217.888 158.997 216.027C166.151 213.025 168.343 200.863 163.193 192.458Z" fill="url(#paint3_linear_104_5499)"/>
<path d="M163.193 327.542C156.667 338.195 142.661 345.254 141.44 346C140.253 345.254 126.212 338.195 119.687 327.542C114.528 319.137 116.729 306.958 123.865 304.016C128.465 302.112 136.203 303.699 139.866 309.316C139.574 306.272 138.43 299.599 134.002 296.451H148.877C144.518 299.316 143.331 306.186 143.022 309.316C146.685 303.69 154.423 302.112 158.997 303.973C166.151 306.975 168.343 319.137 163.193 327.542Z" fill="url(#paint4_linear_104_5499)"/>
<path d="M240.193 192.458C233.667 181.805 219.661 174.746 218.44 174C217.253 174.746 203.212 181.805 196.687 192.458C191.528 200.863 193.729 213.042 200.865 215.984C205.465 217.888 213.203 216.301 216.866 210.684C216.574 213.728 215.43 220.401 211.002 223.549H225.877C221.518 220.684 220.331 213.814 220.022 210.684C223.685 216.31 231.423 217.888 235.997 216.027C243.151 213.025 245.343 200.863 240.193 192.458Z" fill="url(#paint5_linear_104_5499)"/>
<path d="M240.193 327.542C233.667 338.195 219.661 345.254 218.44 346C217.253 345.254 203.212 338.195 196.687 327.542C191.528 319.137 193.729 306.958 200.865 304.016C205.465 302.112 213.203 303.699 216.866 309.316C216.574 306.272 215.43 299.599 211.002 296.451H225.877C221.518 299.316 220.331 306.186 220.022 309.316C223.685 303.69 231.423 302.112 235.997 303.973C243.151 306.975 245.343 319.137 240.193 327.542Z" fill="url(#paint6_linear_104_5499)"/>
<path d="M240.193 78.4576C233.667 67.805 219.661 60.7462 218.44 60C217.253 60.7462 203.212 67.805 196.687 78.4576C191.528 86.8629 193.729 99.0422 200.865 101.984C205.465 103.888 213.203 102.301 216.866 96.6835C216.574 99.7283 215.43 106.401 211.002 109.549H225.877C221.518 106.684 220.331 99.8141 220.022 96.6835C223.685 102.31 231.423 103.888 235.997 102.027C243.151 99.025 245.343 86.8629 240.193 78.4576Z" fill="url(#paint7_linear_104_5499)"/>
<defs>
<linearGradient id="paint0_linear_104_5499" x1="269" y1="202" x2="0" y2="202" gradientUnits="userSpaceOnUse">
<stop stop-color="#B4B4B4"/>
<stop offset="0.5" stop-color="#B7B3B8"/>
<stop offset="0.9999" stop-color="#F9F8F9"/>
<stop offset="1" stop-color="#B9B6BA"/>
</linearGradient>
<linearGradient id="paint1_linear_104_5499" x1="29.7475" y1="155.88" x2="93.9675" y2="155.88" gradientUnits="userSpaceOnUse">
<stop stop-color="#140F14"/>
<stop offset="0.13" stop-color="#302E32"/>
<stop offset="0.36" stop-color="#140F14"/>
<stop offset="0.62" stop-color="#302E32"/>
<stop offset="1" stop-color="#140F14"/>
</linearGradient>
<linearGradient id="paint2_linear_104_5499" x1="114.923" y1="84.7702" x2="170.14" y2="84.7702" gradientUnits="userSpaceOnUse">
<stop stop-color="#140F14"/>
<stop offset="0.13" stop-color="#302E32"/>
<stop offset="0.36" stop-color="#140F14"/>
<stop offset="0.62" stop-color="#302E32"/>
<stop offset="1" stop-color="#140F14"/>
</linearGradient>
<linearGradient id="paint3_linear_104_5499" x1="114.923" y1="198.77" x2="170.14" y2="198.77" gradientUnits="userSpaceOnUse">
<stop stop-color="#140F14"/>
<stop offset="0.13" stop-color="#302E32"/>
<stop offset="0.36" stop-color="#140F14"/>
<stop offset="0.62" stop-color="#302E32"/>
<stop offset="1" stop-color="#140F14"/>
</linearGradient>
<linearGradient id="paint4_linear_104_5499" x1="114.923" y1="321.23" x2="170.14" y2="321.23" gradientUnits="userSpaceOnUse">
<stop stop-color="#140F14"/>
<stop offset="0.13" stop-color="#302E32"/>
<stop offset="0.36" stop-color="#140F14"/>
<stop offset="0.62" stop-color="#302E32"/>
<stop offset="1" stop-color="#140F14"/>
</linearGradient>
<linearGradient id="paint5_linear_104_5499" x1="191.923" y1="198.77" x2="247.14" y2="198.77" gradientUnits="userSpaceOnUse">
<stop stop-color="#140F14"/>
<stop offset="0.13" stop-color="#302E32"/>
<stop offset="0.36" stop-color="#140F14"/>
<stop offset="0.62" stop-color="#302E32"/>
<stop offset="1" stop-color="#140F14"/>
</linearGradient>
<linearGradient id="paint6_linear_104_5499" x1="191.923" y1="321.23" x2="247.14" y2="321.23" gradientUnits="userSpaceOnUse">
<stop stop-color="#140F14"/>
<stop offset="0.13" stop-color="#302E32"/>
<stop offset="0.36" stop-color="#140F14"/>
<stop offset="0.62" stop-color="#302E32"/>
<stop offset="1" stop-color="#140F14"/>
</linearGradient>
<linearGradient id="paint7_linear_104_5499" x1="191.923" y1="84.7702" x2="247.14" y2="84.7702" gradientUnits="userSpaceOnUse">
<stop stop-color="#140F14"/>
<stop offset="0.13" stop-color="#302E32"/>
<stop offset="0.36" stop-color="#140F14"/>
<stop offset="0.62" stop-color="#302E32"/>
<stop offset="1" stop-color="#140F14"/>
</linearGradient>
</defs>
</svg>
