<svg width="269" height="404" viewBox="0 0 269 404" fill="none" xmlns="http://www.w3.org/2000/svg">
<rect x="4" y="4" width="261" height="396" rx="11" fill="url(#paint0_linear_104_5490)" stroke="#404040" stroke-width="8"/>
<path d="M62.2354 109.014C57.1161 109.014 52.5522 108.072 48.5437 106.189C44.5593 104.305 41.396 101.71 39.0536 98.4013C36.7113 95.093 35.4918 91.3018 35.3952 87.0277H50.6083C50.7773 89.9013 51.9847 92.2315 54.2305 94.0185C56.4762 95.8054 59.1445 96.6989 62.2354 96.6989C64.6985 96.6989 66.8718 96.1555 68.7553 95.0689C70.663 93.9581 72.1481 92.4247 73.2106 90.4688C74.2972 88.4886 74.8406 86.2187 74.8406 83.6591C74.8406 81.0511 74.2852 78.7571 73.1744 76.777C72.0877 74.7969 70.5785 73.2514 68.6467 72.1406C66.7148 71.0298 64.5053 70.4624 62.0181 70.4382C59.8448 70.4382 57.7319 70.8849 55.6793 71.7784C53.6509 72.6719 52.0692 73.8913 50.9343 75.4368L36.989 72.9375L40.5025 33.8182H85.8519V46.6406H53.4336L51.5139 65.2223H51.9485C53.2525 63.3871 55.2205 61.8658 57.8526 60.6584C60.4847 59.451 63.4308 58.8473 66.6907 58.8473C71.158 58.8473 75.1424 59.8977 78.6438 61.9986C82.1452 64.0994 84.9102 66.9851 86.9386 70.6555C88.967 74.3018 89.9691 78.5036 89.945 83.2607C89.9691 88.2592 88.81 92.7024 86.4677 96.5902C84.1495 100.454 80.9016 103.496 76.7241 105.718C72.5707 107.915 67.7411 109.014 62.2354 109.014Z" fill="#1F1D1D"/>
<path d="M85.8875 148.52C78.2975 136.1 62.0075 127.87 60.5875 127C59.2075 127.87 42.8775 136.1 35.2875 148.52C29.2875 158.32 31.8475 172.52 40.1475 175.95C45.4975 178.17 54.4975 176.32 58.7575 169.77C58.4175 173.32 57.0875 181.1 51.9375 184.77H69.2375C64.1675 181.43 62.7875 173.42 62.4275 169.77C66.6875 176.33 75.6875 178.17 81.0075 176C89.3275 172.5 91.8775 158.32 85.8875 148.52Z" fill="url(#paint1_linear_104_5490)"/>
<path d="M160.193 78.4576C153.667 67.805 139.661 60.7462 138.44 60C137.253 60.7462 123.212 67.805 116.687 78.4576C111.528 86.8629 113.729 99.0422 120.865 101.984C125.465 103.888 133.203 102.301 136.866 96.6835C136.574 99.7283 135.43 106.401 131.002 109.549H145.877C141.518 106.684 140.331 99.8141 140.022 96.6835C143.685 102.31 151.423 103.888 155.997 102.027C163.151 99.025 165.343 86.8629 160.193 78.4576Z" fill="url(#paint2_linear_104_5490)"/>
<path d="M160.193 327.542C153.667 338.195 139.661 345.254 138.44 346C137.253 345.254 123.212 338.195 116.687 327.542C111.528 319.137 113.729 306.958 120.865 304.016C125.465 302.112 133.203 303.699 136.866 309.316C136.574 306.272 135.43 299.599 131.002 296.451H145.877C141.518 299.316 140.331 306.186 140.022 309.316C143.685 303.69 151.423 302.112 155.997 303.973C163.151 306.975 165.343 319.137 160.193 327.542Z" fill="url(#paint3_linear_104_5490)"/>
<path d="M201.193 192.458C194.667 181.805 180.661 174.746 179.44 174C178.253 174.746 164.212 181.805 157.687 192.458C152.528 200.863 154.729 213.042 161.865 215.984C166.465 217.888 174.203 216.301 177.866 210.684C177.574 213.728 176.43 220.401 172.002 223.549H186.877C182.518 220.684 181.331 213.814 181.022 210.684C184.685 216.31 192.423 217.888 196.997 216.027C204.151 213.025 206.343 200.863 201.193 192.458Z" fill="url(#paint4_linear_104_5490)"/>
<path d="M240.193 78.4576C233.667 67.805 219.661 60.7462 218.44 60C217.253 60.7462 203.212 67.805 196.687 78.4576C191.528 86.8629 193.729 99.0422 200.865 101.984C205.465 103.888 213.203 102.301 216.866 96.6835C216.574 99.7283 215.43 106.401 211.002 109.549H225.877C221.518 106.684 220.331 99.8141 220.022 96.6835C223.685 102.31 231.423 103.888 235.997 102.027C243.151 99.025 245.343 86.8629 240.193 78.4576Z" fill="url(#paint5_linear_104_5490)"/>
<path d="M240.193 327.542C233.667 338.195 219.661 345.254 218.44 346C217.253 345.254 203.212 338.195 196.687 327.542C191.528 319.137 193.729 306.958 200.865 304.016C205.465 302.112 213.203 303.699 216.866 309.316C216.574 306.272 215.43 299.599 211.002 296.451H225.877C221.518 299.316 220.331 306.186 220.022 309.316C223.685 303.69 231.423 302.112 235.997 303.973C243.151 306.975 245.343 319.137 240.193 327.542Z" fill="url(#paint6_linear_104_5490)"/>
<defs>
<linearGradient id="paint0_linear_104_5490" x1="269" y1="202" x2="0" y2="202" gradientUnits="userSpaceOnUse">
<stop stop-color="#B4B4B4"/>
<stop offset="0.5" stop-color="#B7B3B8"/>
<stop offset="0.9999" stop-color="#F9F8F9"/>
<stop offset="1" stop-color="#B9B6BA"/>
</linearGradient>
<linearGradient id="paint1_linear_104_5490" x1="29.7475" y1="155.88" x2="93.9675" y2="155.88" gradientUnits="userSpaceOnUse">
<stop stop-color="#140F14"/>
<stop offset="0.13" stop-color="#302E32"/>
<stop offset="0.36" stop-color="#140F14"/>
<stop offset="0.62" stop-color="#302E32"/>
<stop offset="1" stop-color="#140F14"/>
</linearGradient>
<linearGradient id="paint2_linear_104_5490" x1="111.923" y1="84.7702" x2="167.14" y2="84.7702" gradientUnits="userSpaceOnUse">
<stop stop-color="#140F14"/>
<stop offset="0.13" stop-color="#302E32"/>
<stop offset="0.36" stop-color="#140F14"/>
<stop offset="0.62" stop-color="#302E32"/>
<stop offset="1" stop-color="#140F14"/>
</linearGradient>
<linearGradient id="paint3_linear_104_5490" x1="111.923" y1="321.23" x2="167.14" y2="321.23" gradientUnits="userSpaceOnUse">
<stop stop-color="#140F14"/>
<stop offset="0.13" stop-color="#302E32"/>
<stop offset="0.36" stop-color="#140F14"/>
<stop offset="0.62" stop-color="#302E32"/>
<stop offset="1" stop-color="#140F14"/>
</linearGradient>
<linearGradient id="paint4_linear_104_5490" x1="152.923" y1="198.77" x2="208.14" y2="198.77" gradientUnits="userSpaceOnUse">
<stop stop-color="#140F14"/>
<stop offset="0.13" stop-color="#302E32"/>
<stop offset="0.36" stop-color="#140F14"/>
<stop offset="0.62" stop-color="#302E32"/>
<stop offset="1" stop-color="#140F14"/>
</linearGradient>
<linearGradient id="paint5_linear_104_5490" x1="191.923" y1="84.7702" x2="247.14" y2="84.7702" gradientUnits="userSpaceOnUse">
<stop stop-color="#140F14"/>
<stop offset="0.13" stop-color="#302E32"/>
<stop offset="0.36" stop-color="#140F14"/>
<stop offset="0.62" stop-color="#302E32"/>
<stop offset="1" stop-color="#140F14"/>
</linearGradient>
<linearGradient id="paint6_linear_104_5490" x1="191.923" y1="321.23" x2="247.14" y2="321.23" gradientUnits="userSpaceOnUse">
<stop stop-color="#140F14"/>
<stop offset="0.13" stop-color="#302E32"/>
<stop offset="0.36" stop-color="#140F14"/>
<stop offset="0.62" stop-color="#302E32"/>
<stop offset="1" stop-color="#140F14"/>
</linearGradient>
</defs>
</svg>
