<svg width="269" height="404" viewBox="0 0 269 404" fill="none" xmlns="http://www.w3.org/2000/svg">
<rect x="4" y="4" width="261" height="396" rx="11" fill="url(#paint0_linear_104_5545)" stroke="#404040" stroke-width="8"/>
<path d="M42.7839 41.5455V107H28.9451V54.6811H28.5616L13.5723 64.0774V51.8047L29.7761 41.5455H42.7839ZM84.0046 108.438C78.5075 108.417 73.7773 107.064 69.8143 104.379C65.8725 101.695 62.8363 97.8061 60.7056 92.7138C58.5962 87.6214 57.5522 81.4957 57.5735 74.3366C57.5735 67.1989 58.6282 61.1158 60.7376 56.0874C62.8683 51.0589 65.9045 47.2344 69.8462 44.6136C73.8093 41.9716 78.5288 40.6506 84.0046 40.6506C89.4805 40.6506 94.1893 41.9716 98.131 44.6136C102.094 47.2557 105.141 51.0909 107.272 56.1193C109.402 61.1264 110.457 67.1989 110.436 74.3366C110.436 81.517 109.37 87.6534 107.24 92.7457C105.13 97.8381 102.105 101.727 98.163 104.411C94.2212 107.096 89.5018 108.438 84.0046 108.438ZM84.0046 96.9645C87.7546 96.9645 90.7482 95.0788 92.9854 91.3075C95.2227 87.5362 96.3306 81.8793 96.3093 74.3366C96.3093 69.3722 95.7979 65.2386 94.7752 61.9361C93.7738 58.6335 92.3462 56.1513 90.4925 54.4893C88.6602 52.8274 86.4975 51.9964 84.0046 51.9964C80.2759 51.9964 77.293 53.8608 75.0558 57.5895C72.8185 61.3182 71.6893 66.9006 71.668 74.3366C71.668 79.3651 72.1687 83.5625 73.1701 86.929C74.1928 90.2741 75.631 92.7884 77.4847 94.4716C79.3384 96.1335 81.5117 96.9645 84.0046 96.9645Z" fill="#1F1D1D"/>
<path d="M85.8875 148.52C78.2975 136.1 62.0075 127.87 60.5875 127C59.2075 127.87 42.8775 136.1 35.2875 148.52C29.2875 158.32 31.8475 172.52 40.1475 175.95C45.4975 178.17 54.4975 176.32 58.7575 169.77C58.4175 173.32 57.0875 181.1 51.9375 184.77H69.2375C64.1675 181.43 62.7875 173.42 62.4275 169.77C66.6875 176.33 75.6875 178.17 81.0075 176C89.3275 172.5 91.8775 158.32 85.8875 148.52Z" fill="url(#paint1_linear_104_5545)"/>
<path d="M162.193 78.4576C155.667 67.805 141.661 60.7462 140.44 60C139.253 60.7462 125.212 67.805 118.687 78.4576C113.528 86.8629 115.729 99.0422 122.865 101.984C127.465 103.888 135.203 102.301 138.866 96.6835C138.574 99.7283 137.43 106.401 133.002 109.549H147.877C143.518 106.684 142.331 99.8141 142.022 96.6835C145.685 102.31 153.423 103.888 157.997 102.027C165.151 99.025 167.343 86.8629 162.193 78.4576Z" fill="url(#paint2_linear_104_5545)"/>
<path d="M162.193 327.542C155.667 338.195 141.661 345.254 140.44 346C139.253 345.254 125.212 338.195 118.687 327.542C113.528 319.137 115.729 306.958 122.865 304.016C127.465 302.112 135.203 303.699 138.866 309.316C138.574 306.272 137.43 299.599 133.002 296.451H147.877C143.518 299.316 142.331 306.186 142.022 309.316C145.685 303.69 153.423 302.112 157.997 303.973C165.151 306.975 167.343 319.137 162.193 327.542Z" fill="url(#paint3_linear_104_5545)"/>
<path d="M162.193 163.458C155.667 152.805 141.661 145.746 140.44 145C139.253 145.746 125.212 152.805 118.687 163.458C113.528 171.863 115.729 184.042 122.865 186.984C127.465 188.888 135.203 187.301 138.866 181.684C138.574 184.728 137.43 191.401 133.002 194.549H147.877C143.518 191.684 142.331 184.814 142.022 181.684C145.685 187.31 153.423 188.888 157.997 187.027C165.151 184.025 167.343 171.863 162.193 163.458Z" fill="url(#paint4_linear_104_5545)"/>
<path d="M162.193 242.542C155.667 253.195 141.661 260.254 140.44 261C139.253 260.254 125.212 253.195 118.687 242.542C113.528 234.137 115.729 221.958 122.865 219.016C127.465 217.112 135.203 218.699 138.866 224.316C138.574 221.272 137.43 214.599 133.002 211.451H147.877C143.518 214.316 142.331 221.186 142.022 224.316C145.685 218.69 153.423 217.112 157.997 218.973C165.151 221.975 167.343 234.137 162.193 242.542Z" fill="url(#paint5_linear_104_5545)"/>
<path d="M239.193 163.458C232.667 152.805 218.661 145.746 217.44 145C216.253 145.746 202.212 152.805 195.687 163.458C190.528 171.863 192.729 184.042 199.865 186.984C204.465 188.888 212.203 187.301 215.866 181.684C215.574 184.728 214.43 191.401 210.002 194.549H224.877C220.518 191.684 219.331 184.814 219.022 181.684C222.685 187.31 230.423 188.888 234.997 187.027C242.151 184.025 244.343 171.863 239.193 163.458Z" fill="url(#paint6_linear_104_5545)"/>
<path d="M239.193 242.542C232.667 253.195 218.661 260.254 217.44 261C216.253 260.254 202.212 253.195 195.687 242.542C190.528 234.137 192.729 221.958 199.865 219.016C204.465 217.112 212.203 218.699 215.866 224.316C215.574 221.272 214.43 214.599 210.002 211.451H224.877C220.518 214.316 219.331 221.186 219.022 224.316C222.685 218.69 230.423 217.112 234.997 218.973C242.151 221.975 244.343 234.137 239.193 242.542Z" fill="url(#paint7_linear_104_5545)"/>
<path d="M201.193 125.458C194.667 114.805 180.661 107.746 179.44 107C178.253 107.746 164.212 114.805 157.687 125.458C152.528 133.863 154.729 146.042 161.865 148.984C166.465 150.888 174.203 149.301 177.866 143.684C177.574 146.728 176.43 153.401 172.002 156.549H186.877C182.518 153.684 181.331 146.814 181.022 143.684C184.685 149.31 192.423 150.888 196.997 149.027C204.151 146.025 206.343 133.863 201.193 125.458Z" fill="url(#paint8_linear_104_5545)"/>
<path d="M201.193 285.542C194.667 296.195 180.661 303.254 179.44 304C178.253 303.254 164.212 296.195 157.687 285.542C152.528 277.137 154.729 264.958 161.865 262.016C166.465 260.112 174.203 261.699 177.866 267.316C177.574 264.272 176.43 257.599 172.002 254.451H186.877C182.518 257.316 181.331 264.186 181.022 267.316C184.685 261.69 192.423 260.112 196.997 261.973C204.151 264.975 206.343 277.137 201.193 285.542Z" fill="url(#paint9_linear_104_5545)"/>
<path d="M239.193 78.4576C232.667 67.805 218.661 60.7462 217.44 60C216.253 60.7462 202.212 67.805 195.687 78.4576C190.528 86.8629 192.729 99.0422 199.865 101.984C204.465 103.888 212.203 102.301 215.866 96.6835C215.574 99.7283 214.43 106.401 210.002 109.549H224.877C220.518 106.684 219.331 99.8141 219.022 96.6835C222.685 102.31 230.423 103.888 234.997 102.027C242.151 99.025 244.343 86.8629 239.193 78.4576Z" fill="url(#paint10_linear_104_5545)"/>
<path d="M239.193 327.542C232.667 338.195 218.661 345.254 217.44 346C216.253 345.254 202.212 338.195 195.687 327.542C190.528 319.137 192.729 306.958 199.865 304.016C204.465 302.112 212.203 303.699 215.866 309.316C215.574 306.272 214.43 299.599 210.002 296.451H224.877C220.518 299.316 219.331 306.186 219.022 309.316C222.685 303.69 230.423 302.112 234.997 303.973C242.151 306.975 244.343 319.137 239.193 327.542Z" fill="url(#paint11_linear_104_5545)"/>
<defs>
<linearGradient id="paint0_linear_104_5545" x1="269" y1="202" x2="0" y2="202" gradientUnits="userSpaceOnUse">
<stop stop-color="#B4B4B4"/>
<stop offset="0.5" stop-color="#B7B3B8"/>
<stop offset="0.9999" stop-color="#F9F8F9"/>
<stop offset="1" stop-color="#B9B6BA"/>
</linearGradient>
<linearGradient id="paint1_linear_104_5545" x1="29.7475" y1="155.88" x2="93.9675" y2="155.88" gradientUnits="userSpaceOnUse">
<stop stop-color="#140F14"/>
<stop offset="0.13" stop-color="#302E32"/>
<stop offset="0.36" stop-color="#140F14"/>
<stop offset="0.62" stop-color="#302E32"/>
<stop offset="1" stop-color="#140F14"/>
</linearGradient>
<linearGradient id="paint2_linear_104_5545" x1="113.923" y1="84.7702" x2="169.14" y2="84.7702" gradientUnits="userSpaceOnUse">
<stop stop-color="#140F14"/>
<stop offset="0.13" stop-color="#302E32"/>
<stop offset="0.36" stop-color="#140F14"/>
<stop offset="0.62" stop-color="#302E32"/>
<stop offset="1" stop-color="#140F14"/>
</linearGradient>
<linearGradient id="paint3_linear_104_5545" x1="113.923" y1="321.23" x2="169.14" y2="321.23" gradientUnits="userSpaceOnUse">
<stop stop-color="#140F14"/>
<stop offset="0.13" stop-color="#302E32"/>
<stop offset="0.36" stop-color="#140F14"/>
<stop offset="0.62" stop-color="#302E32"/>
<stop offset="1" stop-color="#140F14"/>
</linearGradient>
<linearGradient id="paint4_linear_104_5545" x1="113.923" y1="169.77" x2="169.14" y2="169.77" gradientUnits="userSpaceOnUse">
<stop stop-color="#140F14"/>
<stop offset="0.13" stop-color="#302E32"/>
<stop offset="0.36" stop-color="#140F14"/>
<stop offset="0.62" stop-color="#302E32"/>
<stop offset="1" stop-color="#140F14"/>
</linearGradient>
<linearGradient id="paint5_linear_104_5545" x1="113.923" y1="236.23" x2="169.14" y2="236.23" gradientUnits="userSpaceOnUse">
<stop stop-color="#140F14"/>
<stop offset="0.13" stop-color="#302E32"/>
<stop offset="0.36" stop-color="#140F14"/>
<stop offset="0.62" stop-color="#302E32"/>
<stop offset="1" stop-color="#140F14"/>
</linearGradient>
<linearGradient id="paint6_linear_104_5545" x1="190.923" y1="169.77" x2="246.14" y2="169.77" gradientUnits="userSpaceOnUse">
<stop stop-color="#140F14"/>
<stop offset="0.13" stop-color="#302E32"/>
<stop offset="0.36" stop-color="#140F14"/>
<stop offset="0.62" stop-color="#302E32"/>
<stop offset="1" stop-color="#140F14"/>
</linearGradient>
<linearGradient id="paint7_linear_104_5545" x1="190.923" y1="236.23" x2="246.14" y2="236.23" gradientUnits="userSpaceOnUse">
<stop stop-color="#140F14"/>
<stop offset="0.13" stop-color="#302E32"/>
<stop offset="0.36" stop-color="#140F14"/>
<stop offset="0.62" stop-color="#302E32"/>
<stop offset="1" stop-color="#140F14"/>
</linearGradient>
<linearGradient id="paint8_linear_104_5545" x1="152.923" y1="131.77" x2="208.14" y2="131.77" gradientUnits="userSpaceOnUse">
<stop stop-color="#140F14"/>
<stop offset="0.13" stop-color="#302E32"/>
<stop offset="0.36" stop-color="#140F14"/>
<stop offset="0.62" stop-color="#302E32"/>
<stop offset="1" stop-color="#140F14"/>
</linearGradient>
<linearGradient id="paint9_linear_104_5545" x1="152.923" y1="279.23" x2="208.14" y2="279.23" gradientUnits="userSpaceOnUse">
<stop stop-color="#140F14"/>
<stop offset="0.13" stop-color="#302E32"/>
<stop offset="0.36" stop-color="#140F14"/>
<stop offset="0.62" stop-color="#302E32"/>
<stop offset="1" stop-color="#140F14"/>
</linearGradient>
<linearGradient id="paint10_linear_104_5545" x1="190.923" y1="84.7702" x2="246.14" y2="84.7702" gradientUnits="userSpaceOnUse">
<stop stop-color="#140F14"/>
<stop offset="0.13" stop-color="#302E32"/>
<stop offset="0.36" stop-color="#140F14"/>
<stop offset="0.62" stop-color="#302E32"/>
<stop offset="1" stop-color="#140F14"/>
</linearGradient>
<linearGradient id="paint11_linear_104_5545" x1="190.923" y1="321.23" x2="246.14" y2="321.23" gradientUnits="userSpaceOnUse">
<stop stop-color="#140F14"/>
<stop offset="0.13" stop-color="#302E32"/>
<stop offset="0.36" stop-color="#140F14"/>
<stop offset="0.62" stop-color="#302E32"/>
<stop offset="1" stop-color="#140F14"/>
</linearGradient>
</defs>
</svg>
