<svg width="269" height="404" viewBox="0 0 269 404" fill="none" xmlns="http://www.w3.org/2000/svg">
<rect x="4" y="4" width="261" height="396" rx="11" fill="url(#paint0_linear_104_5467)" stroke="#404040" stroke-width="8"/>
<path d="M33.3888 108V96.6989L59.7943 72.2493C62.04 70.076 63.9236 68.12 65.4449 66.3814C66.9903 64.6428 68.1615 62.9403 68.9584 61.2741C69.7552 59.5838 70.1537 57.7607 70.1537 55.8047C70.1537 53.6314 69.6586 51.7599 68.6686 50.1903C67.6785 48.5966 66.3263 47.3771 64.6118 46.532C62.8973 45.6626 60.9534 45.228 58.7801 45.228C56.5102 45.228 54.5301 45.6868 52.8398 46.6044C51.1494 47.522 49.8454 48.8381 48.9278 50.5526C48.0102 52.267 47.5514 54.3075 47.5514 56.674H32.6643C32.6643 51.8203 33.7631 47.6065 35.9605 44.0327C38.1579 40.4588 41.2368 37.6939 45.197 35.7379C49.1572 33.782 53.7211 32.804 58.8888 32.804C64.2013 32.804 68.8256 33.7457 72.7616 35.6293C76.7219 37.4886 79.8007 40.0724 81.9981 43.3807C84.1956 46.6889 85.2943 50.4801 85.2943 54.7543C85.2943 57.5554 84.7389 60.3203 83.6281 63.049C82.5415 65.7777 80.5976 68.8082 77.7964 72.1406C74.9953 75.4489 71.0471 79.4212 65.952 84.0575L55.1217 94.6705V95.1776H86.2723V108H33.3888Z" fill="#1F1D1D"/>
<path d="M85.8875 148.52C78.2975 136.1 62.0075 127.87 60.5875 127C59.2075 127.87 42.8775 136.1 35.2875 148.52C29.2875 158.32 31.8475 172.52 40.1475 175.95C45.4975 178.17 54.4975 176.32 58.7575 169.77C58.4175 173.32 57.0875 181.1 51.9375 184.77H69.2375C64.1675 181.43 62.7875 173.42 62.4275 169.77C66.6875 176.33 75.6875 178.17 81.0075 176C89.3275 172.5 91.8775 158.32 85.8875 148.52Z" fill="url(#paint1_linear_104_5467)"/>
<path d="M187.193 78.4576C180.667 67.805 166.661 60.7462 165.44 60C164.253 60.7462 150.212 67.805 143.687 78.4576C138.528 86.8629 140.729 99.0422 147.865 101.984C152.465 103.888 160.203 102.301 163.866 96.6835C163.574 99.7283 162.43 106.401 158.002 109.549H172.877C168.518 106.684 167.331 99.8141 167.022 96.6835C170.685 102.31 178.423 103.888 182.997 102.027C190.151 99.025 192.343 86.8629 187.193 78.4576Z" fill="url(#paint2_linear_104_5467)"/>
<path d="M187.193 327.542C180.667 338.195 166.661 345.254 165.44 346C164.253 345.254 150.212 338.195 143.687 327.542C138.528 319.137 140.729 306.958 147.865 304.016C152.465 302.112 160.203 303.699 163.866 309.316C163.574 306.272 162.43 299.599 158.002 296.451H172.877C168.518 299.316 167.331 306.186 167.022 309.316C170.685 303.69 178.423 302.112 182.997 303.973C190.151 306.975 192.343 319.137 187.193 327.542Z" fill="url(#paint3_linear_104_5467)"/>
<defs>
<linearGradient id="paint0_linear_104_5467" x1="269" y1="202" x2="0" y2="202" gradientUnits="userSpaceOnUse">
<stop stop-color="#B4B4B4"/>
<stop offset="0.5" stop-color="#B7B3B8"/>
<stop offset="0.9999" stop-color="#F9F8F9"/>
<stop offset="1" stop-color="#B9B6BA"/>
</linearGradient>
<linearGradient id="paint1_linear_104_5467" x1="29.7475" y1="155.88" x2="93.9675" y2="155.88" gradientUnits="userSpaceOnUse">
<stop stop-color="#140F14"/>
<stop offset="0.13" stop-color="#302E32"/>
<stop offset="0.36" stop-color="#140F14"/>
<stop offset="0.62" stop-color="#302E32"/>
<stop offset="1" stop-color="#140F14"/>
</linearGradient>
<linearGradient id="paint2_linear_104_5467" x1="138.923" y1="84.7702" x2="194.14" y2="84.7702" gradientUnits="userSpaceOnUse">
<stop stop-color="#140F14"/>
<stop offset="0.13" stop-color="#302E32"/>
<stop offset="0.36" stop-color="#140F14"/>
<stop offset="0.62" stop-color="#302E32"/>
<stop offset="1" stop-color="#140F14"/>
</linearGradient>
<linearGradient id="paint3_linear_104_5467" x1="138.923" y1="321.23" x2="194.14" y2="321.23" gradientUnits="userSpaceOnUse">
<stop stop-color="#140F14"/>
<stop offset="0.13" stop-color="#302E32"/>
<stop offset="0.36" stop-color="#140F14"/>
<stop offset="0.62" stop-color="#302E32"/>
<stop offset="1" stop-color="#140F14"/>
</linearGradient>
</defs>
</svg>
