<svg width="269" height="404" viewBox="0 0 269 404" fill="none" xmlns="http://www.w3.org/2000/svg">
<rect x="4" y="4" width="261" height="396" rx="11" fill="url(#paint0_linear_104_5509)" stroke="#404040" stroke-width="8"/>
<path d="M41.1157 108L71.8678 47.1477V46.6406H36.0447V33.8182H88.0951V46.8217L57.3067 108H41.1157Z" fill="#1F1D1D"/>
<path d="M85.8875 148.52C78.2975 136.1 62.0075 127.87 60.5875 127C59.2075 127.87 42.8775 136.1 35.2875 148.52C29.2875 158.32 31.8475 172.52 40.1475 175.95C45.4975 178.17 54.4975 176.32 58.7575 169.77C58.4175 173.32 57.0875 181.1 51.9375 184.77H69.2375C64.1675 181.43 62.7875 173.42 62.4275 169.77C66.6875 176.33 75.6875 178.17 81.0075 176C89.3275 172.5 91.8775 158.32 85.8875 148.52Z" fill="url(#paint1_linear_104_5509)"/>
<path d="M160.193 78.4576C153.667 67.805 139.661 60.7462 138.44 60C137.253 60.7462 123.212 67.805 116.687 78.4576C111.528 86.8629 113.729 99.0422 120.865 101.984C125.465 103.888 133.203 102.301 136.866 96.6835C136.574 99.7283 135.43 106.401 131.002 109.549H145.877C141.518 106.684 140.331 99.8141 140.022 96.6835C143.685 102.31 151.423 103.888 155.997 102.027C163.151 99.025 165.343 86.8629 160.193 78.4576Z" fill="url(#paint2_linear_104_5509)"/>
<path d="M160.193 192.458C153.667 181.805 139.661 174.746 138.44 174C137.253 174.746 123.212 181.805 116.687 192.458C111.528 200.863 113.729 213.042 120.865 215.984C125.465 217.888 133.203 216.301 136.866 210.684C136.574 213.728 135.43 220.401 131.002 223.549H145.877C141.518 220.684 140.331 213.814 140.022 210.684C143.685 216.31 151.423 217.888 155.997 216.027C163.151 213.025 165.343 200.863 160.193 192.458Z" fill="url(#paint3_linear_104_5509)"/>
<path d="M160.193 327.542C153.667 338.195 139.661 345.254 138.44 346C137.253 345.254 123.212 338.195 116.687 327.542C111.528 319.137 113.729 306.958 120.865 304.016C125.465 302.112 133.203 303.699 136.866 309.316C136.574 306.272 135.43 299.599 131.002 296.451H145.877C141.518 299.316 140.331 306.186 140.022 309.316C143.685 303.69 151.423 302.112 155.997 303.973C163.151 306.975 165.343 319.137 160.193 327.542Z" fill="url(#paint4_linear_104_5509)"/>
<path d="M240.193 192.458C233.667 181.805 219.661 174.746 218.44 174C217.253 174.746 203.212 181.805 196.687 192.458C191.528 200.863 193.729 213.042 200.865 215.984C205.465 217.888 213.203 216.301 216.866 210.684C216.574 213.728 215.43 220.401 211.002 223.549H225.877C221.518 220.684 220.331 213.814 220.022 210.684C223.685 216.31 231.423 217.888 235.997 216.027C243.151 213.025 245.343 200.863 240.193 192.458Z" fill="url(#paint5_linear_104_5509)"/>
<path d="M240.193 327.542C233.667 338.195 219.661 345.254 218.44 346C217.253 345.254 203.212 338.195 196.687 327.542C191.528 319.137 193.729 306.958 200.865 304.016C205.465 302.112 213.203 303.699 216.866 309.316C216.574 306.272 215.43 299.599 211.002 296.451H225.877C221.518 299.316 220.331 306.186 220.022 309.316C223.685 303.69 231.423 302.112 235.997 303.973C243.151 306.975 245.343 319.137 240.193 327.542Z" fill="url(#paint6_linear_104_5509)"/>
<path d="M200.193 136.458C193.667 125.805 179.661 118.746 178.44 118C177.253 118.746 163.212 125.805 156.687 136.458C151.528 144.863 153.729 157.042 160.865 159.984C165.465 161.888 173.203 160.301 176.866 154.684C176.574 157.728 175.43 164.401 171.002 167.549H185.877C181.518 164.684 180.331 157.814 180.022 154.684C183.685 160.31 191.423 161.888 195.997 160.027C203.151 157.025 205.343 144.863 200.193 136.458Z" fill="url(#paint7_linear_104_5509)"/>
<path d="M240.193 78.4576C233.667 67.805 219.661 60.7462 218.44 60C217.253 60.7462 203.212 67.805 196.687 78.4576C191.528 86.8629 193.729 99.0422 200.865 101.984C205.465 103.888 213.203 102.301 216.866 96.6835C216.574 99.7283 215.43 106.401 211.002 109.549H225.877C221.518 106.684 220.331 99.8141 220.022 96.6835C223.685 102.31 231.423 103.888 235.997 102.027C243.151 99.025 245.343 86.8629 240.193 78.4576Z" fill="url(#paint8_linear_104_5509)"/>
<defs>
<linearGradient id="paint0_linear_104_5509" x1="269" y1="202" x2="0" y2="202" gradientUnits="userSpaceOnUse">
<stop stop-color="#B4B4B4"/>
<stop offset="0.5" stop-color="#B7B3B8"/>
<stop offset="0.9999" stop-color="#F9F8F9"/>
<stop offset="1" stop-color="#B9B6BA"/>
</linearGradient>
<linearGradient id="paint1_linear_104_5509" x1="29.7475" y1="155.88" x2="93.9675" y2="155.88" gradientUnits="userSpaceOnUse">
<stop stop-color="#140F14"/>
<stop offset="0.13" stop-color="#302E32"/>
<stop offset="0.36" stop-color="#140F14"/>
<stop offset="0.62" stop-color="#302E32"/>
<stop offset="1" stop-color="#140F14"/>
</linearGradient>
<linearGradient id="paint2_linear_104_5509" x1="111.923" y1="84.7702" x2="167.14" y2="84.7702" gradientUnits="userSpaceOnUse">
<stop stop-color="#140F14"/>
<stop offset="0.13" stop-color="#302E32"/>
<stop offset="0.36" stop-color="#140F14"/>
<stop offset="0.62" stop-color="#302E32"/>
<stop offset="1" stop-color="#140F14"/>
</linearGradient>
<linearGradient id="paint3_linear_104_5509" x1="111.923" y1="198.77" x2="167.14" y2="198.77" gradientUnits="userSpaceOnUse">
<stop stop-color="#140F14"/>
<stop offset="0.13" stop-color="#302E32"/>
<stop offset="0.36" stop-color="#140F14"/>
<stop offset="0.62" stop-color="#302E32"/>
<stop offset="1" stop-color="#140F14"/>
</linearGradient>
<linearGradient id="paint4_linear_104_5509" x1="111.923" y1="321.23" x2="167.14" y2="321.23" gradientUnits="userSpaceOnUse">
<stop stop-color="#140F14"/>
<stop offset="0.13" stop-color="#302E32"/>
<stop offset="0.36" stop-color="#140F14"/>
<stop offset="0.62" stop-color="#302E32"/>
<stop offset="1" stop-color="#140F14"/>
</linearGradient>
<linearGradient id="paint5_linear_104_5509" x1="191.923" y1="198.77" x2="247.14" y2="198.77" gradientUnits="userSpaceOnUse">
<stop stop-color="#140F14"/>
<stop offset="0.13" stop-color="#302E32"/>
<stop offset="0.36" stop-color="#140F14"/>
<stop offset="0.62" stop-color="#302E32"/>
<stop offset="1" stop-color="#140F14"/>
</linearGradient>
<linearGradient id="paint6_linear_104_5509" x1="191.923" y1="321.23" x2="247.14" y2="321.23" gradientUnits="userSpaceOnUse">
<stop stop-color="#140F14"/>
<stop offset="0.13" stop-color="#302E32"/>
<stop offset="0.36" stop-color="#140F14"/>
<stop offset="0.62" stop-color="#302E32"/>
<stop offset="1" stop-color="#140F14"/>
</linearGradient>
<linearGradient id="paint7_linear_104_5509" x1="151.923" y1="142.77" x2="207.14" y2="142.77" gradientUnits="userSpaceOnUse">
<stop stop-color="#140F14"/>
<stop offset="0.13" stop-color="#302E32"/>
<stop offset="0.36" stop-color="#140F14"/>
<stop offset="0.62" stop-color="#302E32"/>
<stop offset="1" stop-color="#140F14"/>
</linearGradient>
<linearGradient id="paint8_linear_104_5509" x1="191.923" y1="84.7702" x2="247.14" y2="84.7702" gradientUnits="userSpaceOnUse">
<stop stop-color="#140F14"/>
<stop offset="0.13" stop-color="#302E32"/>
<stop offset="0.36" stop-color="#140F14"/>
<stop offset="0.62" stop-color="#302E32"/>
<stop offset="1" stop-color="#140F14"/>
</linearGradient>
</defs>
</svg>
