<svg width="269" height="404" viewBox="0 0 269 404" fill="none" xmlns="http://www.w3.org/2000/svg">
<rect x="4" y="4" width="261" height="396" rx="11" fill="url(#paint0_linear_104_5532)" stroke="#404040" stroke-width="8"/>
<path d="M61.185 32.804C65.0004 32.804 68.6708 33.4439 72.1964 34.7237C75.7461 36.0035 78.9094 38.044 81.6864 40.8452C84.4876 43.6463 86.6971 47.3651 88.315 52.0014C89.957 56.6136 90.7901 62.2763 90.8143 68.9893C90.8143 75.2919 90.1019 80.9183 88.6772 85.8686C87.2766 90.7947 85.2603 94.9844 82.6282 98.4375C79.9961 101.891 76.8207 104.523 73.1019 106.334C69.3832 108.121 65.2298 109.014 60.6417 109.014C55.6914 109.014 51.3207 108.06 47.5295 106.153C43.7383 104.221 40.6836 101.601 38.3654 98.2926C36.0714 94.9602 34.6829 91.2173 34.1999 87.0639H49.6665C50.2702 89.7685 51.538 91.8693 53.4698 93.3665C55.4016 94.8395 57.7923 95.576 60.6417 95.576C65.4712 95.576 69.1417 93.4751 71.6531 89.2734C74.1644 85.0476 75.4322 79.2642 75.4563 71.9233H74.9492C73.8384 74.0966 72.3413 75.968 70.4577 77.5376C68.5742 79.0831 66.413 80.2784 63.9741 81.1236C61.5593 81.9688 58.9876 82.3913 56.2589 82.3913C51.8881 82.3913 47.9883 81.3651 44.5593 79.3125C41.1303 77.2599 38.4258 74.4347 36.4457 70.8366C34.4656 67.2386 33.4755 63.1335 33.4755 58.5213C33.4513 53.5469 34.5984 49.1158 36.9165 45.228C39.2347 41.3402 42.4705 38.2976 46.6239 36.1001C50.8015 33.8785 55.6552 32.7798 61.185 32.804ZM61.2937 45.1193C58.8548 45.1193 56.6815 45.6989 54.7738 46.858C52.8903 48.017 51.3931 49.5746 50.2823 51.5305C49.1957 53.4865 48.6644 55.6719 48.6886 58.0866C48.6886 60.5256 49.2198 62.723 50.2823 64.679C51.369 66.6108 52.842 68.1562 54.7014 69.3153C56.5849 70.4503 58.734 71.0178 61.1488 71.0178C62.9599 71.0178 64.6381 70.6797 66.1836 70.0035C67.729 69.3274 69.0692 68.3977 70.2042 67.2145C71.3633 66.0071 72.2688 64.6186 72.9208 63.049C73.5728 61.4794 73.8988 59.8132 73.8988 58.0504C73.8746 55.7081 73.3192 53.5589 72.2326 51.603C71.146 49.647 69.6488 48.0774 67.7411 46.8942C65.8335 45.7109 63.6843 45.1193 61.2937 45.1193Z" fill="#1F1D1D"/>
<path d="M85.8875 148.52C78.2975 136.1 62.0075 127.87 60.5875 127C59.2075 127.87 42.8775 136.1 35.2875 148.52C29.2875 158.32 31.8475 172.52 40.1475 175.95C45.4975 178.17 54.4975 176.32 58.7575 169.77C58.4175 173.32 57.0875 181.1 51.9375 184.77H69.2375C64.1675 181.43 62.7875 173.42 62.4275 169.77C66.6875 176.33 75.6875 178.17 81.0075 176C89.3275 172.5 91.8775 158.32 85.8875 148.52Z" fill="url(#paint1_linear_104_5532)"/>
<path d="M163.193 78.4576C156.667 67.805 142.661 60.7462 141.44 60C140.253 60.7462 126.212 67.805 119.687 78.4576C114.528 86.8629 116.729 99.0422 123.865 101.984C128.465 103.888 136.203 102.301 139.866 96.6835C139.574 99.7283 138.43 106.401 134.002 109.549H148.877C144.518 106.684 143.331 99.8141 143.022 96.6835C146.685 102.31 154.423 103.888 158.997 102.027C166.151 99.025 168.343 86.8629 163.193 78.4576Z" fill="url(#paint2_linear_104_5532)"/>
<path d="M163.193 327.542C156.667 338.195 142.661 345.254 141.44 346C140.253 345.254 126.212 338.195 119.687 327.542C114.528 319.137 116.729 306.958 123.865 304.016C128.465 302.112 136.203 303.699 139.866 309.316C139.574 306.272 138.43 299.599 134.002 296.451H148.877C144.518 299.316 143.331 306.186 143.022 309.316C146.685 303.69 154.423 302.112 158.997 303.973C166.151 306.975 168.343 319.137 163.193 327.542Z" fill="url(#paint3_linear_104_5532)"/>
<path d="M163.193 143.458C156.667 132.805 142.661 125.746 141.44 125C140.253 125.746 126.212 132.805 119.687 143.458C114.528 151.863 116.729 164.042 123.865 166.984C128.465 168.888 136.203 167.301 139.866 161.684C139.574 164.728 138.43 171.401 134.002 174.549H148.877C144.518 171.684 143.331 164.814 143.022 161.684C146.685 167.31 154.423 168.888 158.997 167.027C166.151 164.025 168.343 151.863 163.193 143.458Z" fill="url(#paint4_linear_104_5532)"/>
<path d="M163.193 262.542C156.667 273.195 142.661 280.254 141.44 281C140.253 280.254 126.212 273.195 119.687 262.542C114.528 254.137 116.729 241.958 123.865 239.016C128.465 237.112 136.203 238.699 139.866 244.316C139.574 241.272 138.43 234.599 134.002 231.451H148.877C144.518 234.316 143.331 241.186 143.022 244.316C146.685 238.69 154.423 237.112 158.997 238.973C166.151 241.975 168.343 254.137 163.193 262.542Z" fill="url(#paint5_linear_104_5532)"/>
<path d="M240.193 143.458C233.667 132.805 219.661 125.746 218.44 125C217.253 125.746 203.212 132.805 196.687 143.458C191.528 151.863 193.729 164.042 200.865 166.984C205.465 168.888 213.203 167.301 216.866 161.684C216.574 164.728 215.43 171.401 211.002 174.549H225.877C221.518 171.684 220.331 164.814 220.022 161.684C223.685 167.31 231.423 168.888 235.997 167.027C243.151 164.025 245.343 151.863 240.193 143.458Z" fill="url(#paint6_linear_104_5532)"/>
<path d="M240.193 262.542C233.667 273.195 219.661 280.254 218.44 281C217.253 280.254 203.212 273.195 196.687 262.542C191.528 254.137 193.729 241.958 200.865 239.016C205.465 237.112 213.203 238.699 216.866 244.316C216.574 241.272 215.43 234.599 211.002 231.451H225.877C221.518 234.316 220.331 241.186 220.022 244.316C223.685 238.69 231.423 237.112 235.997 238.973C243.151 241.975 245.343 254.137 240.193 262.542Z" fill="url(#paint7_linear_104_5532)"/>
<path d="M201.193 197.458C194.667 186.805 180.661 179.746 179.44 179C178.253 179.746 164.212 186.805 157.687 197.458C152.528 205.863 154.729 218.042 161.865 220.984C166.465 222.888 174.203 221.301 177.866 215.684C177.574 218.728 176.43 225.401 172.002 228.549H186.877C182.518 225.684 181.331 218.814 181.022 215.684C184.685 221.31 192.423 222.888 196.997 221.027C204.151 218.025 206.343 205.863 201.193 197.458Z" fill="url(#paint8_linear_104_5532)"/>
<path d="M240.193 78.4576C233.667 67.805 219.661 60.7462 218.44 60C217.253 60.7462 203.212 67.805 196.687 78.4576C191.528 86.8629 193.729 99.0422 200.865 101.984C205.465 103.888 213.203 102.301 216.866 96.6835C216.574 99.7283 215.43 106.401 211.002 109.549H225.877C221.518 106.684 220.331 99.8141 220.022 96.6835C223.685 102.31 231.423 103.888 235.997 102.027C243.151 99.025 245.343 86.8629 240.193 78.4576Z" fill="url(#paint9_linear_104_5532)"/>
<path d="M240.193 327.542C233.667 338.195 219.661 345.254 218.44 346C217.253 345.254 203.212 338.195 196.687 327.542C191.528 319.137 193.729 306.958 200.865 304.016C205.465 302.112 213.203 303.699 216.866 309.316C216.574 306.272 215.43 299.599 211.002 296.451H225.877C221.518 299.316 220.331 306.186 220.022 309.316C223.685 303.69 231.423 302.112 235.997 303.973C243.151 306.975 245.343 319.137 240.193 327.542Z" fill="url(#paint10_linear_104_5532)"/>
<defs>
<linearGradient id="paint0_linear_104_5532" x1="269" y1="202" x2="0" y2="202" gradientUnits="userSpaceOnUse">
<stop stop-color="#B4B4B4"/>
<stop offset="0.5" stop-color="#B7B3B8"/>
<stop offset="0.9999" stop-color="#F9F8F9"/>
<stop offset="1" stop-color="#B9B6BA"/>
</linearGradient>
<linearGradient id="paint1_linear_104_5532" x1="29.7475" y1="155.88" x2="93.9675" y2="155.88" gradientUnits="userSpaceOnUse">
<stop stop-color="#140F14"/>
<stop offset="0.13" stop-color="#302E32"/>
<stop offset="0.36" stop-color="#140F14"/>
<stop offset="0.62" stop-color="#302E32"/>
<stop offset="1" stop-color="#140F14"/>
</linearGradient>
<linearGradient id="paint2_linear_104_5532" x1="114.923" y1="84.7702" x2="170.14" y2="84.7702" gradientUnits="userSpaceOnUse">
<stop stop-color="#140F14"/>
<stop offset="0.13" stop-color="#302E32"/>
<stop offset="0.36" stop-color="#140F14"/>
<stop offset="0.62" stop-color="#302E32"/>
<stop offset="1" stop-color="#140F14"/>
</linearGradient>
<linearGradient id="paint3_linear_104_5532" x1="114.923" y1="321.23" x2="170.14" y2="321.23" gradientUnits="userSpaceOnUse">
<stop stop-color="#140F14"/>
<stop offset="0.13" stop-color="#302E32"/>
<stop offset="0.36" stop-color="#140F14"/>
<stop offset="0.62" stop-color="#302E32"/>
<stop offset="1" stop-color="#140F14"/>
</linearGradient>
<linearGradient id="paint4_linear_104_5532" x1="114.923" y1="149.77" x2="170.14" y2="149.77" gradientUnits="userSpaceOnUse">
<stop stop-color="#140F14"/>
<stop offset="0.13" stop-color="#302E32"/>
<stop offset="0.36" stop-color="#140F14"/>
<stop offset="0.62" stop-color="#302E32"/>
<stop offset="1" stop-color="#140F14"/>
</linearGradient>
<linearGradient id="paint5_linear_104_5532" x1="114.923" y1="256.23" x2="170.14" y2="256.23" gradientUnits="userSpaceOnUse">
<stop stop-color="#140F14"/>
<stop offset="0.13" stop-color="#302E32"/>
<stop offset="0.36" stop-color="#140F14"/>
<stop offset="0.62" stop-color="#302E32"/>
<stop offset="1" stop-color="#140F14"/>
</linearGradient>
<linearGradient id="paint6_linear_104_5532" x1="191.923" y1="149.77" x2="247.14" y2="149.77" gradientUnits="userSpaceOnUse">
<stop stop-color="#140F14"/>
<stop offset="0.13" stop-color="#302E32"/>
<stop offset="0.36" stop-color="#140F14"/>
<stop offset="0.62" stop-color="#302E32"/>
<stop offset="1" stop-color="#140F14"/>
</linearGradient>
<linearGradient id="paint7_linear_104_5532" x1="191.923" y1="256.23" x2="247.14" y2="256.23" gradientUnits="userSpaceOnUse">
<stop stop-color="#140F14"/>
<stop offset="0.13" stop-color="#302E32"/>
<stop offset="0.36" stop-color="#140F14"/>
<stop offset="0.62" stop-color="#302E32"/>
<stop offset="1" stop-color="#140F14"/>
</linearGradient>
<linearGradient id="paint8_linear_104_5532" x1="152.923" y1="203.77" x2="208.14" y2="203.77" gradientUnits="userSpaceOnUse">
<stop stop-color="#140F14"/>
<stop offset="0.13" stop-color="#302E32"/>
<stop offset="0.36" stop-color="#140F14"/>
<stop offset="0.62" stop-color="#302E32"/>
<stop offset="1" stop-color="#140F14"/>
</linearGradient>
<linearGradient id="paint9_linear_104_5532" x1="191.923" y1="84.7702" x2="247.14" y2="84.7702" gradientUnits="userSpaceOnUse">
<stop stop-color="#140F14"/>
<stop offset="0.13" stop-color="#302E32"/>
<stop offset="0.36" stop-color="#140F14"/>
<stop offset="0.62" stop-color="#302E32"/>
<stop offset="1" stop-color="#140F14"/>
</linearGradient>
<linearGradient id="paint10_linear_104_5532" x1="191.923" y1="321.23" x2="247.14" y2="321.23" gradientUnits="userSpaceOnUse">
<stop stop-color="#140F14"/>
<stop offset="0.13" stop-color="#302E32"/>
<stop offset="0.36" stop-color="#140F14"/>
<stop offset="0.62" stop-color="#302E32"/>
<stop offset="1" stop-color="#140F14"/>
</linearGradient>
</defs>
</svg>
